<svg xmlns="http://www.w3.org/2000/svg" width="850" height="340" viewBox="0 0 850 340">
  <defs>
    <linearGradient id="areaFill" x1="0" y1="0" x2="0" y2="1">
      <stop offset="0%" stop-color="#58a6ff" stop-opacity="0.45"/>
      <stop offset="100%" stop-color="#58a6ff" stop-opacity="0"/>
    </linearGradient>
  </defs>

  <!-- Background -->
  <rect width="100%" height="100%" fill="#0d1117" rx="8"/>

  <!-- Title -->
  <text x="425" y="33" font-family="'Segoe UI', Arial, sans-serif" font-size="17" fill="#F2C811" text-anchor="middle" font-weight="bold">pbi-cli Downloads Over Time</text>
  <text x="425" y="52" font-family="'Segoe UI', Arial, sans-serif" font-size="11" fill="#8b949e" text-anchor="middle">Cumulative installs from PyPI • mirrors excluded • source: pypistats.org</text>

  <!-- Gridlines & y-labels -->
  <line x1="70" y1="280.0" x2="810" y2="280.0" stroke="#21262d" stroke-width="1" stroke-dasharray="2,3"/><line x1="70" y1="239.6" x2="810" y2="239.6" stroke="#21262d" stroke-width="1" stroke-dasharray="2,3"/><line x1="70" y1="199.2" x2="810" y2="199.2" stroke="#21262d" stroke-width="1" stroke-dasharray="2,3"/><line x1="70" y1="158.8" x2="810" y2="158.8" stroke="#21262d" stroke-width="1" stroke-dasharray="2,3"/><line x1="70" y1="118.4" x2="810" y2="118.4" stroke="#21262d" stroke-width="1" stroke-dasharray="2,3"/><line x1="70" y1="78.0" x2="810" y2="78.0" stroke="#21262d" stroke-width="1" stroke-dasharray="2,3"/>
  <text x="62" y="284.0" font-family="'Segoe UI', Arial, sans-serif" font-size="10" fill="#8b949e" text-anchor="end">0</text><text x="62" y="243.6" font-family="'Segoe UI', Arial, sans-serif" font-size="10" fill="#8b949e" text-anchor="end">10,000</text><text x="62" y="203.2" font-family="'Segoe UI', Arial, sans-serif" font-size="10" fill="#8b949e" text-anchor="end">20,000</text><text x="62" y="162.8" font-family="'Segoe UI', Arial, sans-serif" font-size="10" fill="#8b949e" text-anchor="end">30,000</text><text x="62" y="122.4" font-family="'Segoe UI', Arial, sans-serif" font-size="10" fill="#8b949e" text-anchor="end">40,000</text><text x="62" y="82.0" font-family="'Segoe UI', Arial, sans-serif" font-size="10" fill="#8b949e" text-anchor="end">50,000</text>

  <!-- Area fill -->
  <path d="M 70.00,280 L 70.00,277.55 L 78.41,276.48 L 86.82,276.35 L 95.23,276.32 L 103.64,276.19 L 112.05,276.12 L 120.45,275.99 L 128.86,275.68 L 137.27,275.03 L 145.68,274.68 L 154.09,273.50 L 162.50,272.68 L 170.91,270.25 L 179.32,269.27 L 187.73,268.68 L 196.14,268.09 L 204.55,267.94 L 212.95,267.59 L 221.36,267.03 L 229.77,266.11 L 238.18,265.79 L 246.59,265.31 L 255.00,264.84 L 263.41,264.68 L 271.82,264.50 L 280.23,263.90 L 288.64,263.53 L 297.05,263.00 L 305.45,262.62 L 313.86,262.39 L 322.27,262.13 L 330.68,261.78 L 339.09,261.38 L 347.50,260.88 L 355.91,260.38 L 364.32,259.91 L 372.73,259.46 L 381.14,259.30 L 389.55,258.68 L 397.95,257.79 L 406.36,256.75 L 414.77,255.44 L 423.18,252.80 L 431.59,251.03 L 440.00,250.09 L 448.41,249.29 L 456.82,247.10 L 465.23,245.24 L 473.64,243.53 L 482.05,241.59 L 490.45,240.05 L 498.86,239.15 L 507.27,237.85 L 515.68,236.53 L 524.09,234.24 L 532.50,232.42 L 540.91,230.21 L 549.32,228.72 L 557.73,227.70 L 566.14,226.90 L 574.55,226.13 L 582.95,224.51 L 591.36,222.79 L 599.77,221.21 L 608.18,220.03 L 616.59,219.45 L 625.00,218.76 L 633.41,217.41 L 641.82,216.31 L 650.23,214.88 L 658.64,213.65 L 667.05,212.43 L 675.45,211.24 L 683.86,210.76 L 692.27,209.87 L 700.68,208.48 L 709.09,206.68 L 717.50,205.31 L 725.91,204.29 L 734.32,203.29 L 742.73,201.89 L 751.14,200.38 L 759.55,198.80 L 767.95,195.99 L 776.36,195.06 L 784.77,194.50 L 793.18,193.74 L 801.59,192.10 L 810.00,190.78 L 810.00,280 Z" fill="url(#areaFill)"/>

  <!-- Line -->
  <path d="M 70.00,277.55 L 78.41,276.48 L 86.82,276.35 L 95.23,276.32 L 103.64,276.19 L 112.05,276.12 L 120.45,275.99 L 128.86,275.68 L 137.27,275.03 L 145.68,274.68 L 154.09,273.50 L 162.50,272.68 L 170.91,270.25 L 179.32,269.27 L 187.73,268.68 L 196.14,268.09 L 204.55,267.94 L 212.95,267.59 L 221.36,267.03 L 229.77,266.11 L 238.18,265.79 L 246.59,265.31 L 255.00,264.84 L 263.41,264.68 L 271.82,264.50 L 280.23,263.90 L 288.64,263.53 L 297.05,263.00 L 305.45,262.62 L 313.86,262.39 L 322.27,262.13 L 330.68,261.78 L 339.09,261.38 L 347.50,260.88 L 355.91,260.38 L 364.32,259.91 L 372.73,259.46 L 381.14,259.30 L 389.55,258.68 L 397.95,257.79 L 406.36,256.75 L 414.77,255.44 L 423.18,252.80 L 431.59,251.03 L 440.00,250.09 L 448.41,249.29 L 456.82,247.10 L 465.23,245.24 L 473.64,243.53 L 482.05,241.59 L 490.45,240.05 L 498.86,239.15 L 507.27,237.85 L 515.68,236.53 L 524.09,234.24 L 532.50,232.42 L 540.91,230.21 L 549.32,228.72 L 557.73,227.70 L 566.14,226.90 L 574.55,226.13 L 582.95,224.51 L 591.36,222.79 L 599.77,221.21 L 608.18,220.03 L 616.59,219.45 L 625.00,218.76 L 633.41,217.41 L 641.82,216.31 L 650.23,214.88 L 658.64,213.65 L 667.05,212.43 L 675.45,211.24 L 683.86,210.76 L 692.27,209.87 L 700.68,208.48 L 709.09,206.68 L 717.50,205.31 L 725.91,204.29 L 734.32,203.29 L 742.73,201.89 L 751.14,200.38 L 759.55,198.80 L 767.95,195.99 L 776.36,195.06 L 784.77,194.50 L 793.18,193.74 L 801.59,192.10 L 810.00,190.78" fill="none" stroke="#58a6ff" stroke-width="2.5" stroke-linejoin="round" stroke-linecap="round"/>

  <!-- Data points -->
  <circle cx="70.00" cy="277.55" r="2.5" fill="#58a6ff"/><circle cx="78.41" cy="276.48" r="2.5" fill="#58a6ff"/><circle cx="86.82" cy="276.35" r="2.5" fill="#58a6ff"/><circle cx="95.23" cy="276.32" r="2.5" fill="#58a6ff"/><circle cx="103.64" cy="276.19" r="2.5" fill="#58a6ff"/><circle cx="112.05" cy="276.12" r="2.5" fill="#58a6ff"/><circle cx="120.45" cy="275.99" r="2.5" fill="#58a6ff"/><circle cx="128.86" cy="275.68" r="2.5" fill="#58a6ff"/><circle cx="137.27" cy="275.03" r="2.5" fill="#58a6ff"/><circle cx="145.68" cy="274.68" r="2.5" fill="#58a6ff"/><circle cx="154.09" cy="273.50" r="2.5" fill="#58a6ff"/><circle cx="162.50" cy="272.68" r="2.5" fill="#58a6ff"/><circle cx="170.91" cy="270.25" r="2.5" fill="#58a6ff"/><circle cx="179.32" cy="269.27" r="2.5" fill="#58a6ff"/><circle cx="187.73" cy="268.68" r="2.5" fill="#58a6ff"/><circle cx="196.14" cy="268.09" r="2.5" fill="#58a6ff"/><circle cx="204.55" cy="267.94" r="2.5" fill="#58a6ff"/><circle cx="212.95" cy="267.59" r="2.5" fill="#58a6ff"/><circle cx="221.36" cy="267.03" r="2.5" fill="#58a6ff"/><circle cx="229.77" cy="266.11" r="2.5" fill="#58a6ff"/><circle cx="238.18" cy="265.79" r="2.5" fill="#58a6ff"/><circle cx="246.59" cy="265.31" r="2.5" fill="#58a6ff"/><circle cx="255.00" cy="264.84" r="2.5" fill="#58a6ff"/><circle cx="263.41" cy="264.68" r="2.5" fill="#58a6ff"/><circle cx="271.82" cy="264.50" r="2.5" fill="#58a6ff"/><circle cx="280.23" cy="263.90" r="2.5" fill="#58a6ff"/><circle cx="288.64" cy="263.53" r="2.5" fill="#58a6ff"/><circle cx="297.05" cy="263.00" r="2.5" fill="#58a6ff"/><circle cx="305.45" cy="262.62" r="2.5" fill="#58a6ff"/><circle cx="313.86" cy="262.39" r="2.5" fill="#58a6ff"/><circle cx="322.27" cy="262.13" r="2.5" fill="#58a6ff"/><circle cx="330.68" cy="261.78" r="2.5" fill="#58a6ff"/><circle cx="339.09" cy="261.38" r="2.5" fill="#58a6ff"/><circle cx="347.50" cy="260.88" r="2.5" fill="#58a6ff"/><circle cx="355.91" cy="260.38" r="2.5" fill="#58a6ff"/><circle cx="364.32" cy="259.91" r="2.5" fill="#58a6ff"/><circle cx="372.73" cy="259.46" r="2.5" fill="#58a6ff"/><circle cx="381.14" cy="259.30" r="2.5" fill="#58a6ff"/><circle cx="389.55" cy="258.68" r="2.5" fill="#58a6ff"/><circle cx="397.95" cy="257.79" r="2.5" fill="#58a6ff"/><circle cx="406.36" cy="256.75" r="2.5" fill="#58a6ff"/><circle cx="414.77" cy="255.44" r="2.5" fill="#58a6ff"/><circle cx="423.18" cy="252.80" r="2.5" fill="#58a6ff"/><circle cx="431.59" cy="251.03" r="2.5" fill="#58a6ff"/><circle cx="440.00" cy="250.09" r="2.5" fill="#58a6ff"/><circle cx="448.41" cy="249.29" r="2.5" fill="#58a6ff"/><circle cx="456.82" cy="247.10" r="2.5" fill="#58a6ff"/><circle cx="465.23" cy="245.24" r="2.5" fill="#58a6ff"/><circle cx="473.64" cy="243.53" r="2.5" fill="#58a6ff"/><circle cx="482.05" cy="241.59" r="2.5" fill="#58a6ff"/><circle cx="490.45" cy="240.05" r="2.5" fill="#58a6ff"/><circle cx="498.86" cy="239.15" r="2.5" fill="#58a6ff"/><circle cx="507.27" cy="237.85" r="2.5" fill="#58a6ff"/><circle cx="515.68" cy="236.53" r="2.5" fill="#58a6ff"/><circle cx="524.09" cy="234.24" r="2.5" fill="#58a6ff"/><circle cx="532.50" cy="232.42" r="2.5" fill="#58a6ff"/><circle cx="540.91" cy="230.21" r="2.5" fill="#58a6ff"/><circle cx="549.32" cy="228.72" r="2.5" fill="#58a6ff"/><circle cx="557.73" cy="227.70" r="2.5" fill="#58a6ff"/><circle cx="566.14" cy="226.90" r="2.5" fill="#58a6ff"/><circle cx="574.55" cy="226.13" r="2.5" fill="#58a6ff"/><circle cx="582.95" cy="224.51" r="2.5" fill="#58a6ff"/><circle cx="591.36" cy="222.79" r="2.5" fill="#58a6ff"/><circle cx="599.77" cy="221.21" r="2.5" fill="#58a6ff"/><circle cx="608.18" cy="220.03" r="2.5" fill="#58a6ff"/><circle cx="616.59" cy="219.45" r="2.5" fill="#58a6ff"/><circle cx="625.00" cy="218.76" r="2.5" fill="#58a6ff"/><circle cx="633.41" cy="217.41" r="2.5" fill="#58a6ff"/><circle cx="641.82" cy="216.31" r="2.5" fill="#58a6ff"/><circle cx="650.23" cy="214.88" r="2.5" fill="#58a6ff"/><circle cx="658.64" cy="213.65" r="2.5" fill="#58a6ff"/><circle cx="667.05" cy="212.43" r="2.5" fill="#58a6ff"/><circle cx="675.45" cy="211.24" r="2.5" fill="#58a6ff"/><circle cx="683.86" cy="210.76" r="2.5" fill="#58a6ff"/><circle cx="692.27" cy="209.87" r="2.5" fill="#58a6ff"/><circle cx="700.68" cy="208.48" r="2.5" fill="#58a6ff"/><circle cx="709.09" cy="206.68" r="2.5" fill="#58a6ff"/><circle cx="717.50" cy="205.31" r="2.5" fill="#58a6ff"/><circle cx="725.91" cy="204.29" r="2.5" fill="#58a6ff"/><circle cx="734.32" cy="203.29" r="2.5" fill="#58a6ff"/><circle cx="742.73" cy="201.89" r="2.5" fill="#58a6ff"/><circle cx="751.14" cy="200.38" r="2.5" fill="#58a6ff"/><circle cx="759.55" cy="198.80" r="2.5" fill="#58a6ff"/><circle cx="767.95" cy="195.99" r="2.5" fill="#58a6ff"/><circle cx="776.36" cy="195.06" r="2.5" fill="#58a6ff"/><circle cx="784.77" cy="194.50" r="2.5" fill="#58a6ff"/><circle cx="793.18" cy="193.74" r="2.5" fill="#58a6ff"/><circle cx="801.59" cy="192.10" r="2.5" fill="#58a6ff"/><circle cx="810.00" cy="190.78" r="4" fill="#F2C811"/>

  <!-- Last-value callout -->
  <rect x="720.0" y="162.8" width="82" height="24" rx="4" fill="#0d1a2a" stroke="#F2C811" stroke-width="1"/>
  <text x="761.0" y="178.8" font-family="'Segoe UI', Arial, sans-serif" font-size="12" fill="#F2C811" text-anchor="middle" font-weight="bold">22,083 total</text>

  <!-- X-axis labels -->
  <text x="70.0" y="298" font-family="'Segoe UI', Arial, sans-serif" font-size="10" fill="#8b949e" text-anchor="middle">Mar 26</text><text x="255.0" y="298" font-family="'Segoe UI', Arial, sans-serif" font-size="10" fill="#8b949e" text-anchor="middle">Apr 17</text><text x="440.0" y="298" font-family="'Segoe UI', Arial, sans-serif" font-size="10" fill="#8b949e" text-anchor="middle">May 09</text><text x="625.0" y="298" font-family="'Segoe UI', Arial, sans-serif" font-size="10" fill="#8b949e" text-anchor="middle">May 31</text><text x="810.0" y="298" font-family="'Segoe UI', Arial, sans-serif" font-size="10" fill="#8b949e" text-anchor="middle">Jun 23</text>

  <!-- Footer: date range -->
  <text x="70" y="328" font-family="'Segoe UI', Arial, sans-serif" font-size="10" fill="#8b949e">Mar 26, 2026 → Jun 23, 2026</text>
  <text x="810" y="328" font-family="'Segoe UI', Arial, sans-serif" font-size="10" fill="#8b949e" text-anchor="end">89 days of data</text>
</svg>
