<svg xmlns="http://www.w3.org/2000/svg" width="850" height="340" viewBox="0 0 850 340">
  <defs>
    <linearGradient id="areaFill" x1="0" y1="0" x2="0" y2="1">
      <stop offset="0%" stop-color="#58a6ff" stop-opacity="0.45"/>
      <stop offset="100%" stop-color="#58a6ff" stop-opacity="0"/>
    </linearGradient>
  </defs>

  <!-- Background -->
  <rect width="100%" height="100%" fill="#0d1117" rx="8"/>

  <!-- Title -->
  <text x="425" y="33" font-family="'Segoe UI', Arial, sans-serif" font-size="17" fill="#F2C811" text-anchor="middle" font-weight="bold">pbi-cli Downloads Over Time</text>
  <text x="425" y="52" font-family="'Segoe UI', Arial, sans-serif" font-size="11" fill="#8b949e" text-anchor="middle">Cumulative installs from PyPI • mirrors excluded • source: pypistats.org</text>

  <!-- Gridlines & y-labels -->
  <line x1="70" y1="280.0" x2="810" y2="280.0" stroke="#21262d" stroke-width="1" stroke-dasharray="2,3"/><line x1="70" y1="239.6" x2="810" y2="239.6" stroke="#21262d" stroke-width="1" stroke-dasharray="2,3"/><line x1="70" y1="199.2" x2="810" y2="199.2" stroke="#21262d" stroke-width="1" stroke-dasharray="2,3"/><line x1="70" y1="158.8" x2="810" y2="158.8" stroke="#21262d" stroke-width="1" stroke-dasharray="2,3"/><line x1="70" y1="118.4" x2="810" y2="118.4" stroke="#21262d" stroke-width="1" stroke-dasharray="2,3"/><line x1="70" y1="78.0" x2="810" y2="78.0" stroke="#21262d" stroke-width="1" stroke-dasharray="2,3"/>
  <text x="62" y="284.0" font-family="'Segoe UI', Arial, sans-serif" font-size="10" fill="#8b949e" text-anchor="end">0</text><text x="62" y="243.6" font-family="'Segoe UI', Arial, sans-serif" font-size="10" fill="#8b949e" text-anchor="end">10,000</text><text x="62" y="203.2" font-family="'Segoe UI', Arial, sans-serif" font-size="10" fill="#8b949e" text-anchor="end">20,000</text><text x="62" y="162.8" font-family="'Segoe UI', Arial, sans-serif" font-size="10" fill="#8b949e" text-anchor="end">30,000</text><text x="62" y="122.4" font-family="'Segoe UI', Arial, sans-serif" font-size="10" fill="#8b949e" text-anchor="end">40,000</text><text x="62" y="82.0" font-family="'Segoe UI', Arial, sans-serif" font-size="10" fill="#8b949e" text-anchor="end">50,000</text>

  <!-- Area fill -->
  <path d="M 70.00,280 L 70.00,277.55 L 78.22,276.48 L 86.44,276.35 L 94.67,276.32 L 102.89,276.19 L 111.11,276.12 L 119.33,275.99 L 127.56,275.68 L 135.78,275.03 L 144.00,274.68 L 152.22,273.50 L 160.44,272.68 L 168.67,270.25 L 176.89,269.27 L 185.11,268.68 L 193.33,268.09 L 201.56,267.94 L 209.78,267.59 L 218.00,267.03 L 226.22,266.11 L 234.44,265.79 L 242.67,265.31 L 250.89,264.84 L 259.11,264.68 L 267.33,264.50 L 275.56,263.90 L 283.78,263.53 L 292.00,263.00 L 300.22,262.62 L 308.44,262.39 L 316.67,262.13 L 324.89,261.78 L 333.11,261.38 L 341.33,260.88 L 349.56,260.38 L 357.78,259.91 L 366.00,259.46 L 374.22,259.30 L 382.44,258.68 L 390.67,257.79 L 398.89,256.75 L 407.11,255.44 L 415.33,252.80 L 423.56,251.03 L 431.78,250.09 L 440.00,249.29 L 448.22,247.10 L 456.44,245.24 L 464.67,243.53 L 472.89,241.59 L 481.11,240.05 L 489.33,239.15 L 497.56,237.85 L 505.78,236.53 L 514.00,234.24 L 522.22,232.42 L 530.44,230.21 L 538.67,228.72 L 546.89,227.70 L 555.11,226.90 L 563.33,226.13 L 571.56,224.51 L 579.78,222.79 L 588.00,221.21 L 596.22,220.03 L 604.44,219.45 L 612.67,218.76 L 620.89,217.41 L 629.11,216.31 L 637.33,214.88 L 645.56,213.65 L 653.78,212.43 L 662.00,211.24 L 670.22,210.76 L 678.44,209.87 L 686.67,208.48 L 694.89,206.68 L 703.11,205.31 L 711.33,204.29 L 719.56,203.29 L 727.78,201.89 L 736.00,200.38 L 744.22,198.80 L 752.44,195.99 L 760.67,195.06 L 768.89,194.50 L 777.11,193.74 L 785.33,192.10 L 793.56,190.78 L 801.78,189.57 L 810.00,188.45 L 810.00,280 Z" fill="url(#areaFill)"/>

  <!-- Line -->
  <path d="M 70.00,277.55 L 78.22,276.48 L 86.44,276.35 L 94.67,276.32 L 102.89,276.19 L 111.11,276.12 L 119.33,275.99 L 127.56,275.68 L 135.78,275.03 L 144.00,274.68 L 152.22,273.50 L 160.44,272.68 L 168.67,270.25 L 176.89,269.27 L 185.11,268.68 L 193.33,268.09 L 201.56,267.94 L 209.78,267.59 L 218.00,267.03 L 226.22,266.11 L 234.44,265.79 L 242.67,265.31 L 250.89,264.84 L 259.11,264.68 L 267.33,264.50 L 275.56,263.90 L 283.78,263.53 L 292.00,263.00 L 300.22,262.62 L 308.44,262.39 L 316.67,262.13 L 324.89,261.78 L 333.11,261.38 L 341.33,260.88 L 349.56,260.38 L 357.78,259.91 L 366.00,259.46 L 374.22,259.30 L 382.44,258.68 L 390.67,257.79 L 398.89,256.75 L 407.11,255.44 L 415.33,252.80 L 423.56,251.03 L 431.78,250.09 L 440.00,249.29 L 448.22,247.10 L 456.44,245.24 L 464.67,243.53 L 472.89,241.59 L 481.11,240.05 L 489.33,239.15 L 497.56,237.85 L 505.78,236.53 L 514.00,234.24 L 522.22,232.42 L 530.44,230.21 L 538.67,228.72 L 546.89,227.70 L 555.11,226.90 L 563.33,226.13 L 571.56,224.51 L 579.78,222.79 L 588.00,221.21 L 596.22,220.03 L 604.44,219.45 L 612.67,218.76 L 620.89,217.41 L 629.11,216.31 L 637.33,214.88 L 645.56,213.65 L 653.78,212.43 L 662.00,211.24 L 670.22,210.76 L 678.44,209.87 L 686.67,208.48 L 694.89,206.68 L 703.11,205.31 L 711.33,204.29 L 719.56,203.29 L 727.78,201.89 L 736.00,200.38 L 744.22,198.80 L 752.44,195.99 L 760.67,195.06 L 768.89,194.50 L 777.11,193.74 L 785.33,192.10 L 793.56,190.78 L 801.78,189.57 L 810.00,188.45" fill="none" stroke="#58a6ff" stroke-width="2.5" stroke-linejoin="round" stroke-linecap="round"/>

  <!-- Data points -->
  <circle cx="70.00" cy="277.55" r="2.5" fill="#58a6ff"/><circle cx="78.22" cy="276.48" r="2.5" fill="#58a6ff"/><circle cx="86.44" cy="276.35" r="2.5" fill="#58a6ff"/><circle cx="94.67" cy="276.32" r="2.5" fill="#58a6ff"/><circle cx="102.89" cy="276.19" r="2.5" fill="#58a6ff"/><circle cx="111.11" cy="276.12" r="2.5" fill="#58a6ff"/><circle cx="119.33" cy="275.99" r="2.5" fill="#58a6ff"/><circle cx="127.56" cy="275.68" r="2.5" fill="#58a6ff"/><circle cx="135.78" cy="275.03" r="2.5" fill="#58a6ff"/><circle cx="144.00" cy="274.68" r="2.5" fill="#58a6ff"/><circle cx="152.22" cy="273.50" r="2.5" fill="#58a6ff"/><circle cx="160.44" cy="272.68" r="2.5" fill="#58a6ff"/><circle cx="168.67" cy="270.25" r="2.5" fill="#58a6ff"/><circle cx="176.89" cy="269.27" r="2.5" fill="#58a6ff"/><circle cx="185.11" cy="268.68" r="2.5" fill="#58a6ff"/><circle cx="193.33" cy="268.09" r="2.5" fill="#58a6ff"/><circle cx="201.56" cy="267.94" r="2.5" fill="#58a6ff"/><circle cx="209.78" cy="267.59" r="2.5" fill="#58a6ff"/><circle cx="218.00" cy="267.03" r="2.5" fill="#58a6ff"/><circle cx="226.22" cy="266.11" r="2.5" fill="#58a6ff"/><circle cx="234.44" cy="265.79" r="2.5" fill="#58a6ff"/><circle cx="242.67" cy="265.31" r="2.5" fill="#58a6ff"/><circle cx="250.89" cy="264.84" r="2.5" fill="#58a6ff"/><circle cx="259.11" cy="264.68" r="2.5" fill="#58a6ff"/><circle cx="267.33" cy="264.50" r="2.5" fill="#58a6ff"/><circle cx="275.56" cy="263.90" r="2.5" fill="#58a6ff"/><circle cx="283.78" cy="263.53" r="2.5" fill="#58a6ff"/><circle cx="292.00" cy="263.00" r="2.5" fill="#58a6ff"/><circle cx="300.22" cy="262.62" r="2.5" fill="#58a6ff"/><circle cx="308.44" cy="262.39" r="2.5" fill="#58a6ff"/><circle cx="316.67" cy="262.13" r="2.5" fill="#58a6ff"/><circle cx="324.89" cy="261.78" r="2.5" fill="#58a6ff"/><circle cx="333.11" cy="261.38" r="2.5" fill="#58a6ff"/><circle cx="341.33" cy="260.88" r="2.5" fill="#58a6ff"/><circle cx="349.56" cy="260.38" r="2.5" fill="#58a6ff"/><circle cx="357.78" cy="259.91" r="2.5" fill="#58a6ff"/><circle cx="366.00" cy="259.46" r="2.5" fill="#58a6ff"/><circle cx="374.22" cy="259.30" r="2.5" fill="#58a6ff"/><circle cx="382.44" cy="258.68" r="2.5" fill="#58a6ff"/><circle cx="390.67" cy="257.79" r="2.5" fill="#58a6ff"/><circle cx="398.89" cy="256.75" r="2.5" fill="#58a6ff"/><circle cx="407.11" cy="255.44" r="2.5" fill="#58a6ff"/><circle cx="415.33" cy="252.80" r="2.5" fill="#58a6ff"/><circle cx="423.56" cy="251.03" r="2.5" fill="#58a6ff"/><circle cx="431.78" cy="250.09" r="2.5" fill="#58a6ff"/><circle cx="440.00" cy="249.29" r="2.5" fill="#58a6ff"/><circle cx="448.22" cy="247.10" r="2.5" fill="#58a6ff"/><circle cx="456.44" cy="245.24" r="2.5" fill="#58a6ff"/><circle cx="464.67" cy="243.53" r="2.5" fill="#58a6ff"/><circle cx="472.89" cy="241.59" r="2.5" fill="#58a6ff"/><circle cx="481.11" cy="240.05" r="2.5" fill="#58a6ff"/><circle cx="489.33" cy="239.15" r="2.5" fill="#58a6ff"/><circle cx="497.56" cy="237.85" r="2.5" fill="#58a6ff"/><circle cx="505.78" cy="236.53" r="2.5" fill="#58a6ff"/><circle cx="514.00" cy="234.24" r="2.5" fill="#58a6ff"/><circle cx="522.22" cy="232.42" r="2.5" fill="#58a6ff"/><circle cx="530.44" cy="230.21" r="2.5" fill="#58a6ff"/><circle cx="538.67" cy="228.72" r="2.5" fill="#58a6ff"/><circle cx="546.89" cy="227.70" r="2.5" fill="#58a6ff"/><circle cx="555.11" cy="226.90" r="2.5" fill="#58a6ff"/><circle cx="563.33" cy="226.13" r="2.5" fill="#58a6ff"/><circle cx="571.56" cy="224.51" r="2.5" fill="#58a6ff"/><circle cx="579.78" cy="222.79" r="2.5" fill="#58a6ff"/><circle cx="588.00" cy="221.21" r="2.5" fill="#58a6ff"/><circle cx="596.22" cy="220.03" r="2.5" fill="#58a6ff"/><circle cx="604.44" cy="219.45" r="2.5" fill="#58a6ff"/><circle cx="612.67" cy="218.76" r="2.5" fill="#58a6ff"/><circle cx="620.89" cy="217.41" r="2.5" fill="#58a6ff"/><circle cx="629.11" cy="216.31" r="2.5" fill="#58a6ff"/><circle cx="637.33" cy="214.88" r="2.5" fill="#58a6ff"/><circle cx="645.56" cy="213.65" r="2.5" fill="#58a6ff"/><circle cx="653.78" cy="212.43" r="2.5" fill="#58a6ff"/><circle cx="662.00" cy="211.24" r="2.5" fill="#58a6ff"/><circle cx="670.22" cy="210.76" r="2.5" fill="#58a6ff"/><circle cx="678.44" cy="209.87" r="2.5" fill="#58a6ff"/><circle cx="686.67" cy="208.48" r="2.5" fill="#58a6ff"/><circle cx="694.89" cy="206.68" r="2.5" fill="#58a6ff"/><circle cx="703.11" cy="205.31" r="2.5" fill="#58a6ff"/><circle cx="711.33" cy="204.29" r="2.5" fill="#58a6ff"/><circle cx="719.56" cy="203.29" r="2.5" fill="#58a6ff"/><circle cx="727.78" cy="201.89" r="2.5" fill="#58a6ff"/><circle cx="736.00" cy="200.38" r="2.5" fill="#58a6ff"/><circle cx="744.22" cy="198.80" r="2.5" fill="#58a6ff"/><circle cx="752.44" cy="195.99" r="2.5" fill="#58a6ff"/><circle cx="760.67" cy="195.06" r="2.5" fill="#58a6ff"/><circle cx="768.89" cy="194.50" r="2.5" fill="#58a6ff"/><circle cx="777.11" cy="193.74" r="2.5" fill="#58a6ff"/><circle cx="785.33" cy="192.10" r="2.5" fill="#58a6ff"/><circle cx="793.56" cy="190.78" r="2.5" fill="#58a6ff"/><circle cx="801.78" cy="189.57" r="2.5" fill="#58a6ff"/><circle cx="810.00" cy="188.45" r="4" fill="#F2C811"/>

  <!-- Last-value callout -->
  <rect x="720.0" y="160.4" width="82" height="24" rx="4" fill="#0d1a2a" stroke="#F2C811" stroke-width="1"/>
  <text x="761.0" y="176.4" font-family="'Segoe UI', Arial, sans-serif" font-size="12" fill="#F2C811" text-anchor="middle" font-weight="bold">22,662 total</text>

  <!-- X-axis labels -->
  <text x="70.0" y="298" font-family="'Segoe UI', Arial, sans-serif" font-size="10" fill="#8b949e" text-anchor="middle">Mar 26</text><text x="250.9" y="298" font-family="'Segoe UI', Arial, sans-serif" font-size="10" fill="#8b949e" text-anchor="middle">Apr 17</text><text x="440.0" y="298" font-family="'Segoe UI', Arial, sans-serif" font-size="10" fill="#8b949e" text-anchor="middle">May 10</text><text x="629.1" y="298" font-family="'Segoe UI', Arial, sans-serif" font-size="10" fill="#8b949e" text-anchor="middle">Jun 02</text><text x="810.0" y="298" font-family="'Segoe UI', Arial, sans-serif" font-size="10" fill="#8b949e" text-anchor="middle">Jun 25</text>

  <!-- Footer: date range -->
  <text x="70" y="328" font-family="'Segoe UI', Arial, sans-serif" font-size="10" fill="#8b949e">Mar 26, 2026 → Jun 25, 2026</text>
  <text x="810" y="328" font-family="'Segoe UI', Arial, sans-serif" font-size="10" fill="#8b949e" text-anchor="end">91 days of data</text>
</svg>
