<svg xmlns="http://www.w3.org/2000/svg" width="850" height="340" viewBox="0 0 850 340">
  <defs>
    <linearGradient id="areaFill" x1="0" y1="0" x2="0" y2="1">
      <stop offset="0%" stop-color="#58a6ff" stop-opacity="0.45"/>
      <stop offset="100%" stop-color="#58a6ff" stop-opacity="0"/>
    </linearGradient>
  </defs>

  <!-- Background -->
  <rect width="100%" height="100%" fill="#0d1117" rx="8"/>

  <!-- Title -->
  <text x="425" y="33" font-family="'Segoe UI', Arial, sans-serif" font-size="17" fill="#F2C811" text-anchor="middle" font-weight="bold">pbi-cli Downloads Over Time</text>
  <text x="425" y="52" font-family="'Segoe UI', Arial, sans-serif" font-size="11" fill="#8b949e" text-anchor="middle">Cumulative installs from PyPI • mirrors excluded • source: pypistats.org</text>

  <!-- Gridlines & y-labels -->
  <line x1="70" y1="280.0" x2="810" y2="280.0" stroke="#21262d" stroke-width="1" stroke-dasharray="2,3"/><line x1="70" y1="239.6" x2="810" y2="239.6" stroke="#21262d" stroke-width="1" stroke-dasharray="2,3"/><line x1="70" y1="199.2" x2="810" y2="199.2" stroke="#21262d" stroke-width="1" stroke-dasharray="2,3"/><line x1="70" y1="158.8" x2="810" y2="158.8" stroke="#21262d" stroke-width="1" stroke-dasharray="2,3"/><line x1="70" y1="118.4" x2="810" y2="118.4" stroke="#21262d" stroke-width="1" stroke-dasharray="2,3"/><line x1="70" y1="78.0" x2="810" y2="78.0" stroke="#21262d" stroke-width="1" stroke-dasharray="2,3"/>
  <text x="62" y="284.0" font-family="'Segoe UI', Arial, sans-serif" font-size="10" fill="#8b949e" text-anchor="end">0</text><text x="62" y="243.6" font-family="'Segoe UI', Arial, sans-serif" font-size="10" fill="#8b949e" text-anchor="end">5,000</text><text x="62" y="203.2" font-family="'Segoe UI', Arial, sans-serif" font-size="10" fill="#8b949e" text-anchor="end">10,000</text><text x="62" y="162.8" font-family="'Segoe UI', Arial, sans-serif" font-size="10" fill="#8b949e" text-anchor="end">15,000</text><text x="62" y="122.4" font-family="'Segoe UI', Arial, sans-serif" font-size="10" fill="#8b949e" text-anchor="end">20,000</text><text x="62" y="82.0" font-family="'Segoe UI', Arial, sans-serif" font-size="10" fill="#8b949e" text-anchor="end">25,000</text>

  <!-- Area fill -->
  <path d="M 70.00,280 L 70.00,275.10 L 78.60,272.95 L 87.21,272.70 L 95.81,272.65 L 104.42,272.38 L 113.02,272.24 L 121.63,271.98 L 130.23,271.36 L 138.84,270.07 L 147.44,269.35 L 156.05,267.01 L 164.65,265.37 L 173.26,260.50 L 181.86,258.53 L 190.47,257.35 L 199.07,256.19 L 207.67,255.89 L 216.28,255.18 L 224.88,254.06 L 233.49,252.23 L 242.09,251.57 L 250.70,250.62 L 259.30,249.68 L 267.91,249.36 L 276.51,249.01 L 285.12,247.81 L 293.72,247.06 L 302.33,246.00 L 310.93,245.24 L 319.53,244.79 L 328.14,244.25 L 336.74,243.55 L 345.35,242.75 L 353.95,241.76 L 362.56,240.76 L 371.16,239.81 L 379.77,238.92 L 388.37,238.61 L 396.98,237.35 L 405.58,235.58 L 414.19,233.50 L 422.79,230.88 L 431.40,225.61 L 440.00,222.07 L 448.60,220.18 L 457.21,218.58 L 465.81,214.20 L 474.42,210.49 L 483.02,207.05 L 491.63,203.18 L 500.23,200.10 L 508.84,198.30 L 517.44,195.70 L 526.05,193.07 L 534.65,188.48 L 543.26,184.83 L 551.86,180.41 L 560.47,177.43 L 569.07,175.40 L 577.67,173.80 L 586.28,172.25 L 594.88,169.02 L 603.49,165.59 L 612.09,162.41 L 620.70,160.05 L 629.30,158.90 L 637.91,157.52 L 646.51,154.82 L 655.12,152.63 L 663.72,149.75 L 672.33,147.30 L 680.93,144.85 L 689.53,142.47 L 698.14,141.52 L 706.74,139.75 L 715.35,136.95 L 723.95,133.36 L 732.56,130.63 L 741.16,128.57 L 749.77,126.58 L 758.37,123.78 L 766.98,120.77 L 775.58,117.61 L 784.19,111.98 L 792.79,110.12 L 801.40,108.99 L 810.00,107.48 L 810.00,280 Z" fill="url(#areaFill)"/>

  <!-- Line -->
  <path d="M 70.00,275.10 L 78.60,272.95 L 87.21,272.70 L 95.81,272.65 L 104.42,272.38 L 113.02,272.24 L 121.63,271.98 L 130.23,271.36 L 138.84,270.07 L 147.44,269.35 L 156.05,267.01 L 164.65,265.37 L 173.26,260.50 L 181.86,258.53 L 190.47,257.35 L 199.07,256.19 L 207.67,255.89 L 216.28,255.18 L 224.88,254.06 L 233.49,252.23 L 242.09,251.57 L 250.70,250.62 L 259.30,249.68 L 267.91,249.36 L 276.51,249.01 L 285.12,247.81 L 293.72,247.06 L 302.33,246.00 L 310.93,245.24 L 319.53,244.79 L 328.14,244.25 L 336.74,243.55 L 345.35,242.75 L 353.95,241.76 L 362.56,240.76 L 371.16,239.81 L 379.77,238.92 L 388.37,238.61 L 396.98,237.35 L 405.58,235.58 L 414.19,233.50 L 422.79,230.88 L 431.40,225.61 L 440.00,222.07 L 448.60,220.18 L 457.21,218.58 L 465.81,214.20 L 474.42,210.49 L 483.02,207.05 L 491.63,203.18 L 500.23,200.10 L 508.84,198.30 L 517.44,195.70 L 526.05,193.07 L 534.65,188.48 L 543.26,184.83 L 551.86,180.41 L 560.47,177.43 L 569.07,175.40 L 577.67,173.80 L 586.28,172.25 L 594.88,169.02 L 603.49,165.59 L 612.09,162.41 L 620.70,160.05 L 629.30,158.90 L 637.91,157.52 L 646.51,154.82 L 655.12,152.63 L 663.72,149.75 L 672.33,147.30 L 680.93,144.85 L 689.53,142.47 L 698.14,141.52 L 706.74,139.75 L 715.35,136.95 L 723.95,133.36 L 732.56,130.63 L 741.16,128.57 L 749.77,126.58 L 758.37,123.78 L 766.98,120.77 L 775.58,117.61 L 784.19,111.98 L 792.79,110.12 L 801.40,108.99 L 810.00,107.48" fill="none" stroke="#58a6ff" stroke-width="2.5" stroke-linejoin="round" stroke-linecap="round"/>

  <!-- Data points -->
  <circle cx="70.00" cy="275.10" r="2.5" fill="#58a6ff"/><circle cx="78.60" cy="272.95" r="2.5" fill="#58a6ff"/><circle cx="87.21" cy="272.70" r="2.5" fill="#58a6ff"/><circle cx="95.81" cy="272.65" r="2.5" fill="#58a6ff"/><circle cx="104.42" cy="272.38" r="2.5" fill="#58a6ff"/><circle cx="113.02" cy="272.24" r="2.5" fill="#58a6ff"/><circle cx="121.63" cy="271.98" r="2.5" fill="#58a6ff"/><circle cx="130.23" cy="271.36" r="2.5" fill="#58a6ff"/><circle cx="138.84" cy="270.07" r="2.5" fill="#58a6ff"/><circle cx="147.44" cy="269.35" r="2.5" fill="#58a6ff"/><circle cx="156.05" cy="267.01" r="2.5" fill="#58a6ff"/><circle cx="164.65" cy="265.37" r="2.5" fill="#58a6ff"/><circle cx="173.26" cy="260.50" r="2.5" fill="#58a6ff"/><circle cx="181.86" cy="258.53" r="2.5" fill="#58a6ff"/><circle cx="190.47" cy="257.35" r="2.5" fill="#58a6ff"/><circle cx="199.07" cy="256.19" r="2.5" fill="#58a6ff"/><circle cx="207.67" cy="255.89" r="2.5" fill="#58a6ff"/><circle cx="216.28" cy="255.18" r="2.5" fill="#58a6ff"/><circle cx="224.88" cy="254.06" r="2.5" fill="#58a6ff"/><circle cx="233.49" cy="252.23" r="2.5" fill="#58a6ff"/><circle cx="242.09" cy="251.57" r="2.5" fill="#58a6ff"/><circle cx="250.70" cy="250.62" r="2.5" fill="#58a6ff"/><circle cx="259.30" cy="249.68" r="2.5" fill="#58a6ff"/><circle cx="267.91" cy="249.36" r="2.5" fill="#58a6ff"/><circle cx="276.51" cy="249.01" r="2.5" fill="#58a6ff"/><circle cx="285.12" cy="247.81" r="2.5" fill="#58a6ff"/><circle cx="293.72" cy="247.06" r="2.5" fill="#58a6ff"/><circle cx="302.33" cy="246.00" r="2.5" fill="#58a6ff"/><circle cx="310.93" cy="245.24" r="2.5" fill="#58a6ff"/><circle cx="319.53" cy="244.79" r="2.5" fill="#58a6ff"/><circle cx="328.14" cy="244.25" r="2.5" fill="#58a6ff"/><circle cx="336.74" cy="243.55" r="2.5" fill="#58a6ff"/><circle cx="345.35" cy="242.75" r="2.5" fill="#58a6ff"/><circle cx="353.95" cy="241.76" r="2.5" fill="#58a6ff"/><circle cx="362.56" cy="240.76" r="2.5" fill="#58a6ff"/><circle cx="371.16" cy="239.81" r="2.5" fill="#58a6ff"/><circle cx="379.77" cy="238.92" r="2.5" fill="#58a6ff"/><circle cx="388.37" cy="238.61" r="2.5" fill="#58a6ff"/><circle cx="396.98" cy="237.35" r="2.5" fill="#58a6ff"/><circle cx="405.58" cy="235.58" r="2.5" fill="#58a6ff"/><circle cx="414.19" cy="233.50" r="2.5" fill="#58a6ff"/><circle cx="422.79" cy="230.88" r="2.5" fill="#58a6ff"/><circle cx="431.40" cy="225.61" r="2.5" fill="#58a6ff"/><circle cx="440.00" cy="222.07" r="2.5" fill="#58a6ff"/><circle cx="448.60" cy="220.18" r="2.5" fill="#58a6ff"/><circle cx="457.21" cy="218.58" r="2.5" fill="#58a6ff"/><circle cx="465.81" cy="214.20" r="2.5" fill="#58a6ff"/><circle cx="474.42" cy="210.49" r="2.5" fill="#58a6ff"/><circle cx="483.02" cy="207.05" r="2.5" fill="#58a6ff"/><circle cx="491.63" cy="203.18" r="2.5" fill="#58a6ff"/><circle cx="500.23" cy="200.10" r="2.5" fill="#58a6ff"/><circle cx="508.84" cy="198.30" r="2.5" fill="#58a6ff"/><circle cx="517.44" cy="195.70" r="2.5" fill="#58a6ff"/><circle cx="526.05" cy="193.07" r="2.5" fill="#58a6ff"/><circle cx="534.65" cy="188.48" r="2.5" fill="#58a6ff"/><circle cx="543.26" cy="184.83" r="2.5" fill="#58a6ff"/><circle cx="551.86" cy="180.41" r="2.5" fill="#58a6ff"/><circle cx="560.47" cy="177.43" r="2.5" fill="#58a6ff"/><circle cx="569.07" cy="175.40" r="2.5" fill="#58a6ff"/><circle cx="577.67" cy="173.80" r="2.5" fill="#58a6ff"/><circle cx="586.28" cy="172.25" r="2.5" fill="#58a6ff"/><circle cx="594.88" cy="169.02" r="2.5" fill="#58a6ff"/><circle cx="603.49" cy="165.59" r="2.5" fill="#58a6ff"/><circle cx="612.09" cy="162.41" r="2.5" fill="#58a6ff"/><circle cx="620.70" cy="160.05" r="2.5" fill="#58a6ff"/><circle cx="629.30" cy="158.90" r="2.5" fill="#58a6ff"/><circle cx="637.91" cy="157.52" r="2.5" fill="#58a6ff"/><circle cx="646.51" cy="154.82" r="2.5" fill="#58a6ff"/><circle cx="655.12" cy="152.63" r="2.5" fill="#58a6ff"/><circle cx="663.72" cy="149.75" r="2.5" fill="#58a6ff"/><circle cx="672.33" cy="147.30" r="2.5" fill="#58a6ff"/><circle cx="680.93" cy="144.85" r="2.5" fill="#58a6ff"/><circle cx="689.53" cy="142.47" r="2.5" fill="#58a6ff"/><circle cx="698.14" cy="141.52" r="2.5" fill="#58a6ff"/><circle cx="706.74" cy="139.75" r="2.5" fill="#58a6ff"/><circle cx="715.35" cy="136.95" r="2.5" fill="#58a6ff"/><circle cx="723.95" cy="133.36" r="2.5" fill="#58a6ff"/><circle cx="732.56" cy="130.63" r="2.5" fill="#58a6ff"/><circle cx="741.16" cy="128.57" r="2.5" fill="#58a6ff"/><circle cx="749.77" cy="126.58" r="2.5" fill="#58a6ff"/><circle cx="758.37" cy="123.78" r="2.5" fill="#58a6ff"/><circle cx="766.98" cy="120.77" r="2.5" fill="#58a6ff"/><circle cx="775.58" cy="117.61" r="2.5" fill="#58a6ff"/><circle cx="784.19" cy="111.98" r="2.5" fill="#58a6ff"/><circle cx="792.79" cy="110.12" r="2.5" fill="#58a6ff"/><circle cx="801.40" cy="108.99" r="2.5" fill="#58a6ff"/><circle cx="810.00" cy="107.48" r="4" fill="#F2C811"/>

  <!-- Last-value callout -->
  <rect x="720.0" y="92.0" width="82" height="24" rx="4" fill="#0d1a2a" stroke="#F2C811" stroke-width="1"/>
  <text x="761.0" y="108.0" font-family="'Segoe UI', Arial, sans-serif" font-size="12" fill="#F2C811" text-anchor="middle" font-weight="bold">21,351 total</text>

  <!-- X-axis labels -->
  <text x="70.0" y="298" font-family="'Segoe UI', Arial, sans-serif" font-size="10" fill="#8b949e" text-anchor="middle">Mar 26</text><text x="250.7" y="298" font-family="'Segoe UI', Arial, sans-serif" font-size="10" fill="#8b949e" text-anchor="middle">Apr 16</text><text x="440.0" y="298" font-family="'Segoe UI', Arial, sans-serif" font-size="10" fill="#8b949e" text-anchor="middle">May 08</text><text x="629.3" y="298" font-family="'Segoe UI', Arial, sans-serif" font-size="10" fill="#8b949e" text-anchor="middle">May 30</text><text x="810.0" y="298" font-family="'Segoe UI', Arial, sans-serif" font-size="10" fill="#8b949e" text-anchor="middle">Jun 21</text>

  <!-- Footer: date range -->
  <text x="70" y="328" font-family="'Segoe UI', Arial, sans-serif" font-size="10" fill="#8b949e">Mar 26, 2026 → Jun 21, 2026</text>
  <text x="810" y="328" font-family="'Segoe UI', Arial, sans-serif" font-size="10" fill="#8b949e" text-anchor="end">87 days of data</text>
</svg>
