<svg xmlns="http://www.w3.org/2000/svg" width="850" height="340" viewBox="0 0 850 340">
  <defs>
    <linearGradient id="areaFill" x1="0" y1="0" x2="0" y2="1">
      <stop offset="0%" stop-color="#58a6ff" stop-opacity="0.45"/>
      <stop offset="100%" stop-color="#58a6ff" stop-opacity="0"/>
    </linearGradient>
  </defs>

  <!-- Background -->
  <rect width="100%" height="100%" fill="#0d1117" rx="8"/>

  <!-- Title -->
  <text x="425" y="33" font-family="'Segoe UI', Arial, sans-serif" font-size="17" fill="#F2C811" text-anchor="middle" font-weight="bold">pbi-cli Downloads Over Time</text>
  <text x="425" y="52" font-family="'Segoe UI', Arial, sans-serif" font-size="11" fill="#8b949e" text-anchor="middle">Cumulative installs from PyPI • mirrors excluded • source: pypistats.org</text>

  <!-- Gridlines & y-labels -->
  <line x1="70" y1="280.0" x2="810" y2="280.0" stroke="#21262d" stroke-width="1" stroke-dasharray="2,3"/><line x1="70" y1="239.6" x2="810" y2="239.6" stroke="#21262d" stroke-width="1" stroke-dasharray="2,3"/><line x1="70" y1="199.2" x2="810" y2="199.2" stroke="#21262d" stroke-width="1" stroke-dasharray="2,3"/><line x1="70" y1="158.8" x2="810" y2="158.8" stroke="#21262d" stroke-width="1" stroke-dasharray="2,3"/><line x1="70" y1="118.4" x2="810" y2="118.4" stroke="#21262d" stroke-width="1" stroke-dasharray="2,3"/><line x1="70" y1="78.0" x2="810" y2="78.0" stroke="#21262d" stroke-width="1" stroke-dasharray="2,3"/>
  <text x="62" y="284.0" font-family="'Segoe UI', Arial, sans-serif" font-size="10" fill="#8b949e" text-anchor="end">0</text><text x="62" y="243.6" font-family="'Segoe UI', Arial, sans-serif" font-size="10" fill="#8b949e" text-anchor="end">4,000</text><text x="62" y="203.2" font-family="'Segoe UI', Arial, sans-serif" font-size="10" fill="#8b949e" text-anchor="end">8,000</text><text x="62" y="162.8" font-family="'Segoe UI', Arial, sans-serif" font-size="10" fill="#8b949e" text-anchor="end">12,000</text><text x="62" y="122.4" font-family="'Segoe UI', Arial, sans-serif" font-size="10" fill="#8b949e" text-anchor="end">16,000</text><text x="62" y="82.0" font-family="'Segoe UI', Arial, sans-serif" font-size="10" fill="#8b949e" text-anchor="end">20,000</text>

  <!-- Area fill -->
  <path d="M 70.00,280 L 70.00,273.87 L 81.94,271.19 L 93.87,270.87 L 105.81,270.81 L 117.74,270.48 L 129.68,270.30 L 141.61,269.98 L 153.55,269.20 L 165.48,267.59 L 177.42,266.69 L 189.35,263.76 L 201.29,261.71 L 213.23,255.63 L 225.16,253.16 L 237.10,251.69 L 249.03,250.24 L 260.97,249.86 L 272.90,248.97 L 284.84,247.57 L 296.77,245.29 L 308.71,244.47 L 320.65,243.28 L 332.58,242.09 L 344.52,241.70 L 356.45,241.26 L 368.39,239.76 L 380.32,238.82 L 392.26,237.50 L 404.19,236.55 L 416.13,235.98 L 428.06,235.32 L 440.00,234.44 L 451.94,233.44 L 463.87,232.20 L 475.81,230.94 L 487.74,229.76 L 499.68,228.65 L 511.61,228.26 L 523.55,226.69 L 535.48,224.48 L 547.42,221.87 L 559.35,218.60 L 571.29,212.01 L 583.23,207.58 L 595.16,205.22 L 607.10,203.23 L 619.03,197.76 L 630.97,193.11 L 642.90,188.82 L 654.84,183.98 L 666.77,180.13 L 678.71,177.87 L 690.65,174.63 L 702.58,171.33 L 714.52,165.60 L 726.45,161.04 L 738.39,155.52 L 750.32,151.79 L 762.26,149.26 L 774.19,147.26 L 786.13,145.32 L 798.06,141.28 L 810.00,136.98 L 810.00,280 Z" fill="url(#areaFill)"/>

  <!-- Line -->
  <path d="M 70.00,273.87 L 81.94,271.19 L 93.87,270.87 L 105.81,270.81 L 117.74,270.48 L 129.68,270.30 L 141.61,269.98 L 153.55,269.20 L 165.48,267.59 L 177.42,266.69 L 189.35,263.76 L 201.29,261.71 L 213.23,255.63 L 225.16,253.16 L 237.10,251.69 L 249.03,250.24 L 260.97,249.86 L 272.90,248.97 L 284.84,247.57 L 296.77,245.29 L 308.71,244.47 L 320.65,243.28 L 332.58,242.09 L 344.52,241.70 L 356.45,241.26 L 368.39,239.76 L 380.32,238.82 L 392.26,237.50 L 404.19,236.55 L 416.13,235.98 L 428.06,235.32 L 440.00,234.44 L 451.94,233.44 L 463.87,232.20 L 475.81,230.94 L 487.74,229.76 L 499.68,228.65 L 511.61,228.26 L 523.55,226.69 L 535.48,224.48 L 547.42,221.87 L 559.35,218.60 L 571.29,212.01 L 583.23,207.58 L 595.16,205.22 L 607.10,203.23 L 619.03,197.76 L 630.97,193.11 L 642.90,188.82 L 654.84,183.98 L 666.77,180.13 L 678.71,177.87 L 690.65,174.63 L 702.58,171.33 L 714.52,165.60 L 726.45,161.04 L 738.39,155.52 L 750.32,151.79 L 762.26,149.26 L 774.19,147.26 L 786.13,145.32 L 798.06,141.28 L 810.00,136.98" fill="none" stroke="#58a6ff" stroke-width="2.5" stroke-linejoin="round" stroke-linecap="round"/>

  <!-- Data points -->
  <circle cx="70.00" cy="273.87" r="2.5" fill="#58a6ff"/><circle cx="81.94" cy="271.19" r="2.5" fill="#58a6ff"/><circle cx="93.87" cy="270.87" r="2.5" fill="#58a6ff"/><circle cx="105.81" cy="270.81" r="2.5" fill="#58a6ff"/><circle cx="117.74" cy="270.48" r="2.5" fill="#58a6ff"/><circle cx="129.68" cy="270.30" r="2.5" fill="#58a6ff"/><circle cx="141.61" cy="269.98" r="2.5" fill="#58a6ff"/><circle cx="153.55" cy="269.20" r="2.5" fill="#58a6ff"/><circle cx="165.48" cy="267.59" r="2.5" fill="#58a6ff"/><circle cx="177.42" cy="266.69" r="2.5" fill="#58a6ff"/><circle cx="189.35" cy="263.76" r="2.5" fill="#58a6ff"/><circle cx="201.29" cy="261.71" r="2.5" fill="#58a6ff"/><circle cx="213.23" cy="255.63" r="2.5" fill="#58a6ff"/><circle cx="225.16" cy="253.16" r="2.5" fill="#58a6ff"/><circle cx="237.10" cy="251.69" r="2.5" fill="#58a6ff"/><circle cx="249.03" cy="250.24" r="2.5" fill="#58a6ff"/><circle cx="260.97" cy="249.86" r="2.5" fill="#58a6ff"/><circle cx="272.90" cy="248.97" r="2.5" fill="#58a6ff"/><circle cx="284.84" cy="247.57" r="2.5" fill="#58a6ff"/><circle cx="296.77" cy="245.29" r="2.5" fill="#58a6ff"/><circle cx="308.71" cy="244.47" r="2.5" fill="#58a6ff"/><circle cx="320.65" cy="243.28" r="2.5" fill="#58a6ff"/><circle cx="332.58" cy="242.09" r="2.5" fill="#58a6ff"/><circle cx="344.52" cy="241.70" r="2.5" fill="#58a6ff"/><circle cx="356.45" cy="241.26" r="2.5" fill="#58a6ff"/><circle cx="368.39" cy="239.76" r="2.5" fill="#58a6ff"/><circle cx="380.32" cy="238.82" r="2.5" fill="#58a6ff"/><circle cx="392.26" cy="237.50" r="2.5" fill="#58a6ff"/><circle cx="404.19" cy="236.55" r="2.5" fill="#58a6ff"/><circle cx="416.13" cy="235.98" r="2.5" fill="#58a6ff"/><circle cx="428.06" cy="235.32" r="2.5" fill="#58a6ff"/><circle cx="440.00" cy="234.44" r="2.5" fill="#58a6ff"/><circle cx="451.94" cy="233.44" r="2.5" fill="#58a6ff"/><circle cx="463.87" cy="232.20" r="2.5" fill="#58a6ff"/><circle cx="475.81" cy="230.94" r="2.5" fill="#58a6ff"/><circle cx="487.74" cy="229.76" r="2.5" fill="#58a6ff"/><circle cx="499.68" cy="228.65" r="2.5" fill="#58a6ff"/><circle cx="511.61" cy="228.26" r="2.5" fill="#58a6ff"/><circle cx="523.55" cy="226.69" r="2.5" fill="#58a6ff"/><circle cx="535.48" cy="224.48" r="2.5" fill="#58a6ff"/><circle cx="547.42" cy="221.87" r="2.5" fill="#58a6ff"/><circle cx="559.35" cy="218.60" r="2.5" fill="#58a6ff"/><circle cx="571.29" cy="212.01" r="2.5" fill="#58a6ff"/><circle cx="583.23" cy="207.58" r="2.5" fill="#58a6ff"/><circle cx="595.16" cy="205.22" r="2.5" fill="#58a6ff"/><circle cx="607.10" cy="203.23" r="2.5" fill="#58a6ff"/><circle cx="619.03" cy="197.76" r="2.5" fill="#58a6ff"/><circle cx="630.97" cy="193.11" r="2.5" fill="#58a6ff"/><circle cx="642.90" cy="188.82" r="2.5" fill="#58a6ff"/><circle cx="654.84" cy="183.98" r="2.5" fill="#58a6ff"/><circle cx="666.77" cy="180.13" r="2.5" fill="#58a6ff"/><circle cx="678.71" cy="177.87" r="2.5" fill="#58a6ff"/><circle cx="690.65" cy="174.63" r="2.5" fill="#58a6ff"/><circle cx="702.58" cy="171.33" r="2.5" fill="#58a6ff"/><circle cx="714.52" cy="165.60" r="2.5" fill="#58a6ff"/><circle cx="726.45" cy="161.04" r="2.5" fill="#58a6ff"/><circle cx="738.39" cy="155.52" r="2.5" fill="#58a6ff"/><circle cx="750.32" cy="151.79" r="2.5" fill="#58a6ff"/><circle cx="762.26" cy="149.26" r="2.5" fill="#58a6ff"/><circle cx="774.19" cy="147.26" r="2.5" fill="#58a6ff"/><circle cx="786.13" cy="145.32" r="2.5" fill="#58a6ff"/><circle cx="798.06" cy="141.28" r="2.5" fill="#58a6ff"/><circle cx="810.00" cy="136.98" r="4" fill="#F2C811"/>

  <!-- Last-value callout -->
  <rect x="720.0" y="109.0" width="82" height="24" rx="4" fill="#0d1a2a" stroke="#F2C811" stroke-width="1"/>
  <text x="761.0" y="125.0" font-family="'Segoe UI', Arial, sans-serif" font-size="12" fill="#F2C811" text-anchor="middle" font-weight="bold">14,160 total</text>

  <!-- X-axis labels -->
  <text x="70.0" y="298" font-family="'Segoe UI', Arial, sans-serif" font-size="10" fill="#8b949e" text-anchor="middle">Mar 26</text><text x="249.0" y="298" font-family="'Segoe UI', Arial, sans-serif" font-size="10" fill="#8b949e" text-anchor="middle">Apr 10</text><text x="440.0" y="298" font-family="'Segoe UI', Arial, sans-serif" font-size="10" fill="#8b949e" text-anchor="middle">Apr 26</text><text x="631.0" y="298" font-family="'Segoe UI', Arial, sans-serif" font-size="10" fill="#8b949e" text-anchor="middle">May 12</text><text x="810.0" y="298" font-family="'Segoe UI', Arial, sans-serif" font-size="10" fill="#8b949e" text-anchor="middle">May 27</text>

  <!-- Footer: date range -->
  <text x="70" y="328" font-family="'Segoe UI', Arial, sans-serif" font-size="10" fill="#8b949e">Mar 26, 2026 → May 27, 2026</text>
  <text x="810" y="328" font-family="'Segoe UI', Arial, sans-serif" font-size="10" fill="#8b949e" text-anchor="end">63 days of data</text>
</svg>
