<svg xmlns="http://www.w3.org/2000/svg" width="850" height="340" viewBox="0 0 850 340">
  <defs>
    <linearGradient id="areaFill" x1="0" y1="0" x2="0" y2="1">
      <stop offset="0%" stop-color="#58a6ff" stop-opacity="0.45"/>
      <stop offset="100%" stop-color="#58a6ff" stop-opacity="0"/>
    </linearGradient>
  </defs>

  <!-- Background -->
  <rect width="100%" height="100%" fill="#0d1117" rx="8"/>

  <!-- Title -->
  <text x="425" y="33" font-family="'Segoe UI', Arial, sans-serif" font-size="17" fill="#F2C811" text-anchor="middle" font-weight="bold">pbi-cli Downloads Over Time</text>
  <text x="425" y="52" font-family="'Segoe UI', Arial, sans-serif" font-size="11" fill="#8b949e" text-anchor="middle">Cumulative installs from PyPI • mirrors excluded • source: pypistats.org</text>

  <!-- Gridlines & y-labels -->
  <line x1="70" y1="280.0" x2="810" y2="280.0" stroke="#21262d" stroke-width="1" stroke-dasharray="2,3"/><line x1="70" y1="239.6" x2="810" y2="239.6" stroke="#21262d" stroke-width="1" stroke-dasharray="2,3"/><line x1="70" y1="199.2" x2="810" y2="199.2" stroke="#21262d" stroke-width="1" stroke-dasharray="2,3"/><line x1="70" y1="158.8" x2="810" y2="158.8" stroke="#21262d" stroke-width="1" stroke-dasharray="2,3"/><line x1="70" y1="118.4" x2="810" y2="118.4" stroke="#21262d" stroke-width="1" stroke-dasharray="2,3"/><line x1="70" y1="78.0" x2="810" y2="78.0" stroke="#21262d" stroke-width="1" stroke-dasharray="2,3"/>
  <text x="62" y="284.0" font-family="'Segoe UI', Arial, sans-serif" font-size="10" fill="#8b949e" text-anchor="end">0</text><text x="62" y="243.6" font-family="'Segoe UI', Arial, sans-serif" font-size="10" fill="#8b949e" text-anchor="end">4,000</text><text x="62" y="203.2" font-family="'Segoe UI', Arial, sans-serif" font-size="10" fill="#8b949e" text-anchor="end">8,000</text><text x="62" y="162.8" font-family="'Segoe UI', Arial, sans-serif" font-size="10" fill="#8b949e" text-anchor="end">12,000</text><text x="62" y="122.4" font-family="'Segoe UI', Arial, sans-serif" font-size="10" fill="#8b949e" text-anchor="end">16,000</text><text x="62" y="82.0" font-family="'Segoe UI', Arial, sans-serif" font-size="10" fill="#8b949e" text-anchor="end">20,000</text>

  <!-- Area fill -->
  <path d="M 70.00,280 L 70.00,273.87 L 80.28,271.19 L 90.56,270.87 L 100.83,270.81 L 111.11,270.48 L 121.39,270.30 L 131.67,269.98 L 141.94,269.20 L 152.22,267.59 L 162.50,266.69 L 172.78,263.76 L 183.06,261.71 L 193.33,255.63 L 203.61,253.16 L 213.89,251.69 L 224.17,250.24 L 234.44,249.86 L 244.72,248.97 L 255.00,247.57 L 265.28,245.29 L 275.56,244.47 L 285.83,243.28 L 296.11,242.09 L 306.39,241.70 L 316.67,241.26 L 326.94,239.76 L 337.22,238.82 L 347.50,237.50 L 357.78,236.55 L 368.06,235.98 L 378.33,235.32 L 388.61,234.44 L 398.89,233.44 L 409.17,232.20 L 419.44,230.94 L 429.72,229.76 L 440.00,228.65 L 450.28,228.26 L 460.56,226.69 L 470.83,224.48 L 481.11,221.87 L 491.39,218.60 L 501.67,212.01 L 511.94,207.58 L 522.22,205.22 L 532.50,203.23 L 542.78,197.76 L 553.06,193.11 L 563.33,188.82 L 573.61,183.98 L 583.89,180.13 L 594.17,177.87 L 604.44,174.63 L 614.72,171.33 L 625.00,165.60 L 635.28,161.04 L 645.56,155.52 L 655.83,151.79 L 666.11,149.26 L 676.39,147.26 L 686.67,145.32 L 696.94,141.28 L 707.22,136.98 L 717.50,133.01 L 727.78,130.07 L 738.06,128.62 L 748.33,126.89 L 758.61,123.53 L 768.89,120.78 L 779.17,117.19 L 789.44,114.13 L 799.72,111.07 L 810.00,108.09 L 810.00,280 Z" fill="url(#areaFill)"/>

  <!-- Line -->
  <path d="M 70.00,273.87 L 80.28,271.19 L 90.56,270.87 L 100.83,270.81 L 111.11,270.48 L 121.39,270.30 L 131.67,269.98 L 141.94,269.20 L 152.22,267.59 L 162.50,266.69 L 172.78,263.76 L 183.06,261.71 L 193.33,255.63 L 203.61,253.16 L 213.89,251.69 L 224.17,250.24 L 234.44,249.86 L 244.72,248.97 L 255.00,247.57 L 265.28,245.29 L 275.56,244.47 L 285.83,243.28 L 296.11,242.09 L 306.39,241.70 L 316.67,241.26 L 326.94,239.76 L 337.22,238.82 L 347.50,237.50 L 357.78,236.55 L 368.06,235.98 L 378.33,235.32 L 388.61,234.44 L 398.89,233.44 L 409.17,232.20 L 419.44,230.94 L 429.72,229.76 L 440.00,228.65 L 450.28,228.26 L 460.56,226.69 L 470.83,224.48 L 481.11,221.87 L 491.39,218.60 L 501.67,212.01 L 511.94,207.58 L 522.22,205.22 L 532.50,203.23 L 542.78,197.76 L 553.06,193.11 L 563.33,188.82 L 573.61,183.98 L 583.89,180.13 L 594.17,177.87 L 604.44,174.63 L 614.72,171.33 L 625.00,165.60 L 635.28,161.04 L 645.56,155.52 L 655.83,151.79 L 666.11,149.26 L 676.39,147.26 L 686.67,145.32 L 696.94,141.28 L 707.22,136.98 L 717.50,133.01 L 727.78,130.07 L 738.06,128.62 L 748.33,126.89 L 758.61,123.53 L 768.89,120.78 L 779.17,117.19 L 789.44,114.13 L 799.72,111.07 L 810.00,108.09" fill="none" stroke="#58a6ff" stroke-width="2.5" stroke-linejoin="round" stroke-linecap="round"/>

  <!-- Data points -->
  <circle cx="70.00" cy="273.87" r="2.5" fill="#58a6ff"/><circle cx="80.28" cy="271.19" r="2.5" fill="#58a6ff"/><circle cx="90.56" cy="270.87" r="2.5" fill="#58a6ff"/><circle cx="100.83" cy="270.81" r="2.5" fill="#58a6ff"/><circle cx="111.11" cy="270.48" r="2.5" fill="#58a6ff"/><circle cx="121.39" cy="270.30" r="2.5" fill="#58a6ff"/><circle cx="131.67" cy="269.98" r="2.5" fill="#58a6ff"/><circle cx="141.94" cy="269.20" r="2.5" fill="#58a6ff"/><circle cx="152.22" cy="267.59" r="2.5" fill="#58a6ff"/><circle cx="162.50" cy="266.69" r="2.5" fill="#58a6ff"/><circle cx="172.78" cy="263.76" r="2.5" fill="#58a6ff"/><circle cx="183.06" cy="261.71" r="2.5" fill="#58a6ff"/><circle cx="193.33" cy="255.63" r="2.5" fill="#58a6ff"/><circle cx="203.61" cy="253.16" r="2.5" fill="#58a6ff"/><circle cx="213.89" cy="251.69" r="2.5" fill="#58a6ff"/><circle cx="224.17" cy="250.24" r="2.5" fill="#58a6ff"/><circle cx="234.44" cy="249.86" r="2.5" fill="#58a6ff"/><circle cx="244.72" cy="248.97" r="2.5" fill="#58a6ff"/><circle cx="255.00" cy="247.57" r="2.5" fill="#58a6ff"/><circle cx="265.28" cy="245.29" r="2.5" fill="#58a6ff"/><circle cx="275.56" cy="244.47" r="2.5" fill="#58a6ff"/><circle cx="285.83" cy="243.28" r="2.5" fill="#58a6ff"/><circle cx="296.11" cy="242.09" r="2.5" fill="#58a6ff"/><circle cx="306.39" cy="241.70" r="2.5" fill="#58a6ff"/><circle cx="316.67" cy="241.26" r="2.5" fill="#58a6ff"/><circle cx="326.94" cy="239.76" r="2.5" fill="#58a6ff"/><circle cx="337.22" cy="238.82" r="2.5" fill="#58a6ff"/><circle cx="347.50" cy="237.50" r="2.5" fill="#58a6ff"/><circle cx="357.78" cy="236.55" r="2.5" fill="#58a6ff"/><circle cx="368.06" cy="235.98" r="2.5" fill="#58a6ff"/><circle cx="378.33" cy="235.32" r="2.5" fill="#58a6ff"/><circle cx="388.61" cy="234.44" r="2.5" fill="#58a6ff"/><circle cx="398.89" cy="233.44" r="2.5" fill="#58a6ff"/><circle cx="409.17" cy="232.20" r="2.5" fill="#58a6ff"/><circle cx="419.44" cy="230.94" r="2.5" fill="#58a6ff"/><circle cx="429.72" cy="229.76" r="2.5" fill="#58a6ff"/><circle cx="440.00" cy="228.65" r="2.5" fill="#58a6ff"/><circle cx="450.28" cy="228.26" r="2.5" fill="#58a6ff"/><circle cx="460.56" cy="226.69" r="2.5" fill="#58a6ff"/><circle cx="470.83" cy="224.48" r="2.5" fill="#58a6ff"/><circle cx="481.11" cy="221.87" r="2.5" fill="#58a6ff"/><circle cx="491.39" cy="218.60" r="2.5" fill="#58a6ff"/><circle cx="501.67" cy="212.01" r="2.5" fill="#58a6ff"/><circle cx="511.94" cy="207.58" r="2.5" fill="#58a6ff"/><circle cx="522.22" cy="205.22" r="2.5" fill="#58a6ff"/><circle cx="532.50" cy="203.23" r="2.5" fill="#58a6ff"/><circle cx="542.78" cy="197.76" r="2.5" fill="#58a6ff"/><circle cx="553.06" cy="193.11" r="2.5" fill="#58a6ff"/><circle cx="563.33" cy="188.82" r="2.5" fill="#58a6ff"/><circle cx="573.61" cy="183.98" r="2.5" fill="#58a6ff"/><circle cx="583.89" cy="180.13" r="2.5" fill="#58a6ff"/><circle cx="594.17" cy="177.87" r="2.5" fill="#58a6ff"/><circle cx="604.44" cy="174.63" r="2.5" fill="#58a6ff"/><circle cx="614.72" cy="171.33" r="2.5" fill="#58a6ff"/><circle cx="625.00" cy="165.60" r="2.5" fill="#58a6ff"/><circle cx="635.28" cy="161.04" r="2.5" fill="#58a6ff"/><circle cx="645.56" cy="155.52" r="2.5" fill="#58a6ff"/><circle cx="655.83" cy="151.79" r="2.5" fill="#58a6ff"/><circle cx="666.11" cy="149.26" r="2.5" fill="#58a6ff"/><circle cx="676.39" cy="147.26" r="2.5" fill="#58a6ff"/><circle cx="686.67" cy="145.32" r="2.5" fill="#58a6ff"/><circle cx="696.94" cy="141.28" r="2.5" fill="#58a6ff"/><circle cx="707.22" cy="136.98" r="2.5" fill="#58a6ff"/><circle cx="717.50" cy="133.01" r="2.5" fill="#58a6ff"/><circle cx="727.78" cy="130.07" r="2.5" fill="#58a6ff"/><circle cx="738.06" cy="128.62" r="2.5" fill="#58a6ff"/><circle cx="748.33" cy="126.89" r="2.5" fill="#58a6ff"/><circle cx="758.61" cy="123.53" r="2.5" fill="#58a6ff"/><circle cx="768.89" cy="120.78" r="2.5" fill="#58a6ff"/><circle cx="779.17" cy="117.19" r="2.5" fill="#58a6ff"/><circle cx="789.44" cy="114.13" r="2.5" fill="#58a6ff"/><circle cx="799.72" cy="111.07" r="2.5" fill="#58a6ff"/><circle cx="810.00" cy="108.09" r="4" fill="#F2C811"/>

  <!-- Last-value callout -->
  <rect x="720.0" y="92.0" width="82" height="24" rx="4" fill="#0d1a2a" stroke="#F2C811" stroke-width="1"/>
  <text x="761.0" y="108.0" font-family="'Segoe UI', Arial, sans-serif" font-size="12" fill="#F2C811" text-anchor="middle" font-weight="bold">17,021 total</text>

  <!-- X-axis labels -->
  <text x="70.0" y="298" font-family="'Segoe UI', Arial, sans-serif" font-size="10" fill="#8b949e" text-anchor="middle">Mar 26</text><text x="255.0" y="298" font-family="'Segoe UI', Arial, sans-serif" font-size="10" fill="#8b949e" text-anchor="middle">Apr 13</text><text x="440.0" y="298" font-family="'Segoe UI', Arial, sans-serif" font-size="10" fill="#8b949e" text-anchor="middle">May 01</text><text x="625.0" y="298" font-family="'Segoe UI', Arial, sans-serif" font-size="10" fill="#8b949e" text-anchor="middle">May 19</text><text x="810.0" y="298" font-family="'Segoe UI', Arial, sans-serif" font-size="10" fill="#8b949e" text-anchor="middle">Jun 06</text>

  <!-- Footer: date range -->
  <text x="70" y="328" font-family="'Segoe UI', Arial, sans-serif" font-size="10" fill="#8b949e">Mar 26, 2026 → Jun 06, 2026</text>
  <text x="810" y="328" font-family="'Segoe UI', Arial, sans-serif" font-size="10" fill="#8b949e" text-anchor="end">73 days of data</text>
</svg>
