<svg xmlns="http://www.w3.org/2000/svg" width="850" height="340" viewBox="0 0 850 340">
  <defs>
    <linearGradient id="areaFill" x1="0" y1="0" x2="0" y2="1">
      <stop offset="0%" stop-color="#58a6ff" stop-opacity="0.45"/>
      <stop offset="100%" stop-color="#58a6ff" stop-opacity="0"/>
    </linearGradient>
  </defs>

  <!-- Background -->
  <rect width="100%" height="100%" fill="#0d1117" rx="8"/>

  <!-- Title -->
  <text x="425" y="33" font-family="'Segoe UI', Arial, sans-serif" font-size="17" fill="#F2C811" text-anchor="middle" font-weight="bold">pbi-cli Downloads Over Time</text>
  <text x="425" y="52" font-family="'Segoe UI', Arial, sans-serif" font-size="11" fill="#8b949e" text-anchor="middle">Cumulative installs from PyPI • mirrors excluded • source: pypistats.org</text>

  <!-- Gridlines & y-labels -->
  <line x1="70" y1="280.0" x2="810" y2="280.0" stroke="#21262d" stroke-width="1" stroke-dasharray="2,3"/><line x1="70" y1="239.6" x2="810" y2="239.6" stroke="#21262d" stroke-width="1" stroke-dasharray="2,3"/><line x1="70" y1="199.2" x2="810" y2="199.2" stroke="#21262d" stroke-width="1" stroke-dasharray="2,3"/><line x1="70" y1="158.8" x2="810" y2="158.8" stroke="#21262d" stroke-width="1" stroke-dasharray="2,3"/><line x1="70" y1="118.4" x2="810" y2="118.4" stroke="#21262d" stroke-width="1" stroke-dasharray="2,3"/><line x1="70" y1="78.0" x2="810" y2="78.0" stroke="#21262d" stroke-width="1" stroke-dasharray="2,3"/>
  <text x="62" y="284.0" font-family="'Segoe UI', Arial, sans-serif" font-size="10" fill="#8b949e" text-anchor="end">0</text><text x="62" y="243.6" font-family="'Segoe UI', Arial, sans-serif" font-size="10" fill="#8b949e" text-anchor="end">4,000</text><text x="62" y="203.2" font-family="'Segoe UI', Arial, sans-serif" font-size="10" fill="#8b949e" text-anchor="end">8,000</text><text x="62" y="162.8" font-family="'Segoe UI', Arial, sans-serif" font-size="10" fill="#8b949e" text-anchor="end">12,000</text><text x="62" y="122.4" font-family="'Segoe UI', Arial, sans-serif" font-size="10" fill="#8b949e" text-anchor="end">16,000</text><text x="62" y="82.0" font-family="'Segoe UI', Arial, sans-serif" font-size="10" fill="#8b949e" text-anchor="end">20,000</text>

  <!-- Area fill -->
  <path d="M 70.00,280 L 70.00,273.87 L 80.57,271.19 L 91.14,270.87 L 101.71,270.81 L 112.29,270.48 L 122.86,270.30 L 133.43,269.98 L 144.00,269.20 L 154.57,267.59 L 165.14,266.69 L 175.71,263.76 L 186.29,261.71 L 196.86,255.63 L 207.43,253.16 L 218.00,251.69 L 228.57,250.24 L 239.14,249.86 L 249.71,248.97 L 260.29,247.57 L 270.86,245.29 L 281.43,244.47 L 292.00,243.28 L 302.57,242.09 L 313.14,241.70 L 323.71,241.26 L 334.29,239.76 L 344.86,238.82 L 355.43,237.50 L 366.00,236.55 L 376.57,235.98 L 387.14,235.32 L 397.71,234.44 L 408.29,233.44 L 418.86,232.20 L 429.43,230.94 L 440.00,229.76 L 450.57,228.65 L 461.14,228.26 L 471.71,226.69 L 482.29,224.48 L 492.86,221.87 L 503.43,218.60 L 514.00,212.01 L 524.57,207.58 L 535.14,205.22 L 545.71,203.23 L 556.29,197.76 L 566.86,193.11 L 577.43,188.82 L 588.00,183.98 L 598.57,180.13 L 609.14,177.87 L 619.71,174.63 L 630.29,171.33 L 640.86,165.60 L 651.43,161.04 L 662.00,155.52 L 672.57,151.79 L 683.14,149.26 L 693.71,147.26 L 704.29,145.32 L 714.86,141.28 L 725.43,136.98 L 736.00,133.01 L 746.57,130.07 L 757.14,128.62 L 767.71,126.89 L 778.29,123.53 L 788.86,120.78 L 799.43,117.19 L 810.00,114.13 L 810.00,280 Z" fill="url(#areaFill)"/>

  <!-- Line -->
  <path d="M 70.00,273.87 L 80.57,271.19 L 91.14,270.87 L 101.71,270.81 L 112.29,270.48 L 122.86,270.30 L 133.43,269.98 L 144.00,269.20 L 154.57,267.59 L 165.14,266.69 L 175.71,263.76 L 186.29,261.71 L 196.86,255.63 L 207.43,253.16 L 218.00,251.69 L 228.57,250.24 L 239.14,249.86 L 249.71,248.97 L 260.29,247.57 L 270.86,245.29 L 281.43,244.47 L 292.00,243.28 L 302.57,242.09 L 313.14,241.70 L 323.71,241.26 L 334.29,239.76 L 344.86,238.82 L 355.43,237.50 L 366.00,236.55 L 376.57,235.98 L 387.14,235.32 L 397.71,234.44 L 408.29,233.44 L 418.86,232.20 L 429.43,230.94 L 440.00,229.76 L 450.57,228.65 L 461.14,228.26 L 471.71,226.69 L 482.29,224.48 L 492.86,221.87 L 503.43,218.60 L 514.00,212.01 L 524.57,207.58 L 535.14,205.22 L 545.71,203.23 L 556.29,197.76 L 566.86,193.11 L 577.43,188.82 L 588.00,183.98 L 598.57,180.13 L 609.14,177.87 L 619.71,174.63 L 630.29,171.33 L 640.86,165.60 L 651.43,161.04 L 662.00,155.52 L 672.57,151.79 L 683.14,149.26 L 693.71,147.26 L 704.29,145.32 L 714.86,141.28 L 725.43,136.98 L 736.00,133.01 L 746.57,130.07 L 757.14,128.62 L 767.71,126.89 L 778.29,123.53 L 788.86,120.78 L 799.43,117.19 L 810.00,114.13" fill="none" stroke="#58a6ff" stroke-width="2.5" stroke-linejoin="round" stroke-linecap="round"/>

  <!-- Data points -->
  <circle cx="70.00" cy="273.87" r="2.5" fill="#58a6ff"/><circle cx="80.57" cy="271.19" r="2.5" fill="#58a6ff"/><circle cx="91.14" cy="270.87" r="2.5" fill="#58a6ff"/><circle cx="101.71" cy="270.81" r="2.5" fill="#58a6ff"/><circle cx="112.29" cy="270.48" r="2.5" fill="#58a6ff"/><circle cx="122.86" cy="270.30" r="2.5" fill="#58a6ff"/><circle cx="133.43" cy="269.98" r="2.5" fill="#58a6ff"/><circle cx="144.00" cy="269.20" r="2.5" fill="#58a6ff"/><circle cx="154.57" cy="267.59" r="2.5" fill="#58a6ff"/><circle cx="165.14" cy="266.69" r="2.5" fill="#58a6ff"/><circle cx="175.71" cy="263.76" r="2.5" fill="#58a6ff"/><circle cx="186.29" cy="261.71" r="2.5" fill="#58a6ff"/><circle cx="196.86" cy="255.63" r="2.5" fill="#58a6ff"/><circle cx="207.43" cy="253.16" r="2.5" fill="#58a6ff"/><circle cx="218.00" cy="251.69" r="2.5" fill="#58a6ff"/><circle cx="228.57" cy="250.24" r="2.5" fill="#58a6ff"/><circle cx="239.14" cy="249.86" r="2.5" fill="#58a6ff"/><circle cx="249.71" cy="248.97" r="2.5" fill="#58a6ff"/><circle cx="260.29" cy="247.57" r="2.5" fill="#58a6ff"/><circle cx="270.86" cy="245.29" r="2.5" fill="#58a6ff"/><circle cx="281.43" cy="244.47" r="2.5" fill="#58a6ff"/><circle cx="292.00" cy="243.28" r="2.5" fill="#58a6ff"/><circle cx="302.57" cy="242.09" r="2.5" fill="#58a6ff"/><circle cx="313.14" cy="241.70" r="2.5" fill="#58a6ff"/><circle cx="323.71" cy="241.26" r="2.5" fill="#58a6ff"/><circle cx="334.29" cy="239.76" r="2.5" fill="#58a6ff"/><circle cx="344.86" cy="238.82" r="2.5" fill="#58a6ff"/><circle cx="355.43" cy="237.50" r="2.5" fill="#58a6ff"/><circle cx="366.00" cy="236.55" r="2.5" fill="#58a6ff"/><circle cx="376.57" cy="235.98" r="2.5" fill="#58a6ff"/><circle cx="387.14" cy="235.32" r="2.5" fill="#58a6ff"/><circle cx="397.71" cy="234.44" r="2.5" fill="#58a6ff"/><circle cx="408.29" cy="233.44" r="2.5" fill="#58a6ff"/><circle cx="418.86" cy="232.20" r="2.5" fill="#58a6ff"/><circle cx="429.43" cy="230.94" r="2.5" fill="#58a6ff"/><circle cx="440.00" cy="229.76" r="2.5" fill="#58a6ff"/><circle cx="450.57" cy="228.65" r="2.5" fill="#58a6ff"/><circle cx="461.14" cy="228.26" r="2.5" fill="#58a6ff"/><circle cx="471.71" cy="226.69" r="2.5" fill="#58a6ff"/><circle cx="482.29" cy="224.48" r="2.5" fill="#58a6ff"/><circle cx="492.86" cy="221.87" r="2.5" fill="#58a6ff"/><circle cx="503.43" cy="218.60" r="2.5" fill="#58a6ff"/><circle cx="514.00" cy="212.01" r="2.5" fill="#58a6ff"/><circle cx="524.57" cy="207.58" r="2.5" fill="#58a6ff"/><circle cx="535.14" cy="205.22" r="2.5" fill="#58a6ff"/><circle cx="545.71" cy="203.23" r="2.5" fill="#58a6ff"/><circle cx="556.29" cy="197.76" r="2.5" fill="#58a6ff"/><circle cx="566.86" cy="193.11" r="2.5" fill="#58a6ff"/><circle cx="577.43" cy="188.82" r="2.5" fill="#58a6ff"/><circle cx="588.00" cy="183.98" r="2.5" fill="#58a6ff"/><circle cx="598.57" cy="180.13" r="2.5" fill="#58a6ff"/><circle cx="609.14" cy="177.87" r="2.5" fill="#58a6ff"/><circle cx="619.71" cy="174.63" r="2.5" fill="#58a6ff"/><circle cx="630.29" cy="171.33" r="2.5" fill="#58a6ff"/><circle cx="640.86" cy="165.60" r="2.5" fill="#58a6ff"/><circle cx="651.43" cy="161.04" r="2.5" fill="#58a6ff"/><circle cx="662.00" cy="155.52" r="2.5" fill="#58a6ff"/><circle cx="672.57" cy="151.79" r="2.5" fill="#58a6ff"/><circle cx="683.14" cy="149.26" r="2.5" fill="#58a6ff"/><circle cx="693.71" cy="147.26" r="2.5" fill="#58a6ff"/><circle cx="704.29" cy="145.32" r="2.5" fill="#58a6ff"/><circle cx="714.86" cy="141.28" r="2.5" fill="#58a6ff"/><circle cx="725.43" cy="136.98" r="2.5" fill="#58a6ff"/><circle cx="736.00" cy="133.01" r="2.5" fill="#58a6ff"/><circle cx="746.57" cy="130.07" r="2.5" fill="#58a6ff"/><circle cx="757.14" cy="128.62" r="2.5" fill="#58a6ff"/><circle cx="767.71" cy="126.89" r="2.5" fill="#58a6ff"/><circle cx="778.29" cy="123.53" r="2.5" fill="#58a6ff"/><circle cx="788.86" cy="120.78" r="2.5" fill="#58a6ff"/><circle cx="799.43" cy="117.19" r="2.5" fill="#58a6ff"/><circle cx="810.00" cy="114.13" r="4" fill="#F2C811"/>

  <!-- Last-value callout -->
  <rect x="720.0" y="92.0" width="82" height="24" rx="4" fill="#0d1a2a" stroke="#F2C811" stroke-width="1"/>
  <text x="761.0" y="108.0" font-family="'Segoe UI', Arial, sans-serif" font-size="12" fill="#F2C811" text-anchor="middle" font-weight="bold">16,423 total</text>

  <!-- X-axis labels -->
  <text x="70.0" y="298" font-family="'Segoe UI', Arial, sans-serif" font-size="10" fill="#8b949e" text-anchor="middle">Mar 26</text><text x="249.7" y="298" font-family="'Segoe UI', Arial, sans-serif" font-size="10" fill="#8b949e" text-anchor="middle">Apr 12</text><text x="440.0" y="298" font-family="'Segoe UI', Arial, sans-serif" font-size="10" fill="#8b949e" text-anchor="middle">Apr 30</text><text x="630.3" y="298" font-family="'Segoe UI', Arial, sans-serif" font-size="10" fill="#8b949e" text-anchor="middle">May 18</text><text x="810.0" y="298" font-family="'Segoe UI', Arial, sans-serif" font-size="10" fill="#8b949e" text-anchor="middle">Jun 04</text>

  <!-- Footer: date range -->
  <text x="70" y="328" font-family="'Segoe UI', Arial, sans-serif" font-size="10" fill="#8b949e">Mar 26, 2026 → Jun 04, 2026</text>
  <text x="810" y="328" font-family="'Segoe UI', Arial, sans-serif" font-size="10" fill="#8b949e" text-anchor="end">71 days of data</text>
</svg>
