<svg xmlns="http://www.w3.org/2000/svg" width="850" height="340" viewBox="0 0 850 340">
  <defs>
    <linearGradient id="areaFill" x1="0" y1="0" x2="0" y2="1">
      <stop offset="0%" stop-color="#58a6ff" stop-opacity="0.45"/>
      <stop offset="100%" stop-color="#58a6ff" stop-opacity="0"/>
    </linearGradient>
  </defs>

  <!-- Background -->
  <rect width="100%" height="100%" fill="#0d1117" rx="8"/>

  <!-- Title -->
  <text x="425" y="33" font-family="'Segoe UI', Arial, sans-serif" font-size="17" fill="#F2C811" text-anchor="middle" font-weight="bold">pbi-cli Downloads Over Time</text>
  <text x="425" y="52" font-family="'Segoe UI', Arial, sans-serif" font-size="11" fill="#8b949e" text-anchor="middle">Cumulative installs from PyPI • mirrors excluded • source: pypistats.org</text>

  <!-- Gridlines & y-labels -->
  <line x1="70" y1="280.0" x2="810" y2="280.0" stroke="#21262d" stroke-width="1" stroke-dasharray="2,3"/><line x1="70" y1="239.6" x2="810" y2="239.6" stroke="#21262d" stroke-width="1" stroke-dasharray="2,3"/><line x1="70" y1="199.2" x2="810" y2="199.2" stroke="#21262d" stroke-width="1" stroke-dasharray="2,3"/><line x1="70" y1="158.8" x2="810" y2="158.8" stroke="#21262d" stroke-width="1" stroke-dasharray="2,3"/><line x1="70" y1="118.4" x2="810" y2="118.4" stroke="#21262d" stroke-width="1" stroke-dasharray="2,3"/><line x1="70" y1="78.0" x2="810" y2="78.0" stroke="#21262d" stroke-width="1" stroke-dasharray="2,3"/>
  <text x="62" y="284.0" font-family="'Segoe UI', Arial, sans-serif" font-size="10" fill="#8b949e" text-anchor="end">0</text><text x="62" y="243.6" font-family="'Segoe UI', Arial, sans-serif" font-size="10" fill="#8b949e" text-anchor="end">4,000</text><text x="62" y="203.2" font-family="'Segoe UI', Arial, sans-serif" font-size="10" fill="#8b949e" text-anchor="end">8,000</text><text x="62" y="162.8" font-family="'Segoe UI', Arial, sans-serif" font-size="10" fill="#8b949e" text-anchor="end">12,000</text><text x="62" y="122.4" font-family="'Segoe UI', Arial, sans-serif" font-size="10" fill="#8b949e" text-anchor="end">16,000</text><text x="62" y="82.0" font-family="'Segoe UI', Arial, sans-serif" font-size="10" fill="#8b949e" text-anchor="end">20,000</text>

  <!-- Area fill -->
  <path d="M 70.00,280 L 70.00,273.87 L 80.00,271.19 L 90.00,270.87 L 100.00,270.81 L 110.00,270.48 L 120.00,270.30 L 130.00,269.98 L 140.00,269.20 L 150.00,267.59 L 160.00,266.69 L 170.00,263.76 L 180.00,261.71 L 190.00,255.63 L 200.00,253.16 L 210.00,251.69 L 220.00,250.24 L 230.00,249.86 L 240.00,248.97 L 250.00,247.57 L 260.00,245.29 L 270.00,244.47 L 280.00,243.28 L 290.00,242.09 L 300.00,241.70 L 310.00,241.26 L 320.00,239.76 L 330.00,238.82 L 340.00,237.50 L 350.00,236.55 L 360.00,235.98 L 370.00,235.32 L 380.00,234.44 L 390.00,233.44 L 400.00,232.20 L 410.00,230.94 L 420.00,229.76 L 430.00,228.65 L 440.00,228.26 L 450.00,226.69 L 460.00,224.48 L 470.00,221.87 L 480.00,218.60 L 490.00,212.01 L 500.00,207.58 L 510.00,205.22 L 520.00,203.23 L 530.00,197.76 L 540.00,193.11 L 550.00,188.82 L 560.00,183.98 L 570.00,180.13 L 580.00,177.87 L 590.00,174.63 L 600.00,171.33 L 610.00,165.60 L 620.00,161.04 L 630.00,155.52 L 640.00,151.79 L 650.00,149.26 L 660.00,147.26 L 670.00,145.32 L 680.00,141.28 L 690.00,136.98 L 700.00,133.01 L 710.00,130.07 L 720.00,128.62 L 730.00,126.89 L 740.00,123.53 L 750.00,120.78 L 760.00,117.19 L 770.00,114.13 L 780.00,111.07 L 790.00,108.09 L 800.00,106.90 L 810.00,104.68 L 810.00,280 Z" fill="url(#areaFill)"/>

  <!-- Line -->
  <path d="M 70.00,273.87 L 80.00,271.19 L 90.00,270.87 L 100.00,270.81 L 110.00,270.48 L 120.00,270.30 L 130.00,269.98 L 140.00,269.20 L 150.00,267.59 L 160.00,266.69 L 170.00,263.76 L 180.00,261.71 L 190.00,255.63 L 200.00,253.16 L 210.00,251.69 L 220.00,250.24 L 230.00,249.86 L 240.00,248.97 L 250.00,247.57 L 260.00,245.29 L 270.00,244.47 L 280.00,243.28 L 290.00,242.09 L 300.00,241.70 L 310.00,241.26 L 320.00,239.76 L 330.00,238.82 L 340.00,237.50 L 350.00,236.55 L 360.00,235.98 L 370.00,235.32 L 380.00,234.44 L 390.00,233.44 L 400.00,232.20 L 410.00,230.94 L 420.00,229.76 L 430.00,228.65 L 440.00,228.26 L 450.00,226.69 L 460.00,224.48 L 470.00,221.87 L 480.00,218.60 L 490.00,212.01 L 500.00,207.58 L 510.00,205.22 L 520.00,203.23 L 530.00,197.76 L 540.00,193.11 L 550.00,188.82 L 560.00,183.98 L 570.00,180.13 L 580.00,177.87 L 590.00,174.63 L 600.00,171.33 L 610.00,165.60 L 620.00,161.04 L 630.00,155.52 L 640.00,151.79 L 650.00,149.26 L 660.00,147.26 L 670.00,145.32 L 680.00,141.28 L 690.00,136.98 L 700.00,133.01 L 710.00,130.07 L 720.00,128.62 L 730.00,126.89 L 740.00,123.53 L 750.00,120.78 L 760.00,117.19 L 770.00,114.13 L 780.00,111.07 L 790.00,108.09 L 800.00,106.90 L 810.00,104.68" fill="none" stroke="#58a6ff" stroke-width="2.5" stroke-linejoin="round" stroke-linecap="round"/>

  <!-- Data points -->
  <circle cx="70.00" cy="273.87" r="2.5" fill="#58a6ff"/><circle cx="80.00" cy="271.19" r="2.5" fill="#58a6ff"/><circle cx="90.00" cy="270.87" r="2.5" fill="#58a6ff"/><circle cx="100.00" cy="270.81" r="2.5" fill="#58a6ff"/><circle cx="110.00" cy="270.48" r="2.5" fill="#58a6ff"/><circle cx="120.00" cy="270.30" r="2.5" fill="#58a6ff"/><circle cx="130.00" cy="269.98" r="2.5" fill="#58a6ff"/><circle cx="140.00" cy="269.20" r="2.5" fill="#58a6ff"/><circle cx="150.00" cy="267.59" r="2.5" fill="#58a6ff"/><circle cx="160.00" cy="266.69" r="2.5" fill="#58a6ff"/><circle cx="170.00" cy="263.76" r="2.5" fill="#58a6ff"/><circle cx="180.00" cy="261.71" r="2.5" fill="#58a6ff"/><circle cx="190.00" cy="255.63" r="2.5" fill="#58a6ff"/><circle cx="200.00" cy="253.16" r="2.5" fill="#58a6ff"/><circle cx="210.00" cy="251.69" r="2.5" fill="#58a6ff"/><circle cx="220.00" cy="250.24" r="2.5" fill="#58a6ff"/><circle cx="230.00" cy="249.86" r="2.5" fill="#58a6ff"/><circle cx="240.00" cy="248.97" r="2.5" fill="#58a6ff"/><circle cx="250.00" cy="247.57" r="2.5" fill="#58a6ff"/><circle cx="260.00" cy="245.29" r="2.5" fill="#58a6ff"/><circle cx="270.00" cy="244.47" r="2.5" fill="#58a6ff"/><circle cx="280.00" cy="243.28" r="2.5" fill="#58a6ff"/><circle cx="290.00" cy="242.09" r="2.5" fill="#58a6ff"/><circle cx="300.00" cy="241.70" r="2.5" fill="#58a6ff"/><circle cx="310.00" cy="241.26" r="2.5" fill="#58a6ff"/><circle cx="320.00" cy="239.76" r="2.5" fill="#58a6ff"/><circle cx="330.00" cy="238.82" r="2.5" fill="#58a6ff"/><circle cx="340.00" cy="237.50" r="2.5" fill="#58a6ff"/><circle cx="350.00" cy="236.55" r="2.5" fill="#58a6ff"/><circle cx="360.00" cy="235.98" r="2.5" fill="#58a6ff"/><circle cx="370.00" cy="235.32" r="2.5" fill="#58a6ff"/><circle cx="380.00" cy="234.44" r="2.5" fill="#58a6ff"/><circle cx="390.00" cy="233.44" r="2.5" fill="#58a6ff"/><circle cx="400.00" cy="232.20" r="2.5" fill="#58a6ff"/><circle cx="410.00" cy="230.94" r="2.5" fill="#58a6ff"/><circle cx="420.00" cy="229.76" r="2.5" fill="#58a6ff"/><circle cx="430.00" cy="228.65" r="2.5" fill="#58a6ff"/><circle cx="440.00" cy="228.26" r="2.5" fill="#58a6ff"/><circle cx="450.00" cy="226.69" r="2.5" fill="#58a6ff"/><circle cx="460.00" cy="224.48" r="2.5" fill="#58a6ff"/><circle cx="470.00" cy="221.87" r="2.5" fill="#58a6ff"/><circle cx="480.00" cy="218.60" r="2.5" fill="#58a6ff"/><circle cx="490.00" cy="212.01" r="2.5" fill="#58a6ff"/><circle cx="500.00" cy="207.58" r="2.5" fill="#58a6ff"/><circle cx="510.00" cy="205.22" r="2.5" fill="#58a6ff"/><circle cx="520.00" cy="203.23" r="2.5" fill="#58a6ff"/><circle cx="530.00" cy="197.76" r="2.5" fill="#58a6ff"/><circle cx="540.00" cy="193.11" r="2.5" fill="#58a6ff"/><circle cx="550.00" cy="188.82" r="2.5" fill="#58a6ff"/><circle cx="560.00" cy="183.98" r="2.5" fill="#58a6ff"/><circle cx="570.00" cy="180.13" r="2.5" fill="#58a6ff"/><circle cx="580.00" cy="177.87" r="2.5" fill="#58a6ff"/><circle cx="590.00" cy="174.63" r="2.5" fill="#58a6ff"/><circle cx="600.00" cy="171.33" r="2.5" fill="#58a6ff"/><circle cx="610.00" cy="165.60" r="2.5" fill="#58a6ff"/><circle cx="620.00" cy="161.04" r="2.5" fill="#58a6ff"/><circle cx="630.00" cy="155.52" r="2.5" fill="#58a6ff"/><circle cx="640.00" cy="151.79" r="2.5" fill="#58a6ff"/><circle cx="650.00" cy="149.26" r="2.5" fill="#58a6ff"/><circle cx="660.00" cy="147.26" r="2.5" fill="#58a6ff"/><circle cx="670.00" cy="145.32" r="2.5" fill="#58a6ff"/><circle cx="680.00" cy="141.28" r="2.5" fill="#58a6ff"/><circle cx="690.00" cy="136.98" r="2.5" fill="#58a6ff"/><circle cx="700.00" cy="133.01" r="2.5" fill="#58a6ff"/><circle cx="710.00" cy="130.07" r="2.5" fill="#58a6ff"/><circle cx="720.00" cy="128.62" r="2.5" fill="#58a6ff"/><circle cx="730.00" cy="126.89" r="2.5" fill="#58a6ff"/><circle cx="740.00" cy="123.53" r="2.5" fill="#58a6ff"/><circle cx="750.00" cy="120.78" r="2.5" fill="#58a6ff"/><circle cx="760.00" cy="117.19" r="2.5" fill="#58a6ff"/><circle cx="770.00" cy="114.13" r="2.5" fill="#58a6ff"/><circle cx="780.00" cy="111.07" r="2.5" fill="#58a6ff"/><circle cx="790.00" cy="108.09" r="2.5" fill="#58a6ff"/><circle cx="800.00" cy="106.90" r="2.5" fill="#58a6ff"/><circle cx="810.00" cy="104.68" r="4" fill="#F2C811"/>

  <!-- Last-value callout -->
  <rect x="720.0" y="92.0" width="82" height="24" rx="4" fill="#0d1a2a" stroke="#F2C811" stroke-width="1"/>
  <text x="761.0" y="108.0" font-family="'Segoe UI', Arial, sans-serif" font-size="12" fill="#F2C811" text-anchor="middle" font-weight="bold">17,358 total</text>

  <!-- X-axis labels -->
  <text x="70.0" y="298" font-family="'Segoe UI', Arial, sans-serif" font-size="10" fill="#8b949e" text-anchor="middle">Mar 26</text><text x="250.0" y="298" font-family="'Segoe UI', Arial, sans-serif" font-size="10" fill="#8b949e" text-anchor="middle">Apr 13</text><text x="440.0" y="298" font-family="'Segoe UI', Arial, sans-serif" font-size="10" fill="#8b949e" text-anchor="middle">May 02</text><text x="630.0" y="298" font-family="'Segoe UI', Arial, sans-serif" font-size="10" fill="#8b949e" text-anchor="middle">May 21</text><text x="810.0" y="298" font-family="'Segoe UI', Arial, sans-serif" font-size="10" fill="#8b949e" text-anchor="middle">Jun 08</text>

  <!-- Footer: date range -->
  <text x="70" y="328" font-family="'Segoe UI', Arial, sans-serif" font-size="10" fill="#8b949e">Mar 26, 2026 → Jun 08, 2026</text>
  <text x="810" y="328" font-family="'Segoe UI', Arial, sans-serif" font-size="10" fill="#8b949e" text-anchor="end">75 days of data</text>
</svg>
