<svg xmlns="http://www.w3.org/2000/svg" width="850" height="340" viewBox="0 0 850 340">
  <defs>
    <linearGradient id="areaFill" x1="0" y1="0" x2="0" y2="1">
      <stop offset="0%" stop-color="#58a6ff" stop-opacity="0.45"/>
      <stop offset="100%" stop-color="#58a6ff" stop-opacity="0"/>
    </linearGradient>
  </defs>

  <!-- Background -->
  <rect width="100%" height="100%" fill="#0d1117" rx="8"/>

  <!-- Title -->
  <text x="425" y="33" font-family="'Segoe UI', Arial, sans-serif" font-size="17" fill="#F2C811" text-anchor="middle" font-weight="bold">pbi-cli Downloads Over Time</text>
  <text x="425" y="52" font-family="'Segoe UI', Arial, sans-serif" font-size="11" fill="#8b949e" text-anchor="middle">Cumulative installs from PyPI • mirrors excluded • source: pypistats.org</text>

  <!-- Gridlines & y-labels -->
  <line x1="70" y1="280.0" x2="810" y2="280.0" stroke="#21262d" stroke-width="1" stroke-dasharray="2,3"/><line x1="70" y1="239.6" x2="810" y2="239.6" stroke="#21262d" stroke-width="1" stroke-dasharray="2,3"/><line x1="70" y1="199.2" x2="810" y2="199.2" stroke="#21262d" stroke-width="1" stroke-dasharray="2,3"/><line x1="70" y1="158.8" x2="810" y2="158.8" stroke="#21262d" stroke-width="1" stroke-dasharray="2,3"/><line x1="70" y1="118.4" x2="810" y2="118.4" stroke="#21262d" stroke-width="1" stroke-dasharray="2,3"/><line x1="70" y1="78.0" x2="810" y2="78.0" stroke="#21262d" stroke-width="1" stroke-dasharray="2,3"/>
  <text x="62" y="284.0" font-family="'Segoe UI', Arial, sans-serif" font-size="10" fill="#8b949e" text-anchor="end">0</text><text x="62" y="243.6" font-family="'Segoe UI', Arial, sans-serif" font-size="10" fill="#8b949e" text-anchor="end">2,000</text><text x="62" y="203.2" font-family="'Segoe UI', Arial, sans-serif" font-size="10" fill="#8b949e" text-anchor="end">4,000</text><text x="62" y="162.8" font-family="'Segoe UI', Arial, sans-serif" font-size="10" fill="#8b949e" text-anchor="end">6,000</text><text x="62" y="122.4" font-family="'Segoe UI', Arial, sans-serif" font-size="10" fill="#8b949e" text-anchor="end">8,000</text><text x="62" y="82.0" font-family="'Segoe UI', Arial, sans-serif" font-size="10" fill="#8b949e" text-anchor="end">10,000</text>

  <!-- Area fill -->
  <path d="M 70.00,280 L 70.00,267.74 L 90.56,262.39 L 111.11,261.74 L 131.67,261.62 L 152.22,260.95 L 172.78,260.61 L 193.33,259.96 L 213.89,258.41 L 234.44,255.17 L 255.00,253.38 L 275.56,247.52 L 296.11,243.42 L 316.67,231.26 L 337.22,226.33 L 357.78,223.38 L 378.33,220.47 L 398.89,219.72 L 419.44,217.95 L 440.00,215.14 L 460.56,210.57 L 481.11,208.94 L 501.67,206.55 L 522.22,204.19 L 542.78,203.40 L 563.33,202.51 L 583.89,199.52 L 604.44,197.64 L 625.00,195.00 L 645.56,193.10 L 666.11,191.97 L 686.67,190.64 L 707.22,188.88 L 727.78,186.88 L 748.33,184.39 L 768.89,181.89 L 789.44,179.53 L 810.00,177.30 L 810.00,280 Z" fill="url(#areaFill)"/>

  <!-- Line -->
  <path d="M 70.00,267.74 L 90.56,262.39 L 111.11,261.74 L 131.67,261.62 L 152.22,260.95 L 172.78,260.61 L 193.33,259.96 L 213.89,258.41 L 234.44,255.17 L 255.00,253.38 L 275.56,247.52 L 296.11,243.42 L 316.67,231.26 L 337.22,226.33 L 357.78,223.38 L 378.33,220.47 L 398.89,219.72 L 419.44,217.95 L 440.00,215.14 L 460.56,210.57 L 481.11,208.94 L 501.67,206.55 L 522.22,204.19 L 542.78,203.40 L 563.33,202.51 L 583.89,199.52 L 604.44,197.64 L 625.00,195.00 L 645.56,193.10 L 666.11,191.97 L 686.67,190.64 L 707.22,188.88 L 727.78,186.88 L 748.33,184.39 L 768.89,181.89 L 789.44,179.53 L 810.00,177.30" fill="none" stroke="#58a6ff" stroke-width="2.5" stroke-linejoin="round" stroke-linecap="round"/>

  <!-- Data points -->
  <circle cx="70.00" cy="267.74" r="2.5" fill="#58a6ff"/><circle cx="90.56" cy="262.39" r="2.5" fill="#58a6ff"/><circle cx="111.11" cy="261.74" r="2.5" fill="#58a6ff"/><circle cx="131.67" cy="261.62" r="2.5" fill="#58a6ff"/><circle cx="152.22" cy="260.95" r="2.5" fill="#58a6ff"/><circle cx="172.78" cy="260.61" r="2.5" fill="#58a6ff"/><circle cx="193.33" cy="259.96" r="2.5" fill="#58a6ff"/><circle cx="213.89" cy="258.41" r="2.5" fill="#58a6ff"/><circle cx="234.44" cy="255.17" r="2.5" fill="#58a6ff"/><circle cx="255.00" cy="253.38" r="2.5" fill="#58a6ff"/><circle cx="275.56" cy="247.52" r="2.5" fill="#58a6ff"/><circle cx="296.11" cy="243.42" r="2.5" fill="#58a6ff"/><circle cx="316.67" cy="231.26" r="2.5" fill="#58a6ff"/><circle cx="337.22" cy="226.33" r="2.5" fill="#58a6ff"/><circle cx="357.78" cy="223.38" r="2.5" fill="#58a6ff"/><circle cx="378.33" cy="220.47" r="2.5" fill="#58a6ff"/><circle cx="398.89" cy="219.72" r="2.5" fill="#58a6ff"/><circle cx="419.44" cy="217.95" r="2.5" fill="#58a6ff"/><circle cx="440.00" cy="215.14" r="2.5" fill="#58a6ff"/><circle cx="460.56" cy="210.57" r="2.5" fill="#58a6ff"/><circle cx="481.11" cy="208.94" r="2.5" fill="#58a6ff"/><circle cx="501.67" cy="206.55" r="2.5" fill="#58a6ff"/><circle cx="522.22" cy="204.19" r="2.5" fill="#58a6ff"/><circle cx="542.78" cy="203.40" r="2.5" fill="#58a6ff"/><circle cx="563.33" cy="202.51" r="2.5" fill="#58a6ff"/><circle cx="583.89" cy="199.52" r="2.5" fill="#58a6ff"/><circle cx="604.44" cy="197.64" r="2.5" fill="#58a6ff"/><circle cx="625.00" cy="195.00" r="2.5" fill="#58a6ff"/><circle cx="645.56" cy="193.10" r="2.5" fill="#58a6ff"/><circle cx="666.11" cy="191.97" r="2.5" fill="#58a6ff"/><circle cx="686.67" cy="190.64" r="2.5" fill="#58a6ff"/><circle cx="707.22" cy="188.88" r="2.5" fill="#58a6ff"/><circle cx="727.78" cy="186.88" r="2.5" fill="#58a6ff"/><circle cx="748.33" cy="184.39" r="2.5" fill="#58a6ff"/><circle cx="768.89" cy="181.89" r="2.5" fill="#58a6ff"/><circle cx="789.44" cy="179.53" r="2.5" fill="#58a6ff"/><circle cx="810.00" cy="177.30" r="4" fill="#F2C811"/>

  <!-- Last-value callout -->
  <rect x="720.0" y="149.3" width="82" height="24" rx="4" fill="#0d1a2a" stroke="#F2C811" stroke-width="1"/>
  <text x="761.0" y="165.3" font-family="'Segoe UI', Arial, sans-serif" font-size="12" fill="#F2C811" text-anchor="middle" font-weight="bold">5,084 total</text>

  <!-- X-axis labels -->
  <text x="70.0" y="298" font-family="'Segoe UI', Arial, sans-serif" font-size="10" fill="#8b949e" text-anchor="middle">Mar 26</text><text x="255.0" y="298" font-family="'Segoe UI', Arial, sans-serif" font-size="10" fill="#8b949e" text-anchor="middle">Apr 04</text><text x="440.0" y="298" font-family="'Segoe UI', Arial, sans-serif" font-size="10" fill="#8b949e" text-anchor="middle">Apr 13</text><text x="625.0" y="298" font-family="'Segoe UI', Arial, sans-serif" font-size="10" fill="#8b949e" text-anchor="middle">Apr 22</text><text x="810.0" y="298" font-family="'Segoe UI', Arial, sans-serif" font-size="10" fill="#8b949e" text-anchor="middle">May 01</text>

  <!-- Footer: date range -->
  <text x="70" y="328" font-family="'Segoe UI', Arial, sans-serif" font-size="10" fill="#8b949e">Mar 26, 2026 → May 01, 2026</text>
  <text x="810" y="328" font-family="'Segoe UI', Arial, sans-serif" font-size="10" fill="#8b949e" text-anchor="end">37 days of data</text>
</svg>
