<svg xmlns="http://www.w3.org/2000/svg" width="850" height="340" viewBox="0 0 850 340">
  <defs>
    <linearGradient id="areaFill" x1="0" y1="0" x2="0" y2="1">
      <stop offset="0%" stop-color="#58a6ff" stop-opacity="0.45"/>
      <stop offset="100%" stop-color="#58a6ff" stop-opacity="0"/>
    </linearGradient>
  </defs>

  <!-- Background -->
  <rect width="100%" height="100%" fill="#0d1117" rx="8"/>

  <!-- Title -->
  <text x="425" y="33" font-family="'Segoe UI', Arial, sans-serif" font-size="17" fill="#F2C811" text-anchor="middle" font-weight="bold">pbi-cli Downloads Over Time</text>
  <text x="425" y="52" font-family="'Segoe UI', Arial, sans-serif" font-size="11" fill="#8b949e" text-anchor="middle">Cumulative installs from PyPI • mirrors excluded • source: pypistats.org</text>

  <!-- Gridlines & y-labels -->
  <line x1="70" y1="280.0" x2="810" y2="280.0" stroke="#21262d" stroke-width="1" stroke-dasharray="2,3"/><line x1="70" y1="239.6" x2="810" y2="239.6" stroke="#21262d" stroke-width="1" stroke-dasharray="2,3"/><line x1="70" y1="199.2" x2="810" y2="199.2" stroke="#21262d" stroke-width="1" stroke-dasharray="2,3"/><line x1="70" y1="158.8" x2="810" y2="158.8" stroke="#21262d" stroke-width="1" stroke-dasharray="2,3"/><line x1="70" y1="118.4" x2="810" y2="118.4" stroke="#21262d" stroke-width="1" stroke-dasharray="2,3"/><line x1="70" y1="78.0" x2="810" y2="78.0" stroke="#21262d" stroke-width="1" stroke-dasharray="2,3"/>
  <text x="62" y="284.0" font-family="'Segoe UI', Arial, sans-serif" font-size="10" fill="#8b949e" text-anchor="end">0</text><text x="62" y="243.6" font-family="'Segoe UI', Arial, sans-serif" font-size="10" fill="#8b949e" text-anchor="end">2,000</text><text x="62" y="203.2" font-family="'Segoe UI', Arial, sans-serif" font-size="10" fill="#8b949e" text-anchor="end">4,000</text><text x="62" y="162.8" font-family="'Segoe UI', Arial, sans-serif" font-size="10" fill="#8b949e" text-anchor="end">6,000</text><text x="62" y="122.4" font-family="'Segoe UI', Arial, sans-serif" font-size="10" fill="#8b949e" text-anchor="end">8,000</text><text x="62" y="82.0" font-family="'Segoe UI', Arial, sans-serif" font-size="10" fill="#8b949e" text-anchor="end">10,000</text>

  <!-- Area fill -->
  <path d="M 70.00,280 L 70.00,267.74 L 94.67,262.39 L 119.33,261.74 L 144.00,261.62 L 168.67,260.95 L 193.33,260.61 L 218.00,259.96 L 242.67,258.41 L 267.33,255.17 L 292.00,253.38 L 316.67,247.52 L 341.33,243.42 L 366.00,231.26 L 390.67,226.33 L 415.33,223.38 L 440.00,220.47 L 464.67,219.72 L 489.33,217.95 L 514.00,215.14 L 538.67,210.57 L 563.33,208.94 L 588.00,206.55 L 612.67,204.19 L 637.33,203.40 L 662.00,202.51 L 686.67,199.52 L 711.33,197.64 L 736.00,195.00 L 760.67,193.10 L 785.33,191.97 L 810.00,190.64 L 810.00,280 Z" fill="url(#areaFill)"/>

  <!-- Line -->
  <path d="M 70.00,267.74 L 94.67,262.39 L 119.33,261.74 L 144.00,261.62 L 168.67,260.95 L 193.33,260.61 L 218.00,259.96 L 242.67,258.41 L 267.33,255.17 L 292.00,253.38 L 316.67,247.52 L 341.33,243.42 L 366.00,231.26 L 390.67,226.33 L 415.33,223.38 L 440.00,220.47 L 464.67,219.72 L 489.33,217.95 L 514.00,215.14 L 538.67,210.57 L 563.33,208.94 L 588.00,206.55 L 612.67,204.19 L 637.33,203.40 L 662.00,202.51 L 686.67,199.52 L 711.33,197.64 L 736.00,195.00 L 760.67,193.10 L 785.33,191.97 L 810.00,190.64" fill="none" stroke="#58a6ff" stroke-width="2.5" stroke-linejoin="round" stroke-linecap="round"/>

  <!-- Data points -->
  <circle cx="70.00" cy="267.74" r="2.5" fill="#58a6ff"/><circle cx="94.67" cy="262.39" r="2.5" fill="#58a6ff"/><circle cx="119.33" cy="261.74" r="2.5" fill="#58a6ff"/><circle cx="144.00" cy="261.62" r="2.5" fill="#58a6ff"/><circle cx="168.67" cy="260.95" r="2.5" fill="#58a6ff"/><circle cx="193.33" cy="260.61" r="2.5" fill="#58a6ff"/><circle cx="218.00" cy="259.96" r="2.5" fill="#58a6ff"/><circle cx="242.67" cy="258.41" r="2.5" fill="#58a6ff"/><circle cx="267.33" cy="255.17" r="2.5" fill="#58a6ff"/><circle cx="292.00" cy="253.38" r="2.5" fill="#58a6ff"/><circle cx="316.67" cy="247.52" r="2.5" fill="#58a6ff"/><circle cx="341.33" cy="243.42" r="2.5" fill="#58a6ff"/><circle cx="366.00" cy="231.26" r="2.5" fill="#58a6ff"/><circle cx="390.67" cy="226.33" r="2.5" fill="#58a6ff"/><circle cx="415.33" cy="223.38" r="2.5" fill="#58a6ff"/><circle cx="440.00" cy="220.47" r="2.5" fill="#58a6ff"/><circle cx="464.67" cy="219.72" r="2.5" fill="#58a6ff"/><circle cx="489.33" cy="217.95" r="2.5" fill="#58a6ff"/><circle cx="514.00" cy="215.14" r="2.5" fill="#58a6ff"/><circle cx="538.67" cy="210.57" r="2.5" fill="#58a6ff"/><circle cx="563.33" cy="208.94" r="2.5" fill="#58a6ff"/><circle cx="588.00" cy="206.55" r="2.5" fill="#58a6ff"/><circle cx="612.67" cy="204.19" r="2.5" fill="#58a6ff"/><circle cx="637.33" cy="203.40" r="2.5" fill="#58a6ff"/><circle cx="662.00" cy="202.51" r="2.5" fill="#58a6ff"/><circle cx="686.67" cy="199.52" r="2.5" fill="#58a6ff"/><circle cx="711.33" cy="197.64" r="2.5" fill="#58a6ff"/><circle cx="736.00" cy="195.00" r="2.5" fill="#58a6ff"/><circle cx="760.67" cy="193.10" r="2.5" fill="#58a6ff"/><circle cx="785.33" cy="191.97" r="2.5" fill="#58a6ff"/><circle cx="810.00" cy="190.64" r="4" fill="#F2C811"/>

  <!-- Last-value callout -->
  <rect x="720.0" y="162.6" width="82" height="24" rx="4" fill="#0d1a2a" stroke="#F2C811" stroke-width="1"/>
  <text x="761.0" y="178.6" font-family="'Segoe UI', Arial, sans-serif" font-size="12" fill="#F2C811" text-anchor="middle" font-weight="bold">4,424 total</text>

  <!-- X-axis labels -->
  <text x="70.0" y="298" font-family="'Segoe UI', Arial, sans-serif" font-size="10" fill="#8b949e" text-anchor="middle">Mar 26</text><text x="242.7" y="298" font-family="'Segoe UI', Arial, sans-serif" font-size="10" fill="#8b949e" text-anchor="middle">Apr 02</text><text x="440.0" y="298" font-family="'Segoe UI', Arial, sans-serif" font-size="10" fill="#8b949e" text-anchor="middle">Apr 10</text><text x="637.3" y="298" font-family="'Segoe UI', Arial, sans-serif" font-size="10" fill="#8b949e" text-anchor="middle">Apr 18</text><text x="810.0" y="298" font-family="'Segoe UI', Arial, sans-serif" font-size="10" fill="#8b949e" text-anchor="middle">Apr 25</text>

  <!-- Footer: date range -->
  <text x="70" y="328" font-family="'Segoe UI', Arial, sans-serif" font-size="10" fill="#8b949e">Mar 26, 2026 → Apr 25, 2026</text>
  <text x="810" y="328" font-family="'Segoe UI', Arial, sans-serif" font-size="10" fill="#8b949e" text-anchor="end">31 days of data</text>
</svg>
