<svg xmlns="http://www.w3.org/2000/svg" width="850" height="340" viewBox="0 0 850 340">
  <defs>
    <linearGradient id="areaFill" x1="0" y1="0" x2="0" y2="1">
      <stop offset="0%" stop-color="#58a6ff" stop-opacity="0.45"/>
      <stop offset="100%" stop-color="#58a6ff" stop-opacity="0"/>
    </linearGradient>
  </defs>

  <!-- Background -->
  <rect width="100%" height="100%" fill="#0d1117" rx="8"/>

  <!-- Title -->
  <text x="425" y="33" font-family="'Segoe UI', Arial, sans-serif" font-size="17" fill="#F2C811" text-anchor="middle" font-weight="bold">pbi-cli Downloads Over Time</text>
  <text x="425" y="52" font-family="'Segoe UI', Arial, sans-serif" font-size="11" fill="#8b949e" text-anchor="middle">Cumulative installs from PyPI • mirrors excluded • source: pypistats.org</text>

  <!-- Gridlines & y-labels -->
  <line x1="70" y1="280.0" x2="810" y2="280.0" stroke="#21262d" stroke-width="1" stroke-dasharray="2,3"/><line x1="70" y1="239.6" x2="810" y2="239.6" stroke="#21262d" stroke-width="1" stroke-dasharray="2,3"/><line x1="70" y1="199.2" x2="810" y2="199.2" stroke="#21262d" stroke-width="1" stroke-dasharray="2,3"/><line x1="70" y1="158.8" x2="810" y2="158.8" stroke="#21262d" stroke-width="1" stroke-dasharray="2,3"/><line x1="70" y1="118.4" x2="810" y2="118.4" stroke="#21262d" stroke-width="1" stroke-dasharray="2,3"/><line x1="70" y1="78.0" x2="810" y2="78.0" stroke="#21262d" stroke-width="1" stroke-dasharray="2,3"/>
  <text x="62" y="284.0" font-family="'Segoe UI', Arial, sans-serif" font-size="10" fill="#8b949e" text-anchor="end">0</text><text x="62" y="243.6" font-family="'Segoe UI', Arial, sans-serif" font-size="10" fill="#8b949e" text-anchor="end">10,000</text><text x="62" y="203.2" font-family="'Segoe UI', Arial, sans-serif" font-size="10" fill="#8b949e" text-anchor="end">20,000</text><text x="62" y="162.8" font-family="'Segoe UI', Arial, sans-serif" font-size="10" fill="#8b949e" text-anchor="end">30,000</text><text x="62" y="122.4" font-family="'Segoe UI', Arial, sans-serif" font-size="10" fill="#8b949e" text-anchor="end">40,000</text><text x="62" y="82.0" font-family="'Segoe UI', Arial, sans-serif" font-size="10" fill="#8b949e" text-anchor="end">50,000</text>

  <!-- Area fill -->
  <path d="M 70.00,280 L 70.00,277.55 L 78.31,276.48 L 86.63,276.35 L 94.94,276.32 L 103.26,276.19 L 111.57,276.12 L 119.89,275.99 L 128.20,275.68 L 136.52,275.03 L 144.83,274.68 L 153.15,273.50 L 161.46,272.68 L 169.78,270.25 L 178.09,269.27 L 186.40,268.68 L 194.72,268.09 L 203.03,267.94 L 211.35,267.59 L 219.66,267.03 L 227.98,266.11 L 236.29,265.79 L 244.61,265.31 L 252.92,264.84 L 261.24,264.68 L 269.55,264.50 L 277.87,263.90 L 286.18,263.53 L 294.49,263.00 L 302.81,262.62 L 311.12,262.39 L 319.44,262.13 L 327.75,261.78 L 336.07,261.38 L 344.38,260.88 L 352.70,260.38 L 361.01,259.91 L 369.33,259.46 L 377.64,259.30 L 385.96,258.68 L 394.27,257.79 L 402.58,256.75 L 410.90,255.44 L 419.21,252.80 L 427.53,251.03 L 435.84,250.09 L 444.16,249.29 L 452.47,247.10 L 460.79,245.24 L 469.10,243.53 L 477.42,241.59 L 485.73,240.05 L 494.04,239.15 L 502.36,237.85 L 510.67,236.53 L 518.99,234.24 L 527.30,232.42 L 535.62,230.21 L 543.93,228.72 L 552.25,227.70 L 560.56,226.90 L 568.88,226.13 L 577.19,224.51 L 585.51,222.79 L 593.82,221.21 L 602.13,220.03 L 610.45,219.45 L 618.76,218.76 L 627.08,217.41 L 635.39,216.31 L 643.71,214.88 L 652.02,213.65 L 660.34,212.43 L 668.65,211.24 L 676.97,210.76 L 685.28,209.87 L 693.60,208.48 L 701.91,206.68 L 710.22,205.31 L 718.54,204.29 L 726.85,203.29 L 735.17,201.89 L 743.48,200.38 L 751.80,198.80 L 760.11,195.99 L 768.43,195.06 L 776.74,194.50 L 785.06,193.74 L 793.37,192.10 L 801.69,190.78 L 810.00,189.57 L 810.00,280 Z" fill="url(#areaFill)"/>

  <!-- Line -->
  <path d="M 70.00,277.55 L 78.31,276.48 L 86.63,276.35 L 94.94,276.32 L 103.26,276.19 L 111.57,276.12 L 119.89,275.99 L 128.20,275.68 L 136.52,275.03 L 144.83,274.68 L 153.15,273.50 L 161.46,272.68 L 169.78,270.25 L 178.09,269.27 L 186.40,268.68 L 194.72,268.09 L 203.03,267.94 L 211.35,267.59 L 219.66,267.03 L 227.98,266.11 L 236.29,265.79 L 244.61,265.31 L 252.92,264.84 L 261.24,264.68 L 269.55,264.50 L 277.87,263.90 L 286.18,263.53 L 294.49,263.00 L 302.81,262.62 L 311.12,262.39 L 319.44,262.13 L 327.75,261.78 L 336.07,261.38 L 344.38,260.88 L 352.70,260.38 L 361.01,259.91 L 369.33,259.46 L 377.64,259.30 L 385.96,258.68 L 394.27,257.79 L 402.58,256.75 L 410.90,255.44 L 419.21,252.80 L 427.53,251.03 L 435.84,250.09 L 444.16,249.29 L 452.47,247.10 L 460.79,245.24 L 469.10,243.53 L 477.42,241.59 L 485.73,240.05 L 494.04,239.15 L 502.36,237.85 L 510.67,236.53 L 518.99,234.24 L 527.30,232.42 L 535.62,230.21 L 543.93,228.72 L 552.25,227.70 L 560.56,226.90 L 568.88,226.13 L 577.19,224.51 L 585.51,222.79 L 593.82,221.21 L 602.13,220.03 L 610.45,219.45 L 618.76,218.76 L 627.08,217.41 L 635.39,216.31 L 643.71,214.88 L 652.02,213.65 L 660.34,212.43 L 668.65,211.24 L 676.97,210.76 L 685.28,209.87 L 693.60,208.48 L 701.91,206.68 L 710.22,205.31 L 718.54,204.29 L 726.85,203.29 L 735.17,201.89 L 743.48,200.38 L 751.80,198.80 L 760.11,195.99 L 768.43,195.06 L 776.74,194.50 L 785.06,193.74 L 793.37,192.10 L 801.69,190.78 L 810.00,189.57" fill="none" stroke="#58a6ff" stroke-width="2.5" stroke-linejoin="round" stroke-linecap="round"/>

  <!-- Data points -->
  <circle cx="70.00" cy="277.55" r="2.5" fill="#58a6ff"/><circle cx="78.31" cy="276.48" r="2.5" fill="#58a6ff"/><circle cx="86.63" cy="276.35" r="2.5" fill="#58a6ff"/><circle cx="94.94" cy="276.32" r="2.5" fill="#58a6ff"/><circle cx="103.26" cy="276.19" r="2.5" fill="#58a6ff"/><circle cx="111.57" cy="276.12" r="2.5" fill="#58a6ff"/><circle cx="119.89" cy="275.99" r="2.5" fill="#58a6ff"/><circle cx="128.20" cy="275.68" r="2.5" fill="#58a6ff"/><circle cx="136.52" cy="275.03" r="2.5" fill="#58a6ff"/><circle cx="144.83" cy="274.68" r="2.5" fill="#58a6ff"/><circle cx="153.15" cy="273.50" r="2.5" fill="#58a6ff"/><circle cx="161.46" cy="272.68" r="2.5" fill="#58a6ff"/><circle cx="169.78" cy="270.25" r="2.5" fill="#58a6ff"/><circle cx="178.09" cy="269.27" r="2.5" fill="#58a6ff"/><circle cx="186.40" cy="268.68" r="2.5" fill="#58a6ff"/><circle cx="194.72" cy="268.09" r="2.5" fill="#58a6ff"/><circle cx="203.03" cy="267.94" r="2.5" fill="#58a6ff"/><circle cx="211.35" cy="267.59" r="2.5" fill="#58a6ff"/><circle cx="219.66" cy="267.03" r="2.5" fill="#58a6ff"/><circle cx="227.98" cy="266.11" r="2.5" fill="#58a6ff"/><circle cx="236.29" cy="265.79" r="2.5" fill="#58a6ff"/><circle cx="244.61" cy="265.31" r="2.5" fill="#58a6ff"/><circle cx="252.92" cy="264.84" r="2.5" fill="#58a6ff"/><circle cx="261.24" cy="264.68" r="2.5" fill="#58a6ff"/><circle cx="269.55" cy="264.50" r="2.5" fill="#58a6ff"/><circle cx="277.87" cy="263.90" r="2.5" fill="#58a6ff"/><circle cx="286.18" cy="263.53" r="2.5" fill="#58a6ff"/><circle cx="294.49" cy="263.00" r="2.5" fill="#58a6ff"/><circle cx="302.81" cy="262.62" r="2.5" fill="#58a6ff"/><circle cx="311.12" cy="262.39" r="2.5" fill="#58a6ff"/><circle cx="319.44" cy="262.13" r="2.5" fill="#58a6ff"/><circle cx="327.75" cy="261.78" r="2.5" fill="#58a6ff"/><circle cx="336.07" cy="261.38" r="2.5" fill="#58a6ff"/><circle cx="344.38" cy="260.88" r="2.5" fill="#58a6ff"/><circle cx="352.70" cy="260.38" r="2.5" fill="#58a6ff"/><circle cx="361.01" cy="259.91" r="2.5" fill="#58a6ff"/><circle cx="369.33" cy="259.46" r="2.5" fill="#58a6ff"/><circle cx="377.64" cy="259.30" r="2.5" fill="#58a6ff"/><circle cx="385.96" cy="258.68" r="2.5" fill="#58a6ff"/><circle cx="394.27" cy="257.79" r="2.5" fill="#58a6ff"/><circle cx="402.58" cy="256.75" r="2.5" fill="#58a6ff"/><circle cx="410.90" cy="255.44" r="2.5" fill="#58a6ff"/><circle cx="419.21" cy="252.80" r="2.5" fill="#58a6ff"/><circle cx="427.53" cy="251.03" r="2.5" fill="#58a6ff"/><circle cx="435.84" cy="250.09" r="2.5" fill="#58a6ff"/><circle cx="444.16" cy="249.29" r="2.5" fill="#58a6ff"/><circle cx="452.47" cy="247.10" r="2.5" fill="#58a6ff"/><circle cx="460.79" cy="245.24" r="2.5" fill="#58a6ff"/><circle cx="469.10" cy="243.53" r="2.5" fill="#58a6ff"/><circle cx="477.42" cy="241.59" r="2.5" fill="#58a6ff"/><circle cx="485.73" cy="240.05" r="2.5" fill="#58a6ff"/><circle cx="494.04" cy="239.15" r="2.5" fill="#58a6ff"/><circle cx="502.36" cy="237.85" r="2.5" fill="#58a6ff"/><circle cx="510.67" cy="236.53" r="2.5" fill="#58a6ff"/><circle cx="518.99" cy="234.24" r="2.5" fill="#58a6ff"/><circle cx="527.30" cy="232.42" r="2.5" fill="#58a6ff"/><circle cx="535.62" cy="230.21" r="2.5" fill="#58a6ff"/><circle cx="543.93" cy="228.72" r="2.5" fill="#58a6ff"/><circle cx="552.25" cy="227.70" r="2.5" fill="#58a6ff"/><circle cx="560.56" cy="226.90" r="2.5" fill="#58a6ff"/><circle cx="568.88" cy="226.13" r="2.5" fill="#58a6ff"/><circle cx="577.19" cy="224.51" r="2.5" fill="#58a6ff"/><circle cx="585.51" cy="222.79" r="2.5" fill="#58a6ff"/><circle cx="593.82" cy="221.21" r="2.5" fill="#58a6ff"/><circle cx="602.13" cy="220.03" r="2.5" fill="#58a6ff"/><circle cx="610.45" cy="219.45" r="2.5" fill="#58a6ff"/><circle cx="618.76" cy="218.76" r="2.5" fill="#58a6ff"/><circle cx="627.08" cy="217.41" r="2.5" fill="#58a6ff"/><circle cx="635.39" cy="216.31" r="2.5" fill="#58a6ff"/><circle cx="643.71" cy="214.88" r="2.5" fill="#58a6ff"/><circle cx="652.02" cy="213.65" r="2.5" fill="#58a6ff"/><circle cx="660.34" cy="212.43" r="2.5" fill="#58a6ff"/><circle cx="668.65" cy="211.24" r="2.5" fill="#58a6ff"/><circle cx="676.97" cy="210.76" r="2.5" fill="#58a6ff"/><circle cx="685.28" cy="209.87" r="2.5" fill="#58a6ff"/><circle cx="693.60" cy="208.48" r="2.5" fill="#58a6ff"/><circle cx="701.91" cy="206.68" r="2.5" fill="#58a6ff"/><circle cx="710.22" cy="205.31" r="2.5" fill="#58a6ff"/><circle cx="718.54" cy="204.29" r="2.5" fill="#58a6ff"/><circle cx="726.85" cy="203.29" r="2.5" fill="#58a6ff"/><circle cx="735.17" cy="201.89" r="2.5" fill="#58a6ff"/><circle cx="743.48" cy="200.38" r="2.5" fill="#58a6ff"/><circle cx="751.80" cy="198.80" r="2.5" fill="#58a6ff"/><circle cx="760.11" cy="195.99" r="2.5" fill="#58a6ff"/><circle cx="768.43" cy="195.06" r="2.5" fill="#58a6ff"/><circle cx="776.74" cy="194.50" r="2.5" fill="#58a6ff"/><circle cx="785.06" cy="193.74" r="2.5" fill="#58a6ff"/><circle cx="793.37" cy="192.10" r="2.5" fill="#58a6ff"/><circle cx="801.69" cy="190.78" r="2.5" fill="#58a6ff"/><circle cx="810.00" cy="189.57" r="4" fill="#F2C811"/>

  <!-- Last-value callout -->
  <rect x="720.0" y="161.6" width="82" height="24" rx="4" fill="#0d1a2a" stroke="#F2C811" stroke-width="1"/>
  <text x="761.0" y="177.6" font-family="'Segoe UI', Arial, sans-serif" font-size="12" fill="#F2C811" text-anchor="middle" font-weight="bold">22,384 total</text>

  <!-- X-axis labels -->
  <text x="70.0" y="298" font-family="'Segoe UI', Arial, sans-serif" font-size="10" fill="#8b949e" text-anchor="middle">Mar 26</text><text x="252.9" y="298" font-family="'Segoe UI', Arial, sans-serif" font-size="10" fill="#8b949e" text-anchor="middle">Apr 17</text><text x="444.2" y="298" font-family="'Segoe UI', Arial, sans-serif" font-size="10" fill="#8b949e" text-anchor="middle">May 10</text><text x="627.1" y="298" font-family="'Segoe UI', Arial, sans-serif" font-size="10" fill="#8b949e" text-anchor="middle">Jun 01</text><text x="810.0" y="298" font-family="'Segoe UI', Arial, sans-serif" font-size="10" fill="#8b949e" text-anchor="middle">Jun 24</text>

  <!-- Footer: date range -->
  <text x="70" y="328" font-family="'Segoe UI', Arial, sans-serif" font-size="10" fill="#8b949e">Mar 26, 2026 → Jun 24, 2026</text>
  <text x="810" y="328" font-family="'Segoe UI', Arial, sans-serif" font-size="10" fill="#8b949e" text-anchor="end">90 days of data</text>
</svg>
