<svg xmlns="http://www.w3.org/2000/svg" width="850" height="340" viewBox="0 0 850 340">
  <defs>
    <linearGradient id="areaFill" x1="0" y1="0" x2="0" y2="1">
      <stop offset="0%" stop-color="#58a6ff" stop-opacity="0.45"/>
      <stop offset="100%" stop-color="#58a6ff" stop-opacity="0"/>
    </linearGradient>
  </defs>

  <!-- Background -->
  <rect width="100%" height="100%" fill="#0d1117" rx="8"/>

  <!-- Title -->
  <text x="425" y="33" font-family="'Segoe UI', Arial, sans-serif" font-size="17" fill="#F2C811" text-anchor="middle" font-weight="bold">pbi-cli Downloads Over Time</text>
  <text x="425" y="52" font-family="'Segoe UI', Arial, sans-serif" font-size="11" fill="#8b949e" text-anchor="middle">Cumulative installs from PyPI • mirrors excluded • source: pypistats.org</text>

  <!-- Gridlines & y-labels -->
  <line x1="70" y1="280.0" x2="810" y2="280.0" stroke="#21262d" stroke-width="1" stroke-dasharray="2,3"/><line x1="70" y1="239.6" x2="810" y2="239.6" stroke="#21262d" stroke-width="1" stroke-dasharray="2,3"/><line x1="70" y1="199.2" x2="810" y2="199.2" stroke="#21262d" stroke-width="1" stroke-dasharray="2,3"/><line x1="70" y1="158.8" x2="810" y2="158.8" stroke="#21262d" stroke-width="1" stroke-dasharray="2,3"/><line x1="70" y1="118.4" x2="810" y2="118.4" stroke="#21262d" stroke-width="1" stroke-dasharray="2,3"/><line x1="70" y1="78.0" x2="810" y2="78.0" stroke="#21262d" stroke-width="1" stroke-dasharray="2,3"/>
  <text x="62" y="284.0" font-family="'Segoe UI', Arial, sans-serif" font-size="10" fill="#8b949e" text-anchor="end">0</text><text x="62" y="243.6" font-family="'Segoe UI', Arial, sans-serif" font-size="10" fill="#8b949e" text-anchor="end">4,000</text><text x="62" y="203.2" font-family="'Segoe UI', Arial, sans-serif" font-size="10" fill="#8b949e" text-anchor="end">8,000</text><text x="62" y="162.8" font-family="'Segoe UI', Arial, sans-serif" font-size="10" fill="#8b949e" text-anchor="end">12,000</text><text x="62" y="122.4" font-family="'Segoe UI', Arial, sans-serif" font-size="10" fill="#8b949e" text-anchor="end">16,000</text><text x="62" y="82.0" font-family="'Segoe UI', Arial, sans-serif" font-size="10" fill="#8b949e" text-anchor="end">20,000</text>

  <!-- Area fill -->
  <path d="M 70.00,280 L 70.00,273.87 L 80.72,271.19 L 91.45,270.87 L 102.17,270.81 L 112.90,270.48 L 123.62,270.30 L 134.35,269.98 L 145.07,269.20 L 155.80,267.59 L 166.52,266.69 L 177.25,263.76 L 187.97,261.71 L 198.70,255.63 L 209.42,253.16 L 220.14,251.69 L 230.87,250.24 L 241.59,249.86 L 252.32,248.97 L 263.04,247.57 L 273.77,245.29 L 284.49,244.47 L 295.22,243.28 L 305.94,242.09 L 316.67,241.70 L 327.39,241.26 L 338.12,239.76 L 348.84,238.82 L 359.57,237.50 L 370.29,236.55 L 381.01,235.98 L 391.74,235.32 L 402.46,234.44 L 413.19,233.44 L 423.91,232.20 L 434.64,230.94 L 445.36,229.76 L 456.09,228.65 L 466.81,228.26 L 477.54,226.69 L 488.26,224.48 L 498.99,221.87 L 509.71,218.60 L 520.43,212.01 L 531.16,207.58 L 541.88,205.22 L 552.61,203.23 L 563.33,197.76 L 574.06,193.11 L 584.78,188.82 L 595.51,183.98 L 606.23,180.13 L 616.96,177.87 L 627.68,174.63 L 638.41,171.33 L 649.13,165.60 L 659.86,161.04 L 670.58,155.52 L 681.30,151.79 L 692.03,149.26 L 702.75,147.26 L 713.48,145.32 L 724.20,141.28 L 734.93,136.98 L 745.65,133.01 L 756.38,130.07 L 767.10,128.62 L 777.83,126.89 L 788.55,123.53 L 799.28,120.78 L 810.00,117.19 L 810.00,280 Z" fill="url(#areaFill)"/>

  <!-- Line -->
  <path d="M 70.00,273.87 L 80.72,271.19 L 91.45,270.87 L 102.17,270.81 L 112.90,270.48 L 123.62,270.30 L 134.35,269.98 L 145.07,269.20 L 155.80,267.59 L 166.52,266.69 L 177.25,263.76 L 187.97,261.71 L 198.70,255.63 L 209.42,253.16 L 220.14,251.69 L 230.87,250.24 L 241.59,249.86 L 252.32,248.97 L 263.04,247.57 L 273.77,245.29 L 284.49,244.47 L 295.22,243.28 L 305.94,242.09 L 316.67,241.70 L 327.39,241.26 L 338.12,239.76 L 348.84,238.82 L 359.57,237.50 L 370.29,236.55 L 381.01,235.98 L 391.74,235.32 L 402.46,234.44 L 413.19,233.44 L 423.91,232.20 L 434.64,230.94 L 445.36,229.76 L 456.09,228.65 L 466.81,228.26 L 477.54,226.69 L 488.26,224.48 L 498.99,221.87 L 509.71,218.60 L 520.43,212.01 L 531.16,207.58 L 541.88,205.22 L 552.61,203.23 L 563.33,197.76 L 574.06,193.11 L 584.78,188.82 L 595.51,183.98 L 606.23,180.13 L 616.96,177.87 L 627.68,174.63 L 638.41,171.33 L 649.13,165.60 L 659.86,161.04 L 670.58,155.52 L 681.30,151.79 L 692.03,149.26 L 702.75,147.26 L 713.48,145.32 L 724.20,141.28 L 734.93,136.98 L 745.65,133.01 L 756.38,130.07 L 767.10,128.62 L 777.83,126.89 L 788.55,123.53 L 799.28,120.78 L 810.00,117.19" fill="none" stroke="#58a6ff" stroke-width="2.5" stroke-linejoin="round" stroke-linecap="round"/>

  <!-- Data points -->
  <circle cx="70.00" cy="273.87" r="2.5" fill="#58a6ff"/><circle cx="80.72" cy="271.19" r="2.5" fill="#58a6ff"/><circle cx="91.45" cy="270.87" r="2.5" fill="#58a6ff"/><circle cx="102.17" cy="270.81" r="2.5" fill="#58a6ff"/><circle cx="112.90" cy="270.48" r="2.5" fill="#58a6ff"/><circle cx="123.62" cy="270.30" r="2.5" fill="#58a6ff"/><circle cx="134.35" cy="269.98" r="2.5" fill="#58a6ff"/><circle cx="145.07" cy="269.20" r="2.5" fill="#58a6ff"/><circle cx="155.80" cy="267.59" r="2.5" fill="#58a6ff"/><circle cx="166.52" cy="266.69" r="2.5" fill="#58a6ff"/><circle cx="177.25" cy="263.76" r="2.5" fill="#58a6ff"/><circle cx="187.97" cy="261.71" r="2.5" fill="#58a6ff"/><circle cx="198.70" cy="255.63" r="2.5" fill="#58a6ff"/><circle cx="209.42" cy="253.16" r="2.5" fill="#58a6ff"/><circle cx="220.14" cy="251.69" r="2.5" fill="#58a6ff"/><circle cx="230.87" cy="250.24" r="2.5" fill="#58a6ff"/><circle cx="241.59" cy="249.86" r="2.5" fill="#58a6ff"/><circle cx="252.32" cy="248.97" r="2.5" fill="#58a6ff"/><circle cx="263.04" cy="247.57" r="2.5" fill="#58a6ff"/><circle cx="273.77" cy="245.29" r="2.5" fill="#58a6ff"/><circle cx="284.49" cy="244.47" r="2.5" fill="#58a6ff"/><circle cx="295.22" cy="243.28" r="2.5" fill="#58a6ff"/><circle cx="305.94" cy="242.09" r="2.5" fill="#58a6ff"/><circle cx="316.67" cy="241.70" r="2.5" fill="#58a6ff"/><circle cx="327.39" cy="241.26" r="2.5" fill="#58a6ff"/><circle cx="338.12" cy="239.76" r="2.5" fill="#58a6ff"/><circle cx="348.84" cy="238.82" r="2.5" fill="#58a6ff"/><circle cx="359.57" cy="237.50" r="2.5" fill="#58a6ff"/><circle cx="370.29" cy="236.55" r="2.5" fill="#58a6ff"/><circle cx="381.01" cy="235.98" r="2.5" fill="#58a6ff"/><circle cx="391.74" cy="235.32" r="2.5" fill="#58a6ff"/><circle cx="402.46" cy="234.44" r="2.5" fill="#58a6ff"/><circle cx="413.19" cy="233.44" r="2.5" fill="#58a6ff"/><circle cx="423.91" cy="232.20" r="2.5" fill="#58a6ff"/><circle cx="434.64" cy="230.94" r="2.5" fill="#58a6ff"/><circle cx="445.36" cy="229.76" r="2.5" fill="#58a6ff"/><circle cx="456.09" cy="228.65" r="2.5" fill="#58a6ff"/><circle cx="466.81" cy="228.26" r="2.5" fill="#58a6ff"/><circle cx="477.54" cy="226.69" r="2.5" fill="#58a6ff"/><circle cx="488.26" cy="224.48" r="2.5" fill="#58a6ff"/><circle cx="498.99" cy="221.87" r="2.5" fill="#58a6ff"/><circle cx="509.71" cy="218.60" r="2.5" fill="#58a6ff"/><circle cx="520.43" cy="212.01" r="2.5" fill="#58a6ff"/><circle cx="531.16" cy="207.58" r="2.5" fill="#58a6ff"/><circle cx="541.88" cy="205.22" r="2.5" fill="#58a6ff"/><circle cx="552.61" cy="203.23" r="2.5" fill="#58a6ff"/><circle cx="563.33" cy="197.76" r="2.5" fill="#58a6ff"/><circle cx="574.06" cy="193.11" r="2.5" fill="#58a6ff"/><circle cx="584.78" cy="188.82" r="2.5" fill="#58a6ff"/><circle cx="595.51" cy="183.98" r="2.5" fill="#58a6ff"/><circle cx="606.23" cy="180.13" r="2.5" fill="#58a6ff"/><circle cx="616.96" cy="177.87" r="2.5" fill="#58a6ff"/><circle cx="627.68" cy="174.63" r="2.5" fill="#58a6ff"/><circle cx="638.41" cy="171.33" r="2.5" fill="#58a6ff"/><circle cx="649.13" cy="165.60" r="2.5" fill="#58a6ff"/><circle cx="659.86" cy="161.04" r="2.5" fill="#58a6ff"/><circle cx="670.58" cy="155.52" r="2.5" fill="#58a6ff"/><circle cx="681.30" cy="151.79" r="2.5" fill="#58a6ff"/><circle cx="692.03" cy="149.26" r="2.5" fill="#58a6ff"/><circle cx="702.75" cy="147.26" r="2.5" fill="#58a6ff"/><circle cx="713.48" cy="145.32" r="2.5" fill="#58a6ff"/><circle cx="724.20" cy="141.28" r="2.5" fill="#58a6ff"/><circle cx="734.93" cy="136.98" r="2.5" fill="#58a6ff"/><circle cx="745.65" cy="133.01" r="2.5" fill="#58a6ff"/><circle cx="756.38" cy="130.07" r="2.5" fill="#58a6ff"/><circle cx="767.10" cy="128.62" r="2.5" fill="#58a6ff"/><circle cx="777.83" cy="126.89" r="2.5" fill="#58a6ff"/><circle cx="788.55" cy="123.53" r="2.5" fill="#58a6ff"/><circle cx="799.28" cy="120.78" r="2.5" fill="#58a6ff"/><circle cx="810.00" cy="117.19" r="4" fill="#F2C811"/>

  <!-- Last-value callout -->
  <rect x="720.0" y="92.0" width="82" height="24" rx="4" fill="#0d1a2a" stroke="#F2C811" stroke-width="1"/>
  <text x="761.0" y="108.0" font-family="'Segoe UI', Arial, sans-serif" font-size="12" fill="#F2C811" text-anchor="middle" font-weight="bold">16,120 total</text>

  <!-- X-axis labels -->
  <text x="70.0" y="298" font-family="'Segoe UI', Arial, sans-serif" font-size="10" fill="#8b949e" text-anchor="middle">Mar 26</text><text x="252.3" y="298" font-family="'Segoe UI', Arial, sans-serif" font-size="10" fill="#8b949e" text-anchor="middle">Apr 12</text><text x="445.4" y="298" font-family="'Segoe UI', Arial, sans-serif" font-size="10" fill="#8b949e" text-anchor="middle">Apr 30</text><text x="627.7" y="298" font-family="'Segoe UI', Arial, sans-serif" font-size="10" fill="#8b949e" text-anchor="middle">May 17</text><text x="810.0" y="298" font-family="'Segoe UI', Arial, sans-serif" font-size="10" fill="#8b949e" text-anchor="middle">Jun 03</text>

  <!-- Footer: date range -->
  <text x="70" y="328" font-family="'Segoe UI', Arial, sans-serif" font-size="10" fill="#8b949e">Mar 26, 2026 → Jun 03, 2026</text>
  <text x="810" y="328" font-family="'Segoe UI', Arial, sans-serif" font-size="10" fill="#8b949e" text-anchor="end">70 days of data</text>
</svg>
