<svg xmlns="http://www.w3.org/2000/svg" width="850" height="340" viewBox="0 0 850 340">
  <defs>
    <linearGradient id="areaFill" x1="0" y1="0" x2="0" y2="1">
      <stop offset="0%" stop-color="#58a6ff" stop-opacity="0.45"/>
      <stop offset="100%" stop-color="#58a6ff" stop-opacity="0"/>
    </linearGradient>
  </defs>

  <!-- Background -->
  <rect width="100%" height="100%" fill="#0d1117" rx="8"/>

  <!-- Title -->
  <text x="425" y="33" font-family="'Segoe UI', Arial, sans-serif" font-size="17" fill="#F2C811" text-anchor="middle" font-weight="bold">pbi-cli Downloads Over Time</text>
  <text x="425" y="52" font-family="'Segoe UI', Arial, sans-serif" font-size="11" fill="#8b949e" text-anchor="middle">Cumulative installs from PyPI • mirrors excluded • source: pypistats.org</text>

  <!-- Gridlines & y-labels -->
  <line x1="70" y1="280.0" x2="810" y2="280.0" stroke="#21262d" stroke-width="1" stroke-dasharray="2,3"/><line x1="70" y1="239.6" x2="810" y2="239.6" stroke="#21262d" stroke-width="1" stroke-dasharray="2,3"/><line x1="70" y1="199.2" x2="810" y2="199.2" stroke="#21262d" stroke-width="1" stroke-dasharray="2,3"/><line x1="70" y1="158.8" x2="810" y2="158.8" stroke="#21262d" stroke-width="1" stroke-dasharray="2,3"/><line x1="70" y1="118.4" x2="810" y2="118.4" stroke="#21262d" stroke-width="1" stroke-dasharray="2,3"/><line x1="70" y1="78.0" x2="810" y2="78.0" stroke="#21262d" stroke-width="1" stroke-dasharray="2,3"/>
  <text x="62" y="284.0" font-family="'Segoe UI', Arial, sans-serif" font-size="10" fill="#8b949e" text-anchor="end">0</text><text x="62" y="243.6" font-family="'Segoe UI', Arial, sans-serif" font-size="10" fill="#8b949e" text-anchor="end">4,000</text><text x="62" y="203.2" font-family="'Segoe UI', Arial, sans-serif" font-size="10" fill="#8b949e" text-anchor="end">8,000</text><text x="62" y="162.8" font-family="'Segoe UI', Arial, sans-serif" font-size="10" fill="#8b949e" text-anchor="end">12,000</text><text x="62" y="122.4" font-family="'Segoe UI', Arial, sans-serif" font-size="10" fill="#8b949e" text-anchor="end">16,000</text><text x="62" y="82.0" font-family="'Segoe UI', Arial, sans-serif" font-size="10" fill="#8b949e" text-anchor="end">20,000</text>

  <!-- Area fill -->
  <path d="M 70.00,280 L 70.00,273.87 L 82.76,271.19 L 95.52,270.87 L 108.28,270.81 L 121.03,270.48 L 133.79,270.30 L 146.55,269.98 L 159.31,269.20 L 172.07,267.59 L 184.83,266.69 L 197.59,263.76 L 210.34,261.71 L 223.10,255.63 L 235.86,253.16 L 248.62,251.69 L 261.38,250.24 L 274.14,249.86 L 286.90,248.97 L 299.66,247.57 L 312.41,245.29 L 325.17,244.47 L 337.93,243.28 L 350.69,242.09 L 363.45,241.70 L 376.21,241.26 L 388.97,239.76 L 401.72,238.82 L 414.48,237.50 L 427.24,236.55 L 440.00,235.98 L 452.76,235.32 L 465.52,234.44 L 478.28,233.44 L 491.03,232.20 L 503.79,230.94 L 516.55,229.76 L 529.31,228.65 L 542.07,228.26 L 554.83,226.69 L 567.59,224.48 L 580.34,221.87 L 593.10,218.60 L 605.86,212.01 L 618.62,207.58 L 631.38,205.22 L 644.14,203.23 L 656.90,197.76 L 669.66,193.11 L 682.41,188.82 L 695.17,183.98 L 707.93,180.13 L 720.69,177.87 L 733.45,174.63 L 746.21,171.33 L 758.97,165.60 L 771.72,161.04 L 784.48,155.52 L 797.24,151.79 L 810.00,149.26 L 810.00,280 Z" fill="url(#areaFill)"/>

  <!-- Line -->
  <path d="M 70.00,273.87 L 82.76,271.19 L 95.52,270.87 L 108.28,270.81 L 121.03,270.48 L 133.79,270.30 L 146.55,269.98 L 159.31,269.20 L 172.07,267.59 L 184.83,266.69 L 197.59,263.76 L 210.34,261.71 L 223.10,255.63 L 235.86,253.16 L 248.62,251.69 L 261.38,250.24 L 274.14,249.86 L 286.90,248.97 L 299.66,247.57 L 312.41,245.29 L 325.17,244.47 L 337.93,243.28 L 350.69,242.09 L 363.45,241.70 L 376.21,241.26 L 388.97,239.76 L 401.72,238.82 L 414.48,237.50 L 427.24,236.55 L 440.00,235.98 L 452.76,235.32 L 465.52,234.44 L 478.28,233.44 L 491.03,232.20 L 503.79,230.94 L 516.55,229.76 L 529.31,228.65 L 542.07,228.26 L 554.83,226.69 L 567.59,224.48 L 580.34,221.87 L 593.10,218.60 L 605.86,212.01 L 618.62,207.58 L 631.38,205.22 L 644.14,203.23 L 656.90,197.76 L 669.66,193.11 L 682.41,188.82 L 695.17,183.98 L 707.93,180.13 L 720.69,177.87 L 733.45,174.63 L 746.21,171.33 L 758.97,165.60 L 771.72,161.04 L 784.48,155.52 L 797.24,151.79 L 810.00,149.26" fill="none" stroke="#58a6ff" stroke-width="2.5" stroke-linejoin="round" stroke-linecap="round"/>

  <!-- Data points -->
  <circle cx="70.00" cy="273.87" r="2.5" fill="#58a6ff"/><circle cx="82.76" cy="271.19" r="2.5" fill="#58a6ff"/><circle cx="95.52" cy="270.87" r="2.5" fill="#58a6ff"/><circle cx="108.28" cy="270.81" r="2.5" fill="#58a6ff"/><circle cx="121.03" cy="270.48" r="2.5" fill="#58a6ff"/><circle cx="133.79" cy="270.30" r="2.5" fill="#58a6ff"/><circle cx="146.55" cy="269.98" r="2.5" fill="#58a6ff"/><circle cx="159.31" cy="269.20" r="2.5" fill="#58a6ff"/><circle cx="172.07" cy="267.59" r="2.5" fill="#58a6ff"/><circle cx="184.83" cy="266.69" r="2.5" fill="#58a6ff"/><circle cx="197.59" cy="263.76" r="2.5" fill="#58a6ff"/><circle cx="210.34" cy="261.71" r="2.5" fill="#58a6ff"/><circle cx="223.10" cy="255.63" r="2.5" fill="#58a6ff"/><circle cx="235.86" cy="253.16" r="2.5" fill="#58a6ff"/><circle cx="248.62" cy="251.69" r="2.5" fill="#58a6ff"/><circle cx="261.38" cy="250.24" r="2.5" fill="#58a6ff"/><circle cx="274.14" cy="249.86" r="2.5" fill="#58a6ff"/><circle cx="286.90" cy="248.97" r="2.5" fill="#58a6ff"/><circle cx="299.66" cy="247.57" r="2.5" fill="#58a6ff"/><circle cx="312.41" cy="245.29" r="2.5" fill="#58a6ff"/><circle cx="325.17" cy="244.47" r="2.5" fill="#58a6ff"/><circle cx="337.93" cy="243.28" r="2.5" fill="#58a6ff"/><circle cx="350.69" cy="242.09" r="2.5" fill="#58a6ff"/><circle cx="363.45" cy="241.70" r="2.5" fill="#58a6ff"/><circle cx="376.21" cy="241.26" r="2.5" fill="#58a6ff"/><circle cx="388.97" cy="239.76" r="2.5" fill="#58a6ff"/><circle cx="401.72" cy="238.82" r="2.5" fill="#58a6ff"/><circle cx="414.48" cy="237.50" r="2.5" fill="#58a6ff"/><circle cx="427.24" cy="236.55" r="2.5" fill="#58a6ff"/><circle cx="440.00" cy="235.98" r="2.5" fill="#58a6ff"/><circle cx="452.76" cy="235.32" r="2.5" fill="#58a6ff"/><circle cx="465.52" cy="234.44" r="2.5" fill="#58a6ff"/><circle cx="478.28" cy="233.44" r="2.5" fill="#58a6ff"/><circle cx="491.03" cy="232.20" r="2.5" fill="#58a6ff"/><circle cx="503.79" cy="230.94" r="2.5" fill="#58a6ff"/><circle cx="516.55" cy="229.76" r="2.5" fill="#58a6ff"/><circle cx="529.31" cy="228.65" r="2.5" fill="#58a6ff"/><circle cx="542.07" cy="228.26" r="2.5" fill="#58a6ff"/><circle cx="554.83" cy="226.69" r="2.5" fill="#58a6ff"/><circle cx="567.59" cy="224.48" r="2.5" fill="#58a6ff"/><circle cx="580.34" cy="221.87" r="2.5" fill="#58a6ff"/><circle cx="593.10" cy="218.60" r="2.5" fill="#58a6ff"/><circle cx="605.86" cy="212.01" r="2.5" fill="#58a6ff"/><circle cx="618.62" cy="207.58" r="2.5" fill="#58a6ff"/><circle cx="631.38" cy="205.22" r="2.5" fill="#58a6ff"/><circle cx="644.14" cy="203.23" r="2.5" fill="#58a6ff"/><circle cx="656.90" cy="197.76" r="2.5" fill="#58a6ff"/><circle cx="669.66" cy="193.11" r="2.5" fill="#58a6ff"/><circle cx="682.41" cy="188.82" r="2.5" fill="#58a6ff"/><circle cx="695.17" cy="183.98" r="2.5" fill="#58a6ff"/><circle cx="707.93" cy="180.13" r="2.5" fill="#58a6ff"/><circle cx="720.69" cy="177.87" r="2.5" fill="#58a6ff"/><circle cx="733.45" cy="174.63" r="2.5" fill="#58a6ff"/><circle cx="746.21" cy="171.33" r="2.5" fill="#58a6ff"/><circle cx="758.97" cy="165.60" r="2.5" fill="#58a6ff"/><circle cx="771.72" cy="161.04" r="2.5" fill="#58a6ff"/><circle cx="784.48" cy="155.52" r="2.5" fill="#58a6ff"/><circle cx="797.24" cy="151.79" r="2.5" fill="#58a6ff"/><circle cx="810.00" cy="149.26" r="4" fill="#F2C811"/>

  <!-- Last-value callout -->
  <rect x="720.0" y="121.3" width="82" height="24" rx="4" fill="#0d1a2a" stroke="#F2C811" stroke-width="1"/>
  <text x="761.0" y="137.3" font-family="'Segoe UI', Arial, sans-serif" font-size="12" fill="#F2C811" text-anchor="middle" font-weight="bold">12,945 total</text>

  <!-- X-axis labels -->
  <text x="70.0" y="298" font-family="'Segoe UI', Arial, sans-serif" font-size="10" fill="#8b949e" text-anchor="middle">Mar 26</text><text x="248.6" y="298" font-family="'Segoe UI', Arial, sans-serif" font-size="10" fill="#8b949e" text-anchor="middle">Apr 09</text><text x="440.0" y="298" font-family="'Segoe UI', Arial, sans-serif" font-size="10" fill="#8b949e" text-anchor="middle">Apr 24</text><text x="631.4" y="298" font-family="'Segoe UI', Arial, sans-serif" font-size="10" fill="#8b949e" text-anchor="middle">May 09</text><text x="810.0" y="298" font-family="'Segoe UI', Arial, sans-serif" font-size="10" fill="#8b949e" text-anchor="middle">May 23</text>

  <!-- Footer: date range -->
  <text x="70" y="328" font-family="'Segoe UI', Arial, sans-serif" font-size="10" fill="#8b949e">Mar 26, 2026 → May 23, 2026</text>
  <text x="810" y="328" font-family="'Segoe UI', Arial, sans-serif" font-size="10" fill="#8b949e" text-anchor="end">59 days of data</text>
</svg>
