<svg xmlns="http://www.w3.org/2000/svg" width="850" height="340" viewBox="0 0 850 340">
  <defs>
    <linearGradient id="areaFill" x1="0" y1="0" x2="0" y2="1">
      <stop offset="0%" stop-color="#58a6ff" stop-opacity="0.45"/>
      <stop offset="100%" stop-color="#58a6ff" stop-opacity="0"/>
    </linearGradient>
  </defs>

  <!-- Background -->
  <rect width="100%" height="100%" fill="#0d1117" rx="8"/>

  <!-- Title -->
  <text x="425" y="33" font-family="'Segoe UI', Arial, sans-serif" font-size="17" fill="#F2C811" text-anchor="middle" font-weight="bold">pbi-cli Downloads Over Time</text>
  <text x="425" y="52" font-family="'Segoe UI', Arial, sans-serif" font-size="11" fill="#8b949e" text-anchor="middle">Cumulative installs from PyPI • mirrors excluded • source: pypistats.org</text>

  <!-- Gridlines & y-labels -->
  <line x1="70" y1="280.0" x2="810" y2="280.0" stroke="#21262d" stroke-width="1" stroke-dasharray="2,3"/><line x1="70" y1="239.6" x2="810" y2="239.6" stroke="#21262d" stroke-width="1" stroke-dasharray="2,3"/><line x1="70" y1="199.2" x2="810" y2="199.2" stroke="#21262d" stroke-width="1" stroke-dasharray="2,3"/><line x1="70" y1="158.8" x2="810" y2="158.8" stroke="#21262d" stroke-width="1" stroke-dasharray="2,3"/><line x1="70" y1="118.4" x2="810" y2="118.4" stroke="#21262d" stroke-width="1" stroke-dasharray="2,3"/><line x1="70" y1="78.0" x2="810" y2="78.0" stroke="#21262d" stroke-width="1" stroke-dasharray="2,3"/>
  <text x="62" y="284.0" font-family="'Segoe UI', Arial, sans-serif" font-size="10" fill="#8b949e" text-anchor="end">0</text><text x="62" y="243.6" font-family="'Segoe UI', Arial, sans-serif" font-size="10" fill="#8b949e" text-anchor="end">5,000</text><text x="62" y="203.2" font-family="'Segoe UI', Arial, sans-serif" font-size="10" fill="#8b949e" text-anchor="end">10,000</text><text x="62" y="162.8" font-family="'Segoe UI', Arial, sans-serif" font-size="10" fill="#8b949e" text-anchor="end">15,000</text><text x="62" y="122.4" font-family="'Segoe UI', Arial, sans-serif" font-size="10" fill="#8b949e" text-anchor="end">20,000</text><text x="62" y="82.0" font-family="'Segoe UI', Arial, sans-serif" font-size="10" fill="#8b949e" text-anchor="end">25,000</text>

  <!-- Area fill -->
  <path d="M 70.00,280 L 70.00,275.10 L 78.71,272.95 L 87.41,272.70 L 96.12,272.65 L 104.82,272.38 L 113.53,272.24 L 122.24,271.98 L 130.94,271.36 L 139.65,270.07 L 148.35,269.35 L 157.06,267.01 L 165.76,265.37 L 174.47,260.50 L 183.18,258.53 L 191.88,257.35 L 200.59,256.19 L 209.29,255.89 L 218.00,255.18 L 226.71,254.06 L 235.41,252.23 L 244.12,251.57 L 252.82,250.62 L 261.53,249.68 L 270.24,249.36 L 278.94,249.01 L 287.65,247.81 L 296.35,247.06 L 305.06,246.00 L 313.76,245.24 L 322.47,244.79 L 331.18,244.25 L 339.88,243.55 L 348.59,242.75 L 357.29,241.76 L 366.00,240.76 L 374.71,239.81 L 383.41,238.92 L 392.12,238.61 L 400.82,237.35 L 409.53,235.58 L 418.24,233.50 L 426.94,230.88 L 435.65,225.61 L 444.35,222.07 L 453.06,220.18 L 461.76,218.58 L 470.47,214.20 L 479.18,210.49 L 487.88,207.05 L 496.59,203.18 L 505.29,200.10 L 514.00,198.30 L 522.71,195.70 L 531.41,193.07 L 540.12,188.48 L 548.82,184.83 L 557.53,180.41 L 566.24,177.43 L 574.94,175.40 L 583.65,173.80 L 592.35,172.25 L 601.06,169.02 L 609.76,165.59 L 618.47,162.41 L 627.18,160.05 L 635.88,158.90 L 644.59,157.52 L 653.29,154.82 L 662.00,152.63 L 670.71,149.75 L 679.41,147.30 L 688.12,144.85 L 696.82,142.47 L 705.53,141.52 L 714.24,139.75 L 722.94,136.95 L 731.65,133.36 L 740.35,130.63 L 749.06,128.57 L 757.76,126.58 L 766.47,123.78 L 775.18,120.77 L 783.88,117.61 L 792.59,111.98 L 801.29,110.12 L 810.00,108.99 L 810.00,280 Z" fill="url(#areaFill)"/>

  <!-- Line -->
  <path d="M 70.00,275.10 L 78.71,272.95 L 87.41,272.70 L 96.12,272.65 L 104.82,272.38 L 113.53,272.24 L 122.24,271.98 L 130.94,271.36 L 139.65,270.07 L 148.35,269.35 L 157.06,267.01 L 165.76,265.37 L 174.47,260.50 L 183.18,258.53 L 191.88,257.35 L 200.59,256.19 L 209.29,255.89 L 218.00,255.18 L 226.71,254.06 L 235.41,252.23 L 244.12,251.57 L 252.82,250.62 L 261.53,249.68 L 270.24,249.36 L 278.94,249.01 L 287.65,247.81 L 296.35,247.06 L 305.06,246.00 L 313.76,245.24 L 322.47,244.79 L 331.18,244.25 L 339.88,243.55 L 348.59,242.75 L 357.29,241.76 L 366.00,240.76 L 374.71,239.81 L 383.41,238.92 L 392.12,238.61 L 400.82,237.35 L 409.53,235.58 L 418.24,233.50 L 426.94,230.88 L 435.65,225.61 L 444.35,222.07 L 453.06,220.18 L 461.76,218.58 L 470.47,214.20 L 479.18,210.49 L 487.88,207.05 L 496.59,203.18 L 505.29,200.10 L 514.00,198.30 L 522.71,195.70 L 531.41,193.07 L 540.12,188.48 L 548.82,184.83 L 557.53,180.41 L 566.24,177.43 L 574.94,175.40 L 583.65,173.80 L 592.35,172.25 L 601.06,169.02 L 609.76,165.59 L 618.47,162.41 L 627.18,160.05 L 635.88,158.90 L 644.59,157.52 L 653.29,154.82 L 662.00,152.63 L 670.71,149.75 L 679.41,147.30 L 688.12,144.85 L 696.82,142.47 L 705.53,141.52 L 714.24,139.75 L 722.94,136.95 L 731.65,133.36 L 740.35,130.63 L 749.06,128.57 L 757.76,126.58 L 766.47,123.78 L 775.18,120.77 L 783.88,117.61 L 792.59,111.98 L 801.29,110.12 L 810.00,108.99" fill="none" stroke="#58a6ff" stroke-width="2.5" stroke-linejoin="round" stroke-linecap="round"/>

  <!-- Data points -->
  <circle cx="70.00" cy="275.10" r="2.5" fill="#58a6ff"/><circle cx="78.71" cy="272.95" r="2.5" fill="#58a6ff"/><circle cx="87.41" cy="272.70" r="2.5" fill="#58a6ff"/><circle cx="96.12" cy="272.65" r="2.5" fill="#58a6ff"/><circle cx="104.82" cy="272.38" r="2.5" fill="#58a6ff"/><circle cx="113.53" cy="272.24" r="2.5" fill="#58a6ff"/><circle cx="122.24" cy="271.98" r="2.5" fill="#58a6ff"/><circle cx="130.94" cy="271.36" r="2.5" fill="#58a6ff"/><circle cx="139.65" cy="270.07" r="2.5" fill="#58a6ff"/><circle cx="148.35" cy="269.35" r="2.5" fill="#58a6ff"/><circle cx="157.06" cy="267.01" r="2.5" fill="#58a6ff"/><circle cx="165.76" cy="265.37" r="2.5" fill="#58a6ff"/><circle cx="174.47" cy="260.50" r="2.5" fill="#58a6ff"/><circle cx="183.18" cy="258.53" r="2.5" fill="#58a6ff"/><circle cx="191.88" cy="257.35" r="2.5" fill="#58a6ff"/><circle cx="200.59" cy="256.19" r="2.5" fill="#58a6ff"/><circle cx="209.29" cy="255.89" r="2.5" fill="#58a6ff"/><circle cx="218.00" cy="255.18" r="2.5" fill="#58a6ff"/><circle cx="226.71" cy="254.06" r="2.5" fill="#58a6ff"/><circle cx="235.41" cy="252.23" r="2.5" fill="#58a6ff"/><circle cx="244.12" cy="251.57" r="2.5" fill="#58a6ff"/><circle cx="252.82" cy="250.62" r="2.5" fill="#58a6ff"/><circle cx="261.53" cy="249.68" r="2.5" fill="#58a6ff"/><circle cx="270.24" cy="249.36" r="2.5" fill="#58a6ff"/><circle cx="278.94" cy="249.01" r="2.5" fill="#58a6ff"/><circle cx="287.65" cy="247.81" r="2.5" fill="#58a6ff"/><circle cx="296.35" cy="247.06" r="2.5" fill="#58a6ff"/><circle cx="305.06" cy="246.00" r="2.5" fill="#58a6ff"/><circle cx="313.76" cy="245.24" r="2.5" fill="#58a6ff"/><circle cx="322.47" cy="244.79" r="2.5" fill="#58a6ff"/><circle cx="331.18" cy="244.25" r="2.5" fill="#58a6ff"/><circle cx="339.88" cy="243.55" r="2.5" fill="#58a6ff"/><circle cx="348.59" cy="242.75" r="2.5" fill="#58a6ff"/><circle cx="357.29" cy="241.76" r="2.5" fill="#58a6ff"/><circle cx="366.00" cy="240.76" r="2.5" fill="#58a6ff"/><circle cx="374.71" cy="239.81" r="2.5" fill="#58a6ff"/><circle cx="383.41" cy="238.92" r="2.5" fill="#58a6ff"/><circle cx="392.12" cy="238.61" r="2.5" fill="#58a6ff"/><circle cx="400.82" cy="237.35" r="2.5" fill="#58a6ff"/><circle cx="409.53" cy="235.58" r="2.5" fill="#58a6ff"/><circle cx="418.24" cy="233.50" r="2.5" fill="#58a6ff"/><circle cx="426.94" cy="230.88" r="2.5" fill="#58a6ff"/><circle cx="435.65" cy="225.61" r="2.5" fill="#58a6ff"/><circle cx="444.35" cy="222.07" r="2.5" fill="#58a6ff"/><circle cx="453.06" cy="220.18" r="2.5" fill="#58a6ff"/><circle cx="461.76" cy="218.58" r="2.5" fill="#58a6ff"/><circle cx="470.47" cy="214.20" r="2.5" fill="#58a6ff"/><circle cx="479.18" cy="210.49" r="2.5" fill="#58a6ff"/><circle cx="487.88" cy="207.05" r="2.5" fill="#58a6ff"/><circle cx="496.59" cy="203.18" r="2.5" fill="#58a6ff"/><circle cx="505.29" cy="200.10" r="2.5" fill="#58a6ff"/><circle cx="514.00" cy="198.30" r="2.5" fill="#58a6ff"/><circle cx="522.71" cy="195.70" r="2.5" fill="#58a6ff"/><circle cx="531.41" cy="193.07" r="2.5" fill="#58a6ff"/><circle cx="540.12" cy="188.48" r="2.5" fill="#58a6ff"/><circle cx="548.82" cy="184.83" r="2.5" fill="#58a6ff"/><circle cx="557.53" cy="180.41" r="2.5" fill="#58a6ff"/><circle cx="566.24" cy="177.43" r="2.5" fill="#58a6ff"/><circle cx="574.94" cy="175.40" r="2.5" fill="#58a6ff"/><circle cx="583.65" cy="173.80" r="2.5" fill="#58a6ff"/><circle cx="592.35" cy="172.25" r="2.5" fill="#58a6ff"/><circle cx="601.06" cy="169.02" r="2.5" fill="#58a6ff"/><circle cx="609.76" cy="165.59" r="2.5" fill="#58a6ff"/><circle cx="618.47" cy="162.41" r="2.5" fill="#58a6ff"/><circle cx="627.18" cy="160.05" r="2.5" fill="#58a6ff"/><circle cx="635.88" cy="158.90" r="2.5" fill="#58a6ff"/><circle cx="644.59" cy="157.52" r="2.5" fill="#58a6ff"/><circle cx="653.29" cy="154.82" r="2.5" fill="#58a6ff"/><circle cx="662.00" cy="152.63" r="2.5" fill="#58a6ff"/><circle cx="670.71" cy="149.75" r="2.5" fill="#58a6ff"/><circle cx="679.41" cy="147.30" r="2.5" fill="#58a6ff"/><circle cx="688.12" cy="144.85" r="2.5" fill="#58a6ff"/><circle cx="696.82" cy="142.47" r="2.5" fill="#58a6ff"/><circle cx="705.53" cy="141.52" r="2.5" fill="#58a6ff"/><circle cx="714.24" cy="139.75" r="2.5" fill="#58a6ff"/><circle cx="722.94" cy="136.95" r="2.5" fill="#58a6ff"/><circle cx="731.65" cy="133.36" r="2.5" fill="#58a6ff"/><circle cx="740.35" cy="130.63" r="2.5" fill="#58a6ff"/><circle cx="749.06" cy="128.57" r="2.5" fill="#58a6ff"/><circle cx="757.76" cy="126.58" r="2.5" fill="#58a6ff"/><circle cx="766.47" cy="123.78" r="2.5" fill="#58a6ff"/><circle cx="775.18" cy="120.77" r="2.5" fill="#58a6ff"/><circle cx="783.88" cy="117.61" r="2.5" fill="#58a6ff"/><circle cx="792.59" cy="111.98" r="2.5" fill="#58a6ff"/><circle cx="801.29" cy="110.12" r="2.5" fill="#58a6ff"/><circle cx="810.00" cy="108.99" r="4" fill="#F2C811"/>

  <!-- Last-value callout -->
  <rect x="720.0" y="92.0" width="82" height="24" rx="4" fill="#0d1a2a" stroke="#F2C811" stroke-width="1"/>
  <text x="761.0" y="108.0" font-family="'Segoe UI', Arial, sans-serif" font-size="12" fill="#F2C811" text-anchor="middle" font-weight="bold">21,164 total</text>

  <!-- X-axis labels -->
  <text x="70.0" y="298" font-family="'Segoe UI', Arial, sans-serif" font-size="10" fill="#8b949e" text-anchor="middle">Mar 26</text><text x="252.8" y="298" font-family="'Segoe UI', Arial, sans-serif" font-size="10" fill="#8b949e" text-anchor="middle">Apr 16</text><text x="444.4" y="298" font-family="'Segoe UI', Arial, sans-serif" font-size="10" fill="#8b949e" text-anchor="middle">May 08</text><text x="627.2" y="298" font-family="'Segoe UI', Arial, sans-serif" font-size="10" fill="#8b949e" text-anchor="middle">May 29</text><text x="810.0" y="298" font-family="'Segoe UI', Arial, sans-serif" font-size="10" fill="#8b949e" text-anchor="middle">Jun 20</text>

  <!-- Footer: date range -->
  <text x="70" y="328" font-family="'Segoe UI', Arial, sans-serif" font-size="10" fill="#8b949e">Mar 26, 2026 → Jun 20, 2026</text>
  <text x="810" y="328" font-family="'Segoe UI', Arial, sans-serif" font-size="10" fill="#8b949e" text-anchor="end">86 days of data</text>
</svg>
