<svg xmlns="http://www.w3.org/2000/svg" width="850" height="340" viewBox="0 0 850 340">
  <defs>
    <linearGradient id="areaFill" x1="0" y1="0" x2="0" y2="1">
      <stop offset="0%" stop-color="#58a6ff" stop-opacity="0.45"/>
      <stop offset="100%" stop-color="#58a6ff" stop-opacity="0"/>
    </linearGradient>
  </defs>

  <!-- Background -->
  <rect width="100%" height="100%" fill="#0d1117" rx="8"/>

  <!-- Title -->
  <text x="425" y="33" font-family="'Segoe UI', Arial, sans-serif" font-size="17" fill="#F2C811" text-anchor="middle" font-weight="bold">pbi-cli Downloads Over Time</text>
  <text x="425" y="52" font-family="'Segoe UI', Arial, sans-serif" font-size="11" fill="#8b949e" text-anchor="middle">Cumulative installs from PyPI • mirrors excluded • source: pypistats.org</text>

  <!-- Gridlines & y-labels -->
  <line x1="70" y1="280.0" x2="810" y2="280.0" stroke="#21262d" stroke-width="1" stroke-dasharray="2,3"/><line x1="70" y1="239.6" x2="810" y2="239.6" stroke="#21262d" stroke-width="1" stroke-dasharray="2,3"/><line x1="70" y1="199.2" x2="810" y2="199.2" stroke="#21262d" stroke-width="1" stroke-dasharray="2,3"/><line x1="70" y1="158.8" x2="810" y2="158.8" stroke="#21262d" stroke-width="1" stroke-dasharray="2,3"/><line x1="70" y1="118.4" x2="810" y2="118.4" stroke="#21262d" stroke-width="1" stroke-dasharray="2,3"/><line x1="70" y1="78.0" x2="810" y2="78.0" stroke="#21262d" stroke-width="1" stroke-dasharray="2,3"/>
  <text x="62" y="284.0" font-family="'Segoe UI', Arial, sans-serif" font-size="10" fill="#8b949e" text-anchor="end">0</text><text x="62" y="243.6" font-family="'Segoe UI', Arial, sans-serif" font-size="10" fill="#8b949e" text-anchor="end">4,000</text><text x="62" y="203.2" font-family="'Segoe UI', Arial, sans-serif" font-size="10" fill="#8b949e" text-anchor="end">8,000</text><text x="62" y="162.8" font-family="'Segoe UI', Arial, sans-serif" font-size="10" fill="#8b949e" text-anchor="end">12,000</text><text x="62" y="122.4" font-family="'Segoe UI', Arial, sans-serif" font-size="10" fill="#8b949e" text-anchor="end">16,000</text><text x="62" y="82.0" font-family="'Segoe UI', Arial, sans-serif" font-size="10" fill="#8b949e" text-anchor="end">20,000</text>

  <!-- Area fill -->
  <path d="M 70.00,280 L 70.00,273.87 L 81.56,271.19 L 93.12,270.87 L 104.69,270.81 L 116.25,270.48 L 127.81,270.30 L 139.38,269.98 L 150.94,269.20 L 162.50,267.59 L 174.06,266.69 L 185.62,263.76 L 197.19,261.71 L 208.75,255.63 L 220.31,253.16 L 231.88,251.69 L 243.44,250.24 L 255.00,249.86 L 266.56,248.97 L 278.12,247.57 L 289.69,245.29 L 301.25,244.47 L 312.81,243.28 L 324.38,242.09 L 335.94,241.70 L 347.50,241.26 L 359.06,239.76 L 370.62,238.82 L 382.19,237.50 L 393.75,236.55 L 405.31,235.98 L 416.88,235.32 L 428.44,234.44 L 440.00,233.44 L 451.56,232.20 L 463.12,230.94 L 474.69,229.76 L 486.25,228.65 L 497.81,228.26 L 509.38,226.69 L 520.94,224.48 L 532.50,221.87 L 544.06,218.60 L 555.62,212.01 L 567.19,207.58 L 578.75,205.22 L 590.31,203.23 L 601.88,197.76 L 613.44,193.11 L 625.00,188.82 L 636.56,183.98 L 648.12,180.13 L 659.69,177.87 L 671.25,174.63 L 682.81,171.33 L 694.38,165.60 L 705.94,161.04 L 717.50,155.52 L 729.06,151.79 L 740.62,149.26 L 752.19,147.26 L 763.75,145.32 L 775.31,141.28 L 786.88,136.98 L 798.44,133.01 L 810.00,130.07 L 810.00,280 Z" fill="url(#areaFill)"/>

  <!-- Line -->
  <path d="M 70.00,273.87 L 81.56,271.19 L 93.12,270.87 L 104.69,270.81 L 116.25,270.48 L 127.81,270.30 L 139.38,269.98 L 150.94,269.20 L 162.50,267.59 L 174.06,266.69 L 185.62,263.76 L 197.19,261.71 L 208.75,255.63 L 220.31,253.16 L 231.88,251.69 L 243.44,250.24 L 255.00,249.86 L 266.56,248.97 L 278.12,247.57 L 289.69,245.29 L 301.25,244.47 L 312.81,243.28 L 324.38,242.09 L 335.94,241.70 L 347.50,241.26 L 359.06,239.76 L 370.62,238.82 L 382.19,237.50 L 393.75,236.55 L 405.31,235.98 L 416.88,235.32 L 428.44,234.44 L 440.00,233.44 L 451.56,232.20 L 463.12,230.94 L 474.69,229.76 L 486.25,228.65 L 497.81,228.26 L 509.38,226.69 L 520.94,224.48 L 532.50,221.87 L 544.06,218.60 L 555.62,212.01 L 567.19,207.58 L 578.75,205.22 L 590.31,203.23 L 601.88,197.76 L 613.44,193.11 L 625.00,188.82 L 636.56,183.98 L 648.12,180.13 L 659.69,177.87 L 671.25,174.63 L 682.81,171.33 L 694.38,165.60 L 705.94,161.04 L 717.50,155.52 L 729.06,151.79 L 740.62,149.26 L 752.19,147.26 L 763.75,145.32 L 775.31,141.28 L 786.88,136.98 L 798.44,133.01 L 810.00,130.07" fill="none" stroke="#58a6ff" stroke-width="2.5" stroke-linejoin="round" stroke-linecap="round"/>

  <!-- Data points -->
  <circle cx="70.00" cy="273.87" r="2.5" fill="#58a6ff"/><circle cx="81.56" cy="271.19" r="2.5" fill="#58a6ff"/><circle cx="93.12" cy="270.87" r="2.5" fill="#58a6ff"/><circle cx="104.69" cy="270.81" r="2.5" fill="#58a6ff"/><circle cx="116.25" cy="270.48" r="2.5" fill="#58a6ff"/><circle cx="127.81" cy="270.30" r="2.5" fill="#58a6ff"/><circle cx="139.38" cy="269.98" r="2.5" fill="#58a6ff"/><circle cx="150.94" cy="269.20" r="2.5" fill="#58a6ff"/><circle cx="162.50" cy="267.59" r="2.5" fill="#58a6ff"/><circle cx="174.06" cy="266.69" r="2.5" fill="#58a6ff"/><circle cx="185.62" cy="263.76" r="2.5" fill="#58a6ff"/><circle cx="197.19" cy="261.71" r="2.5" fill="#58a6ff"/><circle cx="208.75" cy="255.63" r="2.5" fill="#58a6ff"/><circle cx="220.31" cy="253.16" r="2.5" fill="#58a6ff"/><circle cx="231.88" cy="251.69" r="2.5" fill="#58a6ff"/><circle cx="243.44" cy="250.24" r="2.5" fill="#58a6ff"/><circle cx="255.00" cy="249.86" r="2.5" fill="#58a6ff"/><circle cx="266.56" cy="248.97" r="2.5" fill="#58a6ff"/><circle cx="278.12" cy="247.57" r="2.5" fill="#58a6ff"/><circle cx="289.69" cy="245.29" r="2.5" fill="#58a6ff"/><circle cx="301.25" cy="244.47" r="2.5" fill="#58a6ff"/><circle cx="312.81" cy="243.28" r="2.5" fill="#58a6ff"/><circle cx="324.38" cy="242.09" r="2.5" fill="#58a6ff"/><circle cx="335.94" cy="241.70" r="2.5" fill="#58a6ff"/><circle cx="347.50" cy="241.26" r="2.5" fill="#58a6ff"/><circle cx="359.06" cy="239.76" r="2.5" fill="#58a6ff"/><circle cx="370.62" cy="238.82" r="2.5" fill="#58a6ff"/><circle cx="382.19" cy="237.50" r="2.5" fill="#58a6ff"/><circle cx="393.75" cy="236.55" r="2.5" fill="#58a6ff"/><circle cx="405.31" cy="235.98" r="2.5" fill="#58a6ff"/><circle cx="416.88" cy="235.32" r="2.5" fill="#58a6ff"/><circle cx="428.44" cy="234.44" r="2.5" fill="#58a6ff"/><circle cx="440.00" cy="233.44" r="2.5" fill="#58a6ff"/><circle cx="451.56" cy="232.20" r="2.5" fill="#58a6ff"/><circle cx="463.12" cy="230.94" r="2.5" fill="#58a6ff"/><circle cx="474.69" cy="229.76" r="2.5" fill="#58a6ff"/><circle cx="486.25" cy="228.65" r="2.5" fill="#58a6ff"/><circle cx="497.81" cy="228.26" r="2.5" fill="#58a6ff"/><circle cx="509.38" cy="226.69" r="2.5" fill="#58a6ff"/><circle cx="520.94" cy="224.48" r="2.5" fill="#58a6ff"/><circle cx="532.50" cy="221.87" r="2.5" fill="#58a6ff"/><circle cx="544.06" cy="218.60" r="2.5" fill="#58a6ff"/><circle cx="555.62" cy="212.01" r="2.5" fill="#58a6ff"/><circle cx="567.19" cy="207.58" r="2.5" fill="#58a6ff"/><circle cx="578.75" cy="205.22" r="2.5" fill="#58a6ff"/><circle cx="590.31" cy="203.23" r="2.5" fill="#58a6ff"/><circle cx="601.88" cy="197.76" r="2.5" fill="#58a6ff"/><circle cx="613.44" cy="193.11" r="2.5" fill="#58a6ff"/><circle cx="625.00" cy="188.82" r="2.5" fill="#58a6ff"/><circle cx="636.56" cy="183.98" r="2.5" fill="#58a6ff"/><circle cx="648.12" cy="180.13" r="2.5" fill="#58a6ff"/><circle cx="659.69" cy="177.87" r="2.5" fill="#58a6ff"/><circle cx="671.25" cy="174.63" r="2.5" fill="#58a6ff"/><circle cx="682.81" cy="171.33" r="2.5" fill="#58a6ff"/><circle cx="694.38" cy="165.60" r="2.5" fill="#58a6ff"/><circle cx="705.94" cy="161.04" r="2.5" fill="#58a6ff"/><circle cx="717.50" cy="155.52" r="2.5" fill="#58a6ff"/><circle cx="729.06" cy="151.79" r="2.5" fill="#58a6ff"/><circle cx="740.62" cy="149.26" r="2.5" fill="#58a6ff"/><circle cx="752.19" cy="147.26" r="2.5" fill="#58a6ff"/><circle cx="763.75" cy="145.32" r="2.5" fill="#58a6ff"/><circle cx="775.31" cy="141.28" r="2.5" fill="#58a6ff"/><circle cx="786.88" cy="136.98" r="2.5" fill="#58a6ff"/><circle cx="798.44" cy="133.01" r="2.5" fill="#58a6ff"/><circle cx="810.00" cy="130.07" r="4" fill="#F2C811"/>

  <!-- Last-value callout -->
  <rect x="720.0" y="102.1" width="82" height="24" rx="4" fill="#0d1a2a" stroke="#F2C811" stroke-width="1"/>
  <text x="761.0" y="118.1" font-family="'Segoe UI', Arial, sans-serif" font-size="12" fill="#F2C811" text-anchor="middle" font-weight="bold">14,845 total</text>

  <!-- X-axis labels -->
  <text x="70.0" y="298" font-family="'Segoe UI', Arial, sans-serif" font-size="10" fill="#8b949e" text-anchor="middle">Mar 26</text><text x="255.0" y="298" font-family="'Segoe UI', Arial, sans-serif" font-size="10" fill="#8b949e" text-anchor="middle">Apr 11</text><text x="440.0" y="298" font-family="'Segoe UI', Arial, sans-serif" font-size="10" fill="#8b949e" text-anchor="middle">Apr 27</text><text x="625.0" y="298" font-family="'Segoe UI', Arial, sans-serif" font-size="10" fill="#8b949e" text-anchor="middle">May 13</text><text x="810.0" y="298" font-family="'Segoe UI', Arial, sans-serif" font-size="10" fill="#8b949e" text-anchor="middle">May 29</text>

  <!-- Footer: date range -->
  <text x="70" y="328" font-family="'Segoe UI', Arial, sans-serif" font-size="10" fill="#8b949e">Mar 26, 2026 → May 29, 2026</text>
  <text x="810" y="328" font-family="'Segoe UI', Arial, sans-serif" font-size="10" fill="#8b949e" text-anchor="end">65 days of data</text>
</svg>
