<svg xmlns="http://www.w3.org/2000/svg" width="850" height="340" viewBox="0 0 850 340">
  <defs>
    <linearGradient id="areaFill" x1="0" y1="0" x2="0" y2="1">
      <stop offset="0%" stop-color="#58a6ff" stop-opacity="0.45"/>
      <stop offset="100%" stop-color="#58a6ff" stop-opacity="0"/>
    </linearGradient>
  </defs>

  <!-- Background -->
  <rect width="100%" height="100%" fill="#0d1117" rx="8"/>

  <!-- Title -->
  <text x="425" y="33" font-family="'Segoe UI', Arial, sans-serif" font-size="17" fill="#F2C811" text-anchor="middle" font-weight="bold">pbi-cli Downloads Over Time</text>
  <text x="425" y="52" font-family="'Segoe UI', Arial, sans-serif" font-size="11" fill="#8b949e" text-anchor="middle">Cumulative installs from PyPI • mirrors excluded • source: pypistats.org</text>

  <!-- Gridlines & y-labels -->
  <line x1="70" y1="280.0" x2="810" y2="280.0" stroke="#21262d" stroke-width="1" stroke-dasharray="2,3"/><line x1="70" y1="239.6" x2="810" y2="239.6" stroke="#21262d" stroke-width="1" stroke-dasharray="2,3"/><line x1="70" y1="199.2" x2="810" y2="199.2" stroke="#21262d" stroke-width="1" stroke-dasharray="2,3"/><line x1="70" y1="158.8" x2="810" y2="158.8" stroke="#21262d" stroke-width="1" stroke-dasharray="2,3"/><line x1="70" y1="118.4" x2="810" y2="118.4" stroke="#21262d" stroke-width="1" stroke-dasharray="2,3"/><line x1="70" y1="78.0" x2="810" y2="78.0" stroke="#21262d" stroke-width="1" stroke-dasharray="2,3"/>
  <text x="62" y="284.0" font-family="'Segoe UI', Arial, sans-serif" font-size="10" fill="#8b949e" text-anchor="end">0</text><text x="62" y="243.6" font-family="'Segoe UI', Arial, sans-serif" font-size="10" fill="#8b949e" text-anchor="end">5,000</text><text x="62" y="203.2" font-family="'Segoe UI', Arial, sans-serif" font-size="10" fill="#8b949e" text-anchor="end">10,000</text><text x="62" y="162.8" font-family="'Segoe UI', Arial, sans-serif" font-size="10" fill="#8b949e" text-anchor="end">15,000</text><text x="62" y="122.4" font-family="'Segoe UI', Arial, sans-serif" font-size="10" fill="#8b949e" text-anchor="end">20,000</text><text x="62" y="82.0" font-family="'Segoe UI', Arial, sans-serif" font-size="10" fill="#8b949e" text-anchor="end">25,000</text>

  <!-- Area fill -->
  <path d="M 70.00,280 L 70.00,275.10 L 79.14,272.95 L 88.27,272.70 L 97.41,272.65 L 106.54,272.38 L 115.68,272.24 L 124.81,271.98 L 133.95,271.36 L 143.09,270.07 L 152.22,269.35 L 161.36,267.01 L 170.49,265.37 L 179.63,260.50 L 188.77,258.53 L 197.90,257.35 L 207.04,256.19 L 216.17,255.89 L 225.31,255.18 L 234.44,254.06 L 243.58,252.23 L 252.72,251.57 L 261.85,250.62 L 270.99,249.68 L 280.12,249.36 L 289.26,249.01 L 298.40,247.81 L 307.53,247.06 L 316.67,246.00 L 325.80,245.24 L 334.94,244.79 L 344.07,244.25 L 353.21,243.55 L 362.35,242.75 L 371.48,241.76 L 380.62,240.76 L 389.75,239.81 L 398.89,238.92 L 408.02,238.61 L 417.16,237.35 L 426.30,235.58 L 435.43,233.50 L 444.57,230.88 L 453.70,225.61 L 462.84,222.07 L 471.98,220.18 L 481.11,218.58 L 490.25,214.20 L 499.38,210.49 L 508.52,207.05 L 517.65,203.18 L 526.79,200.10 L 535.93,198.30 L 545.06,195.70 L 554.20,193.07 L 563.33,188.48 L 572.47,184.83 L 581.60,180.41 L 590.74,177.43 L 599.88,175.40 L 609.01,173.80 L 618.15,172.25 L 627.28,169.02 L 636.42,165.59 L 645.56,162.41 L 654.69,160.05 L 663.83,158.90 L 672.96,157.52 L 682.10,154.82 L 691.23,152.63 L 700.37,149.75 L 709.51,147.30 L 718.64,144.85 L 727.78,142.47 L 736.91,141.52 L 746.05,139.75 L 755.19,136.95 L 764.32,133.36 L 773.46,130.63 L 782.59,128.57 L 791.73,126.58 L 800.86,123.78 L 810.00,120.77 L 810.00,280 Z" fill="url(#areaFill)"/>

  <!-- Line -->
  <path d="M 70.00,275.10 L 79.14,272.95 L 88.27,272.70 L 97.41,272.65 L 106.54,272.38 L 115.68,272.24 L 124.81,271.98 L 133.95,271.36 L 143.09,270.07 L 152.22,269.35 L 161.36,267.01 L 170.49,265.37 L 179.63,260.50 L 188.77,258.53 L 197.90,257.35 L 207.04,256.19 L 216.17,255.89 L 225.31,255.18 L 234.44,254.06 L 243.58,252.23 L 252.72,251.57 L 261.85,250.62 L 270.99,249.68 L 280.12,249.36 L 289.26,249.01 L 298.40,247.81 L 307.53,247.06 L 316.67,246.00 L 325.80,245.24 L 334.94,244.79 L 344.07,244.25 L 353.21,243.55 L 362.35,242.75 L 371.48,241.76 L 380.62,240.76 L 389.75,239.81 L 398.89,238.92 L 408.02,238.61 L 417.16,237.35 L 426.30,235.58 L 435.43,233.50 L 444.57,230.88 L 453.70,225.61 L 462.84,222.07 L 471.98,220.18 L 481.11,218.58 L 490.25,214.20 L 499.38,210.49 L 508.52,207.05 L 517.65,203.18 L 526.79,200.10 L 535.93,198.30 L 545.06,195.70 L 554.20,193.07 L 563.33,188.48 L 572.47,184.83 L 581.60,180.41 L 590.74,177.43 L 599.88,175.40 L 609.01,173.80 L 618.15,172.25 L 627.28,169.02 L 636.42,165.59 L 645.56,162.41 L 654.69,160.05 L 663.83,158.90 L 672.96,157.52 L 682.10,154.82 L 691.23,152.63 L 700.37,149.75 L 709.51,147.30 L 718.64,144.85 L 727.78,142.47 L 736.91,141.52 L 746.05,139.75 L 755.19,136.95 L 764.32,133.36 L 773.46,130.63 L 782.59,128.57 L 791.73,126.58 L 800.86,123.78 L 810.00,120.77" fill="none" stroke="#58a6ff" stroke-width="2.5" stroke-linejoin="round" stroke-linecap="round"/>

  <!-- Data points -->
  <circle cx="70.00" cy="275.10" r="2.5" fill="#58a6ff"/><circle cx="79.14" cy="272.95" r="2.5" fill="#58a6ff"/><circle cx="88.27" cy="272.70" r="2.5" fill="#58a6ff"/><circle cx="97.41" cy="272.65" r="2.5" fill="#58a6ff"/><circle cx="106.54" cy="272.38" r="2.5" fill="#58a6ff"/><circle cx="115.68" cy="272.24" r="2.5" fill="#58a6ff"/><circle cx="124.81" cy="271.98" r="2.5" fill="#58a6ff"/><circle cx="133.95" cy="271.36" r="2.5" fill="#58a6ff"/><circle cx="143.09" cy="270.07" r="2.5" fill="#58a6ff"/><circle cx="152.22" cy="269.35" r="2.5" fill="#58a6ff"/><circle cx="161.36" cy="267.01" r="2.5" fill="#58a6ff"/><circle cx="170.49" cy="265.37" r="2.5" fill="#58a6ff"/><circle cx="179.63" cy="260.50" r="2.5" fill="#58a6ff"/><circle cx="188.77" cy="258.53" r="2.5" fill="#58a6ff"/><circle cx="197.90" cy="257.35" r="2.5" fill="#58a6ff"/><circle cx="207.04" cy="256.19" r="2.5" fill="#58a6ff"/><circle cx="216.17" cy="255.89" r="2.5" fill="#58a6ff"/><circle cx="225.31" cy="255.18" r="2.5" fill="#58a6ff"/><circle cx="234.44" cy="254.06" r="2.5" fill="#58a6ff"/><circle cx="243.58" cy="252.23" r="2.5" fill="#58a6ff"/><circle cx="252.72" cy="251.57" r="2.5" fill="#58a6ff"/><circle cx="261.85" cy="250.62" r="2.5" fill="#58a6ff"/><circle cx="270.99" cy="249.68" r="2.5" fill="#58a6ff"/><circle cx="280.12" cy="249.36" r="2.5" fill="#58a6ff"/><circle cx="289.26" cy="249.01" r="2.5" fill="#58a6ff"/><circle cx="298.40" cy="247.81" r="2.5" fill="#58a6ff"/><circle cx="307.53" cy="247.06" r="2.5" fill="#58a6ff"/><circle cx="316.67" cy="246.00" r="2.5" fill="#58a6ff"/><circle cx="325.80" cy="245.24" r="2.5" fill="#58a6ff"/><circle cx="334.94" cy="244.79" r="2.5" fill="#58a6ff"/><circle cx="344.07" cy="244.25" r="2.5" fill="#58a6ff"/><circle cx="353.21" cy="243.55" r="2.5" fill="#58a6ff"/><circle cx="362.35" cy="242.75" r="2.5" fill="#58a6ff"/><circle cx="371.48" cy="241.76" r="2.5" fill="#58a6ff"/><circle cx="380.62" cy="240.76" r="2.5" fill="#58a6ff"/><circle cx="389.75" cy="239.81" r="2.5" fill="#58a6ff"/><circle cx="398.89" cy="238.92" r="2.5" fill="#58a6ff"/><circle cx="408.02" cy="238.61" r="2.5" fill="#58a6ff"/><circle cx="417.16" cy="237.35" r="2.5" fill="#58a6ff"/><circle cx="426.30" cy="235.58" r="2.5" fill="#58a6ff"/><circle cx="435.43" cy="233.50" r="2.5" fill="#58a6ff"/><circle cx="444.57" cy="230.88" r="2.5" fill="#58a6ff"/><circle cx="453.70" cy="225.61" r="2.5" fill="#58a6ff"/><circle cx="462.84" cy="222.07" r="2.5" fill="#58a6ff"/><circle cx="471.98" cy="220.18" r="2.5" fill="#58a6ff"/><circle cx="481.11" cy="218.58" r="2.5" fill="#58a6ff"/><circle cx="490.25" cy="214.20" r="2.5" fill="#58a6ff"/><circle cx="499.38" cy="210.49" r="2.5" fill="#58a6ff"/><circle cx="508.52" cy="207.05" r="2.5" fill="#58a6ff"/><circle cx="517.65" cy="203.18" r="2.5" fill="#58a6ff"/><circle cx="526.79" cy="200.10" r="2.5" fill="#58a6ff"/><circle cx="535.93" cy="198.30" r="2.5" fill="#58a6ff"/><circle cx="545.06" cy="195.70" r="2.5" fill="#58a6ff"/><circle cx="554.20" cy="193.07" r="2.5" fill="#58a6ff"/><circle cx="563.33" cy="188.48" r="2.5" fill="#58a6ff"/><circle cx="572.47" cy="184.83" r="2.5" fill="#58a6ff"/><circle cx="581.60" cy="180.41" r="2.5" fill="#58a6ff"/><circle cx="590.74" cy="177.43" r="2.5" fill="#58a6ff"/><circle cx="599.88" cy="175.40" r="2.5" fill="#58a6ff"/><circle cx="609.01" cy="173.80" r="2.5" fill="#58a6ff"/><circle cx="618.15" cy="172.25" r="2.5" fill="#58a6ff"/><circle cx="627.28" cy="169.02" r="2.5" fill="#58a6ff"/><circle cx="636.42" cy="165.59" r="2.5" fill="#58a6ff"/><circle cx="645.56" cy="162.41" r="2.5" fill="#58a6ff"/><circle cx="654.69" cy="160.05" r="2.5" fill="#58a6ff"/><circle cx="663.83" cy="158.90" r="2.5" fill="#58a6ff"/><circle cx="672.96" cy="157.52" r="2.5" fill="#58a6ff"/><circle cx="682.10" cy="154.82" r="2.5" fill="#58a6ff"/><circle cx="691.23" cy="152.63" r="2.5" fill="#58a6ff"/><circle cx="700.37" cy="149.75" r="2.5" fill="#58a6ff"/><circle cx="709.51" cy="147.30" r="2.5" fill="#58a6ff"/><circle cx="718.64" cy="144.85" r="2.5" fill="#58a6ff"/><circle cx="727.78" cy="142.47" r="2.5" fill="#58a6ff"/><circle cx="736.91" cy="141.52" r="2.5" fill="#58a6ff"/><circle cx="746.05" cy="139.75" r="2.5" fill="#58a6ff"/><circle cx="755.19" cy="136.95" r="2.5" fill="#58a6ff"/><circle cx="764.32" cy="133.36" r="2.5" fill="#58a6ff"/><circle cx="773.46" cy="130.63" r="2.5" fill="#58a6ff"/><circle cx="782.59" cy="128.57" r="2.5" fill="#58a6ff"/><circle cx="791.73" cy="126.58" r="2.5" fill="#58a6ff"/><circle cx="800.86" cy="123.78" r="2.5" fill="#58a6ff"/><circle cx="810.00" cy="120.77" r="4" fill="#F2C811"/>

  <!-- Last-value callout -->
  <rect x="720.0" y="92.8" width="82" height="24" rx="4" fill="#0d1a2a" stroke="#F2C811" stroke-width="1"/>
  <text x="761.0" y="108.8" font-family="'Segoe UI', Arial, sans-serif" font-size="12" fill="#F2C811" text-anchor="middle" font-weight="bold">19,707 total</text>

  <!-- X-axis labels -->
  <text x="70.0" y="298" font-family="'Segoe UI', Arial, sans-serif" font-size="10" fill="#8b949e" text-anchor="middle">Mar 26</text><text x="252.7" y="298" font-family="'Segoe UI', Arial, sans-serif" font-size="10" fill="#8b949e" text-anchor="middle">Apr 15</text><text x="444.6" y="298" font-family="'Segoe UI', Arial, sans-serif" font-size="10" fill="#8b949e" text-anchor="middle">May 06</text><text x="627.3" y="298" font-family="'Segoe UI', Arial, sans-serif" font-size="10" fill="#8b949e" text-anchor="middle">May 26</text><text x="810.0" y="298" font-family="'Segoe UI', Arial, sans-serif" font-size="10" fill="#8b949e" text-anchor="middle">Jun 16</text>

  <!-- Footer: date range -->
  <text x="70" y="328" font-family="'Segoe UI', Arial, sans-serif" font-size="10" fill="#8b949e">Mar 26, 2026 → Jun 16, 2026</text>
  <text x="810" y="328" font-family="'Segoe UI', Arial, sans-serif" font-size="10" fill="#8b949e" text-anchor="end">82 days of data</text>
</svg>
