<svg xmlns="http://www.w3.org/2000/svg" width="850" height="340" viewBox="0 0 850 340">
  <defs>
    <linearGradient id="areaFill" x1="0" y1="0" x2="0" y2="1">
      <stop offset="0%" stop-color="#58a6ff" stop-opacity="0.45"/>
      <stop offset="100%" stop-color="#58a6ff" stop-opacity="0"/>
    </linearGradient>
  </defs>

  <!-- Background -->
  <rect width="100%" height="100%" fill="#0d1117" rx="8"/>

  <!-- Title -->
  <text x="425" y="33" font-family="'Segoe UI', Arial, sans-serif" font-size="17" fill="#F2C811" text-anchor="middle" font-weight="bold">pbi-cli Downloads Over Time</text>
  <text x="425" y="52" font-family="'Segoe UI', Arial, sans-serif" font-size="11" fill="#8b949e" text-anchor="middle">Cumulative installs from PyPI • mirrors excluded • source: pypistats.org</text>

  <!-- Gridlines & y-labels -->
  <line x1="70" y1="280.0" x2="810" y2="280.0" stroke="#21262d" stroke-width="1" stroke-dasharray="2,3"/><line x1="70" y1="239.6" x2="810" y2="239.6" stroke="#21262d" stroke-width="1" stroke-dasharray="2,3"/><line x1="70" y1="199.2" x2="810" y2="199.2" stroke="#21262d" stroke-width="1" stroke-dasharray="2,3"/><line x1="70" y1="158.8" x2="810" y2="158.8" stroke="#21262d" stroke-width="1" stroke-dasharray="2,3"/><line x1="70" y1="118.4" x2="810" y2="118.4" stroke="#21262d" stroke-width="1" stroke-dasharray="2,3"/><line x1="70" y1="78.0" x2="810" y2="78.0" stroke="#21262d" stroke-width="1" stroke-dasharray="2,3"/>
  <text x="62" y="284.0" font-family="'Segoe UI', Arial, sans-serif" font-size="10" fill="#8b949e" text-anchor="end">0</text><text x="62" y="243.6" font-family="'Segoe UI', Arial, sans-serif" font-size="10" fill="#8b949e" text-anchor="end">1,000</text><text x="62" y="203.2" font-family="'Segoe UI', Arial, sans-serif" font-size="10" fill="#8b949e" text-anchor="end">2,000</text><text x="62" y="162.8" font-family="'Segoe UI', Arial, sans-serif" font-size="10" fill="#8b949e" text-anchor="end">3,000</text><text x="62" y="122.4" font-family="'Segoe UI', Arial, sans-serif" font-size="10" fill="#8b949e" text-anchor="end">4,000</text><text x="62" y="82.0" font-family="'Segoe UI', Arial, sans-serif" font-size="10" fill="#8b949e" text-anchor="end">5,000</text>

  <!-- Area fill -->
  <path d="M 70.00,280 L 70.00,255.48 L 99.60,244.77 L 129.20,243.48 L 158.80,243.24 L 188.40,241.90 L 218.00,241.22 L 247.60,239.92 L 277.20,236.81 L 306.80,230.35 L 336.40,226.75 L 366.00,215.04 L 395.60,206.84 L 425.20,182.51 L 454.80,172.66 L 484.40,166.76 L 514.00,160.94 L 543.60,159.45 L 573.20,155.89 L 602.80,150.28 L 632.40,141.15 L 662.00,137.87 L 691.60,133.11 L 721.20,128.38 L 750.80,126.80 L 780.40,125.03 L 810.00,119.05 L 810.00,280 Z" fill="url(#areaFill)"/>

  <!-- Line -->
  <path d="M 70.00,255.48 L 99.60,244.77 L 129.20,243.48 L 158.80,243.24 L 188.40,241.90 L 218.00,241.22 L 247.60,239.92 L 277.20,236.81 L 306.80,230.35 L 336.40,226.75 L 366.00,215.04 L 395.60,206.84 L 425.20,182.51 L 454.80,172.66 L 484.40,166.76 L 514.00,160.94 L 543.60,159.45 L 573.20,155.89 L 602.80,150.28 L 632.40,141.15 L 662.00,137.87 L 691.60,133.11 L 721.20,128.38 L 750.80,126.80 L 780.40,125.03 L 810.00,119.05" fill="none" stroke="#58a6ff" stroke-width="2.5" stroke-linejoin="round" stroke-linecap="round"/>

  <!-- Data points -->
  <circle cx="70.00" cy="255.48" r="2.5" fill="#58a6ff"/><circle cx="99.60" cy="244.77" r="2.5" fill="#58a6ff"/><circle cx="129.20" cy="243.48" r="2.5" fill="#58a6ff"/><circle cx="158.80" cy="243.24" r="2.5" fill="#58a6ff"/><circle cx="188.40" cy="241.90" r="2.5" fill="#58a6ff"/><circle cx="218.00" cy="241.22" r="2.5" fill="#58a6ff"/><circle cx="247.60" cy="239.92" r="2.5" fill="#58a6ff"/><circle cx="277.20" cy="236.81" r="2.5" fill="#58a6ff"/><circle cx="306.80" cy="230.35" r="2.5" fill="#58a6ff"/><circle cx="336.40" cy="226.75" r="2.5" fill="#58a6ff"/><circle cx="366.00" cy="215.04" r="2.5" fill="#58a6ff"/><circle cx="395.60" cy="206.84" r="2.5" fill="#58a6ff"/><circle cx="425.20" cy="182.51" r="2.5" fill="#58a6ff"/><circle cx="454.80" cy="172.66" r="2.5" fill="#58a6ff"/><circle cx="484.40" cy="166.76" r="2.5" fill="#58a6ff"/><circle cx="514.00" cy="160.94" r="2.5" fill="#58a6ff"/><circle cx="543.60" cy="159.45" r="2.5" fill="#58a6ff"/><circle cx="573.20" cy="155.89" r="2.5" fill="#58a6ff"/><circle cx="602.80" cy="150.28" r="2.5" fill="#58a6ff"/><circle cx="632.40" cy="141.15" r="2.5" fill="#58a6ff"/><circle cx="662.00" cy="137.87" r="2.5" fill="#58a6ff"/><circle cx="691.60" cy="133.11" r="2.5" fill="#58a6ff"/><circle cx="721.20" cy="128.38" r="2.5" fill="#58a6ff"/><circle cx="750.80" cy="126.80" r="2.5" fill="#58a6ff"/><circle cx="780.40" cy="125.03" r="2.5" fill="#58a6ff"/><circle cx="810.00" cy="119.05" r="4" fill="#F2C811"/>

  <!-- Last-value callout -->
  <rect x="720.0" y="92.0" width="82" height="24" rx="4" fill="#0d1a2a" stroke="#F2C811" stroke-width="1"/>
  <text x="761.0" y="108.0" font-family="'Segoe UI', Arial, sans-serif" font-size="12" fill="#F2C811" text-anchor="middle" font-weight="bold">3,984 total</text>

  <!-- X-axis labels -->
  <text x="70.0" y="298" font-family="'Segoe UI', Arial, sans-serif" font-size="10" fill="#8b949e" text-anchor="middle">Mar 26</text><text x="247.6" y="298" font-family="'Segoe UI', Arial, sans-serif" font-size="10" fill="#8b949e" text-anchor="middle">Apr 01</text><text x="454.8" y="298" font-family="'Segoe UI', Arial, sans-serif" font-size="10" fill="#8b949e" text-anchor="middle">Apr 08</text><text x="632.4" y="298" font-family="'Segoe UI', Arial, sans-serif" font-size="10" fill="#8b949e" text-anchor="middle">Apr 14</text><text x="810.0" y="298" font-family="'Segoe UI', Arial, sans-serif" font-size="10" fill="#8b949e" text-anchor="middle">Apr 20</text>

  <!-- Footer: date range -->
  <text x="70" y="328" font-family="'Segoe UI', Arial, sans-serif" font-size="10" fill="#8b949e">Mar 26, 2026 → Apr 20, 2026</text>
  <text x="810" y="328" font-family="'Segoe UI', Arial, sans-serif" font-size="10" fill="#8b949e" text-anchor="end">26 days of data</text>
</svg>
