<svg xmlns="http://www.w3.org/2000/svg" width="850" height="340" viewBox="0 0 850 340">
  <defs>
    <linearGradient id="areaFill" x1="0" y1="0" x2="0" y2="1">
      <stop offset="0%" stop-color="#58a6ff" stop-opacity="0.45"/>
      <stop offset="100%" stop-color="#58a6ff" stop-opacity="0"/>
    </linearGradient>
  </defs>

  <!-- Background -->
  <rect width="100%" height="100%" fill="#0d1117" rx="8"/>

  <!-- Title -->
  <text x="425" y="33" font-family="'Segoe UI', Arial, sans-serif" font-size="17" fill="#F2C811" text-anchor="middle" font-weight="bold">pbi-cli Downloads Over Time</text>
  <text x="425" y="52" font-family="'Segoe UI', Arial, sans-serif" font-size="11" fill="#8b949e" text-anchor="middle">Cumulative installs from PyPI • mirrors excluded • source: pypistats.org</text>

  <!-- Gridlines & y-labels -->
  <line x1="70" y1="280.0" x2="810" y2="280.0" stroke="#21262d" stroke-width="1" stroke-dasharray="2,3"/><line x1="70" y1="239.6" x2="810" y2="239.6" stroke="#21262d" stroke-width="1" stroke-dasharray="2,3"/><line x1="70" y1="199.2" x2="810" y2="199.2" stroke="#21262d" stroke-width="1" stroke-dasharray="2,3"/><line x1="70" y1="158.8" x2="810" y2="158.8" stroke="#21262d" stroke-width="1" stroke-dasharray="2,3"/><line x1="70" y1="118.4" x2="810" y2="118.4" stroke="#21262d" stroke-width="1" stroke-dasharray="2,3"/><line x1="70" y1="78.0" x2="810" y2="78.0" stroke="#21262d" stroke-width="1" stroke-dasharray="2,3"/>
  <text x="62" y="284.0" font-family="'Segoe UI', Arial, sans-serif" font-size="10" fill="#8b949e" text-anchor="end">0</text><text x="62" y="243.6" font-family="'Segoe UI', Arial, sans-serif" font-size="10" fill="#8b949e" text-anchor="end">5,000</text><text x="62" y="203.2" font-family="'Segoe UI', Arial, sans-serif" font-size="10" fill="#8b949e" text-anchor="end">10,000</text><text x="62" y="162.8" font-family="'Segoe UI', Arial, sans-serif" font-size="10" fill="#8b949e" text-anchor="end">15,000</text><text x="62" y="122.4" font-family="'Segoe UI', Arial, sans-serif" font-size="10" fill="#8b949e" text-anchor="end">20,000</text><text x="62" y="82.0" font-family="'Segoe UI', Arial, sans-serif" font-size="10" fill="#8b949e" text-anchor="end">25,000</text>

  <!-- Area fill -->
  <path d="M 70.00,280 L 70.00,275.10 L 79.87,272.95 L 89.73,272.70 L 99.60,272.65 L 109.47,272.38 L 119.33,272.24 L 129.20,271.98 L 139.07,271.36 L 148.93,270.07 L 158.80,269.35 L 168.67,267.01 L 178.53,265.37 L 188.40,260.50 L 198.27,258.53 L 208.13,257.35 L 218.00,256.19 L 227.87,255.89 L 237.73,255.18 L 247.60,254.06 L 257.47,252.23 L 267.33,251.57 L 277.20,250.62 L 287.07,249.68 L 296.93,249.36 L 306.80,249.01 L 316.67,247.81 L 326.53,247.06 L 336.40,246.00 L 346.27,245.24 L 356.13,244.79 L 366.00,244.25 L 375.87,243.55 L 385.73,242.75 L 395.60,241.76 L 405.47,240.76 L 415.33,239.81 L 425.20,238.92 L 435.07,238.61 L 444.93,237.35 L 454.80,235.58 L 464.67,233.50 L 474.53,230.88 L 484.40,225.61 L 494.27,222.07 L 504.13,220.18 L 514.00,218.58 L 523.87,214.20 L 533.73,210.49 L 543.60,207.05 L 553.47,203.18 L 563.33,200.10 L 573.20,198.30 L 583.07,195.70 L 592.93,193.07 L 602.80,188.48 L 612.67,184.83 L 622.53,180.41 L 632.40,177.43 L 642.27,175.40 L 652.13,173.80 L 662.00,172.25 L 671.87,169.02 L 681.73,165.59 L 691.60,162.41 L 701.47,160.05 L 711.33,158.90 L 721.20,157.52 L 731.07,154.82 L 740.93,152.63 L 750.80,149.75 L 760.67,147.30 L 770.53,144.85 L 780.40,142.47 L 790.27,141.52 L 800.13,139.75 L 810.00,136.95 L 810.00,280 Z" fill="url(#areaFill)"/>

  <!-- Line -->
  <path d="M 70.00,275.10 L 79.87,272.95 L 89.73,272.70 L 99.60,272.65 L 109.47,272.38 L 119.33,272.24 L 129.20,271.98 L 139.07,271.36 L 148.93,270.07 L 158.80,269.35 L 168.67,267.01 L 178.53,265.37 L 188.40,260.50 L 198.27,258.53 L 208.13,257.35 L 218.00,256.19 L 227.87,255.89 L 237.73,255.18 L 247.60,254.06 L 257.47,252.23 L 267.33,251.57 L 277.20,250.62 L 287.07,249.68 L 296.93,249.36 L 306.80,249.01 L 316.67,247.81 L 326.53,247.06 L 336.40,246.00 L 346.27,245.24 L 356.13,244.79 L 366.00,244.25 L 375.87,243.55 L 385.73,242.75 L 395.60,241.76 L 405.47,240.76 L 415.33,239.81 L 425.20,238.92 L 435.07,238.61 L 444.93,237.35 L 454.80,235.58 L 464.67,233.50 L 474.53,230.88 L 484.40,225.61 L 494.27,222.07 L 504.13,220.18 L 514.00,218.58 L 523.87,214.20 L 533.73,210.49 L 543.60,207.05 L 553.47,203.18 L 563.33,200.10 L 573.20,198.30 L 583.07,195.70 L 592.93,193.07 L 602.80,188.48 L 612.67,184.83 L 622.53,180.41 L 632.40,177.43 L 642.27,175.40 L 652.13,173.80 L 662.00,172.25 L 671.87,169.02 L 681.73,165.59 L 691.60,162.41 L 701.47,160.05 L 711.33,158.90 L 721.20,157.52 L 731.07,154.82 L 740.93,152.63 L 750.80,149.75 L 760.67,147.30 L 770.53,144.85 L 780.40,142.47 L 790.27,141.52 L 800.13,139.75 L 810.00,136.95" fill="none" stroke="#58a6ff" stroke-width="2.5" stroke-linejoin="round" stroke-linecap="round"/>

  <!-- Data points -->
  <circle cx="70.00" cy="275.10" r="2.5" fill="#58a6ff"/><circle cx="79.87" cy="272.95" r="2.5" fill="#58a6ff"/><circle cx="89.73" cy="272.70" r="2.5" fill="#58a6ff"/><circle cx="99.60" cy="272.65" r="2.5" fill="#58a6ff"/><circle cx="109.47" cy="272.38" r="2.5" fill="#58a6ff"/><circle cx="119.33" cy="272.24" r="2.5" fill="#58a6ff"/><circle cx="129.20" cy="271.98" r="2.5" fill="#58a6ff"/><circle cx="139.07" cy="271.36" r="2.5" fill="#58a6ff"/><circle cx="148.93" cy="270.07" r="2.5" fill="#58a6ff"/><circle cx="158.80" cy="269.35" r="2.5" fill="#58a6ff"/><circle cx="168.67" cy="267.01" r="2.5" fill="#58a6ff"/><circle cx="178.53" cy="265.37" r="2.5" fill="#58a6ff"/><circle cx="188.40" cy="260.50" r="2.5" fill="#58a6ff"/><circle cx="198.27" cy="258.53" r="2.5" fill="#58a6ff"/><circle cx="208.13" cy="257.35" r="2.5" fill="#58a6ff"/><circle cx="218.00" cy="256.19" r="2.5" fill="#58a6ff"/><circle cx="227.87" cy="255.89" r="2.5" fill="#58a6ff"/><circle cx="237.73" cy="255.18" r="2.5" fill="#58a6ff"/><circle cx="247.60" cy="254.06" r="2.5" fill="#58a6ff"/><circle cx="257.47" cy="252.23" r="2.5" fill="#58a6ff"/><circle cx="267.33" cy="251.57" r="2.5" fill="#58a6ff"/><circle cx="277.20" cy="250.62" r="2.5" fill="#58a6ff"/><circle cx="287.07" cy="249.68" r="2.5" fill="#58a6ff"/><circle cx="296.93" cy="249.36" r="2.5" fill="#58a6ff"/><circle cx="306.80" cy="249.01" r="2.5" fill="#58a6ff"/><circle cx="316.67" cy="247.81" r="2.5" fill="#58a6ff"/><circle cx="326.53" cy="247.06" r="2.5" fill="#58a6ff"/><circle cx="336.40" cy="246.00" r="2.5" fill="#58a6ff"/><circle cx="346.27" cy="245.24" r="2.5" fill="#58a6ff"/><circle cx="356.13" cy="244.79" r="2.5" fill="#58a6ff"/><circle cx="366.00" cy="244.25" r="2.5" fill="#58a6ff"/><circle cx="375.87" cy="243.55" r="2.5" fill="#58a6ff"/><circle cx="385.73" cy="242.75" r="2.5" fill="#58a6ff"/><circle cx="395.60" cy="241.76" r="2.5" fill="#58a6ff"/><circle cx="405.47" cy="240.76" r="2.5" fill="#58a6ff"/><circle cx="415.33" cy="239.81" r="2.5" fill="#58a6ff"/><circle cx="425.20" cy="238.92" r="2.5" fill="#58a6ff"/><circle cx="435.07" cy="238.61" r="2.5" fill="#58a6ff"/><circle cx="444.93" cy="237.35" r="2.5" fill="#58a6ff"/><circle cx="454.80" cy="235.58" r="2.5" fill="#58a6ff"/><circle cx="464.67" cy="233.50" r="2.5" fill="#58a6ff"/><circle cx="474.53" cy="230.88" r="2.5" fill="#58a6ff"/><circle cx="484.40" cy="225.61" r="2.5" fill="#58a6ff"/><circle cx="494.27" cy="222.07" r="2.5" fill="#58a6ff"/><circle cx="504.13" cy="220.18" r="2.5" fill="#58a6ff"/><circle cx="514.00" cy="218.58" r="2.5" fill="#58a6ff"/><circle cx="523.87" cy="214.20" r="2.5" fill="#58a6ff"/><circle cx="533.73" cy="210.49" r="2.5" fill="#58a6ff"/><circle cx="543.60" cy="207.05" r="2.5" fill="#58a6ff"/><circle cx="553.47" cy="203.18" r="2.5" fill="#58a6ff"/><circle cx="563.33" cy="200.10" r="2.5" fill="#58a6ff"/><circle cx="573.20" cy="198.30" r="2.5" fill="#58a6ff"/><circle cx="583.07" cy="195.70" r="2.5" fill="#58a6ff"/><circle cx="592.93" cy="193.07" r="2.5" fill="#58a6ff"/><circle cx="602.80" cy="188.48" r="2.5" fill="#58a6ff"/><circle cx="612.67" cy="184.83" r="2.5" fill="#58a6ff"/><circle cx="622.53" cy="180.41" r="2.5" fill="#58a6ff"/><circle cx="632.40" cy="177.43" r="2.5" fill="#58a6ff"/><circle cx="642.27" cy="175.40" r="2.5" fill="#58a6ff"/><circle cx="652.13" cy="173.80" r="2.5" fill="#58a6ff"/><circle cx="662.00" cy="172.25" r="2.5" fill="#58a6ff"/><circle cx="671.87" cy="169.02" r="2.5" fill="#58a6ff"/><circle cx="681.73" cy="165.59" r="2.5" fill="#58a6ff"/><circle cx="691.60" cy="162.41" r="2.5" fill="#58a6ff"/><circle cx="701.47" cy="160.05" r="2.5" fill="#58a6ff"/><circle cx="711.33" cy="158.90" r="2.5" fill="#58a6ff"/><circle cx="721.20" cy="157.52" r="2.5" fill="#58a6ff"/><circle cx="731.07" cy="154.82" r="2.5" fill="#58a6ff"/><circle cx="740.93" cy="152.63" r="2.5" fill="#58a6ff"/><circle cx="750.80" cy="149.75" r="2.5" fill="#58a6ff"/><circle cx="760.67" cy="147.30" r="2.5" fill="#58a6ff"/><circle cx="770.53" cy="144.85" r="2.5" fill="#58a6ff"/><circle cx="780.40" cy="142.47" r="2.5" fill="#58a6ff"/><circle cx="790.27" cy="141.52" r="2.5" fill="#58a6ff"/><circle cx="800.13" cy="139.75" r="2.5" fill="#58a6ff"/><circle cx="810.00" cy="136.95" r="4" fill="#F2C811"/>

  <!-- Last-value callout -->
  <rect x="720.0" y="109.0" width="82" height="24" rx="4" fill="#0d1a2a" stroke="#F2C811" stroke-width="1"/>
  <text x="761.0" y="125.0" font-family="'Segoe UI', Arial, sans-serif" font-size="12" fill="#F2C811" text-anchor="middle" font-weight="bold">17,704 total</text>

  <!-- X-axis labels -->
  <text x="70.0" y="298" font-family="'Segoe UI', Arial, sans-serif" font-size="10" fill="#8b949e" text-anchor="middle">Mar 26</text><text x="257.5" y="298" font-family="'Segoe UI', Arial, sans-serif" font-size="10" fill="#8b949e" text-anchor="middle">Apr 14</text><text x="444.9" y="298" font-family="'Segoe UI', Arial, sans-serif" font-size="10" fill="#8b949e" text-anchor="middle">May 03</text><text x="632.4" y="298" font-family="'Segoe UI', Arial, sans-serif" font-size="10" fill="#8b949e" text-anchor="middle">May 22</text><text x="810.0" y="298" font-family="'Segoe UI', Arial, sans-serif" font-size="10" fill="#8b949e" text-anchor="middle">Jun 09</text>

  <!-- Footer: date range -->
  <text x="70" y="328" font-family="'Segoe UI', Arial, sans-serif" font-size="10" fill="#8b949e">Mar 26, 2026 → Jun 09, 2026</text>
  <text x="810" y="328" font-family="'Segoe UI', Arial, sans-serif" font-size="10" fill="#8b949e" text-anchor="end">76 days of data</text>
</svg>
