<svg xmlns="http://www.w3.org/2000/svg" width="850" height="340" viewBox="0 0 850 340">
  <defs>
    <linearGradient id="areaFill" x1="0" y1="0" x2="0" y2="1">
      <stop offset="0%" stop-color="#58a6ff" stop-opacity="0.45"/>
      <stop offset="100%" stop-color="#58a6ff" stop-opacity="0"/>
    </linearGradient>
  </defs>

  <!-- Background -->
  <rect width="100%" height="100%" fill="#0d1117" rx="8"/>

  <!-- Title -->
  <text x="425" y="33" font-family="'Segoe UI', Arial, sans-serif" font-size="17" fill="#F2C811" text-anchor="middle" font-weight="bold">pbi-cli Downloads Over Time</text>
  <text x="425" y="52" font-family="'Segoe UI', Arial, sans-serif" font-size="11" fill="#8b949e" text-anchor="middle">Cumulative installs from PyPI • mirrors excluded • source: pypistats.org</text>

  <!-- Gridlines & y-labels -->
  <line x1="70" y1="280.0" x2="810" y2="280.0" stroke="#21262d" stroke-width="1" stroke-dasharray="2,3"/><line x1="70" y1="239.6" x2="810" y2="239.6" stroke="#21262d" stroke-width="1" stroke-dasharray="2,3"/><line x1="70" y1="199.2" x2="810" y2="199.2" stroke="#21262d" stroke-width="1" stroke-dasharray="2,3"/><line x1="70" y1="158.8" x2="810" y2="158.8" stroke="#21262d" stroke-width="1" stroke-dasharray="2,3"/><line x1="70" y1="118.4" x2="810" y2="118.4" stroke="#21262d" stroke-width="1" stroke-dasharray="2,3"/><line x1="70" y1="78.0" x2="810" y2="78.0" stroke="#21262d" stroke-width="1" stroke-dasharray="2,3"/>
  <text x="62" y="284.0" font-family="'Segoe UI', Arial, sans-serif" font-size="10" fill="#8b949e" text-anchor="end">0</text><text x="62" y="243.6" font-family="'Segoe UI', Arial, sans-serif" font-size="10" fill="#8b949e" text-anchor="end">2,000</text><text x="62" y="203.2" font-family="'Segoe UI', Arial, sans-serif" font-size="10" fill="#8b949e" text-anchor="end">4,000</text><text x="62" y="162.8" font-family="'Segoe UI', Arial, sans-serif" font-size="10" fill="#8b949e" text-anchor="end">6,000</text><text x="62" y="122.4" font-family="'Segoe UI', Arial, sans-serif" font-size="10" fill="#8b949e" text-anchor="end">8,000</text><text x="62" y="82.0" font-family="'Segoe UI', Arial, sans-serif" font-size="10" fill="#8b949e" text-anchor="end">10,000</text>

  <!-- Area fill -->
  <path d="M 70.00,280 L 70.00,267.74 L 88.97,262.39 L 107.95,261.74 L 126.92,261.62 L 145.90,260.95 L 164.87,260.61 L 183.85,259.96 L 202.82,258.41 L 221.79,255.17 L 240.77,253.38 L 259.74,247.52 L 278.72,243.42 L 297.69,231.26 L 316.67,226.33 L 335.64,223.38 L 354.62,220.47 L 373.59,219.72 L 392.56,217.95 L 411.54,215.14 L 430.51,210.57 L 449.49,208.94 L 468.46,206.55 L 487.44,204.19 L 506.41,203.40 L 525.38,202.51 L 544.36,199.52 L 563.33,197.64 L 582.31,195.00 L 601.28,193.10 L 620.26,191.97 L 639.23,190.64 L 658.21,188.88 L 677.18,186.88 L 696.15,184.39 L 715.13,181.89 L 734.10,179.53 L 753.08,177.30 L 772.05,176.52 L 791.03,173.38 L 810.00,168.96 L 810.00,280 Z" fill="url(#areaFill)"/>

  <!-- Line -->
  <path d="M 70.00,267.74 L 88.97,262.39 L 107.95,261.74 L 126.92,261.62 L 145.90,260.95 L 164.87,260.61 L 183.85,259.96 L 202.82,258.41 L 221.79,255.17 L 240.77,253.38 L 259.74,247.52 L 278.72,243.42 L 297.69,231.26 L 316.67,226.33 L 335.64,223.38 L 354.62,220.47 L 373.59,219.72 L 392.56,217.95 L 411.54,215.14 L 430.51,210.57 L 449.49,208.94 L 468.46,206.55 L 487.44,204.19 L 506.41,203.40 L 525.38,202.51 L 544.36,199.52 L 563.33,197.64 L 582.31,195.00 L 601.28,193.10 L 620.26,191.97 L 639.23,190.64 L 658.21,188.88 L 677.18,186.88 L 696.15,184.39 L 715.13,181.89 L 734.10,179.53 L 753.08,177.30 L 772.05,176.52 L 791.03,173.38 L 810.00,168.96" fill="none" stroke="#58a6ff" stroke-width="2.5" stroke-linejoin="round" stroke-linecap="round"/>

  <!-- Data points -->
  <circle cx="70.00" cy="267.74" r="2.5" fill="#58a6ff"/><circle cx="88.97" cy="262.39" r="2.5" fill="#58a6ff"/><circle cx="107.95" cy="261.74" r="2.5" fill="#58a6ff"/><circle cx="126.92" cy="261.62" r="2.5" fill="#58a6ff"/><circle cx="145.90" cy="260.95" r="2.5" fill="#58a6ff"/><circle cx="164.87" cy="260.61" r="2.5" fill="#58a6ff"/><circle cx="183.85" cy="259.96" r="2.5" fill="#58a6ff"/><circle cx="202.82" cy="258.41" r="2.5" fill="#58a6ff"/><circle cx="221.79" cy="255.17" r="2.5" fill="#58a6ff"/><circle cx="240.77" cy="253.38" r="2.5" fill="#58a6ff"/><circle cx="259.74" cy="247.52" r="2.5" fill="#58a6ff"/><circle cx="278.72" cy="243.42" r="2.5" fill="#58a6ff"/><circle cx="297.69" cy="231.26" r="2.5" fill="#58a6ff"/><circle cx="316.67" cy="226.33" r="2.5" fill="#58a6ff"/><circle cx="335.64" cy="223.38" r="2.5" fill="#58a6ff"/><circle cx="354.62" cy="220.47" r="2.5" fill="#58a6ff"/><circle cx="373.59" cy="219.72" r="2.5" fill="#58a6ff"/><circle cx="392.56" cy="217.95" r="2.5" fill="#58a6ff"/><circle cx="411.54" cy="215.14" r="2.5" fill="#58a6ff"/><circle cx="430.51" cy="210.57" r="2.5" fill="#58a6ff"/><circle cx="449.49" cy="208.94" r="2.5" fill="#58a6ff"/><circle cx="468.46" cy="206.55" r="2.5" fill="#58a6ff"/><circle cx="487.44" cy="204.19" r="2.5" fill="#58a6ff"/><circle cx="506.41" cy="203.40" r="2.5" fill="#58a6ff"/><circle cx="525.38" cy="202.51" r="2.5" fill="#58a6ff"/><circle cx="544.36" cy="199.52" r="2.5" fill="#58a6ff"/><circle cx="563.33" cy="197.64" r="2.5" fill="#58a6ff"/><circle cx="582.31" cy="195.00" r="2.5" fill="#58a6ff"/><circle cx="601.28" cy="193.10" r="2.5" fill="#58a6ff"/><circle cx="620.26" cy="191.97" r="2.5" fill="#58a6ff"/><circle cx="639.23" cy="190.64" r="2.5" fill="#58a6ff"/><circle cx="658.21" cy="188.88" r="2.5" fill="#58a6ff"/><circle cx="677.18" cy="186.88" r="2.5" fill="#58a6ff"/><circle cx="696.15" cy="184.39" r="2.5" fill="#58a6ff"/><circle cx="715.13" cy="181.89" r="2.5" fill="#58a6ff"/><circle cx="734.10" cy="179.53" r="2.5" fill="#58a6ff"/><circle cx="753.08" cy="177.30" r="2.5" fill="#58a6ff"/><circle cx="772.05" cy="176.52" r="2.5" fill="#58a6ff"/><circle cx="791.03" cy="173.38" r="2.5" fill="#58a6ff"/><circle cx="810.00" cy="168.96" r="4" fill="#F2C811"/>

  <!-- Last-value callout -->
  <rect x="720.0" y="141.0" width="82" height="24" rx="4" fill="#0d1a2a" stroke="#F2C811" stroke-width="1"/>
  <text x="761.0" y="157.0" font-family="'Segoe UI', Arial, sans-serif" font-size="12" fill="#F2C811" text-anchor="middle" font-weight="bold">5,497 total</text>

  <!-- X-axis labels -->
  <text x="70.0" y="298" font-family="'Segoe UI', Arial, sans-serif" font-size="10" fill="#8b949e" text-anchor="middle">Mar 26</text><text x="259.7" y="298" font-family="'Segoe UI', Arial, sans-serif" font-size="10" fill="#8b949e" text-anchor="middle">Apr 05</text><text x="449.5" y="298" font-family="'Segoe UI', Arial, sans-serif" font-size="10" fill="#8b949e" text-anchor="middle">Apr 15</text><text x="639.2" y="298" font-family="'Segoe UI', Arial, sans-serif" font-size="10" fill="#8b949e" text-anchor="middle">Apr 25</text><text x="810.0" y="298" font-family="'Segoe UI', Arial, sans-serif" font-size="10" fill="#8b949e" text-anchor="middle">May 04</text>

  <!-- Footer: date range -->
  <text x="70" y="328" font-family="'Segoe UI', Arial, sans-serif" font-size="10" fill="#8b949e">Mar 26, 2026 → May 04, 2026</text>
  <text x="810" y="328" font-family="'Segoe UI', Arial, sans-serif" font-size="10" fill="#8b949e" text-anchor="end">40 days of data</text>
</svg>
