<svg xmlns="http://www.w3.org/2000/svg" width="850" height="340" viewBox="0 0 850 340">
  <defs>
    <linearGradient id="areaFill" x1="0" y1="0" x2="0" y2="1">
      <stop offset="0%" stop-color="#58a6ff" stop-opacity="0.45"/>
      <stop offset="100%" stop-color="#58a6ff" stop-opacity="0"/>
    </linearGradient>
  </defs>

  <!-- Background -->
  <rect width="100%" height="100%" fill="#0d1117" rx="8"/>

  <!-- Title -->
  <text x="425" y="33" font-family="'Segoe UI', Arial, sans-serif" font-size="17" fill="#F2C811" text-anchor="middle" font-weight="bold">pbi-cli Downloads Over Time</text>
  <text x="425" y="52" font-family="'Segoe UI', Arial, sans-serif" font-size="11" fill="#8b949e" text-anchor="middle">Cumulative installs from PyPI • mirrors excluded • source: pypistats.org</text>

  <!-- Gridlines & y-labels -->
  <line x1="70" y1="280.0" x2="810" y2="280.0" stroke="#21262d" stroke-width="1" stroke-dasharray="2,3"/><line x1="70" y1="239.6" x2="810" y2="239.6" stroke="#21262d" stroke-width="1" stroke-dasharray="2,3"/><line x1="70" y1="199.2" x2="810" y2="199.2" stroke="#21262d" stroke-width="1" stroke-dasharray="2,3"/><line x1="70" y1="158.8" x2="810" y2="158.8" stroke="#21262d" stroke-width="1" stroke-dasharray="2,3"/><line x1="70" y1="118.4" x2="810" y2="118.4" stroke="#21262d" stroke-width="1" stroke-dasharray="2,3"/><line x1="70" y1="78.0" x2="810" y2="78.0" stroke="#21262d" stroke-width="1" stroke-dasharray="2,3"/>
  <text x="62" y="284.0" font-family="'Segoe UI', Arial, sans-serif" font-size="10" fill="#8b949e" text-anchor="end">0</text><text x="62" y="243.6" font-family="'Segoe UI', Arial, sans-serif" font-size="10" fill="#8b949e" text-anchor="end">10,000</text><text x="62" y="203.2" font-family="'Segoe UI', Arial, sans-serif" font-size="10" fill="#8b949e" text-anchor="end">20,000</text><text x="62" y="162.8" font-family="'Segoe UI', Arial, sans-serif" font-size="10" fill="#8b949e" text-anchor="end">30,000</text><text x="62" y="122.4" font-family="'Segoe UI', Arial, sans-serif" font-size="10" fill="#8b949e" text-anchor="end">40,000</text><text x="62" y="82.0" font-family="'Segoe UI', Arial, sans-serif" font-size="10" fill="#8b949e" text-anchor="end">50,000</text>

  <!-- Area fill -->
  <path d="M 70.00,280 L 70.00,277.55 L 78.13,276.48 L 86.26,276.35 L 94.40,276.32 L 102.53,276.19 L 110.66,276.12 L 118.79,275.99 L 126.92,275.68 L 135.05,275.03 L 143.19,274.68 L 151.32,273.50 L 159.45,272.68 L 167.58,270.25 L 175.71,269.27 L 183.85,268.68 L 191.98,268.09 L 200.11,267.94 L 208.24,267.59 L 216.37,267.03 L 224.51,266.11 L 232.64,265.79 L 240.77,265.31 L 248.90,264.84 L 257.03,264.68 L 265.16,264.50 L 273.30,263.90 L 281.43,263.53 L 289.56,263.00 L 297.69,262.62 L 305.82,262.39 L 313.96,262.13 L 322.09,261.78 L 330.22,261.38 L 338.35,260.88 L 346.48,260.38 L 354.62,259.91 L 362.75,259.46 L 370.88,259.30 L 379.01,258.68 L 387.14,257.79 L 395.27,256.75 L 403.41,255.44 L 411.54,252.80 L 419.67,251.03 L 427.80,250.09 L 435.93,249.29 L 444.07,247.10 L 452.20,245.24 L 460.33,243.53 L 468.46,241.59 L 476.59,240.05 L 484.73,239.15 L 492.86,237.85 L 500.99,236.53 L 509.12,234.24 L 517.25,232.42 L 525.38,230.21 L 533.52,228.72 L 541.65,227.70 L 549.78,226.90 L 557.91,226.13 L 566.04,224.51 L 574.18,222.79 L 582.31,221.21 L 590.44,220.03 L 598.57,219.45 L 606.70,218.76 L 614.84,217.41 L 622.97,216.31 L 631.10,214.88 L 639.23,213.65 L 647.36,212.43 L 655.49,211.24 L 663.63,210.76 L 671.76,209.87 L 679.89,208.48 L 688.02,206.68 L 696.15,205.31 L 704.29,204.29 L 712.42,203.29 L 720.55,201.89 L 728.68,200.38 L 736.81,198.80 L 744.95,195.99 L 753.08,195.06 L 761.21,194.50 L 769.34,193.74 L 777.47,192.10 L 785.60,190.78 L 793.74,189.57 L 801.87,188.45 L 810.00,187.28 L 810.00,280 Z" fill="url(#areaFill)"/>

  <!-- Line -->
  <path d="M 70.00,277.55 L 78.13,276.48 L 86.26,276.35 L 94.40,276.32 L 102.53,276.19 L 110.66,276.12 L 118.79,275.99 L 126.92,275.68 L 135.05,275.03 L 143.19,274.68 L 151.32,273.50 L 159.45,272.68 L 167.58,270.25 L 175.71,269.27 L 183.85,268.68 L 191.98,268.09 L 200.11,267.94 L 208.24,267.59 L 216.37,267.03 L 224.51,266.11 L 232.64,265.79 L 240.77,265.31 L 248.90,264.84 L 257.03,264.68 L 265.16,264.50 L 273.30,263.90 L 281.43,263.53 L 289.56,263.00 L 297.69,262.62 L 305.82,262.39 L 313.96,262.13 L 322.09,261.78 L 330.22,261.38 L 338.35,260.88 L 346.48,260.38 L 354.62,259.91 L 362.75,259.46 L 370.88,259.30 L 379.01,258.68 L 387.14,257.79 L 395.27,256.75 L 403.41,255.44 L 411.54,252.80 L 419.67,251.03 L 427.80,250.09 L 435.93,249.29 L 444.07,247.10 L 452.20,245.24 L 460.33,243.53 L 468.46,241.59 L 476.59,240.05 L 484.73,239.15 L 492.86,237.85 L 500.99,236.53 L 509.12,234.24 L 517.25,232.42 L 525.38,230.21 L 533.52,228.72 L 541.65,227.70 L 549.78,226.90 L 557.91,226.13 L 566.04,224.51 L 574.18,222.79 L 582.31,221.21 L 590.44,220.03 L 598.57,219.45 L 606.70,218.76 L 614.84,217.41 L 622.97,216.31 L 631.10,214.88 L 639.23,213.65 L 647.36,212.43 L 655.49,211.24 L 663.63,210.76 L 671.76,209.87 L 679.89,208.48 L 688.02,206.68 L 696.15,205.31 L 704.29,204.29 L 712.42,203.29 L 720.55,201.89 L 728.68,200.38 L 736.81,198.80 L 744.95,195.99 L 753.08,195.06 L 761.21,194.50 L 769.34,193.74 L 777.47,192.10 L 785.60,190.78 L 793.74,189.57 L 801.87,188.45 L 810.00,187.28" fill="none" stroke="#58a6ff" stroke-width="2.5" stroke-linejoin="round" stroke-linecap="round"/>

  <!-- Data points -->
  <circle cx="70.00" cy="277.55" r="2.5" fill="#58a6ff"/><circle cx="78.13" cy="276.48" r="2.5" fill="#58a6ff"/><circle cx="86.26" cy="276.35" r="2.5" fill="#58a6ff"/><circle cx="94.40" cy="276.32" r="2.5" fill="#58a6ff"/><circle cx="102.53" cy="276.19" r="2.5" fill="#58a6ff"/><circle cx="110.66" cy="276.12" r="2.5" fill="#58a6ff"/><circle cx="118.79" cy="275.99" r="2.5" fill="#58a6ff"/><circle cx="126.92" cy="275.68" r="2.5" fill="#58a6ff"/><circle cx="135.05" cy="275.03" r="2.5" fill="#58a6ff"/><circle cx="143.19" cy="274.68" r="2.5" fill="#58a6ff"/><circle cx="151.32" cy="273.50" r="2.5" fill="#58a6ff"/><circle cx="159.45" cy="272.68" r="2.5" fill="#58a6ff"/><circle cx="167.58" cy="270.25" r="2.5" fill="#58a6ff"/><circle cx="175.71" cy="269.27" r="2.5" fill="#58a6ff"/><circle cx="183.85" cy="268.68" r="2.5" fill="#58a6ff"/><circle cx="191.98" cy="268.09" r="2.5" fill="#58a6ff"/><circle cx="200.11" cy="267.94" r="2.5" fill="#58a6ff"/><circle cx="208.24" cy="267.59" r="2.5" fill="#58a6ff"/><circle cx="216.37" cy="267.03" r="2.5" fill="#58a6ff"/><circle cx="224.51" cy="266.11" r="2.5" fill="#58a6ff"/><circle cx="232.64" cy="265.79" r="2.5" fill="#58a6ff"/><circle cx="240.77" cy="265.31" r="2.5" fill="#58a6ff"/><circle cx="248.90" cy="264.84" r="2.5" fill="#58a6ff"/><circle cx="257.03" cy="264.68" r="2.5" fill="#58a6ff"/><circle cx="265.16" cy="264.50" r="2.5" fill="#58a6ff"/><circle cx="273.30" cy="263.90" r="2.5" fill="#58a6ff"/><circle cx="281.43" cy="263.53" r="2.5" fill="#58a6ff"/><circle cx="289.56" cy="263.00" r="2.5" fill="#58a6ff"/><circle cx="297.69" cy="262.62" r="2.5" fill="#58a6ff"/><circle cx="305.82" cy="262.39" r="2.5" fill="#58a6ff"/><circle cx="313.96" cy="262.13" r="2.5" fill="#58a6ff"/><circle cx="322.09" cy="261.78" r="2.5" fill="#58a6ff"/><circle cx="330.22" cy="261.38" r="2.5" fill="#58a6ff"/><circle cx="338.35" cy="260.88" r="2.5" fill="#58a6ff"/><circle cx="346.48" cy="260.38" r="2.5" fill="#58a6ff"/><circle cx="354.62" cy="259.91" r="2.5" fill="#58a6ff"/><circle cx="362.75" cy="259.46" r="2.5" fill="#58a6ff"/><circle cx="370.88" cy="259.30" r="2.5" fill="#58a6ff"/><circle cx="379.01" cy="258.68" r="2.5" fill="#58a6ff"/><circle cx="387.14" cy="257.79" r="2.5" fill="#58a6ff"/><circle cx="395.27" cy="256.75" r="2.5" fill="#58a6ff"/><circle cx="403.41" cy="255.44" r="2.5" fill="#58a6ff"/><circle cx="411.54" cy="252.80" r="2.5" fill="#58a6ff"/><circle cx="419.67" cy="251.03" r="2.5" fill="#58a6ff"/><circle cx="427.80" cy="250.09" r="2.5" fill="#58a6ff"/><circle cx="435.93" cy="249.29" r="2.5" fill="#58a6ff"/><circle cx="444.07" cy="247.10" r="2.5" fill="#58a6ff"/><circle cx="452.20" cy="245.24" r="2.5" fill="#58a6ff"/><circle cx="460.33" cy="243.53" r="2.5" fill="#58a6ff"/><circle cx="468.46" cy="241.59" r="2.5" fill="#58a6ff"/><circle cx="476.59" cy="240.05" r="2.5" fill="#58a6ff"/><circle cx="484.73" cy="239.15" r="2.5" fill="#58a6ff"/><circle cx="492.86" cy="237.85" r="2.5" fill="#58a6ff"/><circle cx="500.99" cy="236.53" r="2.5" fill="#58a6ff"/><circle cx="509.12" cy="234.24" r="2.5" fill="#58a6ff"/><circle cx="517.25" cy="232.42" r="2.5" fill="#58a6ff"/><circle cx="525.38" cy="230.21" r="2.5" fill="#58a6ff"/><circle cx="533.52" cy="228.72" r="2.5" fill="#58a6ff"/><circle cx="541.65" cy="227.70" r="2.5" fill="#58a6ff"/><circle cx="549.78" cy="226.90" r="2.5" fill="#58a6ff"/><circle cx="557.91" cy="226.13" r="2.5" fill="#58a6ff"/><circle cx="566.04" cy="224.51" r="2.5" fill="#58a6ff"/><circle cx="574.18" cy="222.79" r="2.5" fill="#58a6ff"/><circle cx="582.31" cy="221.21" r="2.5" fill="#58a6ff"/><circle cx="590.44" cy="220.03" r="2.5" fill="#58a6ff"/><circle cx="598.57" cy="219.45" r="2.5" fill="#58a6ff"/><circle cx="606.70" cy="218.76" r="2.5" fill="#58a6ff"/><circle cx="614.84" cy="217.41" r="2.5" fill="#58a6ff"/><circle cx="622.97" cy="216.31" r="2.5" fill="#58a6ff"/><circle cx="631.10" cy="214.88" r="2.5" fill="#58a6ff"/><circle cx="639.23" cy="213.65" r="2.5" fill="#58a6ff"/><circle cx="647.36" cy="212.43" r="2.5" fill="#58a6ff"/><circle cx="655.49" cy="211.24" r="2.5" fill="#58a6ff"/><circle cx="663.63" cy="210.76" r="2.5" fill="#58a6ff"/><circle cx="671.76" cy="209.87" r="2.5" fill="#58a6ff"/><circle cx="679.89" cy="208.48" r="2.5" fill="#58a6ff"/><circle cx="688.02" cy="206.68" r="2.5" fill="#58a6ff"/><circle cx="696.15" cy="205.31" r="2.5" fill="#58a6ff"/><circle cx="704.29" cy="204.29" r="2.5" fill="#58a6ff"/><circle cx="712.42" cy="203.29" r="2.5" fill="#58a6ff"/><circle cx="720.55" cy="201.89" r="2.5" fill="#58a6ff"/><circle cx="728.68" cy="200.38" r="2.5" fill="#58a6ff"/><circle cx="736.81" cy="198.80" r="2.5" fill="#58a6ff"/><circle cx="744.95" cy="195.99" r="2.5" fill="#58a6ff"/><circle cx="753.08" cy="195.06" r="2.5" fill="#58a6ff"/><circle cx="761.21" cy="194.50" r="2.5" fill="#58a6ff"/><circle cx="769.34" cy="193.74" r="2.5" fill="#58a6ff"/><circle cx="777.47" cy="192.10" r="2.5" fill="#58a6ff"/><circle cx="785.60" cy="190.78" r="2.5" fill="#58a6ff"/><circle cx="793.74" cy="189.57" r="2.5" fill="#58a6ff"/><circle cx="801.87" cy="188.45" r="2.5" fill="#58a6ff"/><circle cx="810.00" cy="187.28" r="4" fill="#F2C811"/>

  <!-- Last-value callout -->
  <rect x="720.0" y="159.3" width="82" height="24" rx="4" fill="#0d1a2a" stroke="#F2C811" stroke-width="1"/>
  <text x="761.0" y="175.3" font-family="'Segoe UI', Arial, sans-serif" font-size="12" fill="#F2C811" text-anchor="middle" font-weight="bold">22,950 total</text>

  <!-- X-axis labels -->
  <text x="70.0" y="298" font-family="'Segoe UI', Arial, sans-serif" font-size="10" fill="#8b949e" text-anchor="middle">Mar 26</text><text x="257.0" y="298" font-family="'Segoe UI', Arial, sans-serif" font-size="10" fill="#8b949e" text-anchor="middle">Apr 18</text><text x="444.1" y="298" font-family="'Segoe UI', Arial, sans-serif" font-size="10" fill="#8b949e" text-anchor="middle">May 11</text><text x="631.1" y="298" font-family="'Segoe UI', Arial, sans-serif" font-size="10" fill="#8b949e" text-anchor="middle">Jun 03</text><text x="810.0" y="298" font-family="'Segoe UI', Arial, sans-serif" font-size="10" fill="#8b949e" text-anchor="middle">Jun 26</text>

  <!-- Footer: date range -->
  <text x="70" y="328" font-family="'Segoe UI', Arial, sans-serif" font-size="10" fill="#8b949e">Mar 26, 2026 → Jun 26, 2026</text>
  <text x="810" y="328" font-family="'Segoe UI', Arial, sans-serif" font-size="10" fill="#8b949e" text-anchor="end">92 days of data</text>
</svg>
