<svg xmlns="http://www.w3.org/2000/svg" width="850" height="340" viewBox="0 0 850 340">
  <defs>
    <linearGradient id="areaFill" x1="0" y1="0" x2="0" y2="1">
      <stop offset="0%" stop-color="#58a6ff" stop-opacity="0.45"/>
      <stop offset="100%" stop-color="#58a6ff" stop-opacity="0"/>
    </linearGradient>
  </defs>

  <!-- Background -->
  <rect width="100%" height="100%" fill="#0d1117" rx="8"/>

  <!-- Title -->
  <text x="425" y="33" font-family="'Segoe UI', Arial, sans-serif" font-size="17" fill="#F2C811" text-anchor="middle" font-weight="bold">pbi-cli Downloads Over Time</text>
  <text x="425" y="52" font-family="'Segoe UI', Arial, sans-serif" font-size="11" fill="#8b949e" text-anchor="middle">Cumulative installs from PyPI • mirrors excluded • source: pypistats.org</text>

  <!-- Gridlines & y-labels -->
  <line x1="70" y1="280.0" x2="810" y2="280.0" stroke="#21262d" stroke-width="1" stroke-dasharray="2,3"/><line x1="70" y1="239.6" x2="810" y2="239.6" stroke="#21262d" stroke-width="1" stroke-dasharray="2,3"/><line x1="70" y1="199.2" x2="810" y2="199.2" stroke="#21262d" stroke-width="1" stroke-dasharray="2,3"/><line x1="70" y1="158.8" x2="810" y2="158.8" stroke="#21262d" stroke-width="1" stroke-dasharray="2,3"/><line x1="70" y1="118.4" x2="810" y2="118.4" stroke="#21262d" stroke-width="1" stroke-dasharray="2,3"/><line x1="70" y1="78.0" x2="810" y2="78.0" stroke="#21262d" stroke-width="1" stroke-dasharray="2,3"/>
  <text x="62" y="284.0" font-family="'Segoe UI', Arial, sans-serif" font-size="10" fill="#8b949e" text-anchor="end">0</text><text x="62" y="243.6" font-family="'Segoe UI', Arial, sans-serif" font-size="10" fill="#8b949e" text-anchor="end">2,000</text><text x="62" y="203.2" font-family="'Segoe UI', Arial, sans-serif" font-size="10" fill="#8b949e" text-anchor="end">4,000</text><text x="62" y="162.8" font-family="'Segoe UI', Arial, sans-serif" font-size="10" fill="#8b949e" text-anchor="end">6,000</text><text x="62" y="122.4" font-family="'Segoe UI', Arial, sans-serif" font-size="10" fill="#8b949e" text-anchor="end">8,000</text><text x="62" y="82.0" font-family="'Segoe UI', Arial, sans-serif" font-size="10" fill="#8b949e" text-anchor="end">10,000</text>

  <!-- Area fill -->
  <path d="M 70.00,280 L 70.00,267.74 L 88.05,262.39 L 106.10,261.74 L 124.15,261.62 L 142.20,260.95 L 160.24,260.61 L 178.29,259.96 L 196.34,258.41 L 214.39,255.17 L 232.44,253.38 L 250.49,247.52 L 268.54,243.42 L 286.59,231.26 L 304.63,226.33 L 322.68,223.38 L 340.73,220.47 L 358.78,219.72 L 376.83,217.95 L 394.88,215.14 L 412.93,210.57 L 430.98,208.94 L 449.02,206.55 L 467.07,204.19 L 485.12,203.40 L 503.17,202.51 L 521.22,199.52 L 539.27,197.64 L 557.32,195.00 L 575.37,193.10 L 593.41,191.97 L 611.46,190.64 L 629.51,188.88 L 647.56,186.88 L 665.61,184.39 L 683.66,181.89 L 701.71,179.53 L 719.76,177.30 L 737.80,176.52 L 755.85,173.38 L 773.90,168.96 L 791.95,163.75 L 810.00,157.20 L 810.00,280 Z" fill="url(#areaFill)"/>

  <!-- Line -->
  <path d="M 70.00,267.74 L 88.05,262.39 L 106.10,261.74 L 124.15,261.62 L 142.20,260.95 L 160.24,260.61 L 178.29,259.96 L 196.34,258.41 L 214.39,255.17 L 232.44,253.38 L 250.49,247.52 L 268.54,243.42 L 286.59,231.26 L 304.63,226.33 L 322.68,223.38 L 340.73,220.47 L 358.78,219.72 L 376.83,217.95 L 394.88,215.14 L 412.93,210.57 L 430.98,208.94 L 449.02,206.55 L 467.07,204.19 L 485.12,203.40 L 503.17,202.51 L 521.22,199.52 L 539.27,197.64 L 557.32,195.00 L 575.37,193.10 L 593.41,191.97 L 611.46,190.64 L 629.51,188.88 L 647.56,186.88 L 665.61,184.39 L 683.66,181.89 L 701.71,179.53 L 719.76,177.30 L 737.80,176.52 L 755.85,173.38 L 773.90,168.96 L 791.95,163.75 L 810.00,157.20" fill="none" stroke="#58a6ff" stroke-width="2.5" stroke-linejoin="round" stroke-linecap="round"/>

  <!-- Data points -->
  <circle cx="70.00" cy="267.74" r="2.5" fill="#58a6ff"/><circle cx="88.05" cy="262.39" r="2.5" fill="#58a6ff"/><circle cx="106.10" cy="261.74" r="2.5" fill="#58a6ff"/><circle cx="124.15" cy="261.62" r="2.5" fill="#58a6ff"/><circle cx="142.20" cy="260.95" r="2.5" fill="#58a6ff"/><circle cx="160.24" cy="260.61" r="2.5" fill="#58a6ff"/><circle cx="178.29" cy="259.96" r="2.5" fill="#58a6ff"/><circle cx="196.34" cy="258.41" r="2.5" fill="#58a6ff"/><circle cx="214.39" cy="255.17" r="2.5" fill="#58a6ff"/><circle cx="232.44" cy="253.38" r="2.5" fill="#58a6ff"/><circle cx="250.49" cy="247.52" r="2.5" fill="#58a6ff"/><circle cx="268.54" cy="243.42" r="2.5" fill="#58a6ff"/><circle cx="286.59" cy="231.26" r="2.5" fill="#58a6ff"/><circle cx="304.63" cy="226.33" r="2.5" fill="#58a6ff"/><circle cx="322.68" cy="223.38" r="2.5" fill="#58a6ff"/><circle cx="340.73" cy="220.47" r="2.5" fill="#58a6ff"/><circle cx="358.78" cy="219.72" r="2.5" fill="#58a6ff"/><circle cx="376.83" cy="217.95" r="2.5" fill="#58a6ff"/><circle cx="394.88" cy="215.14" r="2.5" fill="#58a6ff"/><circle cx="412.93" cy="210.57" r="2.5" fill="#58a6ff"/><circle cx="430.98" cy="208.94" r="2.5" fill="#58a6ff"/><circle cx="449.02" cy="206.55" r="2.5" fill="#58a6ff"/><circle cx="467.07" cy="204.19" r="2.5" fill="#58a6ff"/><circle cx="485.12" cy="203.40" r="2.5" fill="#58a6ff"/><circle cx="503.17" cy="202.51" r="2.5" fill="#58a6ff"/><circle cx="521.22" cy="199.52" r="2.5" fill="#58a6ff"/><circle cx="539.27" cy="197.64" r="2.5" fill="#58a6ff"/><circle cx="557.32" cy="195.00" r="2.5" fill="#58a6ff"/><circle cx="575.37" cy="193.10" r="2.5" fill="#58a6ff"/><circle cx="593.41" cy="191.97" r="2.5" fill="#58a6ff"/><circle cx="611.46" cy="190.64" r="2.5" fill="#58a6ff"/><circle cx="629.51" cy="188.88" r="2.5" fill="#58a6ff"/><circle cx="647.56" cy="186.88" r="2.5" fill="#58a6ff"/><circle cx="665.61" cy="184.39" r="2.5" fill="#58a6ff"/><circle cx="683.66" cy="181.89" r="2.5" fill="#58a6ff"/><circle cx="701.71" cy="179.53" r="2.5" fill="#58a6ff"/><circle cx="719.76" cy="177.30" r="2.5" fill="#58a6ff"/><circle cx="737.80" cy="176.52" r="2.5" fill="#58a6ff"/><circle cx="755.85" cy="173.38" r="2.5" fill="#58a6ff"/><circle cx="773.90" cy="168.96" r="2.5" fill="#58a6ff"/><circle cx="791.95" cy="163.75" r="2.5" fill="#58a6ff"/><circle cx="810.00" cy="157.20" r="4" fill="#F2C811"/>

  <!-- Last-value callout -->
  <rect x="720.0" y="129.2" width="82" height="24" rx="4" fill="#0d1a2a" stroke="#F2C811" stroke-width="1"/>
  <text x="761.0" y="145.2" font-family="'Segoe UI', Arial, sans-serif" font-size="12" fill="#F2C811" text-anchor="middle" font-weight="bold">6,079 total</text>

  <!-- X-axis labels -->
  <text x="70.0" y="298" font-family="'Segoe UI', Arial, sans-serif" font-size="10" fill="#8b949e" text-anchor="middle">Mar 26</text><text x="250.5" y="298" font-family="'Segoe UI', Arial, sans-serif" font-size="10" fill="#8b949e" text-anchor="middle">Apr 05</text><text x="449.0" y="298" font-family="'Segoe UI', Arial, sans-serif" font-size="10" fill="#8b949e" text-anchor="middle">Apr 16</text><text x="629.5" y="298" font-family="'Segoe UI', Arial, sans-serif" font-size="10" fill="#8b949e" text-anchor="middle">Apr 26</text><text x="810.0" y="298" font-family="'Segoe UI', Arial, sans-serif" font-size="10" fill="#8b949e" text-anchor="middle">May 06</text>

  <!-- Footer: date range -->
  <text x="70" y="328" font-family="'Segoe UI', Arial, sans-serif" font-size="10" fill="#8b949e">Mar 26, 2026 → May 06, 2026</text>
  <text x="810" y="328" font-family="'Segoe UI', Arial, sans-serif" font-size="10" fill="#8b949e" text-anchor="end">42 days of data</text>
</svg>
