<svg xmlns="http://www.w3.org/2000/svg" width="850" height="340" viewBox="0 0 850 340">
  <defs>
    <linearGradient id="areaFill" x1="0" y1="0" x2="0" y2="1">
      <stop offset="0%" stop-color="#58a6ff" stop-opacity="0.45"/>
      <stop offset="100%" stop-color="#58a6ff" stop-opacity="0"/>
    </linearGradient>
  </defs>

  <!-- Background -->
  <rect width="100%" height="100%" fill="#0d1117" rx="8"/>

  <!-- Title -->
  <text x="425" y="33" font-family="'Segoe UI', Arial, sans-serif" font-size="17" fill="#F2C811" text-anchor="middle" font-weight="bold">pbi-cli Downloads Over Time</text>
  <text x="425" y="52" font-family="'Segoe UI', Arial, sans-serif" font-size="11" fill="#8b949e" text-anchor="middle">Cumulative installs from PyPI • mirrors excluded • source: pypistats.org</text>

  <!-- Gridlines & y-labels -->
  <line x1="70" y1="280.0" x2="810" y2="280.0" stroke="#21262d" stroke-width="1" stroke-dasharray="2,3"/><line x1="70" y1="239.6" x2="810" y2="239.6" stroke="#21262d" stroke-width="1" stroke-dasharray="2,3"/><line x1="70" y1="199.2" x2="810" y2="199.2" stroke="#21262d" stroke-width="1" stroke-dasharray="2,3"/><line x1="70" y1="158.8" x2="810" y2="158.8" stroke="#21262d" stroke-width="1" stroke-dasharray="2,3"/><line x1="70" y1="118.4" x2="810" y2="118.4" stroke="#21262d" stroke-width="1" stroke-dasharray="2,3"/><line x1="70" y1="78.0" x2="810" y2="78.0" stroke="#21262d" stroke-width="1" stroke-dasharray="2,3"/>
  <text x="62" y="284.0" font-family="'Segoe UI', Arial, sans-serif" font-size="10" fill="#8b949e" text-anchor="end">0</text><text x="62" y="243.6" font-family="'Segoe UI', Arial, sans-serif" font-size="10" fill="#8b949e" text-anchor="end">4,000</text><text x="62" y="203.2" font-family="'Segoe UI', Arial, sans-serif" font-size="10" fill="#8b949e" text-anchor="end">8,000</text><text x="62" y="162.8" font-family="'Segoe UI', Arial, sans-serif" font-size="10" fill="#8b949e" text-anchor="end">12,000</text><text x="62" y="122.4" font-family="'Segoe UI', Arial, sans-serif" font-size="10" fill="#8b949e" text-anchor="end">16,000</text><text x="62" y="82.0" font-family="'Segoe UI', Arial, sans-serif" font-size="10" fill="#8b949e" text-anchor="end">20,000</text>

  <!-- Area fill -->
  <path d="M 70.00,280 L 70.00,273.87 L 82.33,271.19 L 94.67,270.87 L 107.00,270.81 L 119.33,270.48 L 131.67,270.30 L 144.00,269.98 L 156.33,269.20 L 168.67,267.59 L 181.00,266.69 L 193.33,263.76 L 205.67,261.71 L 218.00,255.63 L 230.33,253.16 L 242.67,251.69 L 255.00,250.24 L 267.33,249.86 L 279.67,248.97 L 292.00,247.57 L 304.33,245.29 L 316.67,244.47 L 329.00,243.28 L 341.33,242.09 L 353.67,241.70 L 366.00,241.26 L 378.33,239.76 L 390.67,238.82 L 403.00,237.50 L 415.33,236.55 L 427.67,235.98 L 440.00,235.32 L 452.33,234.44 L 464.67,233.44 L 477.00,232.20 L 489.33,230.94 L 501.67,229.76 L 514.00,228.65 L 526.33,228.26 L 538.67,226.69 L 551.00,224.48 L 563.33,221.87 L 575.67,218.60 L 588.00,212.01 L 600.33,207.58 L 612.67,205.22 L 625.00,203.23 L 637.33,197.76 L 649.67,193.11 L 662.00,188.82 L 674.33,183.98 L 686.67,180.13 L 699.00,177.87 L 711.33,174.63 L 723.67,171.33 L 736.00,165.60 L 748.33,161.04 L 760.67,155.52 L 773.00,151.79 L 785.33,149.26 L 797.67,147.26 L 810.00,145.32 L 810.00,280 Z" fill="url(#areaFill)"/>

  <!-- Line -->
  <path d="M 70.00,273.87 L 82.33,271.19 L 94.67,270.87 L 107.00,270.81 L 119.33,270.48 L 131.67,270.30 L 144.00,269.98 L 156.33,269.20 L 168.67,267.59 L 181.00,266.69 L 193.33,263.76 L 205.67,261.71 L 218.00,255.63 L 230.33,253.16 L 242.67,251.69 L 255.00,250.24 L 267.33,249.86 L 279.67,248.97 L 292.00,247.57 L 304.33,245.29 L 316.67,244.47 L 329.00,243.28 L 341.33,242.09 L 353.67,241.70 L 366.00,241.26 L 378.33,239.76 L 390.67,238.82 L 403.00,237.50 L 415.33,236.55 L 427.67,235.98 L 440.00,235.32 L 452.33,234.44 L 464.67,233.44 L 477.00,232.20 L 489.33,230.94 L 501.67,229.76 L 514.00,228.65 L 526.33,228.26 L 538.67,226.69 L 551.00,224.48 L 563.33,221.87 L 575.67,218.60 L 588.00,212.01 L 600.33,207.58 L 612.67,205.22 L 625.00,203.23 L 637.33,197.76 L 649.67,193.11 L 662.00,188.82 L 674.33,183.98 L 686.67,180.13 L 699.00,177.87 L 711.33,174.63 L 723.67,171.33 L 736.00,165.60 L 748.33,161.04 L 760.67,155.52 L 773.00,151.79 L 785.33,149.26 L 797.67,147.26 L 810.00,145.32" fill="none" stroke="#58a6ff" stroke-width="2.5" stroke-linejoin="round" stroke-linecap="round"/>

  <!-- Data points -->
  <circle cx="70.00" cy="273.87" r="2.5" fill="#58a6ff"/><circle cx="82.33" cy="271.19" r="2.5" fill="#58a6ff"/><circle cx="94.67" cy="270.87" r="2.5" fill="#58a6ff"/><circle cx="107.00" cy="270.81" r="2.5" fill="#58a6ff"/><circle cx="119.33" cy="270.48" r="2.5" fill="#58a6ff"/><circle cx="131.67" cy="270.30" r="2.5" fill="#58a6ff"/><circle cx="144.00" cy="269.98" r="2.5" fill="#58a6ff"/><circle cx="156.33" cy="269.20" r="2.5" fill="#58a6ff"/><circle cx="168.67" cy="267.59" r="2.5" fill="#58a6ff"/><circle cx="181.00" cy="266.69" r="2.5" fill="#58a6ff"/><circle cx="193.33" cy="263.76" r="2.5" fill="#58a6ff"/><circle cx="205.67" cy="261.71" r="2.5" fill="#58a6ff"/><circle cx="218.00" cy="255.63" r="2.5" fill="#58a6ff"/><circle cx="230.33" cy="253.16" r="2.5" fill="#58a6ff"/><circle cx="242.67" cy="251.69" r="2.5" fill="#58a6ff"/><circle cx="255.00" cy="250.24" r="2.5" fill="#58a6ff"/><circle cx="267.33" cy="249.86" r="2.5" fill="#58a6ff"/><circle cx="279.67" cy="248.97" r="2.5" fill="#58a6ff"/><circle cx="292.00" cy="247.57" r="2.5" fill="#58a6ff"/><circle cx="304.33" cy="245.29" r="2.5" fill="#58a6ff"/><circle cx="316.67" cy="244.47" r="2.5" fill="#58a6ff"/><circle cx="329.00" cy="243.28" r="2.5" fill="#58a6ff"/><circle cx="341.33" cy="242.09" r="2.5" fill="#58a6ff"/><circle cx="353.67" cy="241.70" r="2.5" fill="#58a6ff"/><circle cx="366.00" cy="241.26" r="2.5" fill="#58a6ff"/><circle cx="378.33" cy="239.76" r="2.5" fill="#58a6ff"/><circle cx="390.67" cy="238.82" r="2.5" fill="#58a6ff"/><circle cx="403.00" cy="237.50" r="2.5" fill="#58a6ff"/><circle cx="415.33" cy="236.55" r="2.5" fill="#58a6ff"/><circle cx="427.67" cy="235.98" r="2.5" fill="#58a6ff"/><circle cx="440.00" cy="235.32" r="2.5" fill="#58a6ff"/><circle cx="452.33" cy="234.44" r="2.5" fill="#58a6ff"/><circle cx="464.67" cy="233.44" r="2.5" fill="#58a6ff"/><circle cx="477.00" cy="232.20" r="2.5" fill="#58a6ff"/><circle cx="489.33" cy="230.94" r="2.5" fill="#58a6ff"/><circle cx="501.67" cy="229.76" r="2.5" fill="#58a6ff"/><circle cx="514.00" cy="228.65" r="2.5" fill="#58a6ff"/><circle cx="526.33" cy="228.26" r="2.5" fill="#58a6ff"/><circle cx="538.67" cy="226.69" r="2.5" fill="#58a6ff"/><circle cx="551.00" cy="224.48" r="2.5" fill="#58a6ff"/><circle cx="563.33" cy="221.87" r="2.5" fill="#58a6ff"/><circle cx="575.67" cy="218.60" r="2.5" fill="#58a6ff"/><circle cx="588.00" cy="212.01" r="2.5" fill="#58a6ff"/><circle cx="600.33" cy="207.58" r="2.5" fill="#58a6ff"/><circle cx="612.67" cy="205.22" r="2.5" fill="#58a6ff"/><circle cx="625.00" cy="203.23" r="2.5" fill="#58a6ff"/><circle cx="637.33" cy="197.76" r="2.5" fill="#58a6ff"/><circle cx="649.67" cy="193.11" r="2.5" fill="#58a6ff"/><circle cx="662.00" cy="188.82" r="2.5" fill="#58a6ff"/><circle cx="674.33" cy="183.98" r="2.5" fill="#58a6ff"/><circle cx="686.67" cy="180.13" r="2.5" fill="#58a6ff"/><circle cx="699.00" cy="177.87" r="2.5" fill="#58a6ff"/><circle cx="711.33" cy="174.63" r="2.5" fill="#58a6ff"/><circle cx="723.67" cy="171.33" r="2.5" fill="#58a6ff"/><circle cx="736.00" cy="165.60" r="2.5" fill="#58a6ff"/><circle cx="748.33" cy="161.04" r="2.5" fill="#58a6ff"/><circle cx="760.67" cy="155.52" r="2.5" fill="#58a6ff"/><circle cx="773.00" cy="151.79" r="2.5" fill="#58a6ff"/><circle cx="785.33" cy="149.26" r="2.5" fill="#58a6ff"/><circle cx="797.67" cy="147.26" r="2.5" fill="#58a6ff"/><circle cx="810.00" cy="145.32" r="4" fill="#F2C811"/>

  <!-- Last-value callout -->
  <rect x="720.0" y="117.3" width="82" height="24" rx="4" fill="#0d1a2a" stroke="#F2C811" stroke-width="1"/>
  <text x="761.0" y="133.3" font-family="'Segoe UI', Arial, sans-serif" font-size="12" fill="#F2C811" text-anchor="middle" font-weight="bold">13,335 total</text>

  <!-- X-axis labels -->
  <text x="70.0" y="298" font-family="'Segoe UI', Arial, sans-serif" font-size="10" fill="#8b949e" text-anchor="middle">Mar 26</text><text x="255.0" y="298" font-family="'Segoe UI', Arial, sans-serif" font-size="10" fill="#8b949e" text-anchor="middle">Apr 10</text><text x="440.0" y="298" font-family="'Segoe UI', Arial, sans-serif" font-size="10" fill="#8b949e" text-anchor="middle">Apr 25</text><text x="625.0" y="298" font-family="'Segoe UI', Arial, sans-serif" font-size="10" fill="#8b949e" text-anchor="middle">May 10</text><text x="810.0" y="298" font-family="'Segoe UI', Arial, sans-serif" font-size="10" fill="#8b949e" text-anchor="middle">May 25</text>

  <!-- Footer: date range -->
  <text x="70" y="328" font-family="'Segoe UI', Arial, sans-serif" font-size="10" fill="#8b949e">Mar 26, 2026 → May 25, 2026</text>
  <text x="810" y="328" font-family="'Segoe UI', Arial, sans-serif" font-size="10" fill="#8b949e" text-anchor="end">61 days of data</text>
</svg>
