<svg xmlns="http://www.w3.org/2000/svg" width="850" height="340" viewBox="0 0 850 340">
  <defs>
    <linearGradient id="areaFill" x1="0" y1="0" x2="0" y2="1">
      <stop offset="0%" stop-color="#58a6ff" stop-opacity="0.45"/>
      <stop offset="100%" stop-color="#58a6ff" stop-opacity="0"/>
    </linearGradient>
  </defs>

  <!-- Background -->
  <rect width="100%" height="100%" fill="#0d1117" rx="8"/>

  <!-- Title -->
  <text x="425" y="33" font-family="'Segoe UI', Arial, sans-serif" font-size="17" fill="#F2C811" text-anchor="middle" font-weight="bold">pbi-cli Downloads Over Time</text>
  <text x="425" y="52" font-family="'Segoe UI', Arial, sans-serif" font-size="11" fill="#8b949e" text-anchor="middle">Cumulative installs from PyPI • mirrors excluded • source: pypistats.org</text>

  <!-- Gridlines & y-labels -->
  <line x1="70" y1="280.0" x2="810" y2="280.0" stroke="#21262d" stroke-width="1" stroke-dasharray="2,3"/><line x1="70" y1="239.6" x2="810" y2="239.6" stroke="#21262d" stroke-width="1" stroke-dasharray="2,3"/><line x1="70" y1="199.2" x2="810" y2="199.2" stroke="#21262d" stroke-width="1" stroke-dasharray="2,3"/><line x1="70" y1="158.8" x2="810" y2="158.8" stroke="#21262d" stroke-width="1" stroke-dasharray="2,3"/><line x1="70" y1="118.4" x2="810" y2="118.4" stroke="#21262d" stroke-width="1" stroke-dasharray="2,3"/><line x1="70" y1="78.0" x2="810" y2="78.0" stroke="#21262d" stroke-width="1" stroke-dasharray="2,3"/>
  <text x="62" y="284.0" font-family="'Segoe UI', Arial, sans-serif" font-size="10" fill="#8b949e" text-anchor="end">0</text><text x="62" y="243.6" font-family="'Segoe UI', Arial, sans-serif" font-size="10" fill="#8b949e" text-anchor="end">4,000</text><text x="62" y="203.2" font-family="'Segoe UI', Arial, sans-serif" font-size="10" fill="#8b949e" text-anchor="end">8,000</text><text x="62" y="162.8" font-family="'Segoe UI', Arial, sans-serif" font-size="10" fill="#8b949e" text-anchor="end">12,000</text><text x="62" y="122.4" font-family="'Segoe UI', Arial, sans-serif" font-size="10" fill="#8b949e" text-anchor="end">16,000</text><text x="62" y="82.0" font-family="'Segoe UI', Arial, sans-serif" font-size="10" fill="#8b949e" text-anchor="end">20,000</text>

  <!-- Area fill -->
  <path d="M 70.00,280 L 70.00,273.87 L 83.21,271.19 L 96.43,270.87 L 109.64,270.81 L 122.86,270.48 L 136.07,270.30 L 149.29,269.98 L 162.50,269.20 L 175.71,267.59 L 188.93,266.69 L 202.14,263.76 L 215.36,261.71 L 228.57,255.63 L 241.79,253.16 L 255.00,251.69 L 268.21,250.24 L 281.43,249.86 L 294.64,248.97 L 307.86,247.57 L 321.07,245.29 L 334.29,244.47 L 347.50,243.28 L 360.71,242.09 L 373.93,241.70 L 387.14,241.26 L 400.36,239.76 L 413.57,238.82 L 426.79,237.50 L 440.00,236.55 L 453.21,235.98 L 466.43,235.32 L 479.64,234.44 L 492.86,233.44 L 506.07,232.20 L 519.29,230.94 L 532.50,229.76 L 545.71,228.65 L 558.93,228.26 L 572.14,226.69 L 585.36,224.48 L 598.57,221.87 L 611.79,218.60 L 625.00,212.01 L 638.21,207.58 L 651.43,205.22 L 664.64,203.23 L 677.86,197.76 L 691.07,193.11 L 704.29,188.82 L 717.50,183.98 L 730.71,180.13 L 743.93,177.87 L 757.14,174.63 L 770.36,171.33 L 783.57,165.60 L 796.79,161.04 L 810.00,155.52 L 810.00,280 Z" fill="url(#areaFill)"/>

  <!-- Line -->
  <path d="M 70.00,273.87 L 83.21,271.19 L 96.43,270.87 L 109.64,270.81 L 122.86,270.48 L 136.07,270.30 L 149.29,269.98 L 162.50,269.20 L 175.71,267.59 L 188.93,266.69 L 202.14,263.76 L 215.36,261.71 L 228.57,255.63 L 241.79,253.16 L 255.00,251.69 L 268.21,250.24 L 281.43,249.86 L 294.64,248.97 L 307.86,247.57 L 321.07,245.29 L 334.29,244.47 L 347.50,243.28 L 360.71,242.09 L 373.93,241.70 L 387.14,241.26 L 400.36,239.76 L 413.57,238.82 L 426.79,237.50 L 440.00,236.55 L 453.21,235.98 L 466.43,235.32 L 479.64,234.44 L 492.86,233.44 L 506.07,232.20 L 519.29,230.94 L 532.50,229.76 L 545.71,228.65 L 558.93,228.26 L 572.14,226.69 L 585.36,224.48 L 598.57,221.87 L 611.79,218.60 L 625.00,212.01 L 638.21,207.58 L 651.43,205.22 L 664.64,203.23 L 677.86,197.76 L 691.07,193.11 L 704.29,188.82 L 717.50,183.98 L 730.71,180.13 L 743.93,177.87 L 757.14,174.63 L 770.36,171.33 L 783.57,165.60 L 796.79,161.04 L 810.00,155.52" fill="none" stroke="#58a6ff" stroke-width="2.5" stroke-linejoin="round" stroke-linecap="round"/>

  <!-- Data points -->
  <circle cx="70.00" cy="273.87" r="2.5" fill="#58a6ff"/><circle cx="83.21" cy="271.19" r="2.5" fill="#58a6ff"/><circle cx="96.43" cy="270.87" r="2.5" fill="#58a6ff"/><circle cx="109.64" cy="270.81" r="2.5" fill="#58a6ff"/><circle cx="122.86" cy="270.48" r="2.5" fill="#58a6ff"/><circle cx="136.07" cy="270.30" r="2.5" fill="#58a6ff"/><circle cx="149.29" cy="269.98" r="2.5" fill="#58a6ff"/><circle cx="162.50" cy="269.20" r="2.5" fill="#58a6ff"/><circle cx="175.71" cy="267.59" r="2.5" fill="#58a6ff"/><circle cx="188.93" cy="266.69" r="2.5" fill="#58a6ff"/><circle cx="202.14" cy="263.76" r="2.5" fill="#58a6ff"/><circle cx="215.36" cy="261.71" r="2.5" fill="#58a6ff"/><circle cx="228.57" cy="255.63" r="2.5" fill="#58a6ff"/><circle cx="241.79" cy="253.16" r="2.5" fill="#58a6ff"/><circle cx="255.00" cy="251.69" r="2.5" fill="#58a6ff"/><circle cx="268.21" cy="250.24" r="2.5" fill="#58a6ff"/><circle cx="281.43" cy="249.86" r="2.5" fill="#58a6ff"/><circle cx="294.64" cy="248.97" r="2.5" fill="#58a6ff"/><circle cx="307.86" cy="247.57" r="2.5" fill="#58a6ff"/><circle cx="321.07" cy="245.29" r="2.5" fill="#58a6ff"/><circle cx="334.29" cy="244.47" r="2.5" fill="#58a6ff"/><circle cx="347.50" cy="243.28" r="2.5" fill="#58a6ff"/><circle cx="360.71" cy="242.09" r="2.5" fill="#58a6ff"/><circle cx="373.93" cy="241.70" r="2.5" fill="#58a6ff"/><circle cx="387.14" cy="241.26" r="2.5" fill="#58a6ff"/><circle cx="400.36" cy="239.76" r="2.5" fill="#58a6ff"/><circle cx="413.57" cy="238.82" r="2.5" fill="#58a6ff"/><circle cx="426.79" cy="237.50" r="2.5" fill="#58a6ff"/><circle cx="440.00" cy="236.55" r="2.5" fill="#58a6ff"/><circle cx="453.21" cy="235.98" r="2.5" fill="#58a6ff"/><circle cx="466.43" cy="235.32" r="2.5" fill="#58a6ff"/><circle cx="479.64" cy="234.44" r="2.5" fill="#58a6ff"/><circle cx="492.86" cy="233.44" r="2.5" fill="#58a6ff"/><circle cx="506.07" cy="232.20" r="2.5" fill="#58a6ff"/><circle cx="519.29" cy="230.94" r="2.5" fill="#58a6ff"/><circle cx="532.50" cy="229.76" r="2.5" fill="#58a6ff"/><circle cx="545.71" cy="228.65" r="2.5" fill="#58a6ff"/><circle cx="558.93" cy="228.26" r="2.5" fill="#58a6ff"/><circle cx="572.14" cy="226.69" r="2.5" fill="#58a6ff"/><circle cx="585.36" cy="224.48" r="2.5" fill="#58a6ff"/><circle cx="598.57" cy="221.87" r="2.5" fill="#58a6ff"/><circle cx="611.79" cy="218.60" r="2.5" fill="#58a6ff"/><circle cx="625.00" cy="212.01" r="2.5" fill="#58a6ff"/><circle cx="638.21" cy="207.58" r="2.5" fill="#58a6ff"/><circle cx="651.43" cy="205.22" r="2.5" fill="#58a6ff"/><circle cx="664.64" cy="203.23" r="2.5" fill="#58a6ff"/><circle cx="677.86" cy="197.76" r="2.5" fill="#58a6ff"/><circle cx="691.07" cy="193.11" r="2.5" fill="#58a6ff"/><circle cx="704.29" cy="188.82" r="2.5" fill="#58a6ff"/><circle cx="717.50" cy="183.98" r="2.5" fill="#58a6ff"/><circle cx="730.71" cy="180.13" r="2.5" fill="#58a6ff"/><circle cx="743.93" cy="177.87" r="2.5" fill="#58a6ff"/><circle cx="757.14" cy="174.63" r="2.5" fill="#58a6ff"/><circle cx="770.36" cy="171.33" r="2.5" fill="#58a6ff"/><circle cx="783.57" cy="165.60" r="2.5" fill="#58a6ff"/><circle cx="796.79" cy="161.04" r="2.5" fill="#58a6ff"/><circle cx="810.00" cy="155.52" r="4" fill="#F2C811"/>

  <!-- Last-value callout -->
  <rect x="720.0" y="127.5" width="82" height="24" rx="4" fill="#0d1a2a" stroke="#F2C811" stroke-width="1"/>
  <text x="761.0" y="143.5" font-family="'Segoe UI', Arial, sans-serif" font-size="12" fill="#F2C811" text-anchor="middle" font-weight="bold">12,325 total</text>

  <!-- X-axis labels -->
  <text x="70.0" y="298" font-family="'Segoe UI', Arial, sans-serif" font-size="10" fill="#8b949e" text-anchor="middle">Mar 26</text><text x="255.0" y="298" font-family="'Segoe UI', Arial, sans-serif" font-size="10" fill="#8b949e" text-anchor="middle">Apr 09</text><text x="440.0" y="298" font-family="'Segoe UI', Arial, sans-serif" font-size="10" fill="#8b949e" text-anchor="middle">Apr 23</text><text x="625.0" y="298" font-family="'Segoe UI', Arial, sans-serif" font-size="10" fill="#8b949e" text-anchor="middle">May 07</text><text x="810.0" y="298" font-family="'Segoe UI', Arial, sans-serif" font-size="10" fill="#8b949e" text-anchor="middle">May 21</text>

  <!-- Footer: date range -->
  <text x="70" y="328" font-family="'Segoe UI', Arial, sans-serif" font-size="10" fill="#8b949e">Mar 26, 2026 → May 21, 2026</text>
  <text x="810" y="328" font-family="'Segoe UI', Arial, sans-serif" font-size="10" fill="#8b949e" text-anchor="end">57 days of data</text>
</svg>
