<svg xmlns="http://www.w3.org/2000/svg" width="850" height="340" viewBox="0 0 850 340">
  <defs>
    <linearGradient id="areaFill" x1="0" y1="0" x2="0" y2="1">
      <stop offset="0%" stop-color="#58a6ff" stop-opacity="0.45"/>
      <stop offset="100%" stop-color="#58a6ff" stop-opacity="0"/>
    </linearGradient>
  </defs>

  <!-- Background -->
  <rect width="100%" height="100%" fill="#0d1117" rx="8"/>

  <!-- Title -->
  <text x="425" y="33" font-family="'Segoe UI', Arial, sans-serif" font-size="17" fill="#F2C811" text-anchor="middle" font-weight="bold">pbi-cli Downloads Over Time</text>
  <text x="425" y="52" font-family="'Segoe UI', Arial, sans-serif" font-size="11" fill="#8b949e" text-anchor="middle">Cumulative installs from PyPI • mirrors excluded • source: pypistats.org</text>

  <!-- Gridlines & y-labels -->
  <line x1="70" y1="280.0" x2="810" y2="280.0" stroke="#21262d" stroke-width="1" stroke-dasharray="2,3"/><line x1="70" y1="239.6" x2="810" y2="239.6" stroke="#21262d" stroke-width="1" stroke-dasharray="2,3"/><line x1="70" y1="199.2" x2="810" y2="199.2" stroke="#21262d" stroke-width="1" stroke-dasharray="2,3"/><line x1="70" y1="158.8" x2="810" y2="158.8" stroke="#21262d" stroke-width="1" stroke-dasharray="2,3"/><line x1="70" y1="118.4" x2="810" y2="118.4" stroke="#21262d" stroke-width="1" stroke-dasharray="2,3"/><line x1="70" y1="78.0" x2="810" y2="78.0" stroke="#21262d" stroke-width="1" stroke-dasharray="2,3"/>
  <text x="62" y="284.0" font-family="'Segoe UI', Arial, sans-serif" font-size="10" fill="#8b949e" text-anchor="end">0</text><text x="62" y="243.6" font-family="'Segoe UI', Arial, sans-serif" font-size="10" fill="#8b949e" text-anchor="end">4,000</text><text x="62" y="203.2" font-family="'Segoe UI', Arial, sans-serif" font-size="10" fill="#8b949e" text-anchor="end">8,000</text><text x="62" y="162.8" font-family="'Segoe UI', Arial, sans-serif" font-size="10" fill="#8b949e" text-anchor="end">12,000</text><text x="62" y="122.4" font-family="'Segoe UI', Arial, sans-serif" font-size="10" fill="#8b949e" text-anchor="end">16,000</text><text x="62" y="82.0" font-family="'Segoe UI', Arial, sans-serif" font-size="10" fill="#8b949e" text-anchor="end">20,000</text>

  <!-- Area fill -->
  <path d="M 70.00,280 L 70.00,273.87 L 80.42,271.19 L 90.85,270.87 L 101.27,270.81 L 111.69,270.48 L 122.11,270.30 L 132.54,269.98 L 142.96,269.20 L 153.38,267.59 L 163.80,266.69 L 174.23,263.76 L 184.65,261.71 L 195.07,255.63 L 205.49,253.16 L 215.92,251.69 L 226.34,250.24 L 236.76,249.86 L 247.18,248.97 L 257.61,247.57 L 268.03,245.29 L 278.45,244.47 L 288.87,243.28 L 299.30,242.09 L 309.72,241.70 L 320.14,241.26 L 330.56,239.76 L 340.99,238.82 L 351.41,237.50 L 361.83,236.55 L 372.25,235.98 L 382.68,235.32 L 393.10,234.44 L 403.52,233.44 L 413.94,232.20 L 424.37,230.94 L 434.79,229.76 L 445.21,228.65 L 455.63,228.26 L 466.06,226.69 L 476.48,224.48 L 486.90,221.87 L 497.32,218.60 L 507.75,212.01 L 518.17,207.58 L 528.59,205.22 L 539.01,203.23 L 549.44,197.76 L 559.86,193.11 L 570.28,188.82 L 580.70,183.98 L 591.13,180.13 L 601.55,177.87 L 611.97,174.63 L 622.39,171.33 L 632.82,165.60 L 643.24,161.04 L 653.66,155.52 L 664.08,151.79 L 674.51,149.26 L 684.93,147.26 L 695.35,145.32 L 705.77,141.28 L 716.20,136.98 L 726.62,133.01 L 737.04,130.07 L 747.46,128.62 L 757.89,126.89 L 768.31,123.53 L 778.73,120.78 L 789.15,117.19 L 799.58,114.13 L 810.00,111.07 L 810.00,280 Z" fill="url(#areaFill)"/>

  <!-- Line -->
  <path d="M 70.00,273.87 L 80.42,271.19 L 90.85,270.87 L 101.27,270.81 L 111.69,270.48 L 122.11,270.30 L 132.54,269.98 L 142.96,269.20 L 153.38,267.59 L 163.80,266.69 L 174.23,263.76 L 184.65,261.71 L 195.07,255.63 L 205.49,253.16 L 215.92,251.69 L 226.34,250.24 L 236.76,249.86 L 247.18,248.97 L 257.61,247.57 L 268.03,245.29 L 278.45,244.47 L 288.87,243.28 L 299.30,242.09 L 309.72,241.70 L 320.14,241.26 L 330.56,239.76 L 340.99,238.82 L 351.41,237.50 L 361.83,236.55 L 372.25,235.98 L 382.68,235.32 L 393.10,234.44 L 403.52,233.44 L 413.94,232.20 L 424.37,230.94 L 434.79,229.76 L 445.21,228.65 L 455.63,228.26 L 466.06,226.69 L 476.48,224.48 L 486.90,221.87 L 497.32,218.60 L 507.75,212.01 L 518.17,207.58 L 528.59,205.22 L 539.01,203.23 L 549.44,197.76 L 559.86,193.11 L 570.28,188.82 L 580.70,183.98 L 591.13,180.13 L 601.55,177.87 L 611.97,174.63 L 622.39,171.33 L 632.82,165.60 L 643.24,161.04 L 653.66,155.52 L 664.08,151.79 L 674.51,149.26 L 684.93,147.26 L 695.35,145.32 L 705.77,141.28 L 716.20,136.98 L 726.62,133.01 L 737.04,130.07 L 747.46,128.62 L 757.89,126.89 L 768.31,123.53 L 778.73,120.78 L 789.15,117.19 L 799.58,114.13 L 810.00,111.07" fill="none" stroke="#58a6ff" stroke-width="2.5" stroke-linejoin="round" stroke-linecap="round"/>

  <!-- Data points -->
  <circle cx="70.00" cy="273.87" r="2.5" fill="#58a6ff"/><circle cx="80.42" cy="271.19" r="2.5" fill="#58a6ff"/><circle cx="90.85" cy="270.87" r="2.5" fill="#58a6ff"/><circle cx="101.27" cy="270.81" r="2.5" fill="#58a6ff"/><circle cx="111.69" cy="270.48" r="2.5" fill="#58a6ff"/><circle cx="122.11" cy="270.30" r="2.5" fill="#58a6ff"/><circle cx="132.54" cy="269.98" r="2.5" fill="#58a6ff"/><circle cx="142.96" cy="269.20" r="2.5" fill="#58a6ff"/><circle cx="153.38" cy="267.59" r="2.5" fill="#58a6ff"/><circle cx="163.80" cy="266.69" r="2.5" fill="#58a6ff"/><circle cx="174.23" cy="263.76" r="2.5" fill="#58a6ff"/><circle cx="184.65" cy="261.71" r="2.5" fill="#58a6ff"/><circle cx="195.07" cy="255.63" r="2.5" fill="#58a6ff"/><circle cx="205.49" cy="253.16" r="2.5" fill="#58a6ff"/><circle cx="215.92" cy="251.69" r="2.5" fill="#58a6ff"/><circle cx="226.34" cy="250.24" r="2.5" fill="#58a6ff"/><circle cx="236.76" cy="249.86" r="2.5" fill="#58a6ff"/><circle cx="247.18" cy="248.97" r="2.5" fill="#58a6ff"/><circle cx="257.61" cy="247.57" r="2.5" fill="#58a6ff"/><circle cx="268.03" cy="245.29" r="2.5" fill="#58a6ff"/><circle cx="278.45" cy="244.47" r="2.5" fill="#58a6ff"/><circle cx="288.87" cy="243.28" r="2.5" fill="#58a6ff"/><circle cx="299.30" cy="242.09" r="2.5" fill="#58a6ff"/><circle cx="309.72" cy="241.70" r="2.5" fill="#58a6ff"/><circle cx="320.14" cy="241.26" r="2.5" fill="#58a6ff"/><circle cx="330.56" cy="239.76" r="2.5" fill="#58a6ff"/><circle cx="340.99" cy="238.82" r="2.5" fill="#58a6ff"/><circle cx="351.41" cy="237.50" r="2.5" fill="#58a6ff"/><circle cx="361.83" cy="236.55" r="2.5" fill="#58a6ff"/><circle cx="372.25" cy="235.98" r="2.5" fill="#58a6ff"/><circle cx="382.68" cy="235.32" r="2.5" fill="#58a6ff"/><circle cx="393.10" cy="234.44" r="2.5" fill="#58a6ff"/><circle cx="403.52" cy="233.44" r="2.5" fill="#58a6ff"/><circle cx="413.94" cy="232.20" r="2.5" fill="#58a6ff"/><circle cx="424.37" cy="230.94" r="2.5" fill="#58a6ff"/><circle cx="434.79" cy="229.76" r="2.5" fill="#58a6ff"/><circle cx="445.21" cy="228.65" r="2.5" fill="#58a6ff"/><circle cx="455.63" cy="228.26" r="2.5" fill="#58a6ff"/><circle cx="466.06" cy="226.69" r="2.5" fill="#58a6ff"/><circle cx="476.48" cy="224.48" r="2.5" fill="#58a6ff"/><circle cx="486.90" cy="221.87" r="2.5" fill="#58a6ff"/><circle cx="497.32" cy="218.60" r="2.5" fill="#58a6ff"/><circle cx="507.75" cy="212.01" r="2.5" fill="#58a6ff"/><circle cx="518.17" cy="207.58" r="2.5" fill="#58a6ff"/><circle cx="528.59" cy="205.22" r="2.5" fill="#58a6ff"/><circle cx="539.01" cy="203.23" r="2.5" fill="#58a6ff"/><circle cx="549.44" cy="197.76" r="2.5" fill="#58a6ff"/><circle cx="559.86" cy="193.11" r="2.5" fill="#58a6ff"/><circle cx="570.28" cy="188.82" r="2.5" fill="#58a6ff"/><circle cx="580.70" cy="183.98" r="2.5" fill="#58a6ff"/><circle cx="591.13" cy="180.13" r="2.5" fill="#58a6ff"/><circle cx="601.55" cy="177.87" r="2.5" fill="#58a6ff"/><circle cx="611.97" cy="174.63" r="2.5" fill="#58a6ff"/><circle cx="622.39" cy="171.33" r="2.5" fill="#58a6ff"/><circle cx="632.82" cy="165.60" r="2.5" fill="#58a6ff"/><circle cx="643.24" cy="161.04" r="2.5" fill="#58a6ff"/><circle cx="653.66" cy="155.52" r="2.5" fill="#58a6ff"/><circle cx="664.08" cy="151.79" r="2.5" fill="#58a6ff"/><circle cx="674.51" cy="149.26" r="2.5" fill="#58a6ff"/><circle cx="684.93" cy="147.26" r="2.5" fill="#58a6ff"/><circle cx="695.35" cy="145.32" r="2.5" fill="#58a6ff"/><circle cx="705.77" cy="141.28" r="2.5" fill="#58a6ff"/><circle cx="716.20" cy="136.98" r="2.5" fill="#58a6ff"/><circle cx="726.62" cy="133.01" r="2.5" fill="#58a6ff"/><circle cx="737.04" cy="130.07" r="2.5" fill="#58a6ff"/><circle cx="747.46" cy="128.62" r="2.5" fill="#58a6ff"/><circle cx="757.89" cy="126.89" r="2.5" fill="#58a6ff"/><circle cx="768.31" cy="123.53" r="2.5" fill="#58a6ff"/><circle cx="778.73" cy="120.78" r="2.5" fill="#58a6ff"/><circle cx="789.15" cy="117.19" r="2.5" fill="#58a6ff"/><circle cx="799.58" cy="114.13" r="2.5" fill="#58a6ff"/><circle cx="810.00" cy="111.07" r="4" fill="#F2C811"/>

  <!-- Last-value callout -->
  <rect x="720.0" y="92.0" width="82" height="24" rx="4" fill="#0d1a2a" stroke="#F2C811" stroke-width="1"/>
  <text x="761.0" y="108.0" font-family="'Segoe UI', Arial, sans-serif" font-size="12" fill="#F2C811" text-anchor="middle" font-weight="bold">16,726 total</text>

  <!-- X-axis labels -->
  <text x="70.0" y="298" font-family="'Segoe UI', Arial, sans-serif" font-size="10" fill="#8b949e" text-anchor="middle">Mar 26</text><text x="257.6" y="298" font-family="'Segoe UI', Arial, sans-serif" font-size="10" fill="#8b949e" text-anchor="middle">Apr 13</text><text x="445.2" y="298" font-family="'Segoe UI', Arial, sans-serif" font-size="10" fill="#8b949e" text-anchor="middle">May 01</text><text x="632.8" y="298" font-family="'Segoe UI', Arial, sans-serif" font-size="10" fill="#8b949e" text-anchor="middle">May 19</text><text x="810.0" y="298" font-family="'Segoe UI', Arial, sans-serif" font-size="10" fill="#8b949e" text-anchor="middle">Jun 05</text>

  <!-- Footer: date range -->
  <text x="70" y="328" font-family="'Segoe UI', Arial, sans-serif" font-size="10" fill="#8b949e">Mar 26, 2026 → Jun 05, 2026</text>
  <text x="810" y="328" font-family="'Segoe UI', Arial, sans-serif" font-size="10" fill="#8b949e" text-anchor="end">72 days of data</text>
</svg>
