<svg xmlns="http://www.w3.org/2000/svg" width="850" height="340" viewBox="0 0 850 340">
  <defs>
    <linearGradient id="areaFill" x1="0" y1="0" x2="0" y2="1">
      <stop offset="0%" stop-color="#58a6ff" stop-opacity="0.45"/>
      <stop offset="100%" stop-color="#58a6ff" stop-opacity="0"/>
    </linearGradient>
  </defs>

  <!-- Background -->
  <rect width="100%" height="100%" fill="#0d1117" rx="8"/>

  <!-- Title -->
  <text x="425" y="33" font-family="'Segoe UI', Arial, sans-serif" font-size="17" fill="#F2C811" text-anchor="middle" font-weight="bold">pbi-cli Downloads Over Time</text>
  <text x="425" y="52" font-family="'Segoe UI', Arial, sans-serif" font-size="11" fill="#8b949e" text-anchor="middle">Cumulative installs from PyPI • mirrors excluded • source: pypistats.org</text>

  <!-- Gridlines & y-labels -->
  <line x1="70" y1="280.0" x2="810" y2="280.0" stroke="#21262d" stroke-width="1" stroke-dasharray="2,3"/><line x1="70" y1="239.6" x2="810" y2="239.6" stroke="#21262d" stroke-width="1" stroke-dasharray="2,3"/><line x1="70" y1="199.2" x2="810" y2="199.2" stroke="#21262d" stroke-width="1" stroke-dasharray="2,3"/><line x1="70" y1="158.8" x2="810" y2="158.8" stroke="#21262d" stroke-width="1" stroke-dasharray="2,3"/><line x1="70" y1="118.4" x2="810" y2="118.4" stroke="#21262d" stroke-width="1" stroke-dasharray="2,3"/><line x1="70" y1="78.0" x2="810" y2="78.0" stroke="#21262d" stroke-width="1" stroke-dasharray="2,3"/>
  <text x="62" y="284.0" font-family="'Segoe UI', Arial, sans-serif" font-size="10" fill="#8b949e" text-anchor="end">0</text><text x="62" y="243.6" font-family="'Segoe UI', Arial, sans-serif" font-size="10" fill="#8b949e" text-anchor="end">4,000</text><text x="62" y="203.2" font-family="'Segoe UI', Arial, sans-serif" font-size="10" fill="#8b949e" text-anchor="end">8,000</text><text x="62" y="162.8" font-family="'Segoe UI', Arial, sans-serif" font-size="10" fill="#8b949e" text-anchor="end">12,000</text><text x="62" y="122.4" font-family="'Segoe UI', Arial, sans-serif" font-size="10" fill="#8b949e" text-anchor="end">16,000</text><text x="62" y="82.0" font-family="'Segoe UI', Arial, sans-serif" font-size="10" fill="#8b949e" text-anchor="end">20,000</text>

  <!-- Area fill -->
  <path d="M 70.00,280 L 70.00,273.87 L 84.80,271.19 L 99.60,270.87 L 114.40,270.81 L 129.20,270.48 L 144.00,270.30 L 158.80,269.98 L 173.60,269.20 L 188.40,267.59 L 203.20,266.69 L 218.00,263.76 L 232.80,261.71 L 247.60,255.63 L 262.40,253.16 L 277.20,251.69 L 292.00,250.24 L 306.80,249.86 L 321.60,248.97 L 336.40,247.57 L 351.20,245.29 L 366.00,244.47 L 380.80,243.28 L 395.60,242.09 L 410.40,241.70 L 425.20,241.26 L 440.00,239.76 L 454.80,238.82 L 469.60,237.50 L 484.40,236.55 L 499.20,235.98 L 514.00,235.32 L 528.80,234.44 L 543.60,233.44 L 558.40,232.20 L 573.20,230.94 L 588.00,229.76 L 602.80,228.65 L 617.60,228.26 L 632.40,226.69 L 647.20,224.48 L 662.00,221.87 L 676.80,218.60 L 691.60,212.01 L 706.40,207.58 L 721.20,205.22 L 736.00,203.23 L 750.80,197.76 L 765.60,193.11 L 780.40,188.82 L 795.20,183.98 L 810.00,180.13 L 810.00,280 Z" fill="url(#areaFill)"/>

  <!-- Line -->
  <path d="M 70.00,273.87 L 84.80,271.19 L 99.60,270.87 L 114.40,270.81 L 129.20,270.48 L 144.00,270.30 L 158.80,269.98 L 173.60,269.20 L 188.40,267.59 L 203.20,266.69 L 218.00,263.76 L 232.80,261.71 L 247.60,255.63 L 262.40,253.16 L 277.20,251.69 L 292.00,250.24 L 306.80,249.86 L 321.60,248.97 L 336.40,247.57 L 351.20,245.29 L 366.00,244.47 L 380.80,243.28 L 395.60,242.09 L 410.40,241.70 L 425.20,241.26 L 440.00,239.76 L 454.80,238.82 L 469.60,237.50 L 484.40,236.55 L 499.20,235.98 L 514.00,235.32 L 528.80,234.44 L 543.60,233.44 L 558.40,232.20 L 573.20,230.94 L 588.00,229.76 L 602.80,228.65 L 617.60,228.26 L 632.40,226.69 L 647.20,224.48 L 662.00,221.87 L 676.80,218.60 L 691.60,212.01 L 706.40,207.58 L 721.20,205.22 L 736.00,203.23 L 750.80,197.76 L 765.60,193.11 L 780.40,188.82 L 795.20,183.98 L 810.00,180.13" fill="none" stroke="#58a6ff" stroke-width="2.5" stroke-linejoin="round" stroke-linecap="round"/>

  <!-- Data points -->
  <circle cx="70.00" cy="273.87" r="2.5" fill="#58a6ff"/><circle cx="84.80" cy="271.19" r="2.5" fill="#58a6ff"/><circle cx="99.60" cy="270.87" r="2.5" fill="#58a6ff"/><circle cx="114.40" cy="270.81" r="2.5" fill="#58a6ff"/><circle cx="129.20" cy="270.48" r="2.5" fill="#58a6ff"/><circle cx="144.00" cy="270.30" r="2.5" fill="#58a6ff"/><circle cx="158.80" cy="269.98" r="2.5" fill="#58a6ff"/><circle cx="173.60" cy="269.20" r="2.5" fill="#58a6ff"/><circle cx="188.40" cy="267.59" r="2.5" fill="#58a6ff"/><circle cx="203.20" cy="266.69" r="2.5" fill="#58a6ff"/><circle cx="218.00" cy="263.76" r="2.5" fill="#58a6ff"/><circle cx="232.80" cy="261.71" r="2.5" fill="#58a6ff"/><circle cx="247.60" cy="255.63" r="2.5" fill="#58a6ff"/><circle cx="262.40" cy="253.16" r="2.5" fill="#58a6ff"/><circle cx="277.20" cy="251.69" r="2.5" fill="#58a6ff"/><circle cx="292.00" cy="250.24" r="2.5" fill="#58a6ff"/><circle cx="306.80" cy="249.86" r="2.5" fill="#58a6ff"/><circle cx="321.60" cy="248.97" r="2.5" fill="#58a6ff"/><circle cx="336.40" cy="247.57" r="2.5" fill="#58a6ff"/><circle cx="351.20" cy="245.29" r="2.5" fill="#58a6ff"/><circle cx="366.00" cy="244.47" r="2.5" fill="#58a6ff"/><circle cx="380.80" cy="243.28" r="2.5" fill="#58a6ff"/><circle cx="395.60" cy="242.09" r="2.5" fill="#58a6ff"/><circle cx="410.40" cy="241.70" r="2.5" fill="#58a6ff"/><circle cx="425.20" cy="241.26" r="2.5" fill="#58a6ff"/><circle cx="440.00" cy="239.76" r="2.5" fill="#58a6ff"/><circle cx="454.80" cy="238.82" r="2.5" fill="#58a6ff"/><circle cx="469.60" cy="237.50" r="2.5" fill="#58a6ff"/><circle cx="484.40" cy="236.55" r="2.5" fill="#58a6ff"/><circle cx="499.20" cy="235.98" r="2.5" fill="#58a6ff"/><circle cx="514.00" cy="235.32" r="2.5" fill="#58a6ff"/><circle cx="528.80" cy="234.44" r="2.5" fill="#58a6ff"/><circle cx="543.60" cy="233.44" r="2.5" fill="#58a6ff"/><circle cx="558.40" cy="232.20" r="2.5" fill="#58a6ff"/><circle cx="573.20" cy="230.94" r="2.5" fill="#58a6ff"/><circle cx="588.00" cy="229.76" r="2.5" fill="#58a6ff"/><circle cx="602.80" cy="228.65" r="2.5" fill="#58a6ff"/><circle cx="617.60" cy="228.26" r="2.5" fill="#58a6ff"/><circle cx="632.40" cy="226.69" r="2.5" fill="#58a6ff"/><circle cx="647.20" cy="224.48" r="2.5" fill="#58a6ff"/><circle cx="662.00" cy="221.87" r="2.5" fill="#58a6ff"/><circle cx="676.80" cy="218.60" r="2.5" fill="#58a6ff"/><circle cx="691.60" cy="212.01" r="2.5" fill="#58a6ff"/><circle cx="706.40" cy="207.58" r="2.5" fill="#58a6ff"/><circle cx="721.20" cy="205.22" r="2.5" fill="#58a6ff"/><circle cx="736.00" cy="203.23" r="2.5" fill="#58a6ff"/><circle cx="750.80" cy="197.76" r="2.5" fill="#58a6ff"/><circle cx="765.60" cy="193.11" r="2.5" fill="#58a6ff"/><circle cx="780.40" cy="188.82" r="2.5" fill="#58a6ff"/><circle cx="795.20" cy="183.98" r="2.5" fill="#58a6ff"/><circle cx="810.00" cy="180.13" r="4" fill="#F2C811"/>

  <!-- Last-value callout -->
  <rect x="720.0" y="152.1" width="82" height="24" rx="4" fill="#0d1a2a" stroke="#F2C811" stroke-width="1"/>
  <text x="761.0" y="168.1" font-family="'Segoe UI', Arial, sans-serif" font-size="12" fill="#F2C811" text-anchor="middle" font-weight="bold">9,888 total</text>

  <!-- X-axis labels -->
  <text x="70.0" y="298" font-family="'Segoe UI', Arial, sans-serif" font-size="10" fill="#8b949e" text-anchor="middle">Mar 26</text><text x="247.6" y="298" font-family="'Segoe UI', Arial, sans-serif" font-size="10" fill="#8b949e" text-anchor="middle">Apr 07</text><text x="440.0" y="298" font-family="'Segoe UI', Arial, sans-serif" font-size="10" fill="#8b949e" text-anchor="middle">Apr 20</text><text x="632.4" y="298" font-family="'Segoe UI', Arial, sans-serif" font-size="10" fill="#8b949e" text-anchor="middle">May 03</text><text x="810.0" y="298" font-family="'Segoe UI', Arial, sans-serif" font-size="10" fill="#8b949e" text-anchor="middle">May 15</text>

  <!-- Footer: date range -->
  <text x="70" y="328" font-family="'Segoe UI', Arial, sans-serif" font-size="10" fill="#8b949e">Mar 26, 2026 → May 15, 2026</text>
  <text x="810" y="328" font-family="'Segoe UI', Arial, sans-serif" font-size="10" fill="#8b949e" text-anchor="end">51 days of data</text>
</svg>
