<svg xmlns="http://www.w3.org/2000/svg" width="850" height="340" viewBox="0 0 850 340">
  <defs>
    <linearGradient id="areaFill" x1="0" y1="0" x2="0" y2="1">
      <stop offset="0%" stop-color="#58a6ff" stop-opacity="0.45"/>
      <stop offset="100%" stop-color="#58a6ff" stop-opacity="0"/>
    </linearGradient>
  </defs>

  <!-- Background -->
  <rect width="100%" height="100%" fill="#0d1117" rx="8"/>

  <!-- Title -->
  <text x="425" y="33" font-family="'Segoe UI', Arial, sans-serif" font-size="17" fill="#F2C811" text-anchor="middle" font-weight="bold">pbi-cli Downloads Over Time</text>
  <text x="425" y="52" font-family="'Segoe UI', Arial, sans-serif" font-size="11" fill="#8b949e" text-anchor="middle">Cumulative installs from PyPI • mirrors excluded • source: pypistats.org</text>

  <!-- Gridlines & y-labels -->
  <line x1="70" y1="280.0" x2="810" y2="280.0" stroke="#21262d" stroke-width="1" stroke-dasharray="2,3"/><line x1="70" y1="239.6" x2="810" y2="239.6" stroke="#21262d" stroke-width="1" stroke-dasharray="2,3"/><line x1="70" y1="199.2" x2="810" y2="199.2" stroke="#21262d" stroke-width="1" stroke-dasharray="2,3"/><line x1="70" y1="158.8" x2="810" y2="158.8" stroke="#21262d" stroke-width="1" stroke-dasharray="2,3"/><line x1="70" y1="118.4" x2="810" y2="118.4" stroke="#21262d" stroke-width="1" stroke-dasharray="2,3"/><line x1="70" y1="78.0" x2="810" y2="78.0" stroke="#21262d" stroke-width="1" stroke-dasharray="2,3"/>
  <text x="62" y="284.0" font-family="'Segoe UI', Arial, sans-serif" font-size="10" fill="#8b949e" text-anchor="end">0</text><text x="62" y="243.6" font-family="'Segoe UI', Arial, sans-serif" font-size="10" fill="#8b949e" text-anchor="end">4,000</text><text x="62" y="203.2" font-family="'Segoe UI', Arial, sans-serif" font-size="10" fill="#8b949e" text-anchor="end">8,000</text><text x="62" y="162.8" font-family="'Segoe UI', Arial, sans-serif" font-size="10" fill="#8b949e" text-anchor="end">12,000</text><text x="62" y="122.4" font-family="'Segoe UI', Arial, sans-serif" font-size="10" fill="#8b949e" text-anchor="end">16,000</text><text x="62" y="82.0" font-family="'Segoe UI', Arial, sans-serif" font-size="10" fill="#8b949e" text-anchor="end">20,000</text>

  <!-- Area fill -->
  <path d="M 70.00,280 L 70.00,273.87 L 81.75,271.19 L 93.49,270.87 L 105.24,270.81 L 116.98,270.48 L 128.73,270.30 L 140.48,269.98 L 152.22,269.20 L 163.97,267.59 L 175.71,266.69 L 187.46,263.76 L 199.21,261.71 L 210.95,255.63 L 222.70,253.16 L 234.44,251.69 L 246.19,250.24 L 257.94,249.86 L 269.68,248.97 L 281.43,247.57 L 293.17,245.29 L 304.92,244.47 L 316.67,243.28 L 328.41,242.09 L 340.16,241.70 L 351.90,241.26 L 363.65,239.76 L 375.40,238.82 L 387.14,237.50 L 398.89,236.55 L 410.63,235.98 L 422.38,235.32 L 434.13,234.44 L 445.87,233.44 L 457.62,232.20 L 469.37,230.94 L 481.11,229.76 L 492.86,228.65 L 504.60,228.26 L 516.35,226.69 L 528.10,224.48 L 539.84,221.87 L 551.59,218.60 L 563.33,212.01 L 575.08,207.58 L 586.83,205.22 L 598.57,203.23 L 610.32,197.76 L 622.06,193.11 L 633.81,188.82 L 645.56,183.98 L 657.30,180.13 L 669.05,177.87 L 680.79,174.63 L 692.54,171.33 L 704.29,165.60 L 716.03,161.04 L 727.78,155.52 L 739.52,151.79 L 751.27,149.26 L 763.02,147.26 L 774.76,145.32 L 786.51,141.28 L 798.25,136.98 L 810.00,133.01 L 810.00,280 Z" fill="url(#areaFill)"/>

  <!-- Line -->
  <path d="M 70.00,273.87 L 81.75,271.19 L 93.49,270.87 L 105.24,270.81 L 116.98,270.48 L 128.73,270.30 L 140.48,269.98 L 152.22,269.20 L 163.97,267.59 L 175.71,266.69 L 187.46,263.76 L 199.21,261.71 L 210.95,255.63 L 222.70,253.16 L 234.44,251.69 L 246.19,250.24 L 257.94,249.86 L 269.68,248.97 L 281.43,247.57 L 293.17,245.29 L 304.92,244.47 L 316.67,243.28 L 328.41,242.09 L 340.16,241.70 L 351.90,241.26 L 363.65,239.76 L 375.40,238.82 L 387.14,237.50 L 398.89,236.55 L 410.63,235.98 L 422.38,235.32 L 434.13,234.44 L 445.87,233.44 L 457.62,232.20 L 469.37,230.94 L 481.11,229.76 L 492.86,228.65 L 504.60,228.26 L 516.35,226.69 L 528.10,224.48 L 539.84,221.87 L 551.59,218.60 L 563.33,212.01 L 575.08,207.58 L 586.83,205.22 L 598.57,203.23 L 610.32,197.76 L 622.06,193.11 L 633.81,188.82 L 645.56,183.98 L 657.30,180.13 L 669.05,177.87 L 680.79,174.63 L 692.54,171.33 L 704.29,165.60 L 716.03,161.04 L 727.78,155.52 L 739.52,151.79 L 751.27,149.26 L 763.02,147.26 L 774.76,145.32 L 786.51,141.28 L 798.25,136.98 L 810.00,133.01" fill="none" stroke="#58a6ff" stroke-width="2.5" stroke-linejoin="round" stroke-linecap="round"/>

  <!-- Data points -->
  <circle cx="70.00" cy="273.87" r="2.5" fill="#58a6ff"/><circle cx="81.75" cy="271.19" r="2.5" fill="#58a6ff"/><circle cx="93.49" cy="270.87" r="2.5" fill="#58a6ff"/><circle cx="105.24" cy="270.81" r="2.5" fill="#58a6ff"/><circle cx="116.98" cy="270.48" r="2.5" fill="#58a6ff"/><circle cx="128.73" cy="270.30" r="2.5" fill="#58a6ff"/><circle cx="140.48" cy="269.98" r="2.5" fill="#58a6ff"/><circle cx="152.22" cy="269.20" r="2.5" fill="#58a6ff"/><circle cx="163.97" cy="267.59" r="2.5" fill="#58a6ff"/><circle cx="175.71" cy="266.69" r="2.5" fill="#58a6ff"/><circle cx="187.46" cy="263.76" r="2.5" fill="#58a6ff"/><circle cx="199.21" cy="261.71" r="2.5" fill="#58a6ff"/><circle cx="210.95" cy="255.63" r="2.5" fill="#58a6ff"/><circle cx="222.70" cy="253.16" r="2.5" fill="#58a6ff"/><circle cx="234.44" cy="251.69" r="2.5" fill="#58a6ff"/><circle cx="246.19" cy="250.24" r="2.5" fill="#58a6ff"/><circle cx="257.94" cy="249.86" r="2.5" fill="#58a6ff"/><circle cx="269.68" cy="248.97" r="2.5" fill="#58a6ff"/><circle cx="281.43" cy="247.57" r="2.5" fill="#58a6ff"/><circle cx="293.17" cy="245.29" r="2.5" fill="#58a6ff"/><circle cx="304.92" cy="244.47" r="2.5" fill="#58a6ff"/><circle cx="316.67" cy="243.28" r="2.5" fill="#58a6ff"/><circle cx="328.41" cy="242.09" r="2.5" fill="#58a6ff"/><circle cx="340.16" cy="241.70" r="2.5" fill="#58a6ff"/><circle cx="351.90" cy="241.26" r="2.5" fill="#58a6ff"/><circle cx="363.65" cy="239.76" r="2.5" fill="#58a6ff"/><circle cx="375.40" cy="238.82" r="2.5" fill="#58a6ff"/><circle cx="387.14" cy="237.50" r="2.5" fill="#58a6ff"/><circle cx="398.89" cy="236.55" r="2.5" fill="#58a6ff"/><circle cx="410.63" cy="235.98" r="2.5" fill="#58a6ff"/><circle cx="422.38" cy="235.32" r="2.5" fill="#58a6ff"/><circle cx="434.13" cy="234.44" r="2.5" fill="#58a6ff"/><circle cx="445.87" cy="233.44" r="2.5" fill="#58a6ff"/><circle cx="457.62" cy="232.20" r="2.5" fill="#58a6ff"/><circle cx="469.37" cy="230.94" r="2.5" fill="#58a6ff"/><circle cx="481.11" cy="229.76" r="2.5" fill="#58a6ff"/><circle cx="492.86" cy="228.65" r="2.5" fill="#58a6ff"/><circle cx="504.60" cy="228.26" r="2.5" fill="#58a6ff"/><circle cx="516.35" cy="226.69" r="2.5" fill="#58a6ff"/><circle cx="528.10" cy="224.48" r="2.5" fill="#58a6ff"/><circle cx="539.84" cy="221.87" r="2.5" fill="#58a6ff"/><circle cx="551.59" cy="218.60" r="2.5" fill="#58a6ff"/><circle cx="563.33" cy="212.01" r="2.5" fill="#58a6ff"/><circle cx="575.08" cy="207.58" r="2.5" fill="#58a6ff"/><circle cx="586.83" cy="205.22" r="2.5" fill="#58a6ff"/><circle cx="598.57" cy="203.23" r="2.5" fill="#58a6ff"/><circle cx="610.32" cy="197.76" r="2.5" fill="#58a6ff"/><circle cx="622.06" cy="193.11" r="2.5" fill="#58a6ff"/><circle cx="633.81" cy="188.82" r="2.5" fill="#58a6ff"/><circle cx="645.56" cy="183.98" r="2.5" fill="#58a6ff"/><circle cx="657.30" cy="180.13" r="2.5" fill="#58a6ff"/><circle cx="669.05" cy="177.87" r="2.5" fill="#58a6ff"/><circle cx="680.79" cy="174.63" r="2.5" fill="#58a6ff"/><circle cx="692.54" cy="171.33" r="2.5" fill="#58a6ff"/><circle cx="704.29" cy="165.60" r="2.5" fill="#58a6ff"/><circle cx="716.03" cy="161.04" r="2.5" fill="#58a6ff"/><circle cx="727.78" cy="155.52" r="2.5" fill="#58a6ff"/><circle cx="739.52" cy="151.79" r="2.5" fill="#58a6ff"/><circle cx="751.27" cy="149.26" r="2.5" fill="#58a6ff"/><circle cx="763.02" cy="147.26" r="2.5" fill="#58a6ff"/><circle cx="774.76" cy="145.32" r="2.5" fill="#58a6ff"/><circle cx="786.51" cy="141.28" r="2.5" fill="#58a6ff"/><circle cx="798.25" cy="136.98" r="2.5" fill="#58a6ff"/><circle cx="810.00" cy="133.01" r="4" fill="#F2C811"/>

  <!-- Last-value callout -->
  <rect x="720.0" y="105.0" width="82" height="24" rx="4" fill="#0d1a2a" stroke="#F2C811" stroke-width="1"/>
  <text x="761.0" y="121.0" font-family="'Segoe UI', Arial, sans-serif" font-size="12" fill="#F2C811" text-anchor="middle" font-weight="bold">14,553 total</text>

  <!-- X-axis labels -->
  <text x="70.0" y="298" font-family="'Segoe UI', Arial, sans-serif" font-size="10" fill="#8b949e" text-anchor="middle">Mar 26</text><text x="257.9" y="298" font-family="'Segoe UI', Arial, sans-serif" font-size="10" fill="#8b949e" text-anchor="middle">Apr 11</text><text x="445.9" y="298" font-family="'Segoe UI', Arial, sans-serif" font-size="10" fill="#8b949e" text-anchor="middle">Apr 27</text><text x="633.8" y="298" font-family="'Segoe UI', Arial, sans-serif" font-size="10" fill="#8b949e" text-anchor="middle">May 13</text><text x="810.0" y="298" font-family="'Segoe UI', Arial, sans-serif" font-size="10" fill="#8b949e" text-anchor="middle">May 28</text>

  <!-- Footer: date range -->
  <text x="70" y="328" font-family="'Segoe UI', Arial, sans-serif" font-size="10" fill="#8b949e">Mar 26, 2026 → May 28, 2026</text>
  <text x="810" y="328" font-family="'Segoe UI', Arial, sans-serif" font-size="10" fill="#8b949e" text-anchor="end">64 days of data</text>
</svg>
