<svg xmlns="http://www.w3.org/2000/svg" width="850" height="340" viewBox="0 0 850 340">
  <defs>
    <linearGradient id="areaFill" x1="0" y1="0" x2="0" y2="1">
      <stop offset="0%" stop-color="#58a6ff" stop-opacity="0.45"/>
      <stop offset="100%" stop-color="#58a6ff" stop-opacity="0"/>
    </linearGradient>
  </defs>

  <!-- Background -->
  <rect width="100%" height="100%" fill="#0d1117" rx="8"/>

  <!-- Title -->
  <text x="425" y="33" font-family="'Segoe UI', Arial, sans-serif" font-size="17" fill="#F2C811" text-anchor="middle" font-weight="bold">pbi-cli Downloads Over Time</text>
  <text x="425" y="52" font-family="'Segoe UI', Arial, sans-serif" font-size="11" fill="#8b949e" text-anchor="middle">Cumulative installs from PyPI • mirrors excluded • source: pypistats.org</text>

  <!-- Gridlines & y-labels -->
  <line x1="70" y1="280.0" x2="810" y2="280.0" stroke="#21262d" stroke-width="1" stroke-dasharray="2,3"/><line x1="70" y1="239.6" x2="810" y2="239.6" stroke="#21262d" stroke-width="1" stroke-dasharray="2,3"/><line x1="70" y1="199.2" x2="810" y2="199.2" stroke="#21262d" stroke-width="1" stroke-dasharray="2,3"/><line x1="70" y1="158.8" x2="810" y2="158.8" stroke="#21262d" stroke-width="1" stroke-dasharray="2,3"/><line x1="70" y1="118.4" x2="810" y2="118.4" stroke="#21262d" stroke-width="1" stroke-dasharray="2,3"/><line x1="70" y1="78.0" x2="810" y2="78.0" stroke="#21262d" stroke-width="1" stroke-dasharray="2,3"/>
  <text x="62" y="284.0" font-family="'Segoe UI', Arial, sans-serif" font-size="10" fill="#8b949e" text-anchor="end">0</text><text x="62" y="243.6" font-family="'Segoe UI', Arial, sans-serif" font-size="10" fill="#8b949e" text-anchor="end">2,000</text><text x="62" y="203.2" font-family="'Segoe UI', Arial, sans-serif" font-size="10" fill="#8b949e" text-anchor="end">4,000</text><text x="62" y="162.8" font-family="'Segoe UI', Arial, sans-serif" font-size="10" fill="#8b949e" text-anchor="end">6,000</text><text x="62" y="122.4" font-family="'Segoe UI', Arial, sans-serif" font-size="10" fill="#8b949e" text-anchor="end">8,000</text><text x="62" y="82.0" font-family="'Segoe UI', Arial, sans-serif" font-size="10" fill="#8b949e" text-anchor="end">10,000</text>

  <!-- Area fill -->
  <path d="M 70.00,280 L 70.00,267.74 L 87.21,262.39 L 104.42,261.74 L 121.63,261.62 L 138.84,260.95 L 156.05,260.61 L 173.26,259.96 L 190.47,258.41 L 207.67,255.17 L 224.88,253.38 L 242.09,247.52 L 259.30,243.42 L 276.51,231.26 L 293.72,226.33 L 310.93,223.38 L 328.14,220.47 L 345.35,219.72 L 362.56,217.95 L 379.77,215.14 L 396.98,210.57 L 414.19,208.94 L 431.40,206.55 L 448.60,204.19 L 465.81,203.40 L 483.02,202.51 L 500.23,199.52 L 517.44,197.64 L 534.65,195.00 L 551.86,193.10 L 569.07,191.97 L 586.28,190.64 L 603.49,188.88 L 620.70,186.88 L 637.91,184.39 L 655.12,181.89 L 672.33,179.53 L 689.53,177.30 L 706.74,176.52 L 723.95,173.38 L 741.16,168.96 L 758.37,163.75 L 775.58,157.20 L 792.79,144.01 L 810.00,135.17 L 810.00,280 Z" fill="url(#areaFill)"/>

  <!-- Line -->
  <path d="M 70.00,267.74 L 87.21,262.39 L 104.42,261.74 L 121.63,261.62 L 138.84,260.95 L 156.05,260.61 L 173.26,259.96 L 190.47,258.41 L 207.67,255.17 L 224.88,253.38 L 242.09,247.52 L 259.30,243.42 L 276.51,231.26 L 293.72,226.33 L 310.93,223.38 L 328.14,220.47 L 345.35,219.72 L 362.56,217.95 L 379.77,215.14 L 396.98,210.57 L 414.19,208.94 L 431.40,206.55 L 448.60,204.19 L 465.81,203.40 L 483.02,202.51 L 500.23,199.52 L 517.44,197.64 L 534.65,195.00 L 551.86,193.10 L 569.07,191.97 L 586.28,190.64 L 603.49,188.88 L 620.70,186.88 L 637.91,184.39 L 655.12,181.89 L 672.33,179.53 L 689.53,177.30 L 706.74,176.52 L 723.95,173.38 L 741.16,168.96 L 758.37,163.75 L 775.58,157.20 L 792.79,144.01 L 810.00,135.17" fill="none" stroke="#58a6ff" stroke-width="2.5" stroke-linejoin="round" stroke-linecap="round"/>

  <!-- Data points -->
  <circle cx="70.00" cy="267.74" r="2.5" fill="#58a6ff"/><circle cx="87.21" cy="262.39" r="2.5" fill="#58a6ff"/><circle cx="104.42" cy="261.74" r="2.5" fill="#58a6ff"/><circle cx="121.63" cy="261.62" r="2.5" fill="#58a6ff"/><circle cx="138.84" cy="260.95" r="2.5" fill="#58a6ff"/><circle cx="156.05" cy="260.61" r="2.5" fill="#58a6ff"/><circle cx="173.26" cy="259.96" r="2.5" fill="#58a6ff"/><circle cx="190.47" cy="258.41" r="2.5" fill="#58a6ff"/><circle cx="207.67" cy="255.17" r="2.5" fill="#58a6ff"/><circle cx="224.88" cy="253.38" r="2.5" fill="#58a6ff"/><circle cx="242.09" cy="247.52" r="2.5" fill="#58a6ff"/><circle cx="259.30" cy="243.42" r="2.5" fill="#58a6ff"/><circle cx="276.51" cy="231.26" r="2.5" fill="#58a6ff"/><circle cx="293.72" cy="226.33" r="2.5" fill="#58a6ff"/><circle cx="310.93" cy="223.38" r="2.5" fill="#58a6ff"/><circle cx="328.14" cy="220.47" r="2.5" fill="#58a6ff"/><circle cx="345.35" cy="219.72" r="2.5" fill="#58a6ff"/><circle cx="362.56" cy="217.95" r="2.5" fill="#58a6ff"/><circle cx="379.77" cy="215.14" r="2.5" fill="#58a6ff"/><circle cx="396.98" cy="210.57" r="2.5" fill="#58a6ff"/><circle cx="414.19" cy="208.94" r="2.5" fill="#58a6ff"/><circle cx="431.40" cy="206.55" r="2.5" fill="#58a6ff"/><circle cx="448.60" cy="204.19" r="2.5" fill="#58a6ff"/><circle cx="465.81" cy="203.40" r="2.5" fill="#58a6ff"/><circle cx="483.02" cy="202.51" r="2.5" fill="#58a6ff"/><circle cx="500.23" cy="199.52" r="2.5" fill="#58a6ff"/><circle cx="517.44" cy="197.64" r="2.5" fill="#58a6ff"/><circle cx="534.65" cy="195.00" r="2.5" fill="#58a6ff"/><circle cx="551.86" cy="193.10" r="2.5" fill="#58a6ff"/><circle cx="569.07" cy="191.97" r="2.5" fill="#58a6ff"/><circle cx="586.28" cy="190.64" r="2.5" fill="#58a6ff"/><circle cx="603.49" cy="188.88" r="2.5" fill="#58a6ff"/><circle cx="620.70" cy="186.88" r="2.5" fill="#58a6ff"/><circle cx="637.91" cy="184.39" r="2.5" fill="#58a6ff"/><circle cx="655.12" cy="181.89" r="2.5" fill="#58a6ff"/><circle cx="672.33" cy="179.53" r="2.5" fill="#58a6ff"/><circle cx="689.53" cy="177.30" r="2.5" fill="#58a6ff"/><circle cx="706.74" cy="176.52" r="2.5" fill="#58a6ff"/><circle cx="723.95" cy="173.38" r="2.5" fill="#58a6ff"/><circle cx="741.16" cy="168.96" r="2.5" fill="#58a6ff"/><circle cx="758.37" cy="163.75" r="2.5" fill="#58a6ff"/><circle cx="775.58" cy="157.20" r="2.5" fill="#58a6ff"/><circle cx="792.79" cy="144.01" r="2.5" fill="#58a6ff"/><circle cx="810.00" cy="135.17" r="4" fill="#F2C811"/>

  <!-- Last-value callout -->
  <rect x="720.0" y="107.2" width="82" height="24" rx="4" fill="#0d1a2a" stroke="#F2C811" stroke-width="1"/>
  <text x="761.0" y="123.2" font-family="'Segoe UI', Arial, sans-serif" font-size="12" fill="#F2C811" text-anchor="middle" font-weight="bold">7,170 total</text>

  <!-- X-axis labels -->
  <text x="70.0" y="298" font-family="'Segoe UI', Arial, sans-serif" font-size="10" fill="#8b949e" text-anchor="middle">Mar 26</text><text x="259.3" y="298" font-family="'Segoe UI', Arial, sans-serif" font-size="10" fill="#8b949e" text-anchor="middle">Apr 06</text><text x="448.6" y="298" font-family="'Segoe UI', Arial, sans-serif" font-size="10" fill="#8b949e" text-anchor="middle">Apr 17</text><text x="637.9" y="298" font-family="'Segoe UI', Arial, sans-serif" font-size="10" fill="#8b949e" text-anchor="middle">Apr 28</text><text x="810.0" y="298" font-family="'Segoe UI', Arial, sans-serif" font-size="10" fill="#8b949e" text-anchor="middle">May 08</text>

  <!-- Footer: date range -->
  <text x="70" y="328" font-family="'Segoe UI', Arial, sans-serif" font-size="10" fill="#8b949e">Mar 26, 2026 → May 08, 2026</text>
  <text x="810" y="328" font-family="'Segoe UI', Arial, sans-serif" font-size="10" fill="#8b949e" text-anchor="end">44 days of data</text>
</svg>
