<svg xmlns="http://www.w3.org/2000/svg" width="850" height="340" viewBox="0 0 850 340">
  <defs>
    <linearGradient id="areaFill" x1="0" y1="0" x2="0" y2="1">
      <stop offset="0%" stop-color="#58a6ff" stop-opacity="0.45"/>
      <stop offset="100%" stop-color="#58a6ff" stop-opacity="0"/>
    </linearGradient>
  </defs>

  <!-- Background -->
  <rect width="100%" height="100%" fill="#0d1117" rx="8"/>

  <!-- Title -->
  <text x="425" y="33" font-family="'Segoe UI', Arial, sans-serif" font-size="17" fill="#F2C811" text-anchor="middle" font-weight="bold">pbi-cli Downloads Over Time</text>
  <text x="425" y="52" font-family="'Segoe UI', Arial, sans-serif" font-size="11" fill="#8b949e" text-anchor="middle">Cumulative installs from PyPI • mirrors excluded • source: pypistats.org</text>

  <!-- Gridlines & y-labels -->
  <line x1="70" y1="280.0" x2="810" y2="280.0" stroke="#21262d" stroke-width="1" stroke-dasharray="2,3"/><line x1="70" y1="239.6" x2="810" y2="239.6" stroke="#21262d" stroke-width="1" stroke-dasharray="2,3"/><line x1="70" y1="199.2" x2="810" y2="199.2" stroke="#21262d" stroke-width="1" stroke-dasharray="2,3"/><line x1="70" y1="158.8" x2="810" y2="158.8" stroke="#21262d" stroke-width="1" stroke-dasharray="2,3"/><line x1="70" y1="118.4" x2="810" y2="118.4" stroke="#21262d" stroke-width="1" stroke-dasharray="2,3"/><line x1="70" y1="78.0" x2="810" y2="78.0" stroke="#21262d" stroke-width="1" stroke-dasharray="2,3"/>
  <text x="62" y="284.0" font-family="'Segoe UI', Arial, sans-serif" font-size="10" fill="#8b949e" text-anchor="end">0</text><text x="62" y="243.6" font-family="'Segoe UI', Arial, sans-serif" font-size="10" fill="#8b949e" text-anchor="end">5,000</text><text x="62" y="203.2" font-family="'Segoe UI', Arial, sans-serif" font-size="10" fill="#8b949e" text-anchor="end">10,000</text><text x="62" y="162.8" font-family="'Segoe UI', Arial, sans-serif" font-size="10" fill="#8b949e" text-anchor="end">15,000</text><text x="62" y="122.4" font-family="'Segoe UI', Arial, sans-serif" font-size="10" fill="#8b949e" text-anchor="end">20,000</text><text x="62" y="82.0" font-family="'Segoe UI', Arial, sans-serif" font-size="10" fill="#8b949e" text-anchor="end">25,000</text>

  <!-- Area fill -->
  <path d="M 70.00,280 L 70.00,275.10 L 79.49,272.95 L 88.97,272.70 L 98.46,272.65 L 107.95,272.38 L 117.44,272.24 L 126.92,271.98 L 136.41,271.36 L 145.90,270.07 L 155.38,269.35 L 164.87,267.01 L 174.36,265.37 L 183.85,260.50 L 193.33,258.53 L 202.82,257.35 L 212.31,256.19 L 221.79,255.89 L 231.28,255.18 L 240.77,254.06 L 250.26,252.23 L 259.74,251.57 L 269.23,250.62 L 278.72,249.68 L 288.21,249.36 L 297.69,249.01 L 307.18,247.81 L 316.67,247.06 L 326.15,246.00 L 335.64,245.24 L 345.13,244.79 L 354.62,244.25 L 364.10,243.55 L 373.59,242.75 L 383.08,241.76 L 392.56,240.76 L 402.05,239.81 L 411.54,238.92 L 421.03,238.61 L 430.51,237.35 L 440.00,235.58 L 449.49,233.50 L 458.97,230.88 L 468.46,225.61 L 477.95,222.07 L 487.44,220.18 L 496.92,218.58 L 506.41,214.20 L 515.90,210.49 L 525.38,207.05 L 534.87,203.18 L 544.36,200.10 L 553.85,198.30 L 563.33,195.70 L 572.82,193.07 L 582.31,188.48 L 591.79,184.83 L 601.28,180.41 L 610.77,177.43 L 620.26,175.40 L 629.74,173.80 L 639.23,172.25 L 648.72,169.02 L 658.21,165.59 L 667.69,162.41 L 677.18,160.05 L 686.67,158.90 L 696.15,157.52 L 705.64,154.82 L 715.13,152.63 L 724.62,149.75 L 734.10,147.30 L 743.59,144.85 L 753.08,142.47 L 762.56,141.52 L 772.05,139.75 L 781.54,136.95 L 791.03,133.36 L 800.51,130.63 L 810.00,128.57 L 810.00,280 Z" fill="url(#areaFill)"/>

  <!-- Line -->
  <path d="M 70.00,275.10 L 79.49,272.95 L 88.97,272.70 L 98.46,272.65 L 107.95,272.38 L 117.44,272.24 L 126.92,271.98 L 136.41,271.36 L 145.90,270.07 L 155.38,269.35 L 164.87,267.01 L 174.36,265.37 L 183.85,260.50 L 193.33,258.53 L 202.82,257.35 L 212.31,256.19 L 221.79,255.89 L 231.28,255.18 L 240.77,254.06 L 250.26,252.23 L 259.74,251.57 L 269.23,250.62 L 278.72,249.68 L 288.21,249.36 L 297.69,249.01 L 307.18,247.81 L 316.67,247.06 L 326.15,246.00 L 335.64,245.24 L 345.13,244.79 L 354.62,244.25 L 364.10,243.55 L 373.59,242.75 L 383.08,241.76 L 392.56,240.76 L 402.05,239.81 L 411.54,238.92 L 421.03,238.61 L 430.51,237.35 L 440.00,235.58 L 449.49,233.50 L 458.97,230.88 L 468.46,225.61 L 477.95,222.07 L 487.44,220.18 L 496.92,218.58 L 506.41,214.20 L 515.90,210.49 L 525.38,207.05 L 534.87,203.18 L 544.36,200.10 L 553.85,198.30 L 563.33,195.70 L 572.82,193.07 L 582.31,188.48 L 591.79,184.83 L 601.28,180.41 L 610.77,177.43 L 620.26,175.40 L 629.74,173.80 L 639.23,172.25 L 648.72,169.02 L 658.21,165.59 L 667.69,162.41 L 677.18,160.05 L 686.67,158.90 L 696.15,157.52 L 705.64,154.82 L 715.13,152.63 L 724.62,149.75 L 734.10,147.30 L 743.59,144.85 L 753.08,142.47 L 762.56,141.52 L 772.05,139.75 L 781.54,136.95 L 791.03,133.36 L 800.51,130.63 L 810.00,128.57" fill="none" stroke="#58a6ff" stroke-width="2.5" stroke-linejoin="round" stroke-linecap="round"/>

  <!-- Data points -->
  <circle cx="70.00" cy="275.10" r="2.5" fill="#58a6ff"/><circle cx="79.49" cy="272.95" r="2.5" fill="#58a6ff"/><circle cx="88.97" cy="272.70" r="2.5" fill="#58a6ff"/><circle cx="98.46" cy="272.65" r="2.5" fill="#58a6ff"/><circle cx="107.95" cy="272.38" r="2.5" fill="#58a6ff"/><circle cx="117.44" cy="272.24" r="2.5" fill="#58a6ff"/><circle cx="126.92" cy="271.98" r="2.5" fill="#58a6ff"/><circle cx="136.41" cy="271.36" r="2.5" fill="#58a6ff"/><circle cx="145.90" cy="270.07" r="2.5" fill="#58a6ff"/><circle cx="155.38" cy="269.35" r="2.5" fill="#58a6ff"/><circle cx="164.87" cy="267.01" r="2.5" fill="#58a6ff"/><circle cx="174.36" cy="265.37" r="2.5" fill="#58a6ff"/><circle cx="183.85" cy="260.50" r="2.5" fill="#58a6ff"/><circle cx="193.33" cy="258.53" r="2.5" fill="#58a6ff"/><circle cx="202.82" cy="257.35" r="2.5" fill="#58a6ff"/><circle cx="212.31" cy="256.19" r="2.5" fill="#58a6ff"/><circle cx="221.79" cy="255.89" r="2.5" fill="#58a6ff"/><circle cx="231.28" cy="255.18" r="2.5" fill="#58a6ff"/><circle cx="240.77" cy="254.06" r="2.5" fill="#58a6ff"/><circle cx="250.26" cy="252.23" r="2.5" fill="#58a6ff"/><circle cx="259.74" cy="251.57" r="2.5" fill="#58a6ff"/><circle cx="269.23" cy="250.62" r="2.5" fill="#58a6ff"/><circle cx="278.72" cy="249.68" r="2.5" fill="#58a6ff"/><circle cx="288.21" cy="249.36" r="2.5" fill="#58a6ff"/><circle cx="297.69" cy="249.01" r="2.5" fill="#58a6ff"/><circle cx="307.18" cy="247.81" r="2.5" fill="#58a6ff"/><circle cx="316.67" cy="247.06" r="2.5" fill="#58a6ff"/><circle cx="326.15" cy="246.00" r="2.5" fill="#58a6ff"/><circle cx="335.64" cy="245.24" r="2.5" fill="#58a6ff"/><circle cx="345.13" cy="244.79" r="2.5" fill="#58a6ff"/><circle cx="354.62" cy="244.25" r="2.5" fill="#58a6ff"/><circle cx="364.10" cy="243.55" r="2.5" fill="#58a6ff"/><circle cx="373.59" cy="242.75" r="2.5" fill="#58a6ff"/><circle cx="383.08" cy="241.76" r="2.5" fill="#58a6ff"/><circle cx="392.56" cy="240.76" r="2.5" fill="#58a6ff"/><circle cx="402.05" cy="239.81" r="2.5" fill="#58a6ff"/><circle cx="411.54" cy="238.92" r="2.5" fill="#58a6ff"/><circle cx="421.03" cy="238.61" r="2.5" fill="#58a6ff"/><circle cx="430.51" cy="237.35" r="2.5" fill="#58a6ff"/><circle cx="440.00" cy="235.58" r="2.5" fill="#58a6ff"/><circle cx="449.49" cy="233.50" r="2.5" fill="#58a6ff"/><circle cx="458.97" cy="230.88" r="2.5" fill="#58a6ff"/><circle cx="468.46" cy="225.61" r="2.5" fill="#58a6ff"/><circle cx="477.95" cy="222.07" r="2.5" fill="#58a6ff"/><circle cx="487.44" cy="220.18" r="2.5" fill="#58a6ff"/><circle cx="496.92" cy="218.58" r="2.5" fill="#58a6ff"/><circle cx="506.41" cy="214.20" r="2.5" fill="#58a6ff"/><circle cx="515.90" cy="210.49" r="2.5" fill="#58a6ff"/><circle cx="525.38" cy="207.05" r="2.5" fill="#58a6ff"/><circle cx="534.87" cy="203.18" r="2.5" fill="#58a6ff"/><circle cx="544.36" cy="200.10" r="2.5" fill="#58a6ff"/><circle cx="553.85" cy="198.30" r="2.5" fill="#58a6ff"/><circle cx="563.33" cy="195.70" r="2.5" fill="#58a6ff"/><circle cx="572.82" cy="193.07" r="2.5" fill="#58a6ff"/><circle cx="582.31" cy="188.48" r="2.5" fill="#58a6ff"/><circle cx="591.79" cy="184.83" r="2.5" fill="#58a6ff"/><circle cx="601.28" cy="180.41" r="2.5" fill="#58a6ff"/><circle cx="610.77" cy="177.43" r="2.5" fill="#58a6ff"/><circle cx="620.26" cy="175.40" r="2.5" fill="#58a6ff"/><circle cx="629.74" cy="173.80" r="2.5" fill="#58a6ff"/><circle cx="639.23" cy="172.25" r="2.5" fill="#58a6ff"/><circle cx="648.72" cy="169.02" r="2.5" fill="#58a6ff"/><circle cx="658.21" cy="165.59" r="2.5" fill="#58a6ff"/><circle cx="667.69" cy="162.41" r="2.5" fill="#58a6ff"/><circle cx="677.18" cy="160.05" r="2.5" fill="#58a6ff"/><circle cx="686.67" cy="158.90" r="2.5" fill="#58a6ff"/><circle cx="696.15" cy="157.52" r="2.5" fill="#58a6ff"/><circle cx="705.64" cy="154.82" r="2.5" fill="#58a6ff"/><circle cx="715.13" cy="152.63" r="2.5" fill="#58a6ff"/><circle cx="724.62" cy="149.75" r="2.5" fill="#58a6ff"/><circle cx="734.10" cy="147.30" r="2.5" fill="#58a6ff"/><circle cx="743.59" cy="144.85" r="2.5" fill="#58a6ff"/><circle cx="753.08" cy="142.47" r="2.5" fill="#58a6ff"/><circle cx="762.56" cy="141.52" r="2.5" fill="#58a6ff"/><circle cx="772.05" cy="139.75" r="2.5" fill="#58a6ff"/><circle cx="781.54" cy="136.95" r="2.5" fill="#58a6ff"/><circle cx="791.03" cy="133.36" r="2.5" fill="#58a6ff"/><circle cx="800.51" cy="130.63" r="2.5" fill="#58a6ff"/><circle cx="810.00" cy="128.57" r="4" fill="#F2C811"/>

  <!-- Last-value callout -->
  <rect x="720.0" y="100.6" width="82" height="24" rx="4" fill="#0d1a2a" stroke="#F2C811" stroke-width="1"/>
  <text x="761.0" y="116.6" font-family="'Segoe UI', Arial, sans-serif" font-size="12" fill="#F2C811" text-anchor="middle" font-weight="bold">18,741 total</text>

  <!-- X-axis labels -->
  <text x="70.0" y="298" font-family="'Segoe UI', Arial, sans-serif" font-size="10" fill="#8b949e" text-anchor="middle">Mar 26</text><text x="250.3" y="298" font-family="'Segoe UI', Arial, sans-serif" font-size="10" fill="#8b949e" text-anchor="middle">Apr 14</text><text x="440.0" y="298" font-family="'Segoe UI', Arial, sans-serif" font-size="10" fill="#8b949e" text-anchor="middle">May 04</text><text x="629.7" y="298" font-family="'Segoe UI', Arial, sans-serif" font-size="10" fill="#8b949e" text-anchor="middle">May 24</text><text x="810.0" y="298" font-family="'Segoe UI', Arial, sans-serif" font-size="10" fill="#8b949e" text-anchor="middle">Jun 13</text>

  <!-- Footer: date range -->
  <text x="70" y="328" font-family="'Segoe UI', Arial, sans-serif" font-size="10" fill="#8b949e">Mar 26, 2026 → Jun 13, 2026</text>
  <text x="810" y="328" font-family="'Segoe UI', Arial, sans-serif" font-size="10" fill="#8b949e" text-anchor="end">79 days of data</text>
</svg>
