<svg xmlns="http://www.w3.org/2000/svg" width="850" height="340" viewBox="0 0 850 340">
  <defs>
    <linearGradient id="areaFill" x1="0" y1="0" x2="0" y2="1">
      <stop offset="0%" stop-color="#58a6ff" stop-opacity="0.45"/>
      <stop offset="100%" stop-color="#58a6ff" stop-opacity="0"/>
    </linearGradient>
  </defs>

  <!-- Background -->
  <rect width="100%" height="100%" fill="#0d1117" rx="8"/>

  <!-- Title -->
  <text x="425" y="33" font-family="'Segoe UI', Arial, sans-serif" font-size="17" fill="#F2C811" text-anchor="middle" font-weight="bold">pbi-cli Downloads Over Time</text>
  <text x="425" y="52" font-family="'Segoe UI', Arial, sans-serif" font-size="11" fill="#8b949e" text-anchor="middle">Cumulative installs from PyPI • mirrors excluded • source: pypistats.org</text>

  <!-- Gridlines & y-labels -->
  <line x1="70" y1="280.0" x2="810" y2="280.0" stroke="#21262d" stroke-width="1" stroke-dasharray="2,3"/><line x1="70" y1="239.6" x2="810" y2="239.6" stroke="#21262d" stroke-width="1" stroke-dasharray="2,3"/><line x1="70" y1="199.2" x2="810" y2="199.2" stroke="#21262d" stroke-width="1" stroke-dasharray="2,3"/><line x1="70" y1="158.8" x2="810" y2="158.8" stroke="#21262d" stroke-width="1" stroke-dasharray="2,3"/><line x1="70" y1="118.4" x2="810" y2="118.4" stroke="#21262d" stroke-width="1" stroke-dasharray="2,3"/><line x1="70" y1="78.0" x2="810" y2="78.0" stroke="#21262d" stroke-width="1" stroke-dasharray="2,3"/>
  <text x="62" y="284.0" font-family="'Segoe UI', Arial, sans-serif" font-size="10" fill="#8b949e" text-anchor="end">0</text><text x="62" y="243.6" font-family="'Segoe UI', Arial, sans-serif" font-size="10" fill="#8b949e" text-anchor="end">4,000</text><text x="62" y="203.2" font-family="'Segoe UI', Arial, sans-serif" font-size="10" fill="#8b949e" text-anchor="end">8,000</text><text x="62" y="162.8" font-family="'Segoe UI', Arial, sans-serif" font-size="10" fill="#8b949e" text-anchor="end">12,000</text><text x="62" y="122.4" font-family="'Segoe UI', Arial, sans-serif" font-size="10" fill="#8b949e" text-anchor="end">16,000</text><text x="62" y="82.0" font-family="'Segoe UI', Arial, sans-serif" font-size="10" fill="#8b949e" text-anchor="end">20,000</text>

  <!-- Area fill -->
  <path d="M 70.00,280 L 70.00,273.87 L 81.04,271.19 L 92.09,270.87 L 103.13,270.81 L 114.18,270.48 L 125.22,270.30 L 136.27,269.98 L 147.31,269.20 L 158.36,267.59 L 169.40,266.69 L 180.45,263.76 L 191.49,261.71 L 202.54,255.63 L 213.58,253.16 L 224.63,251.69 L 235.67,250.24 L 246.72,249.86 L 257.76,248.97 L 268.81,247.57 L 279.85,245.29 L 290.90,244.47 L 301.94,243.28 L 312.99,242.09 L 324.03,241.70 L 335.07,241.26 L 346.12,239.76 L 357.16,238.82 L 368.21,237.50 L 379.25,236.55 L 390.30,235.98 L 401.34,235.32 L 412.39,234.44 L 423.43,233.44 L 434.48,232.20 L 445.52,230.94 L 456.57,229.76 L 467.61,228.65 L 478.66,228.26 L 489.70,226.69 L 500.75,224.48 L 511.79,221.87 L 522.84,218.60 L 533.88,212.01 L 544.93,207.58 L 555.97,205.22 L 567.01,203.23 L 578.06,197.76 L 589.10,193.11 L 600.15,188.82 L 611.19,183.98 L 622.24,180.13 L 633.28,177.87 L 644.33,174.63 L 655.37,171.33 L 666.42,165.60 L 677.46,161.04 L 688.51,155.52 L 699.55,151.79 L 710.60,149.26 L 721.64,147.26 L 732.69,145.32 L 743.73,141.28 L 754.78,136.98 L 765.82,133.01 L 776.87,130.07 L 787.91,128.62 L 798.96,126.89 L 810.00,123.53 L 810.00,280 Z" fill="url(#areaFill)"/>

  <!-- Line -->
  <path d="M 70.00,273.87 L 81.04,271.19 L 92.09,270.87 L 103.13,270.81 L 114.18,270.48 L 125.22,270.30 L 136.27,269.98 L 147.31,269.20 L 158.36,267.59 L 169.40,266.69 L 180.45,263.76 L 191.49,261.71 L 202.54,255.63 L 213.58,253.16 L 224.63,251.69 L 235.67,250.24 L 246.72,249.86 L 257.76,248.97 L 268.81,247.57 L 279.85,245.29 L 290.90,244.47 L 301.94,243.28 L 312.99,242.09 L 324.03,241.70 L 335.07,241.26 L 346.12,239.76 L 357.16,238.82 L 368.21,237.50 L 379.25,236.55 L 390.30,235.98 L 401.34,235.32 L 412.39,234.44 L 423.43,233.44 L 434.48,232.20 L 445.52,230.94 L 456.57,229.76 L 467.61,228.65 L 478.66,228.26 L 489.70,226.69 L 500.75,224.48 L 511.79,221.87 L 522.84,218.60 L 533.88,212.01 L 544.93,207.58 L 555.97,205.22 L 567.01,203.23 L 578.06,197.76 L 589.10,193.11 L 600.15,188.82 L 611.19,183.98 L 622.24,180.13 L 633.28,177.87 L 644.33,174.63 L 655.37,171.33 L 666.42,165.60 L 677.46,161.04 L 688.51,155.52 L 699.55,151.79 L 710.60,149.26 L 721.64,147.26 L 732.69,145.32 L 743.73,141.28 L 754.78,136.98 L 765.82,133.01 L 776.87,130.07 L 787.91,128.62 L 798.96,126.89 L 810.00,123.53" fill="none" stroke="#58a6ff" stroke-width="2.5" stroke-linejoin="round" stroke-linecap="round"/>

  <!-- Data points -->
  <circle cx="70.00" cy="273.87" r="2.5" fill="#58a6ff"/><circle cx="81.04" cy="271.19" r="2.5" fill="#58a6ff"/><circle cx="92.09" cy="270.87" r="2.5" fill="#58a6ff"/><circle cx="103.13" cy="270.81" r="2.5" fill="#58a6ff"/><circle cx="114.18" cy="270.48" r="2.5" fill="#58a6ff"/><circle cx="125.22" cy="270.30" r="2.5" fill="#58a6ff"/><circle cx="136.27" cy="269.98" r="2.5" fill="#58a6ff"/><circle cx="147.31" cy="269.20" r="2.5" fill="#58a6ff"/><circle cx="158.36" cy="267.59" r="2.5" fill="#58a6ff"/><circle cx="169.40" cy="266.69" r="2.5" fill="#58a6ff"/><circle cx="180.45" cy="263.76" r="2.5" fill="#58a6ff"/><circle cx="191.49" cy="261.71" r="2.5" fill="#58a6ff"/><circle cx="202.54" cy="255.63" r="2.5" fill="#58a6ff"/><circle cx="213.58" cy="253.16" r="2.5" fill="#58a6ff"/><circle cx="224.63" cy="251.69" r="2.5" fill="#58a6ff"/><circle cx="235.67" cy="250.24" r="2.5" fill="#58a6ff"/><circle cx="246.72" cy="249.86" r="2.5" fill="#58a6ff"/><circle cx="257.76" cy="248.97" r="2.5" fill="#58a6ff"/><circle cx="268.81" cy="247.57" r="2.5" fill="#58a6ff"/><circle cx="279.85" cy="245.29" r="2.5" fill="#58a6ff"/><circle cx="290.90" cy="244.47" r="2.5" fill="#58a6ff"/><circle cx="301.94" cy="243.28" r="2.5" fill="#58a6ff"/><circle cx="312.99" cy="242.09" r="2.5" fill="#58a6ff"/><circle cx="324.03" cy="241.70" r="2.5" fill="#58a6ff"/><circle cx="335.07" cy="241.26" r="2.5" fill="#58a6ff"/><circle cx="346.12" cy="239.76" r="2.5" fill="#58a6ff"/><circle cx="357.16" cy="238.82" r="2.5" fill="#58a6ff"/><circle cx="368.21" cy="237.50" r="2.5" fill="#58a6ff"/><circle cx="379.25" cy="236.55" r="2.5" fill="#58a6ff"/><circle cx="390.30" cy="235.98" r="2.5" fill="#58a6ff"/><circle cx="401.34" cy="235.32" r="2.5" fill="#58a6ff"/><circle cx="412.39" cy="234.44" r="2.5" fill="#58a6ff"/><circle cx="423.43" cy="233.44" r="2.5" fill="#58a6ff"/><circle cx="434.48" cy="232.20" r="2.5" fill="#58a6ff"/><circle cx="445.52" cy="230.94" r="2.5" fill="#58a6ff"/><circle cx="456.57" cy="229.76" r="2.5" fill="#58a6ff"/><circle cx="467.61" cy="228.65" r="2.5" fill="#58a6ff"/><circle cx="478.66" cy="228.26" r="2.5" fill="#58a6ff"/><circle cx="489.70" cy="226.69" r="2.5" fill="#58a6ff"/><circle cx="500.75" cy="224.48" r="2.5" fill="#58a6ff"/><circle cx="511.79" cy="221.87" r="2.5" fill="#58a6ff"/><circle cx="522.84" cy="218.60" r="2.5" fill="#58a6ff"/><circle cx="533.88" cy="212.01" r="2.5" fill="#58a6ff"/><circle cx="544.93" cy="207.58" r="2.5" fill="#58a6ff"/><circle cx="555.97" cy="205.22" r="2.5" fill="#58a6ff"/><circle cx="567.01" cy="203.23" r="2.5" fill="#58a6ff"/><circle cx="578.06" cy="197.76" r="2.5" fill="#58a6ff"/><circle cx="589.10" cy="193.11" r="2.5" fill="#58a6ff"/><circle cx="600.15" cy="188.82" r="2.5" fill="#58a6ff"/><circle cx="611.19" cy="183.98" r="2.5" fill="#58a6ff"/><circle cx="622.24" cy="180.13" r="2.5" fill="#58a6ff"/><circle cx="633.28" cy="177.87" r="2.5" fill="#58a6ff"/><circle cx="644.33" cy="174.63" r="2.5" fill="#58a6ff"/><circle cx="655.37" cy="171.33" r="2.5" fill="#58a6ff"/><circle cx="666.42" cy="165.60" r="2.5" fill="#58a6ff"/><circle cx="677.46" cy="161.04" r="2.5" fill="#58a6ff"/><circle cx="688.51" cy="155.52" r="2.5" fill="#58a6ff"/><circle cx="699.55" cy="151.79" r="2.5" fill="#58a6ff"/><circle cx="710.60" cy="149.26" r="2.5" fill="#58a6ff"/><circle cx="721.64" cy="147.26" r="2.5" fill="#58a6ff"/><circle cx="732.69" cy="145.32" r="2.5" fill="#58a6ff"/><circle cx="743.73" cy="141.28" r="2.5" fill="#58a6ff"/><circle cx="754.78" cy="136.98" r="2.5" fill="#58a6ff"/><circle cx="765.82" cy="133.01" r="2.5" fill="#58a6ff"/><circle cx="776.87" cy="130.07" r="2.5" fill="#58a6ff"/><circle cx="787.91" cy="128.62" r="2.5" fill="#58a6ff"/><circle cx="798.96" cy="126.89" r="2.5" fill="#58a6ff"/><circle cx="810.00" cy="123.53" r="4" fill="#F2C811"/>

  <!-- Last-value callout -->
  <rect x="720.0" y="95.5" width="82" height="24" rx="4" fill="#0d1a2a" stroke="#F2C811" stroke-width="1"/>
  <text x="761.0" y="111.5" font-family="'Segoe UI', Arial, sans-serif" font-size="12" fill="#F2C811" text-anchor="middle" font-weight="bold">15,492 total</text>

  <!-- X-axis labels -->
  <text x="70.0" y="298" font-family="'Segoe UI', Arial, sans-serif" font-size="10" fill="#8b949e" text-anchor="middle">Mar 26</text><text x="257.8" y="298" font-family="'Segoe UI', Arial, sans-serif" font-size="10" fill="#8b949e" text-anchor="middle">Apr 12</text><text x="445.5" y="298" font-family="'Segoe UI', Arial, sans-serif" font-size="10" fill="#8b949e" text-anchor="middle">Apr 29</text><text x="633.3" y="298" font-family="'Segoe UI', Arial, sans-serif" font-size="10" fill="#8b949e" text-anchor="middle">May 16</text><text x="810.0" y="298" font-family="'Segoe UI', Arial, sans-serif" font-size="10" fill="#8b949e" text-anchor="middle">Jun 01</text>

  <!-- Footer: date range -->
  <text x="70" y="328" font-family="'Segoe UI', Arial, sans-serif" font-size="10" fill="#8b949e">Mar 26, 2026 → Jun 01, 2026</text>
  <text x="810" y="328" font-family="'Segoe UI', Arial, sans-serif" font-size="10" fill="#8b949e" text-anchor="end">68 days of data</text>
</svg>
