<svg xmlns="http://www.w3.org/2000/svg" width="850" height="340" viewBox="0 0 850 340">
  <defs>
    <linearGradient id="areaFill" x1="0" y1="0" x2="0" y2="1">
      <stop offset="0%" stop-color="#58a6ff" stop-opacity="0.45"/>
      <stop offset="100%" stop-color="#58a6ff" stop-opacity="0"/>
    </linearGradient>
  </defs>

  <!-- Background -->
  <rect width="100%" height="100%" fill="#0d1117" rx="8"/>

  <!-- Title -->
  <text x="425" y="33" font-family="'Segoe UI', Arial, sans-serif" font-size="17" fill="#F2C811" text-anchor="middle" font-weight="bold">pbi-cli Downloads Over Time</text>
  <text x="425" y="52" font-family="'Segoe UI', Arial, sans-serif" font-size="11" fill="#8b949e" text-anchor="middle">Cumulative installs from PyPI • mirrors excluded • source: pypistats.org</text>

  <!-- Gridlines & y-labels -->
  <line x1="70" y1="280.0" x2="810" y2="280.0" stroke="#21262d" stroke-width="1" stroke-dasharray="2,3"/><line x1="70" y1="239.6" x2="810" y2="239.6" stroke="#21262d" stroke-width="1" stroke-dasharray="2,3"/><line x1="70" y1="199.2" x2="810" y2="199.2" stroke="#21262d" stroke-width="1" stroke-dasharray="2,3"/><line x1="70" y1="158.8" x2="810" y2="158.8" stroke="#21262d" stroke-width="1" stroke-dasharray="2,3"/><line x1="70" y1="118.4" x2="810" y2="118.4" stroke="#21262d" stroke-width="1" stroke-dasharray="2,3"/><line x1="70" y1="78.0" x2="810" y2="78.0" stroke="#21262d" stroke-width="1" stroke-dasharray="2,3"/>
  <text x="62" y="284.0" font-family="'Segoe UI', Arial, sans-serif" font-size="10" fill="#8b949e" text-anchor="end">0</text><text x="62" y="243.6" font-family="'Segoe UI', Arial, sans-serif" font-size="10" fill="#8b949e" text-anchor="end">2,000</text><text x="62" y="203.2" font-family="'Segoe UI', Arial, sans-serif" font-size="10" fill="#8b949e" text-anchor="end">4,000</text><text x="62" y="162.8" font-family="'Segoe UI', Arial, sans-serif" font-size="10" fill="#8b949e" text-anchor="end">6,000</text><text x="62" y="122.4" font-family="'Segoe UI', Arial, sans-serif" font-size="10" fill="#8b949e" text-anchor="end">8,000</text><text x="62" y="82.0" font-family="'Segoe UI', Arial, sans-serif" font-size="10" fill="#8b949e" text-anchor="end">10,000</text>

  <!-- Area fill -->
  <path d="M 70.00,280 L 70.00,267.74 L 91.76,262.39 L 113.53,261.74 L 135.29,261.62 L 157.06,260.95 L 178.82,260.61 L 200.59,259.96 L 222.35,258.41 L 244.12,255.17 L 265.88,253.38 L 287.65,247.52 L 309.41,243.42 L 331.18,231.26 L 352.94,226.33 L 374.71,223.38 L 396.47,220.47 L 418.24,219.72 L 440.00,217.95 L 461.76,215.14 L 483.53,210.57 L 505.29,208.94 L 527.06,206.55 L 548.82,204.19 L 570.59,203.40 L 592.35,202.51 L 614.12,199.52 L 635.88,197.64 L 657.65,195.00 L 679.41,193.10 L 701.18,191.97 L 722.94,190.64 L 744.71,188.88 L 766.47,186.88 L 788.24,184.39 L 810.00,181.89 L 810.00,280 Z" fill="url(#areaFill)"/>

  <!-- Line -->
  <path d="M 70.00,267.74 L 91.76,262.39 L 113.53,261.74 L 135.29,261.62 L 157.06,260.95 L 178.82,260.61 L 200.59,259.96 L 222.35,258.41 L 244.12,255.17 L 265.88,253.38 L 287.65,247.52 L 309.41,243.42 L 331.18,231.26 L 352.94,226.33 L 374.71,223.38 L 396.47,220.47 L 418.24,219.72 L 440.00,217.95 L 461.76,215.14 L 483.53,210.57 L 505.29,208.94 L 527.06,206.55 L 548.82,204.19 L 570.59,203.40 L 592.35,202.51 L 614.12,199.52 L 635.88,197.64 L 657.65,195.00 L 679.41,193.10 L 701.18,191.97 L 722.94,190.64 L 744.71,188.88 L 766.47,186.88 L 788.24,184.39 L 810.00,181.89" fill="none" stroke="#58a6ff" stroke-width="2.5" stroke-linejoin="round" stroke-linecap="round"/>

  <!-- Data points -->
  <circle cx="70.00" cy="267.74" r="2.5" fill="#58a6ff"/><circle cx="91.76" cy="262.39" r="2.5" fill="#58a6ff"/><circle cx="113.53" cy="261.74" r="2.5" fill="#58a6ff"/><circle cx="135.29" cy="261.62" r="2.5" fill="#58a6ff"/><circle cx="157.06" cy="260.95" r="2.5" fill="#58a6ff"/><circle cx="178.82" cy="260.61" r="2.5" fill="#58a6ff"/><circle cx="200.59" cy="259.96" r="2.5" fill="#58a6ff"/><circle cx="222.35" cy="258.41" r="2.5" fill="#58a6ff"/><circle cx="244.12" cy="255.17" r="2.5" fill="#58a6ff"/><circle cx="265.88" cy="253.38" r="2.5" fill="#58a6ff"/><circle cx="287.65" cy="247.52" r="2.5" fill="#58a6ff"/><circle cx="309.41" cy="243.42" r="2.5" fill="#58a6ff"/><circle cx="331.18" cy="231.26" r="2.5" fill="#58a6ff"/><circle cx="352.94" cy="226.33" r="2.5" fill="#58a6ff"/><circle cx="374.71" cy="223.38" r="2.5" fill="#58a6ff"/><circle cx="396.47" cy="220.47" r="2.5" fill="#58a6ff"/><circle cx="418.24" cy="219.72" r="2.5" fill="#58a6ff"/><circle cx="440.00" cy="217.95" r="2.5" fill="#58a6ff"/><circle cx="461.76" cy="215.14" r="2.5" fill="#58a6ff"/><circle cx="483.53" cy="210.57" r="2.5" fill="#58a6ff"/><circle cx="505.29" cy="208.94" r="2.5" fill="#58a6ff"/><circle cx="527.06" cy="206.55" r="2.5" fill="#58a6ff"/><circle cx="548.82" cy="204.19" r="2.5" fill="#58a6ff"/><circle cx="570.59" cy="203.40" r="2.5" fill="#58a6ff"/><circle cx="592.35" cy="202.51" r="2.5" fill="#58a6ff"/><circle cx="614.12" cy="199.52" r="2.5" fill="#58a6ff"/><circle cx="635.88" cy="197.64" r="2.5" fill="#58a6ff"/><circle cx="657.65" cy="195.00" r="2.5" fill="#58a6ff"/><circle cx="679.41" cy="193.10" r="2.5" fill="#58a6ff"/><circle cx="701.18" cy="191.97" r="2.5" fill="#58a6ff"/><circle cx="722.94" cy="190.64" r="2.5" fill="#58a6ff"/><circle cx="744.71" cy="188.88" r="2.5" fill="#58a6ff"/><circle cx="766.47" cy="186.88" r="2.5" fill="#58a6ff"/><circle cx="788.24" cy="184.39" r="2.5" fill="#58a6ff"/><circle cx="810.00" cy="181.89" r="4" fill="#F2C811"/>

  <!-- Last-value callout -->
  <rect x="720.0" y="153.9" width="82" height="24" rx="4" fill="#0d1a2a" stroke="#F2C811" stroke-width="1"/>
  <text x="761.0" y="169.9" font-family="'Segoe UI', Arial, sans-serif" font-size="12" fill="#F2C811" text-anchor="middle" font-weight="bold">4,857 total</text>

  <!-- X-axis labels -->
  <text x="70.0" y="298" font-family="'Segoe UI', Arial, sans-serif" font-size="10" fill="#8b949e" text-anchor="middle">Mar 26</text><text x="244.1" y="298" font-family="'Segoe UI', Arial, sans-serif" font-size="10" fill="#8b949e" text-anchor="middle">Apr 03</text><text x="440.0" y="298" font-family="'Segoe UI', Arial, sans-serif" font-size="10" fill="#8b949e" text-anchor="middle">Apr 12</text><text x="635.9" y="298" font-family="'Segoe UI', Arial, sans-serif" font-size="10" fill="#8b949e" text-anchor="middle">Apr 21</text><text x="810.0" y="298" font-family="'Segoe UI', Arial, sans-serif" font-size="10" fill="#8b949e" text-anchor="middle">Apr 29</text>

  <!-- Footer: date range -->
  <text x="70" y="328" font-family="'Segoe UI', Arial, sans-serif" font-size="10" fill="#8b949e">Mar 26, 2026 → Apr 29, 2026</text>
  <text x="810" y="328" font-family="'Segoe UI', Arial, sans-serif" font-size="10" fill="#8b949e" text-anchor="end">35 days of data</text>
</svg>
