<svg xmlns="http://www.w3.org/2000/svg" width="850" height="340" viewBox="0 0 850 340">
  <defs>
    <linearGradient id="areaFill" x1="0" y1="0" x2="0" y2="1">
      <stop offset="0%" stop-color="#58a6ff" stop-opacity="0.45"/>
      <stop offset="100%" stop-color="#58a6ff" stop-opacity="0"/>
    </linearGradient>
  </defs>

  <!-- Background -->
  <rect width="100%" height="100%" fill="#0d1117" rx="8"/>

  <!-- Title -->
  <text x="425" y="33" font-family="'Segoe UI', Arial, sans-serif" font-size="17" fill="#F2C811" text-anchor="middle" font-weight="bold">pbi-cli Downloads Over Time</text>
  <text x="425" y="52" font-family="'Segoe UI', Arial, sans-serif" font-size="11" fill="#8b949e" text-anchor="middle">Cumulative installs from PyPI • mirrors excluded • source: pypistats.org</text>

  <!-- Gridlines & y-labels -->
  <line x1="70" y1="280.0" x2="810" y2="280.0" stroke="#21262d" stroke-width="1" stroke-dasharray="2,3"/><line x1="70" y1="239.6" x2="810" y2="239.6" stroke="#21262d" stroke-width="1" stroke-dasharray="2,3"/><line x1="70" y1="199.2" x2="810" y2="199.2" stroke="#21262d" stroke-width="1" stroke-dasharray="2,3"/><line x1="70" y1="158.8" x2="810" y2="158.8" stroke="#21262d" stroke-width="1" stroke-dasharray="2,3"/><line x1="70" y1="118.4" x2="810" y2="118.4" stroke="#21262d" stroke-width="1" stroke-dasharray="2,3"/><line x1="70" y1="78.0" x2="810" y2="78.0" stroke="#21262d" stroke-width="1" stroke-dasharray="2,3"/>
  <text x="62" y="284.0" font-family="'Segoe UI', Arial, sans-serif" font-size="10" fill="#8b949e" text-anchor="end">0</text><text x="62" y="243.6" font-family="'Segoe UI', Arial, sans-serif" font-size="10" fill="#8b949e" text-anchor="end">5,000</text><text x="62" y="203.2" font-family="'Segoe UI', Arial, sans-serif" font-size="10" fill="#8b949e" text-anchor="end">10,000</text><text x="62" y="162.8" font-family="'Segoe UI', Arial, sans-serif" font-size="10" fill="#8b949e" text-anchor="end">15,000</text><text x="62" y="122.4" font-family="'Segoe UI', Arial, sans-serif" font-size="10" fill="#8b949e" text-anchor="end">20,000</text><text x="62" y="82.0" font-family="'Segoe UI', Arial, sans-serif" font-size="10" fill="#8b949e" text-anchor="end">25,000</text>

  <!-- Area fill -->
  <path d="M 70.00,280 L 70.00,275.10 L 79.25,272.95 L 88.50,272.70 L 97.75,272.65 L 107.00,272.38 L 116.25,272.24 L 125.50,271.98 L 134.75,271.36 L 144.00,270.07 L 153.25,269.35 L 162.50,267.01 L 171.75,265.37 L 181.00,260.50 L 190.25,258.53 L 199.50,257.35 L 208.75,256.19 L 218.00,255.89 L 227.25,255.18 L 236.50,254.06 L 245.75,252.23 L 255.00,251.57 L 264.25,250.62 L 273.50,249.68 L 282.75,249.36 L 292.00,249.01 L 301.25,247.81 L 310.50,247.06 L 319.75,246.00 L 329.00,245.24 L 338.25,244.79 L 347.50,244.25 L 356.75,243.55 L 366.00,242.75 L 375.25,241.76 L 384.50,240.76 L 393.75,239.81 L 403.00,238.92 L 412.25,238.61 L 421.50,237.35 L 430.75,235.58 L 440.00,233.50 L 449.25,230.88 L 458.50,225.61 L 467.75,222.07 L 477.00,220.18 L 486.25,218.58 L 495.50,214.20 L 504.75,210.49 L 514.00,207.05 L 523.25,203.18 L 532.50,200.10 L 541.75,198.30 L 551.00,195.70 L 560.25,193.07 L 569.50,188.48 L 578.75,184.83 L 588.00,180.41 L 597.25,177.43 L 606.50,175.40 L 615.75,173.80 L 625.00,172.25 L 634.25,169.02 L 643.50,165.59 L 652.75,162.41 L 662.00,160.05 L 671.25,158.90 L 680.50,157.52 L 689.75,154.82 L 699.00,152.63 L 708.25,149.75 L 717.50,147.30 L 726.75,144.85 L 736.00,142.47 L 745.25,141.52 L 754.50,139.75 L 763.75,136.95 L 773.00,133.36 L 782.25,130.63 L 791.50,128.57 L 800.75,126.58 L 810.00,123.78 L 810.00,280 Z" fill="url(#areaFill)"/>

  <!-- Line -->
  <path d="M 70.00,275.10 L 79.25,272.95 L 88.50,272.70 L 97.75,272.65 L 107.00,272.38 L 116.25,272.24 L 125.50,271.98 L 134.75,271.36 L 144.00,270.07 L 153.25,269.35 L 162.50,267.01 L 171.75,265.37 L 181.00,260.50 L 190.25,258.53 L 199.50,257.35 L 208.75,256.19 L 218.00,255.89 L 227.25,255.18 L 236.50,254.06 L 245.75,252.23 L 255.00,251.57 L 264.25,250.62 L 273.50,249.68 L 282.75,249.36 L 292.00,249.01 L 301.25,247.81 L 310.50,247.06 L 319.75,246.00 L 329.00,245.24 L 338.25,244.79 L 347.50,244.25 L 356.75,243.55 L 366.00,242.75 L 375.25,241.76 L 384.50,240.76 L 393.75,239.81 L 403.00,238.92 L 412.25,238.61 L 421.50,237.35 L 430.75,235.58 L 440.00,233.50 L 449.25,230.88 L 458.50,225.61 L 467.75,222.07 L 477.00,220.18 L 486.25,218.58 L 495.50,214.20 L 504.75,210.49 L 514.00,207.05 L 523.25,203.18 L 532.50,200.10 L 541.75,198.30 L 551.00,195.70 L 560.25,193.07 L 569.50,188.48 L 578.75,184.83 L 588.00,180.41 L 597.25,177.43 L 606.50,175.40 L 615.75,173.80 L 625.00,172.25 L 634.25,169.02 L 643.50,165.59 L 652.75,162.41 L 662.00,160.05 L 671.25,158.90 L 680.50,157.52 L 689.75,154.82 L 699.00,152.63 L 708.25,149.75 L 717.50,147.30 L 726.75,144.85 L 736.00,142.47 L 745.25,141.52 L 754.50,139.75 L 763.75,136.95 L 773.00,133.36 L 782.25,130.63 L 791.50,128.57 L 800.75,126.58 L 810.00,123.78" fill="none" stroke="#58a6ff" stroke-width="2.5" stroke-linejoin="round" stroke-linecap="round"/>

  <!-- Data points -->
  <circle cx="70.00" cy="275.10" r="2.5" fill="#58a6ff"/><circle cx="79.25" cy="272.95" r="2.5" fill="#58a6ff"/><circle cx="88.50" cy="272.70" r="2.5" fill="#58a6ff"/><circle cx="97.75" cy="272.65" r="2.5" fill="#58a6ff"/><circle cx="107.00" cy="272.38" r="2.5" fill="#58a6ff"/><circle cx="116.25" cy="272.24" r="2.5" fill="#58a6ff"/><circle cx="125.50" cy="271.98" r="2.5" fill="#58a6ff"/><circle cx="134.75" cy="271.36" r="2.5" fill="#58a6ff"/><circle cx="144.00" cy="270.07" r="2.5" fill="#58a6ff"/><circle cx="153.25" cy="269.35" r="2.5" fill="#58a6ff"/><circle cx="162.50" cy="267.01" r="2.5" fill="#58a6ff"/><circle cx="171.75" cy="265.37" r="2.5" fill="#58a6ff"/><circle cx="181.00" cy="260.50" r="2.5" fill="#58a6ff"/><circle cx="190.25" cy="258.53" r="2.5" fill="#58a6ff"/><circle cx="199.50" cy="257.35" r="2.5" fill="#58a6ff"/><circle cx="208.75" cy="256.19" r="2.5" fill="#58a6ff"/><circle cx="218.00" cy="255.89" r="2.5" fill="#58a6ff"/><circle cx="227.25" cy="255.18" r="2.5" fill="#58a6ff"/><circle cx="236.50" cy="254.06" r="2.5" fill="#58a6ff"/><circle cx="245.75" cy="252.23" r="2.5" fill="#58a6ff"/><circle cx="255.00" cy="251.57" r="2.5" fill="#58a6ff"/><circle cx="264.25" cy="250.62" r="2.5" fill="#58a6ff"/><circle cx="273.50" cy="249.68" r="2.5" fill="#58a6ff"/><circle cx="282.75" cy="249.36" r="2.5" fill="#58a6ff"/><circle cx="292.00" cy="249.01" r="2.5" fill="#58a6ff"/><circle cx="301.25" cy="247.81" r="2.5" fill="#58a6ff"/><circle cx="310.50" cy="247.06" r="2.5" fill="#58a6ff"/><circle cx="319.75" cy="246.00" r="2.5" fill="#58a6ff"/><circle cx="329.00" cy="245.24" r="2.5" fill="#58a6ff"/><circle cx="338.25" cy="244.79" r="2.5" fill="#58a6ff"/><circle cx="347.50" cy="244.25" r="2.5" fill="#58a6ff"/><circle cx="356.75" cy="243.55" r="2.5" fill="#58a6ff"/><circle cx="366.00" cy="242.75" r="2.5" fill="#58a6ff"/><circle cx="375.25" cy="241.76" r="2.5" fill="#58a6ff"/><circle cx="384.50" cy="240.76" r="2.5" fill="#58a6ff"/><circle cx="393.75" cy="239.81" r="2.5" fill="#58a6ff"/><circle cx="403.00" cy="238.92" r="2.5" fill="#58a6ff"/><circle cx="412.25" cy="238.61" r="2.5" fill="#58a6ff"/><circle cx="421.50" cy="237.35" r="2.5" fill="#58a6ff"/><circle cx="430.75" cy="235.58" r="2.5" fill="#58a6ff"/><circle cx="440.00" cy="233.50" r="2.5" fill="#58a6ff"/><circle cx="449.25" cy="230.88" r="2.5" fill="#58a6ff"/><circle cx="458.50" cy="225.61" r="2.5" fill="#58a6ff"/><circle cx="467.75" cy="222.07" r="2.5" fill="#58a6ff"/><circle cx="477.00" cy="220.18" r="2.5" fill="#58a6ff"/><circle cx="486.25" cy="218.58" r="2.5" fill="#58a6ff"/><circle cx="495.50" cy="214.20" r="2.5" fill="#58a6ff"/><circle cx="504.75" cy="210.49" r="2.5" fill="#58a6ff"/><circle cx="514.00" cy="207.05" r="2.5" fill="#58a6ff"/><circle cx="523.25" cy="203.18" r="2.5" fill="#58a6ff"/><circle cx="532.50" cy="200.10" r="2.5" fill="#58a6ff"/><circle cx="541.75" cy="198.30" r="2.5" fill="#58a6ff"/><circle cx="551.00" cy="195.70" r="2.5" fill="#58a6ff"/><circle cx="560.25" cy="193.07" r="2.5" fill="#58a6ff"/><circle cx="569.50" cy="188.48" r="2.5" fill="#58a6ff"/><circle cx="578.75" cy="184.83" r="2.5" fill="#58a6ff"/><circle cx="588.00" cy="180.41" r="2.5" fill="#58a6ff"/><circle cx="597.25" cy="177.43" r="2.5" fill="#58a6ff"/><circle cx="606.50" cy="175.40" r="2.5" fill="#58a6ff"/><circle cx="615.75" cy="173.80" r="2.5" fill="#58a6ff"/><circle cx="625.00" cy="172.25" r="2.5" fill="#58a6ff"/><circle cx="634.25" cy="169.02" r="2.5" fill="#58a6ff"/><circle cx="643.50" cy="165.59" r="2.5" fill="#58a6ff"/><circle cx="652.75" cy="162.41" r="2.5" fill="#58a6ff"/><circle cx="662.00" cy="160.05" r="2.5" fill="#58a6ff"/><circle cx="671.25" cy="158.90" r="2.5" fill="#58a6ff"/><circle cx="680.50" cy="157.52" r="2.5" fill="#58a6ff"/><circle cx="689.75" cy="154.82" r="2.5" fill="#58a6ff"/><circle cx="699.00" cy="152.63" r="2.5" fill="#58a6ff"/><circle cx="708.25" cy="149.75" r="2.5" fill="#58a6ff"/><circle cx="717.50" cy="147.30" r="2.5" fill="#58a6ff"/><circle cx="726.75" cy="144.85" r="2.5" fill="#58a6ff"/><circle cx="736.00" cy="142.47" r="2.5" fill="#58a6ff"/><circle cx="745.25" cy="141.52" r="2.5" fill="#58a6ff"/><circle cx="754.50" cy="139.75" r="2.5" fill="#58a6ff"/><circle cx="763.75" cy="136.95" r="2.5" fill="#58a6ff"/><circle cx="773.00" cy="133.36" r="2.5" fill="#58a6ff"/><circle cx="782.25" cy="130.63" r="2.5" fill="#58a6ff"/><circle cx="791.50" cy="128.57" r="2.5" fill="#58a6ff"/><circle cx="800.75" cy="126.58" r="2.5" fill="#58a6ff"/><circle cx="810.00" cy="123.78" r="4" fill="#F2C811"/>

  <!-- Last-value callout -->
  <rect x="720.0" y="95.8" width="82" height="24" rx="4" fill="#0d1a2a" stroke="#F2C811" stroke-width="1"/>
  <text x="761.0" y="111.8" font-family="'Segoe UI', Arial, sans-serif" font-size="12" fill="#F2C811" text-anchor="middle" font-weight="bold">19,334 total</text>

  <!-- X-axis labels -->
  <text x="70.0" y="298" font-family="'Segoe UI', Arial, sans-serif" font-size="10" fill="#8b949e" text-anchor="middle">Mar 26</text><text x="255.0" y="298" font-family="'Segoe UI', Arial, sans-serif" font-size="10" fill="#8b949e" text-anchor="middle">Apr 15</text><text x="440.0" y="298" font-family="'Segoe UI', Arial, sans-serif" font-size="10" fill="#8b949e" text-anchor="middle">May 05</text><text x="625.0" y="298" font-family="'Segoe UI', Arial, sans-serif" font-size="10" fill="#8b949e" text-anchor="middle">May 25</text><text x="810.0" y="298" font-family="'Segoe UI', Arial, sans-serif" font-size="10" fill="#8b949e" text-anchor="middle">Jun 15</text>

  <!-- Footer: date range -->
  <text x="70" y="328" font-family="'Segoe UI', Arial, sans-serif" font-size="10" fill="#8b949e">Mar 26, 2026 → Jun 15, 2026</text>
  <text x="810" y="328" font-family="'Segoe UI', Arial, sans-serif" font-size="10" fill="#8b949e" text-anchor="end">81 days of data</text>
</svg>
