<svg xmlns="http://www.w3.org/2000/svg" width="850" height="340" viewBox="0 0 850 340">
  <defs>
    <linearGradient id="areaFill" x1="0" y1="0" x2="0" y2="1">
      <stop offset="0%" stop-color="#58a6ff" stop-opacity="0.45"/>
      <stop offset="100%" stop-color="#58a6ff" stop-opacity="0"/>
    </linearGradient>
  </defs>

  <!-- Background -->
  <rect width="100%" height="100%" fill="#0d1117" rx="8"/>

  <!-- Title -->
  <text x="425" y="33" font-family="'Segoe UI', Arial, sans-serif" font-size="17" fill="#F2C811" text-anchor="middle" font-weight="bold">pbi-cli Downloads Over Time</text>
  <text x="425" y="52" font-family="'Segoe UI', Arial, sans-serif" font-size="11" fill="#8b949e" text-anchor="middle">Cumulative installs from PyPI • mirrors excluded • source: pypistats.org</text>

  <!-- Gridlines & y-labels -->
  <line x1="70" y1="280.0" x2="810" y2="280.0" stroke="#21262d" stroke-width="1" stroke-dasharray="2,3"/><line x1="70" y1="239.6" x2="810" y2="239.6" stroke="#21262d" stroke-width="1" stroke-dasharray="2,3"/><line x1="70" y1="199.2" x2="810" y2="199.2" stroke="#21262d" stroke-width="1" stroke-dasharray="2,3"/><line x1="70" y1="158.8" x2="810" y2="158.8" stroke="#21262d" stroke-width="1" stroke-dasharray="2,3"/><line x1="70" y1="118.4" x2="810" y2="118.4" stroke="#21262d" stroke-width="1" stroke-dasharray="2,3"/><line x1="70" y1="78.0" x2="810" y2="78.0" stroke="#21262d" stroke-width="1" stroke-dasharray="2,3"/>
  <text x="62" y="284.0" font-family="'Segoe UI', Arial, sans-serif" font-size="10" fill="#8b949e" text-anchor="end">0</text><text x="62" y="243.6" font-family="'Segoe UI', Arial, sans-serif" font-size="10" fill="#8b949e" text-anchor="end">4,000</text><text x="62" y="203.2" font-family="'Segoe UI', Arial, sans-serif" font-size="10" fill="#8b949e" text-anchor="end">8,000</text><text x="62" y="162.8" font-family="'Segoe UI', Arial, sans-serif" font-size="10" fill="#8b949e" text-anchor="end">12,000</text><text x="62" y="122.4" font-family="'Segoe UI', Arial, sans-serif" font-size="10" fill="#8b949e" text-anchor="end">16,000</text><text x="62" y="82.0" font-family="'Segoe UI', Arial, sans-serif" font-size="10" fill="#8b949e" text-anchor="end">20,000</text>

  <!-- Area fill -->
  <path d="M 70.00,280 L 70.00,273.87 L 84.51,271.19 L 99.02,270.87 L 113.53,270.81 L 128.04,270.48 L 142.55,270.30 L 157.06,269.98 L 171.57,269.20 L 186.08,267.59 L 200.59,266.69 L 215.10,263.76 L 229.61,261.71 L 244.12,255.63 L 258.63,253.16 L 273.14,251.69 L 287.65,250.24 L 302.16,249.86 L 316.67,248.97 L 331.18,247.57 L 345.69,245.29 L 360.20,244.47 L 374.71,243.28 L 389.22,242.09 L 403.73,241.70 L 418.24,241.26 L 432.75,239.76 L 447.25,238.82 L 461.76,237.50 L 476.27,236.55 L 490.78,235.98 L 505.29,235.32 L 519.80,234.44 L 534.31,233.44 L 548.82,232.20 L 563.33,230.94 L 577.84,229.76 L 592.35,228.65 L 606.86,228.26 L 621.37,226.69 L 635.88,224.48 L 650.39,221.87 L 664.90,218.60 L 679.41,212.01 L 693.92,207.58 L 708.43,205.22 L 722.94,203.23 L 737.45,197.76 L 751.96,193.11 L 766.47,188.82 L 780.98,183.98 L 795.49,180.13 L 810.00,177.87 L 810.00,280 Z" fill="url(#areaFill)"/>

  <!-- Line -->
  <path d="M 70.00,273.87 L 84.51,271.19 L 99.02,270.87 L 113.53,270.81 L 128.04,270.48 L 142.55,270.30 L 157.06,269.98 L 171.57,269.20 L 186.08,267.59 L 200.59,266.69 L 215.10,263.76 L 229.61,261.71 L 244.12,255.63 L 258.63,253.16 L 273.14,251.69 L 287.65,250.24 L 302.16,249.86 L 316.67,248.97 L 331.18,247.57 L 345.69,245.29 L 360.20,244.47 L 374.71,243.28 L 389.22,242.09 L 403.73,241.70 L 418.24,241.26 L 432.75,239.76 L 447.25,238.82 L 461.76,237.50 L 476.27,236.55 L 490.78,235.98 L 505.29,235.32 L 519.80,234.44 L 534.31,233.44 L 548.82,232.20 L 563.33,230.94 L 577.84,229.76 L 592.35,228.65 L 606.86,228.26 L 621.37,226.69 L 635.88,224.48 L 650.39,221.87 L 664.90,218.60 L 679.41,212.01 L 693.92,207.58 L 708.43,205.22 L 722.94,203.23 L 737.45,197.76 L 751.96,193.11 L 766.47,188.82 L 780.98,183.98 L 795.49,180.13 L 810.00,177.87" fill="none" stroke="#58a6ff" stroke-width="2.5" stroke-linejoin="round" stroke-linecap="round"/>

  <!-- Data points -->
  <circle cx="70.00" cy="273.87" r="2.5" fill="#58a6ff"/><circle cx="84.51" cy="271.19" r="2.5" fill="#58a6ff"/><circle cx="99.02" cy="270.87" r="2.5" fill="#58a6ff"/><circle cx="113.53" cy="270.81" r="2.5" fill="#58a6ff"/><circle cx="128.04" cy="270.48" r="2.5" fill="#58a6ff"/><circle cx="142.55" cy="270.30" r="2.5" fill="#58a6ff"/><circle cx="157.06" cy="269.98" r="2.5" fill="#58a6ff"/><circle cx="171.57" cy="269.20" r="2.5" fill="#58a6ff"/><circle cx="186.08" cy="267.59" r="2.5" fill="#58a6ff"/><circle cx="200.59" cy="266.69" r="2.5" fill="#58a6ff"/><circle cx="215.10" cy="263.76" r="2.5" fill="#58a6ff"/><circle cx="229.61" cy="261.71" r="2.5" fill="#58a6ff"/><circle cx="244.12" cy="255.63" r="2.5" fill="#58a6ff"/><circle cx="258.63" cy="253.16" r="2.5" fill="#58a6ff"/><circle cx="273.14" cy="251.69" r="2.5" fill="#58a6ff"/><circle cx="287.65" cy="250.24" r="2.5" fill="#58a6ff"/><circle cx="302.16" cy="249.86" r="2.5" fill="#58a6ff"/><circle cx="316.67" cy="248.97" r="2.5" fill="#58a6ff"/><circle cx="331.18" cy="247.57" r="2.5" fill="#58a6ff"/><circle cx="345.69" cy="245.29" r="2.5" fill="#58a6ff"/><circle cx="360.20" cy="244.47" r="2.5" fill="#58a6ff"/><circle cx="374.71" cy="243.28" r="2.5" fill="#58a6ff"/><circle cx="389.22" cy="242.09" r="2.5" fill="#58a6ff"/><circle cx="403.73" cy="241.70" r="2.5" fill="#58a6ff"/><circle cx="418.24" cy="241.26" r="2.5" fill="#58a6ff"/><circle cx="432.75" cy="239.76" r="2.5" fill="#58a6ff"/><circle cx="447.25" cy="238.82" r="2.5" fill="#58a6ff"/><circle cx="461.76" cy="237.50" r="2.5" fill="#58a6ff"/><circle cx="476.27" cy="236.55" r="2.5" fill="#58a6ff"/><circle cx="490.78" cy="235.98" r="2.5" fill="#58a6ff"/><circle cx="505.29" cy="235.32" r="2.5" fill="#58a6ff"/><circle cx="519.80" cy="234.44" r="2.5" fill="#58a6ff"/><circle cx="534.31" cy="233.44" r="2.5" fill="#58a6ff"/><circle cx="548.82" cy="232.20" r="2.5" fill="#58a6ff"/><circle cx="563.33" cy="230.94" r="2.5" fill="#58a6ff"/><circle cx="577.84" cy="229.76" r="2.5" fill="#58a6ff"/><circle cx="592.35" cy="228.65" r="2.5" fill="#58a6ff"/><circle cx="606.86" cy="228.26" r="2.5" fill="#58a6ff"/><circle cx="621.37" cy="226.69" r="2.5" fill="#58a6ff"/><circle cx="635.88" cy="224.48" r="2.5" fill="#58a6ff"/><circle cx="650.39" cy="221.87" r="2.5" fill="#58a6ff"/><circle cx="664.90" cy="218.60" r="2.5" fill="#58a6ff"/><circle cx="679.41" cy="212.01" r="2.5" fill="#58a6ff"/><circle cx="693.92" cy="207.58" r="2.5" fill="#58a6ff"/><circle cx="708.43" cy="205.22" r="2.5" fill="#58a6ff"/><circle cx="722.94" cy="203.23" r="2.5" fill="#58a6ff"/><circle cx="737.45" cy="197.76" r="2.5" fill="#58a6ff"/><circle cx="751.96" cy="193.11" r="2.5" fill="#58a6ff"/><circle cx="766.47" cy="188.82" r="2.5" fill="#58a6ff"/><circle cx="780.98" cy="183.98" r="2.5" fill="#58a6ff"/><circle cx="795.49" cy="180.13" r="2.5" fill="#58a6ff"/><circle cx="810.00" cy="177.87" r="4" fill="#F2C811"/>

  <!-- Last-value callout -->
  <rect x="720.0" y="149.9" width="82" height="24" rx="4" fill="#0d1a2a" stroke="#F2C811" stroke-width="1"/>
  <text x="761.0" y="165.9" font-family="'Segoe UI', Arial, sans-serif" font-size="12" fill="#F2C811" text-anchor="middle" font-weight="bold">10,112 total</text>

  <!-- X-axis labels -->
  <text x="70.0" y="298" font-family="'Segoe UI', Arial, sans-serif" font-size="10" fill="#8b949e" text-anchor="middle">Mar 26</text><text x="258.6" y="298" font-family="'Segoe UI', Arial, sans-serif" font-size="10" fill="#8b949e" text-anchor="middle">Apr 08</text><text x="447.3" y="298" font-family="'Segoe UI', Arial, sans-serif" font-size="10" fill="#8b949e" text-anchor="middle">Apr 21</text><text x="635.9" y="298" font-family="'Segoe UI', Arial, sans-serif" font-size="10" fill="#8b949e" text-anchor="middle">May 04</text><text x="810.0" y="298" font-family="'Segoe UI', Arial, sans-serif" font-size="10" fill="#8b949e" text-anchor="middle">May 16</text>

  <!-- Footer: date range -->
  <text x="70" y="328" font-family="'Segoe UI', Arial, sans-serif" font-size="10" fill="#8b949e">Mar 26, 2026 → May 16, 2026</text>
  <text x="810" y="328" font-family="'Segoe UI', Arial, sans-serif" font-size="10" fill="#8b949e" text-anchor="end">52 days of data</text>
</svg>
