<svg xmlns="http://www.w3.org/2000/svg" width="850" height="340" viewBox="0 0 850 340">
  <defs>
    <linearGradient id="areaFill" x1="0" y1="0" x2="0" y2="1">
      <stop offset="0%" stop-color="#58a6ff" stop-opacity="0.45"/>
      <stop offset="100%" stop-color="#58a6ff" stop-opacity="0"/>
    </linearGradient>
  </defs>

  <!-- Background -->
  <rect width="100%" height="100%" fill="#0d1117" rx="8"/>

  <!-- Title -->
  <text x="425" y="33" font-family="'Segoe UI', Arial, sans-serif" font-size="17" fill="#F2C811" text-anchor="middle" font-weight="bold">pbi-cli Downloads Over Time</text>
  <text x="425" y="52" font-family="'Segoe UI', Arial, sans-serif" font-size="11" fill="#8b949e" text-anchor="middle">Cumulative installs from PyPI • mirrors excluded • source: pypistats.org</text>

  <!-- Gridlines & y-labels -->
  <line x1="70" y1="280.0" x2="810" y2="280.0" stroke="#21262d" stroke-width="1" stroke-dasharray="2,3"/><line x1="70" y1="239.6" x2="810" y2="239.6" stroke="#21262d" stroke-width="1" stroke-dasharray="2,3"/><line x1="70" y1="199.2" x2="810" y2="199.2" stroke="#21262d" stroke-width="1" stroke-dasharray="2,3"/><line x1="70" y1="158.8" x2="810" y2="158.8" stroke="#21262d" stroke-width="1" stroke-dasharray="2,3"/><line x1="70" y1="118.4" x2="810" y2="118.4" stroke="#21262d" stroke-width="1" stroke-dasharray="2,3"/><line x1="70" y1="78.0" x2="810" y2="78.0" stroke="#21262d" stroke-width="1" stroke-dasharray="2,3"/>
  <text x="62" y="284.0" font-family="'Segoe UI', Arial, sans-serif" font-size="10" fill="#8b949e" text-anchor="end">0</text><text x="62" y="243.6" font-family="'Segoe UI', Arial, sans-serif" font-size="10" fill="#8b949e" text-anchor="end">4,000</text><text x="62" y="203.2" font-family="'Segoe UI', Arial, sans-serif" font-size="10" fill="#8b949e" text-anchor="end">8,000</text><text x="62" y="162.8" font-family="'Segoe UI', Arial, sans-serif" font-size="10" fill="#8b949e" text-anchor="end">12,000</text><text x="62" y="122.4" font-family="'Segoe UI', Arial, sans-serif" font-size="10" fill="#8b949e" text-anchor="end">16,000</text><text x="62" y="82.0" font-family="'Segoe UI', Arial, sans-serif" font-size="10" fill="#8b949e" text-anchor="end">20,000</text>

  <!-- Area fill -->
  <path d="M 70.00,280 L 70.00,273.87 L 82.98,271.19 L 95.96,270.87 L 108.95,270.81 L 121.93,270.48 L 134.91,270.30 L 147.89,269.98 L 160.88,269.20 L 173.86,267.59 L 186.84,266.69 L 199.82,263.76 L 212.81,261.71 L 225.79,255.63 L 238.77,253.16 L 251.75,251.69 L 264.74,250.24 L 277.72,249.86 L 290.70,248.97 L 303.68,247.57 L 316.67,245.29 L 329.65,244.47 L 342.63,243.28 L 355.61,242.09 L 368.60,241.70 L 381.58,241.26 L 394.56,239.76 L 407.54,238.82 L 420.53,237.50 L 433.51,236.55 L 446.49,235.98 L 459.47,235.32 L 472.46,234.44 L 485.44,233.44 L 498.42,232.20 L 511.40,230.94 L 524.39,229.76 L 537.37,228.65 L 550.35,228.26 L 563.33,226.69 L 576.32,224.48 L 589.30,221.87 L 602.28,218.60 L 615.26,212.01 L 628.25,207.58 L 641.23,205.22 L 654.21,203.23 L 667.19,197.76 L 680.18,193.11 L 693.16,188.82 L 706.14,183.98 L 719.12,180.13 L 732.11,177.87 L 745.09,174.63 L 758.07,171.33 L 771.05,165.60 L 784.04,161.04 L 797.02,155.52 L 810.00,151.79 L 810.00,280 Z" fill="url(#areaFill)"/>

  <!-- Line -->
  <path d="M 70.00,273.87 L 82.98,271.19 L 95.96,270.87 L 108.95,270.81 L 121.93,270.48 L 134.91,270.30 L 147.89,269.98 L 160.88,269.20 L 173.86,267.59 L 186.84,266.69 L 199.82,263.76 L 212.81,261.71 L 225.79,255.63 L 238.77,253.16 L 251.75,251.69 L 264.74,250.24 L 277.72,249.86 L 290.70,248.97 L 303.68,247.57 L 316.67,245.29 L 329.65,244.47 L 342.63,243.28 L 355.61,242.09 L 368.60,241.70 L 381.58,241.26 L 394.56,239.76 L 407.54,238.82 L 420.53,237.50 L 433.51,236.55 L 446.49,235.98 L 459.47,235.32 L 472.46,234.44 L 485.44,233.44 L 498.42,232.20 L 511.40,230.94 L 524.39,229.76 L 537.37,228.65 L 550.35,228.26 L 563.33,226.69 L 576.32,224.48 L 589.30,221.87 L 602.28,218.60 L 615.26,212.01 L 628.25,207.58 L 641.23,205.22 L 654.21,203.23 L 667.19,197.76 L 680.18,193.11 L 693.16,188.82 L 706.14,183.98 L 719.12,180.13 L 732.11,177.87 L 745.09,174.63 L 758.07,171.33 L 771.05,165.60 L 784.04,161.04 L 797.02,155.52 L 810.00,151.79" fill="none" stroke="#58a6ff" stroke-width="2.5" stroke-linejoin="round" stroke-linecap="round"/>

  <!-- Data points -->
  <circle cx="70.00" cy="273.87" r="2.5" fill="#58a6ff"/><circle cx="82.98" cy="271.19" r="2.5" fill="#58a6ff"/><circle cx="95.96" cy="270.87" r="2.5" fill="#58a6ff"/><circle cx="108.95" cy="270.81" r="2.5" fill="#58a6ff"/><circle cx="121.93" cy="270.48" r="2.5" fill="#58a6ff"/><circle cx="134.91" cy="270.30" r="2.5" fill="#58a6ff"/><circle cx="147.89" cy="269.98" r="2.5" fill="#58a6ff"/><circle cx="160.88" cy="269.20" r="2.5" fill="#58a6ff"/><circle cx="173.86" cy="267.59" r="2.5" fill="#58a6ff"/><circle cx="186.84" cy="266.69" r="2.5" fill="#58a6ff"/><circle cx="199.82" cy="263.76" r="2.5" fill="#58a6ff"/><circle cx="212.81" cy="261.71" r="2.5" fill="#58a6ff"/><circle cx="225.79" cy="255.63" r="2.5" fill="#58a6ff"/><circle cx="238.77" cy="253.16" r="2.5" fill="#58a6ff"/><circle cx="251.75" cy="251.69" r="2.5" fill="#58a6ff"/><circle cx="264.74" cy="250.24" r="2.5" fill="#58a6ff"/><circle cx="277.72" cy="249.86" r="2.5" fill="#58a6ff"/><circle cx="290.70" cy="248.97" r="2.5" fill="#58a6ff"/><circle cx="303.68" cy="247.57" r="2.5" fill="#58a6ff"/><circle cx="316.67" cy="245.29" r="2.5" fill="#58a6ff"/><circle cx="329.65" cy="244.47" r="2.5" fill="#58a6ff"/><circle cx="342.63" cy="243.28" r="2.5" fill="#58a6ff"/><circle cx="355.61" cy="242.09" r="2.5" fill="#58a6ff"/><circle cx="368.60" cy="241.70" r="2.5" fill="#58a6ff"/><circle cx="381.58" cy="241.26" r="2.5" fill="#58a6ff"/><circle cx="394.56" cy="239.76" r="2.5" fill="#58a6ff"/><circle cx="407.54" cy="238.82" r="2.5" fill="#58a6ff"/><circle cx="420.53" cy="237.50" r="2.5" fill="#58a6ff"/><circle cx="433.51" cy="236.55" r="2.5" fill="#58a6ff"/><circle cx="446.49" cy="235.98" r="2.5" fill="#58a6ff"/><circle cx="459.47" cy="235.32" r="2.5" fill="#58a6ff"/><circle cx="472.46" cy="234.44" r="2.5" fill="#58a6ff"/><circle cx="485.44" cy="233.44" r="2.5" fill="#58a6ff"/><circle cx="498.42" cy="232.20" r="2.5" fill="#58a6ff"/><circle cx="511.40" cy="230.94" r="2.5" fill="#58a6ff"/><circle cx="524.39" cy="229.76" r="2.5" fill="#58a6ff"/><circle cx="537.37" cy="228.65" r="2.5" fill="#58a6ff"/><circle cx="550.35" cy="228.26" r="2.5" fill="#58a6ff"/><circle cx="563.33" cy="226.69" r="2.5" fill="#58a6ff"/><circle cx="576.32" cy="224.48" r="2.5" fill="#58a6ff"/><circle cx="589.30" cy="221.87" r="2.5" fill="#58a6ff"/><circle cx="602.28" cy="218.60" r="2.5" fill="#58a6ff"/><circle cx="615.26" cy="212.01" r="2.5" fill="#58a6ff"/><circle cx="628.25" cy="207.58" r="2.5" fill="#58a6ff"/><circle cx="641.23" cy="205.22" r="2.5" fill="#58a6ff"/><circle cx="654.21" cy="203.23" r="2.5" fill="#58a6ff"/><circle cx="667.19" cy="197.76" r="2.5" fill="#58a6ff"/><circle cx="680.18" cy="193.11" r="2.5" fill="#58a6ff"/><circle cx="693.16" cy="188.82" r="2.5" fill="#58a6ff"/><circle cx="706.14" cy="183.98" r="2.5" fill="#58a6ff"/><circle cx="719.12" cy="180.13" r="2.5" fill="#58a6ff"/><circle cx="732.11" cy="177.87" r="2.5" fill="#58a6ff"/><circle cx="745.09" cy="174.63" r="2.5" fill="#58a6ff"/><circle cx="758.07" cy="171.33" r="2.5" fill="#58a6ff"/><circle cx="771.05" cy="165.60" r="2.5" fill="#58a6ff"/><circle cx="784.04" cy="161.04" r="2.5" fill="#58a6ff"/><circle cx="797.02" cy="155.52" r="2.5" fill="#58a6ff"/><circle cx="810.00" cy="151.79" r="4" fill="#F2C811"/>

  <!-- Last-value callout -->
  <rect x="720.0" y="123.8" width="82" height="24" rx="4" fill="#0d1a2a" stroke="#F2C811" stroke-width="1"/>
  <text x="761.0" y="139.8" font-family="'Segoe UI', Arial, sans-serif" font-size="12" fill="#F2C811" text-anchor="middle" font-weight="bold">12,694 total</text>

  <!-- X-axis labels -->
  <text x="70.0" y="298" font-family="'Segoe UI', Arial, sans-serif" font-size="10" fill="#8b949e" text-anchor="middle">Mar 26</text><text x="251.8" y="298" font-family="'Segoe UI', Arial, sans-serif" font-size="10" fill="#8b949e" text-anchor="middle">Apr 09</text><text x="446.5" y="298" font-family="'Segoe UI', Arial, sans-serif" font-size="10" fill="#8b949e" text-anchor="middle">Apr 24</text><text x="628.2" y="298" font-family="'Segoe UI', Arial, sans-serif" font-size="10" fill="#8b949e" text-anchor="middle">May 08</text><text x="810.0" y="298" font-family="'Segoe UI', Arial, sans-serif" font-size="10" fill="#8b949e" text-anchor="middle">May 22</text>

  <!-- Footer: date range -->
  <text x="70" y="328" font-family="'Segoe UI', Arial, sans-serif" font-size="10" fill="#8b949e">Mar 26, 2026 → May 22, 2026</text>
  <text x="810" y="328" font-family="'Segoe UI', Arial, sans-serif" font-size="10" fill="#8b949e" text-anchor="end">58 days of data</text>
</svg>
