<svg xmlns="http://www.w3.org/2000/svg" width="850" height="340" viewBox="0 0 850 340">
  <defs>
    <linearGradient id="areaFill" x1="0" y1="0" x2="0" y2="1">
      <stop offset="0%" stop-color="#58a6ff" stop-opacity="0.45"/>
      <stop offset="100%" stop-color="#58a6ff" stop-opacity="0"/>
    </linearGradient>
  </defs>

  <!-- Background -->
  <rect width="100%" height="100%" fill="#0d1117" rx="8"/>

  <!-- Title -->
  <text x="425" y="33" font-family="'Segoe UI', Arial, sans-serif" font-size="17" fill="#F2C811" text-anchor="middle" font-weight="bold">pbi-cli Downloads Over Time</text>
  <text x="425" y="52" font-family="'Segoe UI', Arial, sans-serif" font-size="11" fill="#8b949e" text-anchor="middle">Cumulative installs from PyPI • mirrors excluded • source: pypistats.org</text>

  <!-- Gridlines & y-labels -->
  <line x1="70" y1="280.0" x2="810" y2="280.0" stroke="#21262d" stroke-width="1" stroke-dasharray="2,3"/><line x1="70" y1="239.6" x2="810" y2="239.6" stroke="#21262d" stroke-width="1" stroke-dasharray="2,3"/><line x1="70" y1="199.2" x2="810" y2="199.2" stroke="#21262d" stroke-width="1" stroke-dasharray="2,3"/><line x1="70" y1="158.8" x2="810" y2="158.8" stroke="#21262d" stroke-width="1" stroke-dasharray="2,3"/><line x1="70" y1="118.4" x2="810" y2="118.4" stroke="#21262d" stroke-width="1" stroke-dasharray="2,3"/><line x1="70" y1="78.0" x2="810" y2="78.0" stroke="#21262d" stroke-width="1" stroke-dasharray="2,3"/>
  <text x="62" y="284.0" font-family="'Segoe UI', Arial, sans-serif" font-size="10" fill="#8b949e" text-anchor="end">0</text><text x="62" y="243.6" font-family="'Segoe UI', Arial, sans-serif" font-size="10" fill="#8b949e" text-anchor="end">2,000</text><text x="62" y="203.2" font-family="'Segoe UI', Arial, sans-serif" font-size="10" fill="#8b949e" text-anchor="end">4,000</text><text x="62" y="162.8" font-family="'Segoe UI', Arial, sans-serif" font-size="10" fill="#8b949e" text-anchor="end">6,000</text><text x="62" y="122.4" font-family="'Segoe UI', Arial, sans-serif" font-size="10" fill="#8b949e" text-anchor="end">8,000</text><text x="62" y="82.0" font-family="'Segoe UI', Arial, sans-serif" font-size="10" fill="#8b949e" text-anchor="end">10,000</text>

  <!-- Area fill -->
  <path d="M 70.00,280 L 70.00,267.74 L 90.00,262.39 L 110.00,261.74 L 130.00,261.62 L 150.00,260.95 L 170.00,260.61 L 190.00,259.96 L 210.00,258.41 L 230.00,255.17 L 250.00,253.38 L 270.00,247.52 L 290.00,243.42 L 310.00,231.26 L 330.00,226.33 L 350.00,223.38 L 370.00,220.47 L 390.00,219.72 L 410.00,217.95 L 430.00,215.14 L 450.00,210.57 L 470.00,208.94 L 490.00,206.55 L 510.00,204.19 L 530.00,203.40 L 550.00,202.51 L 570.00,199.52 L 590.00,197.64 L 610.00,195.00 L 630.00,193.10 L 650.00,191.97 L 670.00,190.64 L 690.00,188.88 L 710.00,186.88 L 730.00,184.39 L 750.00,181.89 L 770.00,179.53 L 790.00,177.30 L 810.00,176.52 L 810.00,280 Z" fill="url(#areaFill)"/>

  <!-- Line -->
  <path d="M 70.00,267.74 L 90.00,262.39 L 110.00,261.74 L 130.00,261.62 L 150.00,260.95 L 170.00,260.61 L 190.00,259.96 L 210.00,258.41 L 230.00,255.17 L 250.00,253.38 L 270.00,247.52 L 290.00,243.42 L 310.00,231.26 L 330.00,226.33 L 350.00,223.38 L 370.00,220.47 L 390.00,219.72 L 410.00,217.95 L 430.00,215.14 L 450.00,210.57 L 470.00,208.94 L 490.00,206.55 L 510.00,204.19 L 530.00,203.40 L 550.00,202.51 L 570.00,199.52 L 590.00,197.64 L 610.00,195.00 L 630.00,193.10 L 650.00,191.97 L 670.00,190.64 L 690.00,188.88 L 710.00,186.88 L 730.00,184.39 L 750.00,181.89 L 770.00,179.53 L 790.00,177.30 L 810.00,176.52" fill="none" stroke="#58a6ff" stroke-width="2.5" stroke-linejoin="round" stroke-linecap="round"/>

  <!-- Data points -->
  <circle cx="70.00" cy="267.74" r="2.5" fill="#58a6ff"/><circle cx="90.00" cy="262.39" r="2.5" fill="#58a6ff"/><circle cx="110.00" cy="261.74" r="2.5" fill="#58a6ff"/><circle cx="130.00" cy="261.62" r="2.5" fill="#58a6ff"/><circle cx="150.00" cy="260.95" r="2.5" fill="#58a6ff"/><circle cx="170.00" cy="260.61" r="2.5" fill="#58a6ff"/><circle cx="190.00" cy="259.96" r="2.5" fill="#58a6ff"/><circle cx="210.00" cy="258.41" r="2.5" fill="#58a6ff"/><circle cx="230.00" cy="255.17" r="2.5" fill="#58a6ff"/><circle cx="250.00" cy="253.38" r="2.5" fill="#58a6ff"/><circle cx="270.00" cy="247.52" r="2.5" fill="#58a6ff"/><circle cx="290.00" cy="243.42" r="2.5" fill="#58a6ff"/><circle cx="310.00" cy="231.26" r="2.5" fill="#58a6ff"/><circle cx="330.00" cy="226.33" r="2.5" fill="#58a6ff"/><circle cx="350.00" cy="223.38" r="2.5" fill="#58a6ff"/><circle cx="370.00" cy="220.47" r="2.5" fill="#58a6ff"/><circle cx="390.00" cy="219.72" r="2.5" fill="#58a6ff"/><circle cx="410.00" cy="217.95" r="2.5" fill="#58a6ff"/><circle cx="430.00" cy="215.14" r="2.5" fill="#58a6ff"/><circle cx="450.00" cy="210.57" r="2.5" fill="#58a6ff"/><circle cx="470.00" cy="208.94" r="2.5" fill="#58a6ff"/><circle cx="490.00" cy="206.55" r="2.5" fill="#58a6ff"/><circle cx="510.00" cy="204.19" r="2.5" fill="#58a6ff"/><circle cx="530.00" cy="203.40" r="2.5" fill="#58a6ff"/><circle cx="550.00" cy="202.51" r="2.5" fill="#58a6ff"/><circle cx="570.00" cy="199.52" r="2.5" fill="#58a6ff"/><circle cx="590.00" cy="197.64" r="2.5" fill="#58a6ff"/><circle cx="610.00" cy="195.00" r="2.5" fill="#58a6ff"/><circle cx="630.00" cy="193.10" r="2.5" fill="#58a6ff"/><circle cx="650.00" cy="191.97" r="2.5" fill="#58a6ff"/><circle cx="670.00" cy="190.64" r="2.5" fill="#58a6ff"/><circle cx="690.00" cy="188.88" r="2.5" fill="#58a6ff"/><circle cx="710.00" cy="186.88" r="2.5" fill="#58a6ff"/><circle cx="730.00" cy="184.39" r="2.5" fill="#58a6ff"/><circle cx="750.00" cy="181.89" r="2.5" fill="#58a6ff"/><circle cx="770.00" cy="179.53" r="2.5" fill="#58a6ff"/><circle cx="790.00" cy="177.30" r="2.5" fill="#58a6ff"/><circle cx="810.00" cy="176.52" r="4" fill="#F2C811"/>

  <!-- Last-value callout -->
  <rect x="720.0" y="148.5" width="82" height="24" rx="4" fill="#0d1a2a" stroke="#F2C811" stroke-width="1"/>
  <text x="761.0" y="164.5" font-family="'Segoe UI', Arial, sans-serif" font-size="12" fill="#F2C811" text-anchor="middle" font-weight="bold">5,123 total</text>

  <!-- X-axis labels -->
  <text x="70.0" y="298" font-family="'Segoe UI', Arial, sans-serif" font-size="10" fill="#8b949e" text-anchor="middle">Mar 26</text><text x="250.0" y="298" font-family="'Segoe UI', Arial, sans-serif" font-size="10" fill="#8b949e" text-anchor="middle">Apr 04</text><text x="450.0" y="298" font-family="'Segoe UI', Arial, sans-serif" font-size="10" fill="#8b949e" text-anchor="middle">Apr 14</text><text x="630.0" y="298" font-family="'Segoe UI', Arial, sans-serif" font-size="10" fill="#8b949e" text-anchor="middle">Apr 23</text><text x="810.0" y="298" font-family="'Segoe UI', Arial, sans-serif" font-size="10" fill="#8b949e" text-anchor="middle">May 02</text>

  <!-- Footer: date range -->
  <text x="70" y="328" font-family="'Segoe UI', Arial, sans-serif" font-size="10" fill="#8b949e">Mar 26, 2026 → May 02, 2026</text>
  <text x="810" y="328" font-family="'Segoe UI', Arial, sans-serif" font-size="10" fill="#8b949e" text-anchor="end">38 days of data</text>
</svg>
