<svg xmlns="http://www.w3.org/2000/svg" width="850" height="340" viewBox="0 0 850 340">
  <defs>
    <linearGradient id="areaFill" x1="0" y1="0" x2="0" y2="1">
      <stop offset="0%" stop-color="#58a6ff" stop-opacity="0.45"/>
      <stop offset="100%" stop-color="#58a6ff" stop-opacity="0"/>
    </linearGradient>
  </defs>

  <!-- Background -->
  <rect width="100%" height="100%" fill="#0d1117" rx="8"/>

  <!-- Title -->
  <text x="425" y="33" font-family="'Segoe UI', Arial, sans-serif" font-size="17" fill="#F2C811" text-anchor="middle" font-weight="bold">pbi-cli Downloads Over Time</text>
  <text x="425" y="52" font-family="'Segoe UI', Arial, sans-serif" font-size="11" fill="#8b949e" text-anchor="middle">Cumulative installs from PyPI • mirrors excluded • source: pypistats.org</text>

  <!-- Gridlines & y-labels -->
  <line x1="70" y1="280.0" x2="810" y2="280.0" stroke="#21262d" stroke-width="1" stroke-dasharray="2,3"/><line x1="70" y1="239.6" x2="810" y2="239.6" stroke="#21262d" stroke-width="1" stroke-dasharray="2,3"/><line x1="70" y1="199.2" x2="810" y2="199.2" stroke="#21262d" stroke-width="1" stroke-dasharray="2,3"/><line x1="70" y1="158.8" x2="810" y2="158.8" stroke="#21262d" stroke-width="1" stroke-dasharray="2,3"/><line x1="70" y1="118.4" x2="810" y2="118.4" stroke="#21262d" stroke-width="1" stroke-dasharray="2,3"/><line x1="70" y1="78.0" x2="810" y2="78.0" stroke="#21262d" stroke-width="1" stroke-dasharray="2,3"/>
  <text x="62" y="284.0" font-family="'Segoe UI', Arial, sans-serif" font-size="10" fill="#8b949e" text-anchor="end">0</text><text x="62" y="243.6" font-family="'Segoe UI', Arial, sans-serif" font-size="10" fill="#8b949e" text-anchor="end">2,000</text><text x="62" y="203.2" font-family="'Segoe UI', Arial, sans-serif" font-size="10" fill="#8b949e" text-anchor="end">4,000</text><text x="62" y="162.8" font-family="'Segoe UI', Arial, sans-serif" font-size="10" fill="#8b949e" text-anchor="end">6,000</text><text x="62" y="122.4" font-family="'Segoe UI', Arial, sans-serif" font-size="10" fill="#8b949e" text-anchor="end">8,000</text><text x="62" y="82.0" font-family="'Segoe UI', Arial, sans-serif" font-size="10" fill="#8b949e" text-anchor="end">10,000</text>

  <!-- Area fill -->
  <path d="M 70.00,280 L 70.00,267.74 L 92.42,262.39 L 114.85,261.74 L 137.27,261.62 L 159.70,260.95 L 182.12,260.61 L 204.55,259.96 L 226.97,258.41 L 249.39,255.17 L 271.82,253.38 L 294.24,247.52 L 316.67,243.42 L 339.09,231.26 L 361.52,226.33 L 383.94,223.38 L 406.36,220.47 L 428.79,219.72 L 451.21,217.95 L 473.64,215.14 L 496.06,210.57 L 518.48,208.94 L 540.91,206.55 L 563.33,204.19 L 585.76,203.40 L 608.18,202.51 L 630.61,199.52 L 653.03,197.64 L 675.45,195.00 L 697.88,193.10 L 720.30,191.97 L 742.73,190.64 L 765.15,188.88 L 787.58,186.88 L 810.00,184.39 L 810.00,280 Z" fill="url(#areaFill)"/>

  <!-- Line -->
  <path d="M 70.00,267.74 L 92.42,262.39 L 114.85,261.74 L 137.27,261.62 L 159.70,260.95 L 182.12,260.61 L 204.55,259.96 L 226.97,258.41 L 249.39,255.17 L 271.82,253.38 L 294.24,247.52 L 316.67,243.42 L 339.09,231.26 L 361.52,226.33 L 383.94,223.38 L 406.36,220.47 L 428.79,219.72 L 451.21,217.95 L 473.64,215.14 L 496.06,210.57 L 518.48,208.94 L 540.91,206.55 L 563.33,204.19 L 585.76,203.40 L 608.18,202.51 L 630.61,199.52 L 653.03,197.64 L 675.45,195.00 L 697.88,193.10 L 720.30,191.97 L 742.73,190.64 L 765.15,188.88 L 787.58,186.88 L 810.00,184.39" fill="none" stroke="#58a6ff" stroke-width="2.5" stroke-linejoin="round" stroke-linecap="round"/>

  <!-- Data points -->
  <circle cx="70.00" cy="267.74" r="2.5" fill="#58a6ff"/><circle cx="92.42" cy="262.39" r="2.5" fill="#58a6ff"/><circle cx="114.85" cy="261.74" r="2.5" fill="#58a6ff"/><circle cx="137.27" cy="261.62" r="2.5" fill="#58a6ff"/><circle cx="159.70" cy="260.95" r="2.5" fill="#58a6ff"/><circle cx="182.12" cy="260.61" r="2.5" fill="#58a6ff"/><circle cx="204.55" cy="259.96" r="2.5" fill="#58a6ff"/><circle cx="226.97" cy="258.41" r="2.5" fill="#58a6ff"/><circle cx="249.39" cy="255.17" r="2.5" fill="#58a6ff"/><circle cx="271.82" cy="253.38" r="2.5" fill="#58a6ff"/><circle cx="294.24" cy="247.52" r="2.5" fill="#58a6ff"/><circle cx="316.67" cy="243.42" r="2.5" fill="#58a6ff"/><circle cx="339.09" cy="231.26" r="2.5" fill="#58a6ff"/><circle cx="361.52" cy="226.33" r="2.5" fill="#58a6ff"/><circle cx="383.94" cy="223.38" r="2.5" fill="#58a6ff"/><circle cx="406.36" cy="220.47" r="2.5" fill="#58a6ff"/><circle cx="428.79" cy="219.72" r="2.5" fill="#58a6ff"/><circle cx="451.21" cy="217.95" r="2.5" fill="#58a6ff"/><circle cx="473.64" cy="215.14" r="2.5" fill="#58a6ff"/><circle cx="496.06" cy="210.57" r="2.5" fill="#58a6ff"/><circle cx="518.48" cy="208.94" r="2.5" fill="#58a6ff"/><circle cx="540.91" cy="206.55" r="2.5" fill="#58a6ff"/><circle cx="563.33" cy="204.19" r="2.5" fill="#58a6ff"/><circle cx="585.76" cy="203.40" r="2.5" fill="#58a6ff"/><circle cx="608.18" cy="202.51" r="2.5" fill="#58a6ff"/><circle cx="630.61" cy="199.52" r="2.5" fill="#58a6ff"/><circle cx="653.03" cy="197.64" r="2.5" fill="#58a6ff"/><circle cx="675.45" cy="195.00" r="2.5" fill="#58a6ff"/><circle cx="697.88" cy="193.10" r="2.5" fill="#58a6ff"/><circle cx="720.30" cy="191.97" r="2.5" fill="#58a6ff"/><circle cx="742.73" cy="190.64" r="2.5" fill="#58a6ff"/><circle cx="765.15" cy="188.88" r="2.5" fill="#58a6ff"/><circle cx="787.58" cy="186.88" r="2.5" fill="#58a6ff"/><circle cx="810.00" cy="184.39" r="4" fill="#F2C811"/>

  <!-- Last-value callout -->
  <rect x="720.0" y="156.4" width="82" height="24" rx="4" fill="#0d1a2a" stroke="#F2C811" stroke-width="1"/>
  <text x="761.0" y="172.4" font-family="'Segoe UI', Arial, sans-serif" font-size="12" fill="#F2C811" text-anchor="middle" font-weight="bold">4,733 total</text>

  <!-- X-axis labels -->
  <text x="70.0" y="298" font-family="'Segoe UI', Arial, sans-serif" font-size="10" fill="#8b949e" text-anchor="middle">Mar 26</text><text x="249.4" y="298" font-family="'Segoe UI', Arial, sans-serif" font-size="10" fill="#8b949e" text-anchor="middle">Apr 03</text><text x="451.2" y="298" font-family="'Segoe UI', Arial, sans-serif" font-size="10" fill="#8b949e" text-anchor="middle">Apr 12</text><text x="630.6" y="298" font-family="'Segoe UI', Arial, sans-serif" font-size="10" fill="#8b949e" text-anchor="middle">Apr 20</text><text x="810.0" y="298" font-family="'Segoe UI', Arial, sans-serif" font-size="10" fill="#8b949e" text-anchor="middle">Apr 28</text>

  <!-- Footer: date range -->
  <text x="70" y="328" font-family="'Segoe UI', Arial, sans-serif" font-size="10" fill="#8b949e">Mar 26, 2026 → Apr 28, 2026</text>
  <text x="810" y="328" font-family="'Segoe UI', Arial, sans-serif" font-size="10" fill="#8b949e" text-anchor="end">34 days of data</text>
</svg>
