<svg xmlns="http://www.w3.org/2000/svg" width="850" height="340" viewBox="0 0 850 340">
  <defs>
    <linearGradient id="areaFill" x1="0" y1="0" x2="0" y2="1">
      <stop offset="0%" stop-color="#58a6ff" stop-opacity="0.45"/>
      <stop offset="100%" stop-color="#58a6ff" stop-opacity="0"/>
    </linearGradient>
  </defs>

  <!-- Background -->
  <rect width="100%" height="100%" fill="#0d1117" rx="8"/>

  <!-- Title -->
  <text x="425" y="33" font-family="'Segoe UI', Arial, sans-serif" font-size="17" fill="#F2C811" text-anchor="middle" font-weight="bold">pbi-cli Downloads Over Time</text>
  <text x="425" y="52" font-family="'Segoe UI', Arial, sans-serif" font-size="11" fill="#8b949e" text-anchor="middle">Cumulative installs from PyPI • mirrors excluded • source: pypistats.org</text>

  <!-- Gridlines & y-labels -->
  <line x1="70" y1="280.0" x2="810" y2="280.0" stroke="#21262d" stroke-width="1" stroke-dasharray="2,3"/><line x1="70" y1="239.6" x2="810" y2="239.6" stroke="#21262d" stroke-width="1" stroke-dasharray="2,3"/><line x1="70" y1="199.2" x2="810" y2="199.2" stroke="#21262d" stroke-width="1" stroke-dasharray="2,3"/><line x1="70" y1="158.8" x2="810" y2="158.8" stroke="#21262d" stroke-width="1" stroke-dasharray="2,3"/><line x1="70" y1="118.4" x2="810" y2="118.4" stroke="#21262d" stroke-width="1" stroke-dasharray="2,3"/><line x1="70" y1="78.0" x2="810" y2="78.0" stroke="#21262d" stroke-width="1" stroke-dasharray="2,3"/>
  <text x="62" y="284.0" font-family="'Segoe UI', Arial, sans-serif" font-size="10" fill="#8b949e" text-anchor="end">0</text><text x="62" y="243.6" font-family="'Segoe UI', Arial, sans-serif" font-size="10" fill="#8b949e" text-anchor="end">2,000</text><text x="62" y="203.2" font-family="'Segoe UI', Arial, sans-serif" font-size="10" fill="#8b949e" text-anchor="end">4,000</text><text x="62" y="162.8" font-family="'Segoe UI', Arial, sans-serif" font-size="10" fill="#8b949e" text-anchor="end">6,000</text><text x="62" y="122.4" font-family="'Segoe UI', Arial, sans-serif" font-size="10" fill="#8b949e" text-anchor="end">8,000</text><text x="62" y="82.0" font-family="'Segoe UI', Arial, sans-serif" font-size="10" fill="#8b949e" text-anchor="end">10,000</text>

  <!-- Area fill -->
  <path d="M 70.00,280 L 70.00,267.74 L 88.50,262.39 L 107.00,261.74 L 125.50,261.62 L 144.00,260.95 L 162.50,260.61 L 181.00,259.96 L 199.50,258.41 L 218.00,255.17 L 236.50,253.38 L 255.00,247.52 L 273.50,243.42 L 292.00,231.26 L 310.50,226.33 L 329.00,223.38 L 347.50,220.47 L 366.00,219.72 L 384.50,217.95 L 403.00,215.14 L 421.50,210.57 L 440.00,208.94 L 458.50,206.55 L 477.00,204.19 L 495.50,203.40 L 514.00,202.51 L 532.50,199.52 L 551.00,197.64 L 569.50,195.00 L 588.00,193.10 L 606.50,191.97 L 625.00,190.64 L 643.50,188.88 L 662.00,186.88 L 680.50,184.39 L 699.00,181.89 L 717.50,179.53 L 736.00,177.30 L 754.50,176.52 L 773.00,173.38 L 791.50,168.96 L 810.00,163.75 L 810.00,280 Z" fill="url(#areaFill)"/>

  <!-- Line -->
  <path d="M 70.00,267.74 L 88.50,262.39 L 107.00,261.74 L 125.50,261.62 L 144.00,260.95 L 162.50,260.61 L 181.00,259.96 L 199.50,258.41 L 218.00,255.17 L 236.50,253.38 L 255.00,247.52 L 273.50,243.42 L 292.00,231.26 L 310.50,226.33 L 329.00,223.38 L 347.50,220.47 L 366.00,219.72 L 384.50,217.95 L 403.00,215.14 L 421.50,210.57 L 440.00,208.94 L 458.50,206.55 L 477.00,204.19 L 495.50,203.40 L 514.00,202.51 L 532.50,199.52 L 551.00,197.64 L 569.50,195.00 L 588.00,193.10 L 606.50,191.97 L 625.00,190.64 L 643.50,188.88 L 662.00,186.88 L 680.50,184.39 L 699.00,181.89 L 717.50,179.53 L 736.00,177.30 L 754.50,176.52 L 773.00,173.38 L 791.50,168.96 L 810.00,163.75" fill="none" stroke="#58a6ff" stroke-width="2.5" stroke-linejoin="round" stroke-linecap="round"/>

  <!-- Data points -->
  <circle cx="70.00" cy="267.74" r="2.5" fill="#58a6ff"/><circle cx="88.50" cy="262.39" r="2.5" fill="#58a6ff"/><circle cx="107.00" cy="261.74" r="2.5" fill="#58a6ff"/><circle cx="125.50" cy="261.62" r="2.5" fill="#58a6ff"/><circle cx="144.00" cy="260.95" r="2.5" fill="#58a6ff"/><circle cx="162.50" cy="260.61" r="2.5" fill="#58a6ff"/><circle cx="181.00" cy="259.96" r="2.5" fill="#58a6ff"/><circle cx="199.50" cy="258.41" r="2.5" fill="#58a6ff"/><circle cx="218.00" cy="255.17" r="2.5" fill="#58a6ff"/><circle cx="236.50" cy="253.38" r="2.5" fill="#58a6ff"/><circle cx="255.00" cy="247.52" r="2.5" fill="#58a6ff"/><circle cx="273.50" cy="243.42" r="2.5" fill="#58a6ff"/><circle cx="292.00" cy="231.26" r="2.5" fill="#58a6ff"/><circle cx="310.50" cy="226.33" r="2.5" fill="#58a6ff"/><circle cx="329.00" cy="223.38" r="2.5" fill="#58a6ff"/><circle cx="347.50" cy="220.47" r="2.5" fill="#58a6ff"/><circle cx="366.00" cy="219.72" r="2.5" fill="#58a6ff"/><circle cx="384.50" cy="217.95" r="2.5" fill="#58a6ff"/><circle cx="403.00" cy="215.14" r="2.5" fill="#58a6ff"/><circle cx="421.50" cy="210.57" r="2.5" fill="#58a6ff"/><circle cx="440.00" cy="208.94" r="2.5" fill="#58a6ff"/><circle cx="458.50" cy="206.55" r="2.5" fill="#58a6ff"/><circle cx="477.00" cy="204.19" r="2.5" fill="#58a6ff"/><circle cx="495.50" cy="203.40" r="2.5" fill="#58a6ff"/><circle cx="514.00" cy="202.51" r="2.5" fill="#58a6ff"/><circle cx="532.50" cy="199.52" r="2.5" fill="#58a6ff"/><circle cx="551.00" cy="197.64" r="2.5" fill="#58a6ff"/><circle cx="569.50" cy="195.00" r="2.5" fill="#58a6ff"/><circle cx="588.00" cy="193.10" r="2.5" fill="#58a6ff"/><circle cx="606.50" cy="191.97" r="2.5" fill="#58a6ff"/><circle cx="625.00" cy="190.64" r="2.5" fill="#58a6ff"/><circle cx="643.50" cy="188.88" r="2.5" fill="#58a6ff"/><circle cx="662.00" cy="186.88" r="2.5" fill="#58a6ff"/><circle cx="680.50" cy="184.39" r="2.5" fill="#58a6ff"/><circle cx="699.00" cy="181.89" r="2.5" fill="#58a6ff"/><circle cx="717.50" cy="179.53" r="2.5" fill="#58a6ff"/><circle cx="736.00" cy="177.30" r="2.5" fill="#58a6ff"/><circle cx="754.50" cy="176.52" r="2.5" fill="#58a6ff"/><circle cx="773.00" cy="173.38" r="2.5" fill="#58a6ff"/><circle cx="791.50" cy="168.96" r="2.5" fill="#58a6ff"/><circle cx="810.00" cy="163.75" r="4" fill="#F2C811"/>

  <!-- Last-value callout -->
  <rect x="720.0" y="135.7" width="82" height="24" rx="4" fill="#0d1a2a" stroke="#F2C811" stroke-width="1"/>
  <text x="761.0" y="151.7" font-family="'Segoe UI', Arial, sans-serif" font-size="12" fill="#F2C811" text-anchor="middle" font-weight="bold">5,755 total</text>

  <!-- X-axis labels -->
  <text x="70.0" y="298" font-family="'Segoe UI', Arial, sans-serif" font-size="10" fill="#8b949e" text-anchor="middle">Mar 26</text><text x="255.0" y="298" font-family="'Segoe UI', Arial, sans-serif" font-size="10" fill="#8b949e" text-anchor="middle">Apr 05</text><text x="440.0" y="298" font-family="'Segoe UI', Arial, sans-serif" font-size="10" fill="#8b949e" text-anchor="middle">Apr 15</text><text x="625.0" y="298" font-family="'Segoe UI', Arial, sans-serif" font-size="10" fill="#8b949e" text-anchor="middle">Apr 25</text><text x="810.0" y="298" font-family="'Segoe UI', Arial, sans-serif" font-size="10" fill="#8b949e" text-anchor="middle">May 05</text>

  <!-- Footer: date range -->
  <text x="70" y="328" font-family="'Segoe UI', Arial, sans-serif" font-size="10" fill="#8b949e">Mar 26, 2026 → May 05, 2026</text>
  <text x="810" y="328" font-family="'Segoe UI', Arial, sans-serif" font-size="10" fill="#8b949e" text-anchor="end">41 days of data</text>
</svg>
