<svg xmlns="http://www.w3.org/2000/svg" width="850" height="340" viewBox="0 0 850 340">
  <defs>
    <linearGradient id="areaFill" x1="0" y1="0" x2="0" y2="1">
      <stop offset="0%" stop-color="#58a6ff" stop-opacity="0.45"/>
      <stop offset="100%" stop-color="#58a6ff" stop-opacity="0"/>
    </linearGradient>
  </defs>

  <!-- Background -->
  <rect width="100%" height="100%" fill="#0d1117" rx="8"/>

  <!-- Title -->
  <text x="425" y="33" font-family="'Segoe UI', Arial, sans-serif" font-size="17" fill="#F2C811" text-anchor="middle" font-weight="bold">pbi-cli Downloads Over Time</text>
  <text x="425" y="52" font-family="'Segoe UI', Arial, sans-serif" font-size="11" fill="#8b949e" text-anchor="middle">Cumulative installs from PyPI • mirrors excluded • source: pypistats.org</text>

  <!-- Gridlines & y-labels -->
  <line x1="70" y1="280.0" x2="810" y2="280.0" stroke="#21262d" stroke-width="1" stroke-dasharray="2,3"/><line x1="70" y1="239.6" x2="810" y2="239.6" stroke="#21262d" stroke-width="1" stroke-dasharray="2,3"/><line x1="70" y1="199.2" x2="810" y2="199.2" stroke="#21262d" stroke-width="1" stroke-dasharray="2,3"/><line x1="70" y1="158.8" x2="810" y2="158.8" stroke="#21262d" stroke-width="1" stroke-dasharray="2,3"/><line x1="70" y1="118.4" x2="810" y2="118.4" stroke="#21262d" stroke-width="1" stroke-dasharray="2,3"/><line x1="70" y1="78.0" x2="810" y2="78.0" stroke="#21262d" stroke-width="1" stroke-dasharray="2,3"/>
  <text x="62" y="284.0" font-family="'Segoe UI', Arial, sans-serif" font-size="10" fill="#8b949e" text-anchor="end">0</text><text x="62" y="243.6" font-family="'Segoe UI', Arial, sans-serif" font-size="10" fill="#8b949e" text-anchor="end">5,000</text><text x="62" y="203.2" font-family="'Segoe UI', Arial, sans-serif" font-size="10" fill="#8b949e" text-anchor="end">10,000</text><text x="62" y="162.8" font-family="'Segoe UI', Arial, sans-serif" font-size="10" fill="#8b949e" text-anchor="end">15,000</text><text x="62" y="122.4" font-family="'Segoe UI', Arial, sans-serif" font-size="10" fill="#8b949e" text-anchor="end">20,000</text><text x="62" y="82.0" font-family="'Segoe UI', Arial, sans-serif" font-size="10" fill="#8b949e" text-anchor="end">25,000</text>

  <!-- Area fill -->
  <path d="M 70.00,280 L 70.00,275.10 L 79.02,272.95 L 88.05,272.70 L 97.07,272.65 L 106.10,272.38 L 115.12,272.24 L 124.15,271.98 L 133.17,271.36 L 142.20,270.07 L 151.22,269.35 L 160.24,267.01 L 169.27,265.37 L 178.29,260.50 L 187.32,258.53 L 196.34,257.35 L 205.37,256.19 L 214.39,255.89 L 223.41,255.18 L 232.44,254.06 L 241.46,252.23 L 250.49,251.57 L 259.51,250.62 L 268.54,249.68 L 277.56,249.36 L 286.59,249.01 L 295.61,247.81 L 304.63,247.06 L 313.66,246.00 L 322.68,245.24 L 331.71,244.79 L 340.73,244.25 L 349.76,243.55 L 358.78,242.75 L 367.80,241.76 L 376.83,240.76 L 385.85,239.81 L 394.88,238.92 L 403.90,238.61 L 412.93,237.35 L 421.95,235.58 L 430.98,233.50 L 440.00,230.88 L 449.02,225.61 L 458.05,222.07 L 467.07,220.18 L 476.10,218.58 L 485.12,214.20 L 494.15,210.49 L 503.17,207.05 L 512.20,203.18 L 521.22,200.10 L 530.24,198.30 L 539.27,195.70 L 548.29,193.07 L 557.32,188.48 L 566.34,184.83 L 575.37,180.41 L 584.39,177.43 L 593.41,175.40 L 602.44,173.80 L 611.46,172.25 L 620.49,169.02 L 629.51,165.59 L 638.54,162.41 L 647.56,160.05 L 656.59,158.90 L 665.61,157.52 L 674.63,154.82 L 683.66,152.63 L 692.68,149.75 L 701.71,147.30 L 710.73,144.85 L 719.76,142.47 L 728.78,141.52 L 737.80,139.75 L 746.83,136.95 L 755.85,133.36 L 764.88,130.63 L 773.90,128.57 L 782.93,126.58 L 791.95,123.78 L 800.98,120.77 L 810.00,117.61 L 810.00,280 Z" fill="url(#areaFill)"/>

  <!-- Line -->
  <path d="M 70.00,275.10 L 79.02,272.95 L 88.05,272.70 L 97.07,272.65 L 106.10,272.38 L 115.12,272.24 L 124.15,271.98 L 133.17,271.36 L 142.20,270.07 L 151.22,269.35 L 160.24,267.01 L 169.27,265.37 L 178.29,260.50 L 187.32,258.53 L 196.34,257.35 L 205.37,256.19 L 214.39,255.89 L 223.41,255.18 L 232.44,254.06 L 241.46,252.23 L 250.49,251.57 L 259.51,250.62 L 268.54,249.68 L 277.56,249.36 L 286.59,249.01 L 295.61,247.81 L 304.63,247.06 L 313.66,246.00 L 322.68,245.24 L 331.71,244.79 L 340.73,244.25 L 349.76,243.55 L 358.78,242.75 L 367.80,241.76 L 376.83,240.76 L 385.85,239.81 L 394.88,238.92 L 403.90,238.61 L 412.93,237.35 L 421.95,235.58 L 430.98,233.50 L 440.00,230.88 L 449.02,225.61 L 458.05,222.07 L 467.07,220.18 L 476.10,218.58 L 485.12,214.20 L 494.15,210.49 L 503.17,207.05 L 512.20,203.18 L 521.22,200.10 L 530.24,198.30 L 539.27,195.70 L 548.29,193.07 L 557.32,188.48 L 566.34,184.83 L 575.37,180.41 L 584.39,177.43 L 593.41,175.40 L 602.44,173.80 L 611.46,172.25 L 620.49,169.02 L 629.51,165.59 L 638.54,162.41 L 647.56,160.05 L 656.59,158.90 L 665.61,157.52 L 674.63,154.82 L 683.66,152.63 L 692.68,149.75 L 701.71,147.30 L 710.73,144.85 L 719.76,142.47 L 728.78,141.52 L 737.80,139.75 L 746.83,136.95 L 755.85,133.36 L 764.88,130.63 L 773.90,128.57 L 782.93,126.58 L 791.95,123.78 L 800.98,120.77 L 810.00,117.61" fill="none" stroke="#58a6ff" stroke-width="2.5" stroke-linejoin="round" stroke-linecap="round"/>

  <!-- Data points -->
  <circle cx="70.00" cy="275.10" r="2.5" fill="#58a6ff"/><circle cx="79.02" cy="272.95" r="2.5" fill="#58a6ff"/><circle cx="88.05" cy="272.70" r="2.5" fill="#58a6ff"/><circle cx="97.07" cy="272.65" r="2.5" fill="#58a6ff"/><circle cx="106.10" cy="272.38" r="2.5" fill="#58a6ff"/><circle cx="115.12" cy="272.24" r="2.5" fill="#58a6ff"/><circle cx="124.15" cy="271.98" r="2.5" fill="#58a6ff"/><circle cx="133.17" cy="271.36" r="2.5" fill="#58a6ff"/><circle cx="142.20" cy="270.07" r="2.5" fill="#58a6ff"/><circle cx="151.22" cy="269.35" r="2.5" fill="#58a6ff"/><circle cx="160.24" cy="267.01" r="2.5" fill="#58a6ff"/><circle cx="169.27" cy="265.37" r="2.5" fill="#58a6ff"/><circle cx="178.29" cy="260.50" r="2.5" fill="#58a6ff"/><circle cx="187.32" cy="258.53" r="2.5" fill="#58a6ff"/><circle cx="196.34" cy="257.35" r="2.5" fill="#58a6ff"/><circle cx="205.37" cy="256.19" r="2.5" fill="#58a6ff"/><circle cx="214.39" cy="255.89" r="2.5" fill="#58a6ff"/><circle cx="223.41" cy="255.18" r="2.5" fill="#58a6ff"/><circle cx="232.44" cy="254.06" r="2.5" fill="#58a6ff"/><circle cx="241.46" cy="252.23" r="2.5" fill="#58a6ff"/><circle cx="250.49" cy="251.57" r="2.5" fill="#58a6ff"/><circle cx="259.51" cy="250.62" r="2.5" fill="#58a6ff"/><circle cx="268.54" cy="249.68" r="2.5" fill="#58a6ff"/><circle cx="277.56" cy="249.36" r="2.5" fill="#58a6ff"/><circle cx="286.59" cy="249.01" r="2.5" fill="#58a6ff"/><circle cx="295.61" cy="247.81" r="2.5" fill="#58a6ff"/><circle cx="304.63" cy="247.06" r="2.5" fill="#58a6ff"/><circle cx="313.66" cy="246.00" r="2.5" fill="#58a6ff"/><circle cx="322.68" cy="245.24" r="2.5" fill="#58a6ff"/><circle cx="331.71" cy="244.79" r="2.5" fill="#58a6ff"/><circle cx="340.73" cy="244.25" r="2.5" fill="#58a6ff"/><circle cx="349.76" cy="243.55" r="2.5" fill="#58a6ff"/><circle cx="358.78" cy="242.75" r="2.5" fill="#58a6ff"/><circle cx="367.80" cy="241.76" r="2.5" fill="#58a6ff"/><circle cx="376.83" cy="240.76" r="2.5" fill="#58a6ff"/><circle cx="385.85" cy="239.81" r="2.5" fill="#58a6ff"/><circle cx="394.88" cy="238.92" r="2.5" fill="#58a6ff"/><circle cx="403.90" cy="238.61" r="2.5" fill="#58a6ff"/><circle cx="412.93" cy="237.35" r="2.5" fill="#58a6ff"/><circle cx="421.95" cy="235.58" r="2.5" fill="#58a6ff"/><circle cx="430.98" cy="233.50" r="2.5" fill="#58a6ff"/><circle cx="440.00" cy="230.88" r="2.5" fill="#58a6ff"/><circle cx="449.02" cy="225.61" r="2.5" fill="#58a6ff"/><circle cx="458.05" cy="222.07" r="2.5" fill="#58a6ff"/><circle cx="467.07" cy="220.18" r="2.5" fill="#58a6ff"/><circle cx="476.10" cy="218.58" r="2.5" fill="#58a6ff"/><circle cx="485.12" cy="214.20" r="2.5" fill="#58a6ff"/><circle cx="494.15" cy="210.49" r="2.5" fill="#58a6ff"/><circle cx="503.17" cy="207.05" r="2.5" fill="#58a6ff"/><circle cx="512.20" cy="203.18" r="2.5" fill="#58a6ff"/><circle cx="521.22" cy="200.10" r="2.5" fill="#58a6ff"/><circle cx="530.24" cy="198.30" r="2.5" fill="#58a6ff"/><circle cx="539.27" cy="195.70" r="2.5" fill="#58a6ff"/><circle cx="548.29" cy="193.07" r="2.5" fill="#58a6ff"/><circle cx="557.32" cy="188.48" r="2.5" fill="#58a6ff"/><circle cx="566.34" cy="184.83" r="2.5" fill="#58a6ff"/><circle cx="575.37" cy="180.41" r="2.5" fill="#58a6ff"/><circle cx="584.39" cy="177.43" r="2.5" fill="#58a6ff"/><circle cx="593.41" cy="175.40" r="2.5" fill="#58a6ff"/><circle cx="602.44" cy="173.80" r="2.5" fill="#58a6ff"/><circle cx="611.46" cy="172.25" r="2.5" fill="#58a6ff"/><circle cx="620.49" cy="169.02" r="2.5" fill="#58a6ff"/><circle cx="629.51" cy="165.59" r="2.5" fill="#58a6ff"/><circle cx="638.54" cy="162.41" r="2.5" fill="#58a6ff"/><circle cx="647.56" cy="160.05" r="2.5" fill="#58a6ff"/><circle cx="656.59" cy="158.90" r="2.5" fill="#58a6ff"/><circle cx="665.61" cy="157.52" r="2.5" fill="#58a6ff"/><circle cx="674.63" cy="154.82" r="2.5" fill="#58a6ff"/><circle cx="683.66" cy="152.63" r="2.5" fill="#58a6ff"/><circle cx="692.68" cy="149.75" r="2.5" fill="#58a6ff"/><circle cx="701.71" cy="147.30" r="2.5" fill="#58a6ff"/><circle cx="710.73" cy="144.85" r="2.5" fill="#58a6ff"/><circle cx="719.76" cy="142.47" r="2.5" fill="#58a6ff"/><circle cx="728.78" cy="141.52" r="2.5" fill="#58a6ff"/><circle cx="737.80" cy="139.75" r="2.5" fill="#58a6ff"/><circle cx="746.83" cy="136.95" r="2.5" fill="#58a6ff"/><circle cx="755.85" cy="133.36" r="2.5" fill="#58a6ff"/><circle cx="764.88" cy="130.63" r="2.5" fill="#58a6ff"/><circle cx="773.90" cy="128.57" r="2.5" fill="#58a6ff"/><circle cx="782.93" cy="126.58" r="2.5" fill="#58a6ff"/><circle cx="791.95" cy="123.78" r="2.5" fill="#58a6ff"/><circle cx="800.98" cy="120.77" r="2.5" fill="#58a6ff"/><circle cx="810.00" cy="117.61" r="4" fill="#F2C811"/>

  <!-- Last-value callout -->
  <rect x="720.0" y="92.0" width="82" height="24" rx="4" fill="#0d1a2a" stroke="#F2C811" stroke-width="1"/>
  <text x="761.0" y="108.0" font-family="'Segoe UI', Arial, sans-serif" font-size="12" fill="#F2C811" text-anchor="middle" font-weight="bold">20,098 total</text>

  <!-- X-axis labels -->
  <text x="70.0" y="298" font-family="'Segoe UI', Arial, sans-serif" font-size="10" fill="#8b949e" text-anchor="middle">Mar 26</text><text x="250.5" y="298" font-family="'Segoe UI', Arial, sans-serif" font-size="10" fill="#8b949e" text-anchor="middle">Apr 15</text><text x="440.0" y="298" font-family="'Segoe UI', Arial, sans-serif" font-size="10" fill="#8b949e" text-anchor="middle">May 06</text><text x="629.5" y="298" font-family="'Segoe UI', Arial, sans-serif" font-size="10" fill="#8b949e" text-anchor="middle">May 27</text><text x="810.0" y="298" font-family="'Segoe UI', Arial, sans-serif" font-size="10" fill="#8b949e" text-anchor="middle">Jun 17</text>

  <!-- Footer: date range -->
  <text x="70" y="328" font-family="'Segoe UI', Arial, sans-serif" font-size="10" fill="#8b949e">Mar 26, 2026 → Jun 17, 2026</text>
  <text x="810" y="328" font-family="'Segoe UI', Arial, sans-serif" font-size="10" fill="#8b949e" text-anchor="end">83 days of data</text>
</svg>
