<svg xmlns="http://www.w3.org/2000/svg" width="850" height="340" viewBox="0 0 850 340">
  <defs>
    <linearGradient id="areaFill" x1="0" y1="0" x2="0" y2="1">
      <stop offset="0%" stop-color="#58a6ff" stop-opacity="0.45"/>
      <stop offset="100%" stop-color="#58a6ff" stop-opacity="0"/>
    </linearGradient>
  </defs>

  <!-- Background -->
  <rect width="100%" height="100%" fill="#0d1117" rx="8"/>

  <!-- Title -->
  <text x="425" y="33" font-family="'Segoe UI', Arial, sans-serif" font-size="17" fill="#F2C811" text-anchor="middle" font-weight="bold">pbi-cli Downloads Over Time</text>
  <text x="425" y="52" font-family="'Segoe UI', Arial, sans-serif" font-size="11" fill="#8b949e" text-anchor="middle">Cumulative installs from PyPI • mirrors excluded • source: pypistats.org</text>

  <!-- Gridlines & y-labels -->
  <line x1="70" y1="280.0" x2="810" y2="280.0" stroke="#21262d" stroke-width="1" stroke-dasharray="2,3"/><line x1="70" y1="239.6" x2="810" y2="239.6" stroke="#21262d" stroke-width="1" stroke-dasharray="2,3"/><line x1="70" y1="199.2" x2="810" y2="199.2" stroke="#21262d" stroke-width="1" stroke-dasharray="2,3"/><line x1="70" y1="158.8" x2="810" y2="158.8" stroke="#21262d" stroke-width="1" stroke-dasharray="2,3"/><line x1="70" y1="118.4" x2="810" y2="118.4" stroke="#21262d" stroke-width="1" stroke-dasharray="2,3"/><line x1="70" y1="78.0" x2="810" y2="78.0" stroke="#21262d" stroke-width="1" stroke-dasharray="2,3"/>
  <text x="62" y="284.0" font-family="'Segoe UI', Arial, sans-serif" font-size="10" fill="#8b949e" text-anchor="end">0</text><text x="62" y="243.6" font-family="'Segoe UI', Arial, sans-serif" font-size="10" fill="#8b949e" text-anchor="end">4,000</text><text x="62" y="203.2" font-family="'Segoe UI', Arial, sans-serif" font-size="10" fill="#8b949e" text-anchor="end">8,000</text><text x="62" y="162.8" font-family="'Segoe UI', Arial, sans-serif" font-size="10" fill="#8b949e" text-anchor="end">12,000</text><text x="62" y="122.4" font-family="'Segoe UI', Arial, sans-serif" font-size="10" fill="#8b949e" text-anchor="end">16,000</text><text x="62" y="82.0" font-family="'Segoe UI', Arial, sans-serif" font-size="10" fill="#8b949e" text-anchor="end">20,000</text>

  <!-- Area fill -->
  <path d="M 70.00,280 L 70.00,273.87 L 83.96,271.19 L 97.92,270.87 L 111.89,270.81 L 125.85,270.48 L 139.81,270.30 L 153.77,269.98 L 167.74,269.20 L 181.70,267.59 L 195.66,266.69 L 209.62,263.76 L 223.58,261.71 L 237.55,255.63 L 251.51,253.16 L 265.47,251.69 L 279.43,250.24 L 293.40,249.86 L 307.36,248.97 L 321.32,247.57 L 335.28,245.29 L 349.25,244.47 L 363.21,243.28 L 377.17,242.09 L 391.13,241.70 L 405.09,241.26 L 419.06,239.76 L 433.02,238.82 L 446.98,237.50 L 460.94,236.55 L 474.91,235.98 L 488.87,235.32 L 502.83,234.44 L 516.79,233.44 L 530.75,232.20 L 544.72,230.94 L 558.68,229.76 L 572.64,228.65 L 586.60,228.26 L 600.57,226.69 L 614.53,224.48 L 628.49,221.87 L 642.45,218.60 L 656.42,212.01 L 670.38,207.58 L 684.34,205.22 L 698.30,203.23 L 712.26,197.76 L 726.23,193.11 L 740.19,188.82 L 754.15,183.98 L 768.11,180.13 L 782.08,177.87 L 796.04,174.63 L 810.00,171.33 L 810.00,280 Z" fill="url(#areaFill)"/>

  <!-- Line -->
  <path d="M 70.00,273.87 L 83.96,271.19 L 97.92,270.87 L 111.89,270.81 L 125.85,270.48 L 139.81,270.30 L 153.77,269.98 L 167.74,269.20 L 181.70,267.59 L 195.66,266.69 L 209.62,263.76 L 223.58,261.71 L 237.55,255.63 L 251.51,253.16 L 265.47,251.69 L 279.43,250.24 L 293.40,249.86 L 307.36,248.97 L 321.32,247.57 L 335.28,245.29 L 349.25,244.47 L 363.21,243.28 L 377.17,242.09 L 391.13,241.70 L 405.09,241.26 L 419.06,239.76 L 433.02,238.82 L 446.98,237.50 L 460.94,236.55 L 474.91,235.98 L 488.87,235.32 L 502.83,234.44 L 516.79,233.44 L 530.75,232.20 L 544.72,230.94 L 558.68,229.76 L 572.64,228.65 L 586.60,228.26 L 600.57,226.69 L 614.53,224.48 L 628.49,221.87 L 642.45,218.60 L 656.42,212.01 L 670.38,207.58 L 684.34,205.22 L 698.30,203.23 L 712.26,197.76 L 726.23,193.11 L 740.19,188.82 L 754.15,183.98 L 768.11,180.13 L 782.08,177.87 L 796.04,174.63 L 810.00,171.33" fill="none" stroke="#58a6ff" stroke-width="2.5" stroke-linejoin="round" stroke-linecap="round"/>

  <!-- Data points -->
  <circle cx="70.00" cy="273.87" r="2.5" fill="#58a6ff"/><circle cx="83.96" cy="271.19" r="2.5" fill="#58a6ff"/><circle cx="97.92" cy="270.87" r="2.5" fill="#58a6ff"/><circle cx="111.89" cy="270.81" r="2.5" fill="#58a6ff"/><circle cx="125.85" cy="270.48" r="2.5" fill="#58a6ff"/><circle cx="139.81" cy="270.30" r="2.5" fill="#58a6ff"/><circle cx="153.77" cy="269.98" r="2.5" fill="#58a6ff"/><circle cx="167.74" cy="269.20" r="2.5" fill="#58a6ff"/><circle cx="181.70" cy="267.59" r="2.5" fill="#58a6ff"/><circle cx="195.66" cy="266.69" r="2.5" fill="#58a6ff"/><circle cx="209.62" cy="263.76" r="2.5" fill="#58a6ff"/><circle cx="223.58" cy="261.71" r="2.5" fill="#58a6ff"/><circle cx="237.55" cy="255.63" r="2.5" fill="#58a6ff"/><circle cx="251.51" cy="253.16" r="2.5" fill="#58a6ff"/><circle cx="265.47" cy="251.69" r="2.5" fill="#58a6ff"/><circle cx="279.43" cy="250.24" r="2.5" fill="#58a6ff"/><circle cx="293.40" cy="249.86" r="2.5" fill="#58a6ff"/><circle cx="307.36" cy="248.97" r="2.5" fill="#58a6ff"/><circle cx="321.32" cy="247.57" r="2.5" fill="#58a6ff"/><circle cx="335.28" cy="245.29" r="2.5" fill="#58a6ff"/><circle cx="349.25" cy="244.47" r="2.5" fill="#58a6ff"/><circle cx="363.21" cy="243.28" r="2.5" fill="#58a6ff"/><circle cx="377.17" cy="242.09" r="2.5" fill="#58a6ff"/><circle cx="391.13" cy="241.70" r="2.5" fill="#58a6ff"/><circle cx="405.09" cy="241.26" r="2.5" fill="#58a6ff"/><circle cx="419.06" cy="239.76" r="2.5" fill="#58a6ff"/><circle cx="433.02" cy="238.82" r="2.5" fill="#58a6ff"/><circle cx="446.98" cy="237.50" r="2.5" fill="#58a6ff"/><circle cx="460.94" cy="236.55" r="2.5" fill="#58a6ff"/><circle cx="474.91" cy="235.98" r="2.5" fill="#58a6ff"/><circle cx="488.87" cy="235.32" r="2.5" fill="#58a6ff"/><circle cx="502.83" cy="234.44" r="2.5" fill="#58a6ff"/><circle cx="516.79" cy="233.44" r="2.5" fill="#58a6ff"/><circle cx="530.75" cy="232.20" r="2.5" fill="#58a6ff"/><circle cx="544.72" cy="230.94" r="2.5" fill="#58a6ff"/><circle cx="558.68" cy="229.76" r="2.5" fill="#58a6ff"/><circle cx="572.64" cy="228.65" r="2.5" fill="#58a6ff"/><circle cx="586.60" cy="228.26" r="2.5" fill="#58a6ff"/><circle cx="600.57" cy="226.69" r="2.5" fill="#58a6ff"/><circle cx="614.53" cy="224.48" r="2.5" fill="#58a6ff"/><circle cx="628.49" cy="221.87" r="2.5" fill="#58a6ff"/><circle cx="642.45" cy="218.60" r="2.5" fill="#58a6ff"/><circle cx="656.42" cy="212.01" r="2.5" fill="#58a6ff"/><circle cx="670.38" cy="207.58" r="2.5" fill="#58a6ff"/><circle cx="684.34" cy="205.22" r="2.5" fill="#58a6ff"/><circle cx="698.30" cy="203.23" r="2.5" fill="#58a6ff"/><circle cx="712.26" cy="197.76" r="2.5" fill="#58a6ff"/><circle cx="726.23" cy="193.11" r="2.5" fill="#58a6ff"/><circle cx="740.19" cy="188.82" r="2.5" fill="#58a6ff"/><circle cx="754.15" cy="183.98" r="2.5" fill="#58a6ff"/><circle cx="768.11" cy="180.13" r="2.5" fill="#58a6ff"/><circle cx="782.08" cy="177.87" r="2.5" fill="#58a6ff"/><circle cx="796.04" cy="174.63" r="2.5" fill="#58a6ff"/><circle cx="810.00" cy="171.33" r="4" fill="#F2C811"/>

  <!-- Last-value callout -->
  <rect x="720.0" y="143.3" width="82" height="24" rx="4" fill="#0d1a2a" stroke="#F2C811" stroke-width="1"/>
  <text x="761.0" y="159.3" font-family="'Segoe UI', Arial, sans-serif" font-size="12" fill="#F2C811" text-anchor="middle" font-weight="bold">10,759 total</text>

  <!-- X-axis labels -->
  <text x="70.0" y="298" font-family="'Segoe UI', Arial, sans-serif" font-size="10" fill="#8b949e" text-anchor="middle">Mar 26</text><text x="251.5" y="298" font-family="'Segoe UI', Arial, sans-serif" font-size="10" fill="#8b949e" text-anchor="middle">Apr 08</text><text x="447.0" y="298" font-family="'Segoe UI', Arial, sans-serif" font-size="10" fill="#8b949e" text-anchor="middle">Apr 22</text><text x="628.5" y="298" font-family="'Segoe UI', Arial, sans-serif" font-size="10" fill="#8b949e" text-anchor="middle">May 05</text><text x="810.0" y="298" font-family="'Segoe UI', Arial, sans-serif" font-size="10" fill="#8b949e" text-anchor="middle">May 18</text>

  <!-- Footer: date range -->
  <text x="70" y="328" font-family="'Segoe UI', Arial, sans-serif" font-size="10" fill="#8b949e">Mar 26, 2026 → May 18, 2026</text>
  <text x="810" y="328" font-family="'Segoe UI', Arial, sans-serif" font-size="10" fill="#8b949e" text-anchor="end">54 days of data</text>
</svg>
