<svg xmlns="http://www.w3.org/2000/svg" width="850" height="340" viewBox="0 0 850 340">
  <defs>
    <linearGradient id="areaFill" x1="0" y1="0" x2="0" y2="1">
      <stop offset="0%" stop-color="#58a6ff" stop-opacity="0.45"/>
      <stop offset="100%" stop-color="#58a6ff" stop-opacity="0"/>
    </linearGradient>
  </defs>

  <!-- Background -->
  <rect width="100%" height="100%" fill="#0d1117" rx="8"/>

  <!-- Title -->
  <text x="425" y="33" font-family="'Segoe UI', Arial, sans-serif" font-size="17" fill="#F2C811" text-anchor="middle" font-weight="bold">pbi-cli Downloads Over Time</text>
  <text x="425" y="52" font-family="'Segoe UI', Arial, sans-serif" font-size="11" fill="#8b949e" text-anchor="middle">Cumulative installs from PyPI • mirrors excluded • source: pypistats.org</text>

  <!-- Gridlines & y-labels -->
  <line x1="70" y1="280.0" x2="810" y2="280.0" stroke="#21262d" stroke-width="1" stroke-dasharray="2,3"/><line x1="70" y1="239.6" x2="810" y2="239.6" stroke="#21262d" stroke-width="1" stroke-dasharray="2,3"/><line x1="70" y1="199.2" x2="810" y2="199.2" stroke="#21262d" stroke-width="1" stroke-dasharray="2,3"/><line x1="70" y1="158.8" x2="810" y2="158.8" stroke="#21262d" stroke-width="1" stroke-dasharray="2,3"/><line x1="70" y1="118.4" x2="810" y2="118.4" stroke="#21262d" stroke-width="1" stroke-dasharray="2,3"/><line x1="70" y1="78.0" x2="810" y2="78.0" stroke="#21262d" stroke-width="1" stroke-dasharray="2,3"/>
  <text x="62" y="284.0" font-family="'Segoe UI', Arial, sans-serif" font-size="10" fill="#8b949e" text-anchor="end">0</text><text x="62" y="243.6" font-family="'Segoe UI', Arial, sans-serif" font-size="10" fill="#8b949e" text-anchor="end">2,000</text><text x="62" y="203.2" font-family="'Segoe UI', Arial, sans-serif" font-size="10" fill="#8b949e" text-anchor="end">4,000</text><text x="62" y="162.8" font-family="'Segoe UI', Arial, sans-serif" font-size="10" fill="#8b949e" text-anchor="end">6,000</text><text x="62" y="122.4" font-family="'Segoe UI', Arial, sans-serif" font-size="10" fill="#8b949e" text-anchor="end">8,000</text><text x="62" y="82.0" font-family="'Segoe UI', Arial, sans-serif" font-size="10" fill="#8b949e" text-anchor="end">10,000</text>

  <!-- Area fill -->
  <path d="M 70.00,280 L 70.00,267.74 L 87.62,262.39 L 105.24,261.74 L 122.86,261.62 L 140.48,260.95 L 158.10,260.61 L 175.71,259.96 L 193.33,258.41 L 210.95,255.17 L 228.57,253.38 L 246.19,247.52 L 263.81,243.42 L 281.43,231.26 L 299.05,226.33 L 316.67,223.38 L 334.29,220.47 L 351.90,219.72 L 369.52,217.95 L 387.14,215.14 L 404.76,210.57 L 422.38,208.94 L 440.00,206.55 L 457.62,204.19 L 475.24,203.40 L 492.86,202.51 L 510.48,199.52 L 528.10,197.64 L 545.71,195.00 L 563.33,193.10 L 580.95,191.97 L 598.57,190.64 L 616.19,188.88 L 633.81,186.88 L 651.43,184.39 L 669.05,181.89 L 686.67,179.53 L 704.29,177.30 L 721.90,176.52 L 739.52,173.38 L 757.14,168.96 L 774.76,163.75 L 792.38,157.20 L 810.00,144.01 L 810.00,280 Z" fill="url(#areaFill)"/>

  <!-- Line -->
  <path d="M 70.00,267.74 L 87.62,262.39 L 105.24,261.74 L 122.86,261.62 L 140.48,260.95 L 158.10,260.61 L 175.71,259.96 L 193.33,258.41 L 210.95,255.17 L 228.57,253.38 L 246.19,247.52 L 263.81,243.42 L 281.43,231.26 L 299.05,226.33 L 316.67,223.38 L 334.29,220.47 L 351.90,219.72 L 369.52,217.95 L 387.14,215.14 L 404.76,210.57 L 422.38,208.94 L 440.00,206.55 L 457.62,204.19 L 475.24,203.40 L 492.86,202.51 L 510.48,199.52 L 528.10,197.64 L 545.71,195.00 L 563.33,193.10 L 580.95,191.97 L 598.57,190.64 L 616.19,188.88 L 633.81,186.88 L 651.43,184.39 L 669.05,181.89 L 686.67,179.53 L 704.29,177.30 L 721.90,176.52 L 739.52,173.38 L 757.14,168.96 L 774.76,163.75 L 792.38,157.20 L 810.00,144.01" fill="none" stroke="#58a6ff" stroke-width="2.5" stroke-linejoin="round" stroke-linecap="round"/>

  <!-- Data points -->
  <circle cx="70.00" cy="267.74" r="2.5" fill="#58a6ff"/><circle cx="87.62" cy="262.39" r="2.5" fill="#58a6ff"/><circle cx="105.24" cy="261.74" r="2.5" fill="#58a6ff"/><circle cx="122.86" cy="261.62" r="2.5" fill="#58a6ff"/><circle cx="140.48" cy="260.95" r="2.5" fill="#58a6ff"/><circle cx="158.10" cy="260.61" r="2.5" fill="#58a6ff"/><circle cx="175.71" cy="259.96" r="2.5" fill="#58a6ff"/><circle cx="193.33" cy="258.41" r="2.5" fill="#58a6ff"/><circle cx="210.95" cy="255.17" r="2.5" fill="#58a6ff"/><circle cx="228.57" cy="253.38" r="2.5" fill="#58a6ff"/><circle cx="246.19" cy="247.52" r="2.5" fill="#58a6ff"/><circle cx="263.81" cy="243.42" r="2.5" fill="#58a6ff"/><circle cx="281.43" cy="231.26" r="2.5" fill="#58a6ff"/><circle cx="299.05" cy="226.33" r="2.5" fill="#58a6ff"/><circle cx="316.67" cy="223.38" r="2.5" fill="#58a6ff"/><circle cx="334.29" cy="220.47" r="2.5" fill="#58a6ff"/><circle cx="351.90" cy="219.72" r="2.5" fill="#58a6ff"/><circle cx="369.52" cy="217.95" r="2.5" fill="#58a6ff"/><circle cx="387.14" cy="215.14" r="2.5" fill="#58a6ff"/><circle cx="404.76" cy="210.57" r="2.5" fill="#58a6ff"/><circle cx="422.38" cy="208.94" r="2.5" fill="#58a6ff"/><circle cx="440.00" cy="206.55" r="2.5" fill="#58a6ff"/><circle cx="457.62" cy="204.19" r="2.5" fill="#58a6ff"/><circle cx="475.24" cy="203.40" r="2.5" fill="#58a6ff"/><circle cx="492.86" cy="202.51" r="2.5" fill="#58a6ff"/><circle cx="510.48" cy="199.52" r="2.5" fill="#58a6ff"/><circle cx="528.10" cy="197.64" r="2.5" fill="#58a6ff"/><circle cx="545.71" cy="195.00" r="2.5" fill="#58a6ff"/><circle cx="563.33" cy="193.10" r="2.5" fill="#58a6ff"/><circle cx="580.95" cy="191.97" r="2.5" fill="#58a6ff"/><circle cx="598.57" cy="190.64" r="2.5" fill="#58a6ff"/><circle cx="616.19" cy="188.88" r="2.5" fill="#58a6ff"/><circle cx="633.81" cy="186.88" r="2.5" fill="#58a6ff"/><circle cx="651.43" cy="184.39" r="2.5" fill="#58a6ff"/><circle cx="669.05" cy="181.89" r="2.5" fill="#58a6ff"/><circle cx="686.67" cy="179.53" r="2.5" fill="#58a6ff"/><circle cx="704.29" cy="177.30" r="2.5" fill="#58a6ff"/><circle cx="721.90" cy="176.52" r="2.5" fill="#58a6ff"/><circle cx="739.52" cy="173.38" r="2.5" fill="#58a6ff"/><circle cx="757.14" cy="168.96" r="2.5" fill="#58a6ff"/><circle cx="774.76" cy="163.75" r="2.5" fill="#58a6ff"/><circle cx="792.38" cy="157.20" r="2.5" fill="#58a6ff"/><circle cx="810.00" cy="144.01" r="4" fill="#F2C811"/>

  <!-- Last-value callout -->
  <rect x="720.0" y="116.0" width="82" height="24" rx="4" fill="#0d1a2a" stroke="#F2C811" stroke-width="1"/>
  <text x="761.0" y="132.0" font-family="'Segoe UI', Arial, sans-serif" font-size="12" fill="#F2C811" text-anchor="middle" font-weight="bold">6,732 total</text>

  <!-- X-axis labels -->
  <text x="70.0" y="298" font-family="'Segoe UI', Arial, sans-serif" font-size="10" fill="#8b949e" text-anchor="middle">Mar 26</text><text x="246.2" y="298" font-family="'Segoe UI', Arial, sans-serif" font-size="10" fill="#8b949e" text-anchor="middle">Apr 05</text><text x="440.0" y="298" font-family="'Segoe UI', Arial, sans-serif" font-size="10" fill="#8b949e" text-anchor="middle">Apr 16</text><text x="633.8" y="298" font-family="'Segoe UI', Arial, sans-serif" font-size="10" fill="#8b949e" text-anchor="middle">Apr 27</text><text x="810.0" y="298" font-family="'Segoe UI', Arial, sans-serif" font-size="10" fill="#8b949e" text-anchor="middle">May 07</text>

  <!-- Footer: date range -->
  <text x="70" y="328" font-family="'Segoe UI', Arial, sans-serif" font-size="10" fill="#8b949e">Mar 26, 2026 → May 07, 2026</text>
  <text x="810" y="328" font-family="'Segoe UI', Arial, sans-serif" font-size="10" fill="#8b949e" text-anchor="end">43 days of data</text>
</svg>
