<svg xmlns="http://www.w3.org/2000/svg" width="850" height="340" viewBox="0 0 850 340">
  <defs>
    <linearGradient id="areaFill" x1="0" y1="0" x2="0" y2="1">
      <stop offset="0%" stop-color="#58a6ff" stop-opacity="0.45"/>
      <stop offset="100%" stop-color="#58a6ff" stop-opacity="0"/>
    </linearGradient>
  </defs>

  <!-- Background -->
  <rect width="100%" height="100%" fill="#0d1117" rx="8"/>

  <!-- Title -->
  <text x="425" y="33" font-family="'Segoe UI', Arial, sans-serif" font-size="17" fill="#F2C811" text-anchor="middle" font-weight="bold">pbi-cli Downloads Over Time</text>
  <text x="425" y="52" font-family="'Segoe UI', Arial, sans-serif" font-size="11" fill="#8b949e" text-anchor="middle">Cumulative installs from PyPI • mirrors excluded • source: pypistats.org</text>

  <!-- Gridlines & y-labels -->
  <line x1="70" y1="280.0" x2="810" y2="280.0" stroke="#21262d" stroke-width="1" stroke-dasharray="2,3"/><line x1="70" y1="239.6" x2="810" y2="239.6" stroke="#21262d" stroke-width="1" stroke-dasharray="2,3"/><line x1="70" y1="199.2" x2="810" y2="199.2" stroke="#21262d" stroke-width="1" stroke-dasharray="2,3"/><line x1="70" y1="158.8" x2="810" y2="158.8" stroke="#21262d" stroke-width="1" stroke-dasharray="2,3"/><line x1="70" y1="118.4" x2="810" y2="118.4" stroke="#21262d" stroke-width="1" stroke-dasharray="2,3"/><line x1="70" y1="78.0" x2="810" y2="78.0" stroke="#21262d" stroke-width="1" stroke-dasharray="2,3"/>
  <text x="62" y="284.0" font-family="'Segoe UI', Arial, sans-serif" font-size="10" fill="#8b949e" text-anchor="end">0</text><text x="62" y="243.6" font-family="'Segoe UI', Arial, sans-serif" font-size="10" fill="#8b949e" text-anchor="end">4,000</text><text x="62" y="203.2" font-family="'Segoe UI', Arial, sans-serif" font-size="10" fill="#8b949e" text-anchor="end">8,000</text><text x="62" y="162.8" font-family="'Segoe UI', Arial, sans-serif" font-size="10" fill="#8b949e" text-anchor="end">12,000</text><text x="62" y="122.4" font-family="'Segoe UI', Arial, sans-serif" font-size="10" fill="#8b949e" text-anchor="end">16,000</text><text x="62" y="82.0" font-family="'Segoe UI', Arial, sans-serif" font-size="10" fill="#8b949e" text-anchor="end">20,000</text>

  <!-- Area fill -->
  <path d="M 70.00,280 L 70.00,273.87 L 83.70,271.19 L 97.41,270.87 L 111.11,270.81 L 124.81,270.48 L 138.52,270.30 L 152.22,269.98 L 165.93,269.20 L 179.63,267.59 L 193.33,266.69 L 207.04,263.76 L 220.74,261.71 L 234.44,255.63 L 248.15,253.16 L 261.85,251.69 L 275.56,250.24 L 289.26,249.86 L 302.96,248.97 L 316.67,247.57 L 330.37,245.29 L 344.07,244.47 L 357.78,243.28 L 371.48,242.09 L 385.19,241.70 L 398.89,241.26 L 412.59,239.76 L 426.30,238.82 L 440.00,237.50 L 453.70,236.55 L 467.41,235.98 L 481.11,235.32 L 494.81,234.44 L 508.52,233.44 L 522.22,232.20 L 535.93,230.94 L 549.63,229.76 L 563.33,228.65 L 577.04,228.26 L 590.74,226.69 L 604.44,224.48 L 618.15,221.87 L 631.85,218.60 L 645.56,212.01 L 659.26,207.58 L 672.96,205.22 L 686.67,203.23 L 700.37,197.76 L 714.07,193.11 L 727.78,188.82 L 741.48,183.98 L 755.19,180.13 L 768.89,177.87 L 782.59,174.63 L 796.30,171.33 L 810.00,165.60 L 810.00,280 Z" fill="url(#areaFill)"/>

  <!-- Line -->
  <path d="M 70.00,273.87 L 83.70,271.19 L 97.41,270.87 L 111.11,270.81 L 124.81,270.48 L 138.52,270.30 L 152.22,269.98 L 165.93,269.20 L 179.63,267.59 L 193.33,266.69 L 207.04,263.76 L 220.74,261.71 L 234.44,255.63 L 248.15,253.16 L 261.85,251.69 L 275.56,250.24 L 289.26,249.86 L 302.96,248.97 L 316.67,247.57 L 330.37,245.29 L 344.07,244.47 L 357.78,243.28 L 371.48,242.09 L 385.19,241.70 L 398.89,241.26 L 412.59,239.76 L 426.30,238.82 L 440.00,237.50 L 453.70,236.55 L 467.41,235.98 L 481.11,235.32 L 494.81,234.44 L 508.52,233.44 L 522.22,232.20 L 535.93,230.94 L 549.63,229.76 L 563.33,228.65 L 577.04,228.26 L 590.74,226.69 L 604.44,224.48 L 618.15,221.87 L 631.85,218.60 L 645.56,212.01 L 659.26,207.58 L 672.96,205.22 L 686.67,203.23 L 700.37,197.76 L 714.07,193.11 L 727.78,188.82 L 741.48,183.98 L 755.19,180.13 L 768.89,177.87 L 782.59,174.63 L 796.30,171.33 L 810.00,165.60" fill="none" stroke="#58a6ff" stroke-width="2.5" stroke-linejoin="round" stroke-linecap="round"/>

  <!-- Data points -->
  <circle cx="70.00" cy="273.87" r="2.5" fill="#58a6ff"/><circle cx="83.70" cy="271.19" r="2.5" fill="#58a6ff"/><circle cx="97.41" cy="270.87" r="2.5" fill="#58a6ff"/><circle cx="111.11" cy="270.81" r="2.5" fill="#58a6ff"/><circle cx="124.81" cy="270.48" r="2.5" fill="#58a6ff"/><circle cx="138.52" cy="270.30" r="2.5" fill="#58a6ff"/><circle cx="152.22" cy="269.98" r="2.5" fill="#58a6ff"/><circle cx="165.93" cy="269.20" r="2.5" fill="#58a6ff"/><circle cx="179.63" cy="267.59" r="2.5" fill="#58a6ff"/><circle cx="193.33" cy="266.69" r="2.5" fill="#58a6ff"/><circle cx="207.04" cy="263.76" r="2.5" fill="#58a6ff"/><circle cx="220.74" cy="261.71" r="2.5" fill="#58a6ff"/><circle cx="234.44" cy="255.63" r="2.5" fill="#58a6ff"/><circle cx="248.15" cy="253.16" r="2.5" fill="#58a6ff"/><circle cx="261.85" cy="251.69" r="2.5" fill="#58a6ff"/><circle cx="275.56" cy="250.24" r="2.5" fill="#58a6ff"/><circle cx="289.26" cy="249.86" r="2.5" fill="#58a6ff"/><circle cx="302.96" cy="248.97" r="2.5" fill="#58a6ff"/><circle cx="316.67" cy="247.57" r="2.5" fill="#58a6ff"/><circle cx="330.37" cy="245.29" r="2.5" fill="#58a6ff"/><circle cx="344.07" cy="244.47" r="2.5" fill="#58a6ff"/><circle cx="357.78" cy="243.28" r="2.5" fill="#58a6ff"/><circle cx="371.48" cy="242.09" r="2.5" fill="#58a6ff"/><circle cx="385.19" cy="241.70" r="2.5" fill="#58a6ff"/><circle cx="398.89" cy="241.26" r="2.5" fill="#58a6ff"/><circle cx="412.59" cy="239.76" r="2.5" fill="#58a6ff"/><circle cx="426.30" cy="238.82" r="2.5" fill="#58a6ff"/><circle cx="440.00" cy="237.50" r="2.5" fill="#58a6ff"/><circle cx="453.70" cy="236.55" r="2.5" fill="#58a6ff"/><circle cx="467.41" cy="235.98" r="2.5" fill="#58a6ff"/><circle cx="481.11" cy="235.32" r="2.5" fill="#58a6ff"/><circle cx="494.81" cy="234.44" r="2.5" fill="#58a6ff"/><circle cx="508.52" cy="233.44" r="2.5" fill="#58a6ff"/><circle cx="522.22" cy="232.20" r="2.5" fill="#58a6ff"/><circle cx="535.93" cy="230.94" r="2.5" fill="#58a6ff"/><circle cx="549.63" cy="229.76" r="2.5" fill="#58a6ff"/><circle cx="563.33" cy="228.65" r="2.5" fill="#58a6ff"/><circle cx="577.04" cy="228.26" r="2.5" fill="#58a6ff"/><circle cx="590.74" cy="226.69" r="2.5" fill="#58a6ff"/><circle cx="604.44" cy="224.48" r="2.5" fill="#58a6ff"/><circle cx="618.15" cy="221.87" r="2.5" fill="#58a6ff"/><circle cx="631.85" cy="218.60" r="2.5" fill="#58a6ff"/><circle cx="645.56" cy="212.01" r="2.5" fill="#58a6ff"/><circle cx="659.26" cy="207.58" r="2.5" fill="#58a6ff"/><circle cx="672.96" cy="205.22" r="2.5" fill="#58a6ff"/><circle cx="686.67" cy="203.23" r="2.5" fill="#58a6ff"/><circle cx="700.37" cy="197.76" r="2.5" fill="#58a6ff"/><circle cx="714.07" cy="193.11" r="2.5" fill="#58a6ff"/><circle cx="727.78" cy="188.82" r="2.5" fill="#58a6ff"/><circle cx="741.48" cy="183.98" r="2.5" fill="#58a6ff"/><circle cx="755.19" cy="180.13" r="2.5" fill="#58a6ff"/><circle cx="768.89" cy="177.87" r="2.5" fill="#58a6ff"/><circle cx="782.59" cy="174.63" r="2.5" fill="#58a6ff"/><circle cx="796.30" cy="171.33" r="2.5" fill="#58a6ff"/><circle cx="810.00" cy="165.60" r="4" fill="#F2C811"/>

  <!-- Last-value callout -->
  <rect x="720.0" y="137.6" width="82" height="24" rx="4" fill="#0d1a2a" stroke="#F2C811" stroke-width="1"/>
  <text x="761.0" y="153.6" font-family="'Segoe UI', Arial, sans-serif" font-size="12" fill="#F2C811" text-anchor="middle" font-weight="bold">11,327 total</text>

  <!-- X-axis labels -->
  <text x="70.0" y="298" font-family="'Segoe UI', Arial, sans-serif" font-size="10" fill="#8b949e" text-anchor="middle">Mar 26</text><text x="248.1" y="298" font-family="'Segoe UI', Arial, sans-serif" font-size="10" fill="#8b949e" text-anchor="middle">Apr 08</text><text x="440.0" y="298" font-family="'Segoe UI', Arial, sans-serif" font-size="10" fill="#8b949e" text-anchor="middle">Apr 22</text><text x="631.9" y="298" font-family="'Segoe UI', Arial, sans-serif" font-size="10" fill="#8b949e" text-anchor="middle">May 06</text><text x="810.0" y="298" font-family="'Segoe UI', Arial, sans-serif" font-size="10" fill="#8b949e" text-anchor="middle">May 19</text>

  <!-- Footer: date range -->
  <text x="70" y="328" font-family="'Segoe UI', Arial, sans-serif" font-size="10" fill="#8b949e">Mar 26, 2026 → May 19, 2026</text>
  <text x="810" y="328" font-family="'Segoe UI', Arial, sans-serif" font-size="10" fill="#8b949e" text-anchor="end">55 days of data</text>
</svg>
