<svg xmlns="http://www.w3.org/2000/svg" width="850" height="340" viewBox="0 0 850 340">
  <defs>
    <linearGradient id="areaFill" x1="0" y1="0" x2="0" y2="1">
      <stop offset="0%" stop-color="#58a6ff" stop-opacity="0.45"/>
      <stop offset="100%" stop-color="#58a6ff" stop-opacity="0"/>
    </linearGradient>
  </defs>

  <!-- Background -->
  <rect width="100%" height="100%" fill="#0d1117" rx="8"/>

  <!-- Title -->
  <text x="425" y="33" font-family="'Segoe UI', Arial, sans-serif" font-size="17" fill="#F2C811" text-anchor="middle" font-weight="bold">pbi-cli Downloads Over Time</text>
  <text x="425" y="52" font-family="'Segoe UI', Arial, sans-serif" font-size="11" fill="#8b949e" text-anchor="middle">Cumulative installs from PyPI • mirrors excluded • source: pypistats.org</text>

  <!-- Gridlines & y-labels -->
  <line x1="70" y1="280.0" x2="810" y2="280.0" stroke="#21262d" stroke-width="1" stroke-dasharray="2,3"/><line x1="70" y1="239.6" x2="810" y2="239.6" stroke="#21262d" stroke-width="1" stroke-dasharray="2,3"/><line x1="70" y1="199.2" x2="810" y2="199.2" stroke="#21262d" stroke-width="1" stroke-dasharray="2,3"/><line x1="70" y1="158.8" x2="810" y2="158.8" stroke="#21262d" stroke-width="1" stroke-dasharray="2,3"/><line x1="70" y1="118.4" x2="810" y2="118.4" stroke="#21262d" stroke-width="1" stroke-dasharray="2,3"/><line x1="70" y1="78.0" x2="810" y2="78.0" stroke="#21262d" stroke-width="1" stroke-dasharray="2,3"/>
  <text x="62" y="284.0" font-family="'Segoe UI', Arial, sans-serif" font-size="10" fill="#8b949e" text-anchor="end">0</text><text x="62" y="243.6" font-family="'Segoe UI', Arial, sans-serif" font-size="10" fill="#8b949e" text-anchor="end">5,000</text><text x="62" y="203.2" font-family="'Segoe UI', Arial, sans-serif" font-size="10" fill="#8b949e" text-anchor="end">10,000</text><text x="62" y="162.8" font-family="'Segoe UI', Arial, sans-serif" font-size="10" fill="#8b949e" text-anchor="end">15,000</text><text x="62" y="122.4" font-family="'Segoe UI', Arial, sans-serif" font-size="10" fill="#8b949e" text-anchor="end">20,000</text><text x="62" y="82.0" font-family="'Segoe UI', Arial, sans-serif" font-size="10" fill="#8b949e" text-anchor="end">25,000</text>

  <!-- Area fill -->
  <path d="M 70.00,280 L 70.00,275.10 L 78.92,272.95 L 87.83,272.70 L 96.75,272.65 L 105.66,272.38 L 114.58,272.24 L 123.49,271.98 L 132.41,271.36 L 141.33,270.07 L 150.24,269.35 L 159.16,267.01 L 168.07,265.37 L 176.99,260.50 L 185.90,258.53 L 194.82,257.35 L 203.73,256.19 L 212.65,255.89 L 221.57,255.18 L 230.48,254.06 L 239.40,252.23 L 248.31,251.57 L 257.23,250.62 L 266.14,249.68 L 275.06,249.36 L 283.98,249.01 L 292.89,247.81 L 301.81,247.06 L 310.72,246.00 L 319.64,245.24 L 328.55,244.79 L 337.47,244.25 L 346.39,243.55 L 355.30,242.75 L 364.22,241.76 L 373.13,240.76 L 382.05,239.81 L 390.96,238.92 L 399.88,238.61 L 408.80,237.35 L 417.71,235.58 L 426.63,233.50 L 435.54,230.88 L 444.46,225.61 L 453.37,222.07 L 462.29,220.18 L 471.20,218.58 L 480.12,214.20 L 489.04,210.49 L 497.95,207.05 L 506.87,203.18 L 515.78,200.10 L 524.70,198.30 L 533.61,195.70 L 542.53,193.07 L 551.45,188.48 L 560.36,184.83 L 569.28,180.41 L 578.19,177.43 L 587.11,175.40 L 596.02,173.80 L 604.94,172.25 L 613.86,169.02 L 622.77,165.59 L 631.69,162.41 L 640.60,160.05 L 649.52,158.90 L 658.43,157.52 L 667.35,154.82 L 676.27,152.63 L 685.18,149.75 L 694.10,147.30 L 703.01,144.85 L 711.93,142.47 L 720.84,141.52 L 729.76,139.75 L 738.67,136.95 L 747.59,133.36 L 756.51,130.63 L 765.42,128.57 L 774.34,126.58 L 783.25,123.78 L 792.17,120.77 L 801.08,117.61 L 810.00,111.98 L 810.00,280 Z" fill="url(#areaFill)"/>

  <!-- Line -->
  <path d="M 70.00,275.10 L 78.92,272.95 L 87.83,272.70 L 96.75,272.65 L 105.66,272.38 L 114.58,272.24 L 123.49,271.98 L 132.41,271.36 L 141.33,270.07 L 150.24,269.35 L 159.16,267.01 L 168.07,265.37 L 176.99,260.50 L 185.90,258.53 L 194.82,257.35 L 203.73,256.19 L 212.65,255.89 L 221.57,255.18 L 230.48,254.06 L 239.40,252.23 L 248.31,251.57 L 257.23,250.62 L 266.14,249.68 L 275.06,249.36 L 283.98,249.01 L 292.89,247.81 L 301.81,247.06 L 310.72,246.00 L 319.64,245.24 L 328.55,244.79 L 337.47,244.25 L 346.39,243.55 L 355.30,242.75 L 364.22,241.76 L 373.13,240.76 L 382.05,239.81 L 390.96,238.92 L 399.88,238.61 L 408.80,237.35 L 417.71,235.58 L 426.63,233.50 L 435.54,230.88 L 444.46,225.61 L 453.37,222.07 L 462.29,220.18 L 471.20,218.58 L 480.12,214.20 L 489.04,210.49 L 497.95,207.05 L 506.87,203.18 L 515.78,200.10 L 524.70,198.30 L 533.61,195.70 L 542.53,193.07 L 551.45,188.48 L 560.36,184.83 L 569.28,180.41 L 578.19,177.43 L 587.11,175.40 L 596.02,173.80 L 604.94,172.25 L 613.86,169.02 L 622.77,165.59 L 631.69,162.41 L 640.60,160.05 L 649.52,158.90 L 658.43,157.52 L 667.35,154.82 L 676.27,152.63 L 685.18,149.75 L 694.10,147.30 L 703.01,144.85 L 711.93,142.47 L 720.84,141.52 L 729.76,139.75 L 738.67,136.95 L 747.59,133.36 L 756.51,130.63 L 765.42,128.57 L 774.34,126.58 L 783.25,123.78 L 792.17,120.77 L 801.08,117.61 L 810.00,111.98" fill="none" stroke="#58a6ff" stroke-width="2.5" stroke-linejoin="round" stroke-linecap="round"/>

  <!-- Data points -->
  <circle cx="70.00" cy="275.10" r="2.5" fill="#58a6ff"/><circle cx="78.92" cy="272.95" r="2.5" fill="#58a6ff"/><circle cx="87.83" cy="272.70" r="2.5" fill="#58a6ff"/><circle cx="96.75" cy="272.65" r="2.5" fill="#58a6ff"/><circle cx="105.66" cy="272.38" r="2.5" fill="#58a6ff"/><circle cx="114.58" cy="272.24" r="2.5" fill="#58a6ff"/><circle cx="123.49" cy="271.98" r="2.5" fill="#58a6ff"/><circle cx="132.41" cy="271.36" r="2.5" fill="#58a6ff"/><circle cx="141.33" cy="270.07" r="2.5" fill="#58a6ff"/><circle cx="150.24" cy="269.35" r="2.5" fill="#58a6ff"/><circle cx="159.16" cy="267.01" r="2.5" fill="#58a6ff"/><circle cx="168.07" cy="265.37" r="2.5" fill="#58a6ff"/><circle cx="176.99" cy="260.50" r="2.5" fill="#58a6ff"/><circle cx="185.90" cy="258.53" r="2.5" fill="#58a6ff"/><circle cx="194.82" cy="257.35" r="2.5" fill="#58a6ff"/><circle cx="203.73" cy="256.19" r="2.5" fill="#58a6ff"/><circle cx="212.65" cy="255.89" r="2.5" fill="#58a6ff"/><circle cx="221.57" cy="255.18" r="2.5" fill="#58a6ff"/><circle cx="230.48" cy="254.06" r="2.5" fill="#58a6ff"/><circle cx="239.40" cy="252.23" r="2.5" fill="#58a6ff"/><circle cx="248.31" cy="251.57" r="2.5" fill="#58a6ff"/><circle cx="257.23" cy="250.62" r="2.5" fill="#58a6ff"/><circle cx="266.14" cy="249.68" r="2.5" fill="#58a6ff"/><circle cx="275.06" cy="249.36" r="2.5" fill="#58a6ff"/><circle cx="283.98" cy="249.01" r="2.5" fill="#58a6ff"/><circle cx="292.89" cy="247.81" r="2.5" fill="#58a6ff"/><circle cx="301.81" cy="247.06" r="2.5" fill="#58a6ff"/><circle cx="310.72" cy="246.00" r="2.5" fill="#58a6ff"/><circle cx="319.64" cy="245.24" r="2.5" fill="#58a6ff"/><circle cx="328.55" cy="244.79" r="2.5" fill="#58a6ff"/><circle cx="337.47" cy="244.25" r="2.5" fill="#58a6ff"/><circle cx="346.39" cy="243.55" r="2.5" fill="#58a6ff"/><circle cx="355.30" cy="242.75" r="2.5" fill="#58a6ff"/><circle cx="364.22" cy="241.76" r="2.5" fill="#58a6ff"/><circle cx="373.13" cy="240.76" r="2.5" fill="#58a6ff"/><circle cx="382.05" cy="239.81" r="2.5" fill="#58a6ff"/><circle cx="390.96" cy="238.92" r="2.5" fill="#58a6ff"/><circle cx="399.88" cy="238.61" r="2.5" fill="#58a6ff"/><circle cx="408.80" cy="237.35" r="2.5" fill="#58a6ff"/><circle cx="417.71" cy="235.58" r="2.5" fill="#58a6ff"/><circle cx="426.63" cy="233.50" r="2.5" fill="#58a6ff"/><circle cx="435.54" cy="230.88" r="2.5" fill="#58a6ff"/><circle cx="444.46" cy="225.61" r="2.5" fill="#58a6ff"/><circle cx="453.37" cy="222.07" r="2.5" fill="#58a6ff"/><circle cx="462.29" cy="220.18" r="2.5" fill="#58a6ff"/><circle cx="471.20" cy="218.58" r="2.5" fill="#58a6ff"/><circle cx="480.12" cy="214.20" r="2.5" fill="#58a6ff"/><circle cx="489.04" cy="210.49" r="2.5" fill="#58a6ff"/><circle cx="497.95" cy="207.05" r="2.5" fill="#58a6ff"/><circle cx="506.87" cy="203.18" r="2.5" fill="#58a6ff"/><circle cx="515.78" cy="200.10" r="2.5" fill="#58a6ff"/><circle cx="524.70" cy="198.30" r="2.5" fill="#58a6ff"/><circle cx="533.61" cy="195.70" r="2.5" fill="#58a6ff"/><circle cx="542.53" cy="193.07" r="2.5" fill="#58a6ff"/><circle cx="551.45" cy="188.48" r="2.5" fill="#58a6ff"/><circle cx="560.36" cy="184.83" r="2.5" fill="#58a6ff"/><circle cx="569.28" cy="180.41" r="2.5" fill="#58a6ff"/><circle cx="578.19" cy="177.43" r="2.5" fill="#58a6ff"/><circle cx="587.11" cy="175.40" r="2.5" fill="#58a6ff"/><circle cx="596.02" cy="173.80" r="2.5" fill="#58a6ff"/><circle cx="604.94" cy="172.25" r="2.5" fill="#58a6ff"/><circle cx="613.86" cy="169.02" r="2.5" fill="#58a6ff"/><circle cx="622.77" cy="165.59" r="2.5" fill="#58a6ff"/><circle cx="631.69" cy="162.41" r="2.5" fill="#58a6ff"/><circle cx="640.60" cy="160.05" r="2.5" fill="#58a6ff"/><circle cx="649.52" cy="158.90" r="2.5" fill="#58a6ff"/><circle cx="658.43" cy="157.52" r="2.5" fill="#58a6ff"/><circle cx="667.35" cy="154.82" r="2.5" fill="#58a6ff"/><circle cx="676.27" cy="152.63" r="2.5" fill="#58a6ff"/><circle cx="685.18" cy="149.75" r="2.5" fill="#58a6ff"/><circle cx="694.10" cy="147.30" r="2.5" fill="#58a6ff"/><circle cx="703.01" cy="144.85" r="2.5" fill="#58a6ff"/><circle cx="711.93" cy="142.47" r="2.5" fill="#58a6ff"/><circle cx="720.84" cy="141.52" r="2.5" fill="#58a6ff"/><circle cx="729.76" cy="139.75" r="2.5" fill="#58a6ff"/><circle cx="738.67" cy="136.95" r="2.5" fill="#58a6ff"/><circle cx="747.59" cy="133.36" r="2.5" fill="#58a6ff"/><circle cx="756.51" cy="130.63" r="2.5" fill="#58a6ff"/><circle cx="765.42" cy="128.57" r="2.5" fill="#58a6ff"/><circle cx="774.34" cy="126.58" r="2.5" fill="#58a6ff"/><circle cx="783.25" cy="123.78" r="2.5" fill="#58a6ff"/><circle cx="792.17" cy="120.77" r="2.5" fill="#58a6ff"/><circle cx="801.08" cy="117.61" r="2.5" fill="#58a6ff"/><circle cx="810.00" cy="111.98" r="4" fill="#F2C811"/>

  <!-- Last-value callout -->
  <rect x="720.0" y="92.0" width="82" height="24" rx="4" fill="#0d1a2a" stroke="#F2C811" stroke-width="1"/>
  <text x="761.0" y="108.0" font-family="'Segoe UI', Arial, sans-serif" font-size="12" fill="#F2C811" text-anchor="middle" font-weight="bold">20,795 total</text>

  <!-- X-axis labels -->
  <text x="70.0" y="298" font-family="'Segoe UI', Arial, sans-serif" font-size="10" fill="#8b949e" text-anchor="middle">Mar 26</text><text x="257.2" y="298" font-family="'Segoe UI', Arial, sans-serif" font-size="10" fill="#8b949e" text-anchor="middle">Apr 16</text><text x="444.5" y="298" font-family="'Segoe UI', Arial, sans-serif" font-size="10" fill="#8b949e" text-anchor="middle">May 07</text><text x="631.7" y="298" font-family="'Segoe UI', Arial, sans-serif" font-size="10" fill="#8b949e" text-anchor="middle">May 28</text><text x="810.0" y="298" font-family="'Segoe UI', Arial, sans-serif" font-size="10" fill="#8b949e" text-anchor="middle">Jun 18</text>

  <!-- Footer: date range -->
  <text x="70" y="328" font-family="'Segoe UI', Arial, sans-serif" font-size="10" fill="#8b949e">Mar 26, 2026 → Jun 18, 2026</text>
  <text x="810" y="328" font-family="'Segoe UI', Arial, sans-serif" font-size="10" fill="#8b949e" text-anchor="end">84 days of data</text>
</svg>
