<svg xmlns="http://www.w3.org/2000/svg" width="850" height="340" viewBox="0 0 850 340">
  <defs>
    <linearGradient id="areaFill" x1="0" y1="0" x2="0" y2="1">
      <stop offset="0%" stop-color="#58a6ff" stop-opacity="0.45"/>
      <stop offset="100%" stop-color="#58a6ff" stop-opacity="0"/>
    </linearGradient>
  </defs>

  <!-- Background -->
  <rect width="100%" height="100%" fill="#0d1117" rx="8"/>

  <!-- Title -->
  <text x="425" y="33" font-family="'Segoe UI', Arial, sans-serif" font-size="17" fill="#F2C811" text-anchor="middle" font-weight="bold">pbi-cli Downloads Over Time</text>
  <text x="425" y="52" font-family="'Segoe UI', Arial, sans-serif" font-size="11" fill="#8b949e" text-anchor="middle">Cumulative installs from PyPI • mirrors excluded • source: pypistats.org</text>

  <!-- Gridlines & y-labels -->
  <line x1="70" y1="280.0" x2="810" y2="280.0" stroke="#21262d" stroke-width="1" stroke-dasharray="2,3"/><line x1="70" y1="239.6" x2="810" y2="239.6" stroke="#21262d" stroke-width="1" stroke-dasharray="2,3"/><line x1="70" y1="199.2" x2="810" y2="199.2" stroke="#21262d" stroke-width="1" stroke-dasharray="2,3"/><line x1="70" y1="158.8" x2="810" y2="158.8" stroke="#21262d" stroke-width="1" stroke-dasharray="2,3"/><line x1="70" y1="118.4" x2="810" y2="118.4" stroke="#21262d" stroke-width="1" stroke-dasharray="2,3"/><line x1="70" y1="78.0" x2="810" y2="78.0" stroke="#21262d" stroke-width="1" stroke-dasharray="2,3"/>
  <text x="62" y="284.0" font-family="'Segoe UI', Arial, sans-serif" font-size="10" fill="#8b949e" text-anchor="end">0</text><text x="62" y="243.6" font-family="'Segoe UI', Arial, sans-serif" font-size="10" fill="#8b949e" text-anchor="end">4,000</text><text x="62" y="203.2" font-family="'Segoe UI', Arial, sans-serif" font-size="10" fill="#8b949e" text-anchor="end">8,000</text><text x="62" y="162.8" font-family="'Segoe UI', Arial, sans-serif" font-size="10" fill="#8b949e" text-anchor="end">12,000</text><text x="62" y="122.4" font-family="'Segoe UI', Arial, sans-serif" font-size="10" fill="#8b949e" text-anchor="end">16,000</text><text x="62" y="82.0" font-family="'Segoe UI', Arial, sans-serif" font-size="10" fill="#8b949e" text-anchor="end">20,000</text>

  <!-- Area fill -->
  <path d="M 70.00,280 L 70.00,273.87 L 82.13,271.19 L 94.26,270.87 L 106.39,270.81 L 118.52,270.48 L 130.66,270.30 L 142.79,269.98 L 154.92,269.20 L 167.05,267.59 L 179.18,266.69 L 191.31,263.76 L 203.44,261.71 L 215.57,255.63 L 227.70,253.16 L 239.84,251.69 L 251.97,250.24 L 264.10,249.86 L 276.23,248.97 L 288.36,247.57 L 300.49,245.29 L 312.62,244.47 L 324.75,243.28 L 336.89,242.09 L 349.02,241.70 L 361.15,241.26 L 373.28,239.76 L 385.41,238.82 L 397.54,237.50 L 409.67,236.55 L 421.80,235.98 L 433.93,235.32 L 446.07,234.44 L 458.20,233.44 L 470.33,232.20 L 482.46,230.94 L 494.59,229.76 L 506.72,228.65 L 518.85,228.26 L 530.98,226.69 L 543.11,224.48 L 555.25,221.87 L 567.38,218.60 L 579.51,212.01 L 591.64,207.58 L 603.77,205.22 L 615.90,203.23 L 628.03,197.76 L 640.16,193.11 L 652.30,188.82 L 664.43,183.98 L 676.56,180.13 L 688.69,177.87 L 700.82,174.63 L 712.95,171.33 L 725.08,165.60 L 737.21,161.04 L 749.34,155.52 L 761.48,151.79 L 773.61,149.26 L 785.74,147.26 L 797.87,145.32 L 810.00,141.28 L 810.00,280 Z" fill="url(#areaFill)"/>

  <!-- Line -->
  <path d="M 70.00,273.87 L 82.13,271.19 L 94.26,270.87 L 106.39,270.81 L 118.52,270.48 L 130.66,270.30 L 142.79,269.98 L 154.92,269.20 L 167.05,267.59 L 179.18,266.69 L 191.31,263.76 L 203.44,261.71 L 215.57,255.63 L 227.70,253.16 L 239.84,251.69 L 251.97,250.24 L 264.10,249.86 L 276.23,248.97 L 288.36,247.57 L 300.49,245.29 L 312.62,244.47 L 324.75,243.28 L 336.89,242.09 L 349.02,241.70 L 361.15,241.26 L 373.28,239.76 L 385.41,238.82 L 397.54,237.50 L 409.67,236.55 L 421.80,235.98 L 433.93,235.32 L 446.07,234.44 L 458.20,233.44 L 470.33,232.20 L 482.46,230.94 L 494.59,229.76 L 506.72,228.65 L 518.85,228.26 L 530.98,226.69 L 543.11,224.48 L 555.25,221.87 L 567.38,218.60 L 579.51,212.01 L 591.64,207.58 L 603.77,205.22 L 615.90,203.23 L 628.03,197.76 L 640.16,193.11 L 652.30,188.82 L 664.43,183.98 L 676.56,180.13 L 688.69,177.87 L 700.82,174.63 L 712.95,171.33 L 725.08,165.60 L 737.21,161.04 L 749.34,155.52 L 761.48,151.79 L 773.61,149.26 L 785.74,147.26 L 797.87,145.32 L 810.00,141.28" fill="none" stroke="#58a6ff" stroke-width="2.5" stroke-linejoin="round" stroke-linecap="round"/>

  <!-- Data points -->
  <circle cx="70.00" cy="273.87" r="2.5" fill="#58a6ff"/><circle cx="82.13" cy="271.19" r="2.5" fill="#58a6ff"/><circle cx="94.26" cy="270.87" r="2.5" fill="#58a6ff"/><circle cx="106.39" cy="270.81" r="2.5" fill="#58a6ff"/><circle cx="118.52" cy="270.48" r="2.5" fill="#58a6ff"/><circle cx="130.66" cy="270.30" r="2.5" fill="#58a6ff"/><circle cx="142.79" cy="269.98" r="2.5" fill="#58a6ff"/><circle cx="154.92" cy="269.20" r="2.5" fill="#58a6ff"/><circle cx="167.05" cy="267.59" r="2.5" fill="#58a6ff"/><circle cx="179.18" cy="266.69" r="2.5" fill="#58a6ff"/><circle cx="191.31" cy="263.76" r="2.5" fill="#58a6ff"/><circle cx="203.44" cy="261.71" r="2.5" fill="#58a6ff"/><circle cx="215.57" cy="255.63" r="2.5" fill="#58a6ff"/><circle cx="227.70" cy="253.16" r="2.5" fill="#58a6ff"/><circle cx="239.84" cy="251.69" r="2.5" fill="#58a6ff"/><circle cx="251.97" cy="250.24" r="2.5" fill="#58a6ff"/><circle cx="264.10" cy="249.86" r="2.5" fill="#58a6ff"/><circle cx="276.23" cy="248.97" r="2.5" fill="#58a6ff"/><circle cx="288.36" cy="247.57" r="2.5" fill="#58a6ff"/><circle cx="300.49" cy="245.29" r="2.5" fill="#58a6ff"/><circle cx="312.62" cy="244.47" r="2.5" fill="#58a6ff"/><circle cx="324.75" cy="243.28" r="2.5" fill="#58a6ff"/><circle cx="336.89" cy="242.09" r="2.5" fill="#58a6ff"/><circle cx="349.02" cy="241.70" r="2.5" fill="#58a6ff"/><circle cx="361.15" cy="241.26" r="2.5" fill="#58a6ff"/><circle cx="373.28" cy="239.76" r="2.5" fill="#58a6ff"/><circle cx="385.41" cy="238.82" r="2.5" fill="#58a6ff"/><circle cx="397.54" cy="237.50" r="2.5" fill="#58a6ff"/><circle cx="409.67" cy="236.55" r="2.5" fill="#58a6ff"/><circle cx="421.80" cy="235.98" r="2.5" fill="#58a6ff"/><circle cx="433.93" cy="235.32" r="2.5" fill="#58a6ff"/><circle cx="446.07" cy="234.44" r="2.5" fill="#58a6ff"/><circle cx="458.20" cy="233.44" r="2.5" fill="#58a6ff"/><circle cx="470.33" cy="232.20" r="2.5" fill="#58a6ff"/><circle cx="482.46" cy="230.94" r="2.5" fill="#58a6ff"/><circle cx="494.59" cy="229.76" r="2.5" fill="#58a6ff"/><circle cx="506.72" cy="228.65" r="2.5" fill="#58a6ff"/><circle cx="518.85" cy="228.26" r="2.5" fill="#58a6ff"/><circle cx="530.98" cy="226.69" r="2.5" fill="#58a6ff"/><circle cx="543.11" cy="224.48" r="2.5" fill="#58a6ff"/><circle cx="555.25" cy="221.87" r="2.5" fill="#58a6ff"/><circle cx="567.38" cy="218.60" r="2.5" fill="#58a6ff"/><circle cx="579.51" cy="212.01" r="2.5" fill="#58a6ff"/><circle cx="591.64" cy="207.58" r="2.5" fill="#58a6ff"/><circle cx="603.77" cy="205.22" r="2.5" fill="#58a6ff"/><circle cx="615.90" cy="203.23" r="2.5" fill="#58a6ff"/><circle cx="628.03" cy="197.76" r="2.5" fill="#58a6ff"/><circle cx="640.16" cy="193.11" r="2.5" fill="#58a6ff"/><circle cx="652.30" cy="188.82" r="2.5" fill="#58a6ff"/><circle cx="664.43" cy="183.98" r="2.5" fill="#58a6ff"/><circle cx="676.56" cy="180.13" r="2.5" fill="#58a6ff"/><circle cx="688.69" cy="177.87" r="2.5" fill="#58a6ff"/><circle cx="700.82" cy="174.63" r="2.5" fill="#58a6ff"/><circle cx="712.95" cy="171.33" r="2.5" fill="#58a6ff"/><circle cx="725.08" cy="165.60" r="2.5" fill="#58a6ff"/><circle cx="737.21" cy="161.04" r="2.5" fill="#58a6ff"/><circle cx="749.34" cy="155.52" r="2.5" fill="#58a6ff"/><circle cx="761.48" cy="151.79" r="2.5" fill="#58a6ff"/><circle cx="773.61" cy="149.26" r="2.5" fill="#58a6ff"/><circle cx="785.74" cy="147.26" r="2.5" fill="#58a6ff"/><circle cx="797.87" cy="145.32" r="2.5" fill="#58a6ff"/><circle cx="810.00" cy="141.28" r="4" fill="#F2C811"/>

  <!-- Last-value callout -->
  <rect x="720.0" y="113.3" width="82" height="24" rx="4" fill="#0d1a2a" stroke="#F2C811" stroke-width="1"/>
  <text x="761.0" y="129.3" font-family="'Segoe UI', Arial, sans-serif" font-size="12" fill="#F2C811" text-anchor="middle" font-weight="bold">13,735 total</text>

  <!-- X-axis labels -->
  <text x="70.0" y="298" font-family="'Segoe UI', Arial, sans-serif" font-size="10" fill="#8b949e" text-anchor="middle">Mar 26</text><text x="252.0" y="298" font-family="'Segoe UI', Arial, sans-serif" font-size="10" fill="#8b949e" text-anchor="middle">Apr 10</text><text x="446.1" y="298" font-family="'Segoe UI', Arial, sans-serif" font-size="10" fill="#8b949e" text-anchor="middle">Apr 26</text><text x="628.0" y="298" font-family="'Segoe UI', Arial, sans-serif" font-size="10" fill="#8b949e" text-anchor="middle">May 11</text><text x="810.0" y="298" font-family="'Segoe UI', Arial, sans-serif" font-size="10" fill="#8b949e" text-anchor="middle">May 26</text>

  <!-- Footer: date range -->
  <text x="70" y="328" font-family="'Segoe UI', Arial, sans-serif" font-size="10" fill="#8b949e">Mar 26, 2026 → May 26, 2026</text>
  <text x="810" y="328" font-family="'Segoe UI', Arial, sans-serif" font-size="10" fill="#8b949e" text-anchor="end">62 days of data</text>
</svg>
