<svg xmlns="http://www.w3.org/2000/svg" width="850" height="340" viewBox="0 0 850 340">
  <defs>
    <linearGradient id="areaFill" x1="0" y1="0" x2="0" y2="1">
      <stop offset="0%" stop-color="#58a6ff" stop-opacity="0.45"/>
      <stop offset="100%" stop-color="#58a6ff" stop-opacity="0"/>
    </linearGradient>
  </defs>

  <!-- Background -->
  <rect width="100%" height="100%" fill="#0d1117" rx="8"/>

  <!-- Title -->
  <text x="425" y="33" font-family="'Segoe UI', Arial, sans-serif" font-size="17" fill="#F2C811" text-anchor="middle" font-weight="bold">pbi-cli Downloads Over Time</text>
  <text x="425" y="52" font-family="'Segoe UI', Arial, sans-serif" font-size="11" fill="#8b949e" text-anchor="middle">Cumulative installs from PyPI • mirrors excluded • source: pypistats.org</text>

  <!-- Gridlines & y-labels -->
  <line x1="70" y1="280.0" x2="810" y2="280.0" stroke="#21262d" stroke-width="1" stroke-dasharray="2,3"/><line x1="70" y1="239.6" x2="810" y2="239.6" stroke="#21262d" stroke-width="1" stroke-dasharray="2,3"/><line x1="70" y1="199.2" x2="810" y2="199.2" stroke="#21262d" stroke-width="1" stroke-dasharray="2,3"/><line x1="70" y1="158.8" x2="810" y2="158.8" stroke="#21262d" stroke-width="1" stroke-dasharray="2,3"/><line x1="70" y1="118.4" x2="810" y2="118.4" stroke="#21262d" stroke-width="1" stroke-dasharray="2,3"/><line x1="70" y1="78.0" x2="810" y2="78.0" stroke="#21262d" stroke-width="1" stroke-dasharray="2,3"/>
  <text x="62" y="284.0" font-family="'Segoe UI', Arial, sans-serif" font-size="10" fill="#8b949e" text-anchor="end">0</text><text x="62" y="243.6" font-family="'Segoe UI', Arial, sans-serif" font-size="10" fill="#8b949e" text-anchor="end">10,000</text><text x="62" y="203.2" font-family="'Segoe UI', Arial, sans-serif" font-size="10" fill="#8b949e" text-anchor="end">20,000</text><text x="62" y="162.8" font-family="'Segoe UI', Arial, sans-serif" font-size="10" fill="#8b949e" text-anchor="end">30,000</text><text x="62" y="122.4" font-family="'Segoe UI', Arial, sans-serif" font-size="10" fill="#8b949e" text-anchor="end">40,000</text><text x="62" y="82.0" font-family="'Segoe UI', Arial, sans-serif" font-size="10" fill="#8b949e" text-anchor="end">50,000</text>

  <!-- Area fill -->
  <path d="M 70.00,280 L 70.00,277.55 L 78.51,276.48 L 87.01,276.35 L 95.52,276.32 L 104.02,276.19 L 112.53,276.12 L 121.03,275.99 L 129.54,275.68 L 138.05,275.03 L 146.55,274.68 L 155.06,273.50 L 163.56,272.68 L 172.07,270.25 L 180.57,269.27 L 189.08,268.68 L 197.59,268.09 L 206.09,267.94 L 214.60,267.59 L 223.10,267.03 L 231.61,266.11 L 240.11,265.79 L 248.62,265.31 L 257.13,264.84 L 265.63,264.68 L 274.14,264.50 L 282.64,263.90 L 291.15,263.53 L 299.66,263.00 L 308.16,262.62 L 316.67,262.39 L 325.17,262.13 L 333.68,261.78 L 342.18,261.38 L 350.69,260.88 L 359.20,260.38 L 367.70,259.91 L 376.21,259.46 L 384.71,259.30 L 393.22,258.68 L 401.72,257.79 L 410.23,256.75 L 418.74,255.44 L 427.24,252.80 L 435.75,251.03 L 444.25,250.09 L 452.76,249.29 L 461.26,247.10 L 469.77,245.24 L 478.28,243.53 L 486.78,241.59 L 495.29,240.05 L 503.79,239.15 L 512.30,237.85 L 520.80,236.53 L 529.31,234.24 L 537.82,232.42 L 546.32,230.21 L 554.83,228.72 L 563.33,227.70 L 571.84,226.90 L 580.34,226.13 L 588.85,224.51 L 597.36,222.79 L 605.86,221.21 L 614.37,220.03 L 622.87,219.45 L 631.38,218.76 L 639.89,217.41 L 648.39,216.31 L 656.90,214.88 L 665.40,213.65 L 673.91,212.43 L 682.41,211.24 L 690.92,210.76 L 699.43,209.87 L 707.93,208.48 L 716.44,206.68 L 724.94,205.31 L 733.45,204.29 L 741.95,203.29 L 750.46,201.89 L 758.97,200.38 L 767.47,198.80 L 775.98,195.99 L 784.48,195.06 L 792.99,194.50 L 801.49,193.74 L 810.00,192.10 L 810.00,280 Z" fill="url(#areaFill)"/>

  <!-- Line -->
  <path d="M 70.00,277.55 L 78.51,276.48 L 87.01,276.35 L 95.52,276.32 L 104.02,276.19 L 112.53,276.12 L 121.03,275.99 L 129.54,275.68 L 138.05,275.03 L 146.55,274.68 L 155.06,273.50 L 163.56,272.68 L 172.07,270.25 L 180.57,269.27 L 189.08,268.68 L 197.59,268.09 L 206.09,267.94 L 214.60,267.59 L 223.10,267.03 L 231.61,266.11 L 240.11,265.79 L 248.62,265.31 L 257.13,264.84 L 265.63,264.68 L 274.14,264.50 L 282.64,263.90 L 291.15,263.53 L 299.66,263.00 L 308.16,262.62 L 316.67,262.39 L 325.17,262.13 L 333.68,261.78 L 342.18,261.38 L 350.69,260.88 L 359.20,260.38 L 367.70,259.91 L 376.21,259.46 L 384.71,259.30 L 393.22,258.68 L 401.72,257.79 L 410.23,256.75 L 418.74,255.44 L 427.24,252.80 L 435.75,251.03 L 444.25,250.09 L 452.76,249.29 L 461.26,247.10 L 469.77,245.24 L 478.28,243.53 L 486.78,241.59 L 495.29,240.05 L 503.79,239.15 L 512.30,237.85 L 520.80,236.53 L 529.31,234.24 L 537.82,232.42 L 546.32,230.21 L 554.83,228.72 L 563.33,227.70 L 571.84,226.90 L 580.34,226.13 L 588.85,224.51 L 597.36,222.79 L 605.86,221.21 L 614.37,220.03 L 622.87,219.45 L 631.38,218.76 L 639.89,217.41 L 648.39,216.31 L 656.90,214.88 L 665.40,213.65 L 673.91,212.43 L 682.41,211.24 L 690.92,210.76 L 699.43,209.87 L 707.93,208.48 L 716.44,206.68 L 724.94,205.31 L 733.45,204.29 L 741.95,203.29 L 750.46,201.89 L 758.97,200.38 L 767.47,198.80 L 775.98,195.99 L 784.48,195.06 L 792.99,194.50 L 801.49,193.74 L 810.00,192.10" fill="none" stroke="#58a6ff" stroke-width="2.5" stroke-linejoin="round" stroke-linecap="round"/>

  <!-- Data points -->
  <circle cx="70.00" cy="277.55" r="2.5" fill="#58a6ff"/><circle cx="78.51" cy="276.48" r="2.5" fill="#58a6ff"/><circle cx="87.01" cy="276.35" r="2.5" fill="#58a6ff"/><circle cx="95.52" cy="276.32" r="2.5" fill="#58a6ff"/><circle cx="104.02" cy="276.19" r="2.5" fill="#58a6ff"/><circle cx="112.53" cy="276.12" r="2.5" fill="#58a6ff"/><circle cx="121.03" cy="275.99" r="2.5" fill="#58a6ff"/><circle cx="129.54" cy="275.68" r="2.5" fill="#58a6ff"/><circle cx="138.05" cy="275.03" r="2.5" fill="#58a6ff"/><circle cx="146.55" cy="274.68" r="2.5" fill="#58a6ff"/><circle cx="155.06" cy="273.50" r="2.5" fill="#58a6ff"/><circle cx="163.56" cy="272.68" r="2.5" fill="#58a6ff"/><circle cx="172.07" cy="270.25" r="2.5" fill="#58a6ff"/><circle cx="180.57" cy="269.27" r="2.5" fill="#58a6ff"/><circle cx="189.08" cy="268.68" r="2.5" fill="#58a6ff"/><circle cx="197.59" cy="268.09" r="2.5" fill="#58a6ff"/><circle cx="206.09" cy="267.94" r="2.5" fill="#58a6ff"/><circle cx="214.60" cy="267.59" r="2.5" fill="#58a6ff"/><circle cx="223.10" cy="267.03" r="2.5" fill="#58a6ff"/><circle cx="231.61" cy="266.11" r="2.5" fill="#58a6ff"/><circle cx="240.11" cy="265.79" r="2.5" fill="#58a6ff"/><circle cx="248.62" cy="265.31" r="2.5" fill="#58a6ff"/><circle cx="257.13" cy="264.84" r="2.5" fill="#58a6ff"/><circle cx="265.63" cy="264.68" r="2.5" fill="#58a6ff"/><circle cx="274.14" cy="264.50" r="2.5" fill="#58a6ff"/><circle cx="282.64" cy="263.90" r="2.5" fill="#58a6ff"/><circle cx="291.15" cy="263.53" r="2.5" fill="#58a6ff"/><circle cx="299.66" cy="263.00" r="2.5" fill="#58a6ff"/><circle cx="308.16" cy="262.62" r="2.5" fill="#58a6ff"/><circle cx="316.67" cy="262.39" r="2.5" fill="#58a6ff"/><circle cx="325.17" cy="262.13" r="2.5" fill="#58a6ff"/><circle cx="333.68" cy="261.78" r="2.5" fill="#58a6ff"/><circle cx="342.18" cy="261.38" r="2.5" fill="#58a6ff"/><circle cx="350.69" cy="260.88" r="2.5" fill="#58a6ff"/><circle cx="359.20" cy="260.38" r="2.5" fill="#58a6ff"/><circle cx="367.70" cy="259.91" r="2.5" fill="#58a6ff"/><circle cx="376.21" cy="259.46" r="2.5" fill="#58a6ff"/><circle cx="384.71" cy="259.30" r="2.5" fill="#58a6ff"/><circle cx="393.22" cy="258.68" r="2.5" fill="#58a6ff"/><circle cx="401.72" cy="257.79" r="2.5" fill="#58a6ff"/><circle cx="410.23" cy="256.75" r="2.5" fill="#58a6ff"/><circle cx="418.74" cy="255.44" r="2.5" fill="#58a6ff"/><circle cx="427.24" cy="252.80" r="2.5" fill="#58a6ff"/><circle cx="435.75" cy="251.03" r="2.5" fill="#58a6ff"/><circle cx="444.25" cy="250.09" r="2.5" fill="#58a6ff"/><circle cx="452.76" cy="249.29" r="2.5" fill="#58a6ff"/><circle cx="461.26" cy="247.10" r="2.5" fill="#58a6ff"/><circle cx="469.77" cy="245.24" r="2.5" fill="#58a6ff"/><circle cx="478.28" cy="243.53" r="2.5" fill="#58a6ff"/><circle cx="486.78" cy="241.59" r="2.5" fill="#58a6ff"/><circle cx="495.29" cy="240.05" r="2.5" fill="#58a6ff"/><circle cx="503.79" cy="239.15" r="2.5" fill="#58a6ff"/><circle cx="512.30" cy="237.85" r="2.5" fill="#58a6ff"/><circle cx="520.80" cy="236.53" r="2.5" fill="#58a6ff"/><circle cx="529.31" cy="234.24" r="2.5" fill="#58a6ff"/><circle cx="537.82" cy="232.42" r="2.5" fill="#58a6ff"/><circle cx="546.32" cy="230.21" r="2.5" fill="#58a6ff"/><circle cx="554.83" cy="228.72" r="2.5" fill="#58a6ff"/><circle cx="563.33" cy="227.70" r="2.5" fill="#58a6ff"/><circle cx="571.84" cy="226.90" r="2.5" fill="#58a6ff"/><circle cx="580.34" cy="226.13" r="2.5" fill="#58a6ff"/><circle cx="588.85" cy="224.51" r="2.5" fill="#58a6ff"/><circle cx="597.36" cy="222.79" r="2.5" fill="#58a6ff"/><circle cx="605.86" cy="221.21" r="2.5" fill="#58a6ff"/><circle cx="614.37" cy="220.03" r="2.5" fill="#58a6ff"/><circle cx="622.87" cy="219.45" r="2.5" fill="#58a6ff"/><circle cx="631.38" cy="218.76" r="2.5" fill="#58a6ff"/><circle cx="639.89" cy="217.41" r="2.5" fill="#58a6ff"/><circle cx="648.39" cy="216.31" r="2.5" fill="#58a6ff"/><circle cx="656.90" cy="214.88" r="2.5" fill="#58a6ff"/><circle cx="665.40" cy="213.65" r="2.5" fill="#58a6ff"/><circle cx="673.91" cy="212.43" r="2.5" fill="#58a6ff"/><circle cx="682.41" cy="211.24" r="2.5" fill="#58a6ff"/><circle cx="690.92" cy="210.76" r="2.5" fill="#58a6ff"/><circle cx="699.43" cy="209.87" r="2.5" fill="#58a6ff"/><circle cx="707.93" cy="208.48" r="2.5" fill="#58a6ff"/><circle cx="716.44" cy="206.68" r="2.5" fill="#58a6ff"/><circle cx="724.94" cy="205.31" r="2.5" fill="#58a6ff"/><circle cx="733.45" cy="204.29" r="2.5" fill="#58a6ff"/><circle cx="741.95" cy="203.29" r="2.5" fill="#58a6ff"/><circle cx="750.46" cy="201.89" r="2.5" fill="#58a6ff"/><circle cx="758.97" cy="200.38" r="2.5" fill="#58a6ff"/><circle cx="767.47" cy="198.80" r="2.5" fill="#58a6ff"/><circle cx="775.98" cy="195.99" r="2.5" fill="#58a6ff"/><circle cx="784.48" cy="195.06" r="2.5" fill="#58a6ff"/><circle cx="792.99" cy="194.50" r="2.5" fill="#58a6ff"/><circle cx="801.49" cy="193.74" r="2.5" fill="#58a6ff"/><circle cx="810.00" cy="192.10" r="4" fill="#F2C811"/>

  <!-- Last-value callout -->
  <rect x="720.0" y="164.1" width="82" height="24" rx="4" fill="#0d1a2a" stroke="#F2C811" stroke-width="1"/>
  <text x="761.0" y="180.1" font-family="'Segoe UI', Arial, sans-serif" font-size="12" fill="#F2C811" text-anchor="middle" font-weight="bold">21,758 total</text>

  <!-- X-axis labels -->
  <text x="70.0" y="298" font-family="'Segoe UI', Arial, sans-serif" font-size="10" fill="#8b949e" text-anchor="middle">Mar 26</text><text x="257.1" y="298" font-family="'Segoe UI', Arial, sans-serif" font-size="10" fill="#8b949e" text-anchor="middle">Apr 17</text><text x="444.3" y="298" font-family="'Segoe UI', Arial, sans-serif" font-size="10" fill="#8b949e" text-anchor="middle">May 09</text><text x="631.4" y="298" font-family="'Segoe UI', Arial, sans-serif" font-size="10" fill="#8b949e" text-anchor="middle">May 31</text><text x="810.0" y="298" font-family="'Segoe UI', Arial, sans-serif" font-size="10" fill="#8b949e" text-anchor="middle">Jun 22</text>

  <!-- Footer: date range -->
  <text x="70" y="328" font-family="'Segoe UI', Arial, sans-serif" font-size="10" fill="#8b949e">Mar 26, 2026 → Jun 22, 2026</text>
  <text x="810" y="328" font-family="'Segoe UI', Arial, sans-serif" font-size="10" fill="#8b949e" text-anchor="end">88 days of data</text>
</svg>
