<svg xmlns="http://www.w3.org/2000/svg" width="850" height="340" viewBox="0 0 850 340">
  <defs>
    <linearGradient id="areaFill" x1="0" y1="0" x2="0" y2="1">
      <stop offset="0%" stop-color="#58a6ff" stop-opacity="0.45"/>
      <stop offset="100%" stop-color="#58a6ff" stop-opacity="0"/>
    </linearGradient>
  </defs>

  <!-- Background -->
  <rect width="100%" height="100%" fill="#0d1117" rx="8"/>

  <!-- Title -->
  <text x="425" y="33" font-family="'Segoe UI', Arial, sans-serif" font-size="17" fill="#F2C811" text-anchor="middle" font-weight="bold">pbi-cli Downloads Over Time</text>
  <text x="425" y="52" font-family="'Segoe UI', Arial, sans-serif" font-size="11" fill="#8b949e" text-anchor="middle">Cumulative installs from PyPI • mirrors excluded • source: pypistats.org</text>

  <!-- Gridlines & y-labels -->
  <line x1="70" y1="280.0" x2="810" y2="280.0" stroke="#21262d" stroke-width="1" stroke-dasharray="2,3"/><line x1="70" y1="239.6" x2="810" y2="239.6" stroke="#21262d" stroke-width="1" stroke-dasharray="2,3"/><line x1="70" y1="199.2" x2="810" y2="199.2" stroke="#21262d" stroke-width="1" stroke-dasharray="2,3"/><line x1="70" y1="158.8" x2="810" y2="158.8" stroke="#21262d" stroke-width="1" stroke-dasharray="2,3"/><line x1="70" y1="118.4" x2="810" y2="118.4" stroke="#21262d" stroke-width="1" stroke-dasharray="2,3"/><line x1="70" y1="78.0" x2="810" y2="78.0" stroke="#21262d" stroke-width="1" stroke-dasharray="2,3"/>
  <text x="62" y="284.0" font-family="'Segoe UI', Arial, sans-serif" font-size="10" fill="#8b949e" text-anchor="end">0</text><text x="62" y="243.6" font-family="'Segoe UI', Arial, sans-serif" font-size="10" fill="#8b949e" text-anchor="end">2,000</text><text x="62" y="203.2" font-family="'Segoe UI', Arial, sans-serif" font-size="10" fill="#8b949e" text-anchor="end">4,000</text><text x="62" y="162.8" font-family="'Segoe UI', Arial, sans-serif" font-size="10" fill="#8b949e" text-anchor="end">6,000</text><text x="62" y="122.4" font-family="'Segoe UI', Arial, sans-serif" font-size="10" fill="#8b949e" text-anchor="end">8,000</text><text x="62" y="82.0" font-family="'Segoe UI', Arial, sans-serif" font-size="10" fill="#8b949e" text-anchor="end">10,000</text>

  <!-- Area fill -->
  <path d="M 70.00,280 L 70.00,267.74 L 95.52,262.39 L 121.03,261.74 L 146.55,261.62 L 172.07,260.95 L 197.59,260.61 L 223.10,259.96 L 248.62,258.41 L 274.14,255.17 L 299.66,253.38 L 325.17,247.52 L 350.69,243.42 L 376.21,231.26 L 401.72,226.33 L 427.24,223.38 L 452.76,220.47 L 478.28,219.72 L 503.79,217.95 L 529.31,215.14 L 554.83,210.57 L 580.34,208.94 L 605.86,206.55 L 631.38,204.19 L 656.90,203.40 L 682.41,202.51 L 707.93,199.52 L 733.45,197.64 L 758.97,195.00 L 784.48,193.10 L 810.00,191.97 L 810.00,280 Z" fill="url(#areaFill)"/>

  <!-- Line -->
  <path d="M 70.00,267.74 L 95.52,262.39 L 121.03,261.74 L 146.55,261.62 L 172.07,260.95 L 197.59,260.61 L 223.10,259.96 L 248.62,258.41 L 274.14,255.17 L 299.66,253.38 L 325.17,247.52 L 350.69,243.42 L 376.21,231.26 L 401.72,226.33 L 427.24,223.38 L 452.76,220.47 L 478.28,219.72 L 503.79,217.95 L 529.31,215.14 L 554.83,210.57 L 580.34,208.94 L 605.86,206.55 L 631.38,204.19 L 656.90,203.40 L 682.41,202.51 L 707.93,199.52 L 733.45,197.64 L 758.97,195.00 L 784.48,193.10 L 810.00,191.97" fill="none" stroke="#58a6ff" stroke-width="2.5" stroke-linejoin="round" stroke-linecap="round"/>

  <!-- Data points -->
  <circle cx="70.00" cy="267.74" r="2.5" fill="#58a6ff"/><circle cx="95.52" cy="262.39" r="2.5" fill="#58a6ff"/><circle cx="121.03" cy="261.74" r="2.5" fill="#58a6ff"/><circle cx="146.55" cy="261.62" r="2.5" fill="#58a6ff"/><circle cx="172.07" cy="260.95" r="2.5" fill="#58a6ff"/><circle cx="197.59" cy="260.61" r="2.5" fill="#58a6ff"/><circle cx="223.10" cy="259.96" r="2.5" fill="#58a6ff"/><circle cx="248.62" cy="258.41" r="2.5" fill="#58a6ff"/><circle cx="274.14" cy="255.17" r="2.5" fill="#58a6ff"/><circle cx="299.66" cy="253.38" r="2.5" fill="#58a6ff"/><circle cx="325.17" cy="247.52" r="2.5" fill="#58a6ff"/><circle cx="350.69" cy="243.42" r="2.5" fill="#58a6ff"/><circle cx="376.21" cy="231.26" r="2.5" fill="#58a6ff"/><circle cx="401.72" cy="226.33" r="2.5" fill="#58a6ff"/><circle cx="427.24" cy="223.38" r="2.5" fill="#58a6ff"/><circle cx="452.76" cy="220.47" r="2.5" fill="#58a6ff"/><circle cx="478.28" cy="219.72" r="2.5" fill="#58a6ff"/><circle cx="503.79" cy="217.95" r="2.5" fill="#58a6ff"/><circle cx="529.31" cy="215.14" r="2.5" fill="#58a6ff"/><circle cx="554.83" cy="210.57" r="2.5" fill="#58a6ff"/><circle cx="580.34" cy="208.94" r="2.5" fill="#58a6ff"/><circle cx="605.86" cy="206.55" r="2.5" fill="#58a6ff"/><circle cx="631.38" cy="204.19" r="2.5" fill="#58a6ff"/><circle cx="656.90" cy="203.40" r="2.5" fill="#58a6ff"/><circle cx="682.41" cy="202.51" r="2.5" fill="#58a6ff"/><circle cx="707.93" cy="199.52" r="2.5" fill="#58a6ff"/><circle cx="733.45" cy="197.64" r="2.5" fill="#58a6ff"/><circle cx="758.97" cy="195.00" r="2.5" fill="#58a6ff"/><circle cx="784.48" cy="193.10" r="2.5" fill="#58a6ff"/><circle cx="810.00" cy="191.97" r="4" fill="#F2C811"/>

  <!-- Last-value callout -->
  <rect x="720.0" y="164.0" width="82" height="24" rx="4" fill="#0d1a2a" stroke="#F2C811" stroke-width="1"/>
  <text x="761.0" y="180.0" font-family="'Segoe UI', Arial, sans-serif" font-size="12" fill="#F2C811" text-anchor="middle" font-weight="bold">4,358 total</text>

  <!-- X-axis labels -->
  <text x="70.0" y="298" font-family="'Segoe UI', Arial, sans-serif" font-size="10" fill="#8b949e" text-anchor="middle">Mar 26</text><text x="248.6" y="298" font-family="'Segoe UI', Arial, sans-serif" font-size="10" fill="#8b949e" text-anchor="middle">Apr 02</text><text x="452.8" y="298" font-family="'Segoe UI', Arial, sans-serif" font-size="10" fill="#8b949e" text-anchor="middle">Apr 10</text><text x="631.4" y="298" font-family="'Segoe UI', Arial, sans-serif" font-size="10" fill="#8b949e" text-anchor="middle">Apr 17</text><text x="810.0" y="298" font-family="'Segoe UI', Arial, sans-serif" font-size="10" fill="#8b949e" text-anchor="middle">Apr 24</text>

  <!-- Footer: date range -->
  <text x="70" y="328" font-family="'Segoe UI', Arial, sans-serif" font-size="10" fill="#8b949e">Mar 26, 2026 → Apr 24, 2026</text>
  <text x="810" y="328" font-family="'Segoe UI', Arial, sans-serif" font-size="10" fill="#8b949e" text-anchor="end">30 days of data</text>
</svg>
