<svg xmlns="http://www.w3.org/2000/svg" width="850" height="340" viewBox="0 0 850 340">
  <defs>
    <linearGradient id="areaFill" x1="0" y1="0" x2="0" y2="1">
      <stop offset="0%" stop-color="#58a6ff" stop-opacity="0.45"/>
      <stop offset="100%" stop-color="#58a6ff" stop-opacity="0"/>
    </linearGradient>
  </defs>

  <!-- Background -->
  <rect width="100%" height="100%" fill="#0d1117" rx="8"/>

  <!-- Title -->
  <text x="425" y="33" font-family="'Segoe UI', Arial, sans-serif" font-size="17" fill="#F2C811" text-anchor="middle" font-weight="bold">pbi-cli Downloads Over Time</text>
  <text x="425" y="52" font-family="'Segoe UI', Arial, sans-serif" font-size="11" fill="#8b949e" text-anchor="middle">Cumulative installs from PyPI • mirrors excluded • source: pypistats.org</text>

  <!-- Gridlines & y-labels -->
  <line x1="70" y1="280.0" x2="810" y2="280.0" stroke="#21262d" stroke-width="1" stroke-dasharray="2,3"/><line x1="70" y1="239.6" x2="810" y2="239.6" stroke="#21262d" stroke-width="1" stroke-dasharray="2,3"/><line x1="70" y1="199.2" x2="810" y2="199.2" stroke="#21262d" stroke-width="1" stroke-dasharray="2,3"/><line x1="70" y1="158.8" x2="810" y2="158.8" stroke="#21262d" stroke-width="1" stroke-dasharray="2,3"/><line x1="70" y1="118.4" x2="810" y2="118.4" stroke="#21262d" stroke-width="1" stroke-dasharray="2,3"/><line x1="70" y1="78.0" x2="810" y2="78.0" stroke="#21262d" stroke-width="1" stroke-dasharray="2,3"/>
  <text x="62" y="284.0" font-family="'Segoe UI', Arial, sans-serif" font-size="10" fill="#8b949e" text-anchor="end">0</text><text x="62" y="243.6" font-family="'Segoe UI', Arial, sans-serif" font-size="10" fill="#8b949e" text-anchor="end">4,000</text><text x="62" y="203.2" font-family="'Segoe UI', Arial, sans-serif" font-size="10" fill="#8b949e" text-anchor="end">8,000</text><text x="62" y="162.8" font-family="'Segoe UI', Arial, sans-serif" font-size="10" fill="#8b949e" text-anchor="end">12,000</text><text x="62" y="122.4" font-family="'Segoe UI', Arial, sans-serif" font-size="10" fill="#8b949e" text-anchor="end">16,000</text><text x="62" y="82.0" font-family="'Segoe UI', Arial, sans-serif" font-size="10" fill="#8b949e" text-anchor="end">20,000</text>

  <!-- Area fill -->
  <path d="M 70.00,280 L 70.00,273.87 L 83.45,271.19 L 96.91,270.87 L 110.36,270.81 L 123.82,270.48 L 137.27,270.30 L 150.73,269.98 L 164.18,269.20 L 177.64,267.59 L 191.09,266.69 L 204.55,263.76 L 218.00,261.71 L 231.45,255.63 L 244.91,253.16 L 258.36,251.69 L 271.82,250.24 L 285.27,249.86 L 298.73,248.97 L 312.18,247.57 L 325.64,245.29 L 339.09,244.47 L 352.55,243.28 L 366.00,242.09 L 379.45,241.70 L 392.91,241.26 L 406.36,239.76 L 419.82,238.82 L 433.27,237.50 L 446.73,236.55 L 460.18,235.98 L 473.64,235.32 L 487.09,234.44 L 500.55,233.44 L 514.00,232.20 L 527.45,230.94 L 540.91,229.76 L 554.36,228.65 L 567.82,228.26 L 581.27,226.69 L 594.73,224.48 L 608.18,221.87 L 621.64,218.60 L 635.09,212.01 L 648.55,207.58 L 662.00,205.22 L 675.45,203.23 L 688.91,197.76 L 702.36,193.11 L 715.82,188.82 L 729.27,183.98 L 742.73,180.13 L 756.18,177.87 L 769.64,174.63 L 783.09,171.33 L 796.55,165.60 L 810.00,161.04 L 810.00,280 Z" fill="url(#areaFill)"/>

  <!-- Line -->
  <path d="M 70.00,273.87 L 83.45,271.19 L 96.91,270.87 L 110.36,270.81 L 123.82,270.48 L 137.27,270.30 L 150.73,269.98 L 164.18,269.20 L 177.64,267.59 L 191.09,266.69 L 204.55,263.76 L 218.00,261.71 L 231.45,255.63 L 244.91,253.16 L 258.36,251.69 L 271.82,250.24 L 285.27,249.86 L 298.73,248.97 L 312.18,247.57 L 325.64,245.29 L 339.09,244.47 L 352.55,243.28 L 366.00,242.09 L 379.45,241.70 L 392.91,241.26 L 406.36,239.76 L 419.82,238.82 L 433.27,237.50 L 446.73,236.55 L 460.18,235.98 L 473.64,235.32 L 487.09,234.44 L 500.55,233.44 L 514.00,232.20 L 527.45,230.94 L 540.91,229.76 L 554.36,228.65 L 567.82,228.26 L 581.27,226.69 L 594.73,224.48 L 608.18,221.87 L 621.64,218.60 L 635.09,212.01 L 648.55,207.58 L 662.00,205.22 L 675.45,203.23 L 688.91,197.76 L 702.36,193.11 L 715.82,188.82 L 729.27,183.98 L 742.73,180.13 L 756.18,177.87 L 769.64,174.63 L 783.09,171.33 L 796.55,165.60 L 810.00,161.04" fill="none" stroke="#58a6ff" stroke-width="2.5" stroke-linejoin="round" stroke-linecap="round"/>

  <!-- Data points -->
  <circle cx="70.00" cy="273.87" r="2.5" fill="#58a6ff"/><circle cx="83.45" cy="271.19" r="2.5" fill="#58a6ff"/><circle cx="96.91" cy="270.87" r="2.5" fill="#58a6ff"/><circle cx="110.36" cy="270.81" r="2.5" fill="#58a6ff"/><circle cx="123.82" cy="270.48" r="2.5" fill="#58a6ff"/><circle cx="137.27" cy="270.30" r="2.5" fill="#58a6ff"/><circle cx="150.73" cy="269.98" r="2.5" fill="#58a6ff"/><circle cx="164.18" cy="269.20" r="2.5" fill="#58a6ff"/><circle cx="177.64" cy="267.59" r="2.5" fill="#58a6ff"/><circle cx="191.09" cy="266.69" r="2.5" fill="#58a6ff"/><circle cx="204.55" cy="263.76" r="2.5" fill="#58a6ff"/><circle cx="218.00" cy="261.71" r="2.5" fill="#58a6ff"/><circle cx="231.45" cy="255.63" r="2.5" fill="#58a6ff"/><circle cx="244.91" cy="253.16" r="2.5" fill="#58a6ff"/><circle cx="258.36" cy="251.69" r="2.5" fill="#58a6ff"/><circle cx="271.82" cy="250.24" r="2.5" fill="#58a6ff"/><circle cx="285.27" cy="249.86" r="2.5" fill="#58a6ff"/><circle cx="298.73" cy="248.97" r="2.5" fill="#58a6ff"/><circle cx="312.18" cy="247.57" r="2.5" fill="#58a6ff"/><circle cx="325.64" cy="245.29" r="2.5" fill="#58a6ff"/><circle cx="339.09" cy="244.47" r="2.5" fill="#58a6ff"/><circle cx="352.55" cy="243.28" r="2.5" fill="#58a6ff"/><circle cx="366.00" cy="242.09" r="2.5" fill="#58a6ff"/><circle cx="379.45" cy="241.70" r="2.5" fill="#58a6ff"/><circle cx="392.91" cy="241.26" r="2.5" fill="#58a6ff"/><circle cx="406.36" cy="239.76" r="2.5" fill="#58a6ff"/><circle cx="419.82" cy="238.82" r="2.5" fill="#58a6ff"/><circle cx="433.27" cy="237.50" r="2.5" fill="#58a6ff"/><circle cx="446.73" cy="236.55" r="2.5" fill="#58a6ff"/><circle cx="460.18" cy="235.98" r="2.5" fill="#58a6ff"/><circle cx="473.64" cy="235.32" r="2.5" fill="#58a6ff"/><circle cx="487.09" cy="234.44" r="2.5" fill="#58a6ff"/><circle cx="500.55" cy="233.44" r="2.5" fill="#58a6ff"/><circle cx="514.00" cy="232.20" r="2.5" fill="#58a6ff"/><circle cx="527.45" cy="230.94" r="2.5" fill="#58a6ff"/><circle cx="540.91" cy="229.76" r="2.5" fill="#58a6ff"/><circle cx="554.36" cy="228.65" r="2.5" fill="#58a6ff"/><circle cx="567.82" cy="228.26" r="2.5" fill="#58a6ff"/><circle cx="581.27" cy="226.69" r="2.5" fill="#58a6ff"/><circle cx="594.73" cy="224.48" r="2.5" fill="#58a6ff"/><circle cx="608.18" cy="221.87" r="2.5" fill="#58a6ff"/><circle cx="621.64" cy="218.60" r="2.5" fill="#58a6ff"/><circle cx="635.09" cy="212.01" r="2.5" fill="#58a6ff"/><circle cx="648.55" cy="207.58" r="2.5" fill="#58a6ff"/><circle cx="662.00" cy="205.22" r="2.5" fill="#58a6ff"/><circle cx="675.45" cy="203.23" r="2.5" fill="#58a6ff"/><circle cx="688.91" cy="197.76" r="2.5" fill="#58a6ff"/><circle cx="702.36" cy="193.11" r="2.5" fill="#58a6ff"/><circle cx="715.82" cy="188.82" r="2.5" fill="#58a6ff"/><circle cx="729.27" cy="183.98" r="2.5" fill="#58a6ff"/><circle cx="742.73" cy="180.13" r="2.5" fill="#58a6ff"/><circle cx="756.18" cy="177.87" r="2.5" fill="#58a6ff"/><circle cx="769.64" cy="174.63" r="2.5" fill="#58a6ff"/><circle cx="783.09" cy="171.33" r="2.5" fill="#58a6ff"/><circle cx="796.55" cy="165.60" r="2.5" fill="#58a6ff"/><circle cx="810.00" cy="161.04" r="4" fill="#F2C811"/>

  <!-- Last-value callout -->
  <rect x="720.0" y="133.0" width="82" height="24" rx="4" fill="#0d1a2a" stroke="#F2C811" stroke-width="1"/>
  <text x="761.0" y="149.0" font-family="'Segoe UI', Arial, sans-serif" font-size="12" fill="#F2C811" text-anchor="middle" font-weight="bold">11,778 total</text>

  <!-- X-axis labels -->
  <text x="70.0" y="298" font-family="'Segoe UI', Arial, sans-serif" font-size="10" fill="#8b949e" text-anchor="middle">Mar 26</text><text x="258.4" y="298" font-family="'Segoe UI', Arial, sans-serif" font-size="10" fill="#8b949e" text-anchor="middle">Apr 09</text><text x="446.7" y="298" font-family="'Segoe UI', Arial, sans-serif" font-size="10" fill="#8b949e" text-anchor="middle">Apr 23</text><text x="635.1" y="298" font-family="'Segoe UI', Arial, sans-serif" font-size="10" fill="#8b949e" text-anchor="middle">May 07</text><text x="810.0" y="298" font-family="'Segoe UI', Arial, sans-serif" font-size="10" fill="#8b949e" text-anchor="middle">May 20</text>

  <!-- Footer: date range -->
  <text x="70" y="328" font-family="'Segoe UI', Arial, sans-serif" font-size="10" fill="#8b949e">Mar 26, 2026 → May 20, 2026</text>
  <text x="810" y="328" font-family="'Segoe UI', Arial, sans-serif" font-size="10" fill="#8b949e" text-anchor="end">56 days of data</text>
</svg>
