<svg xmlns="http://www.w3.org/2000/svg" width="850" height="340" viewBox="0 0 850 340">
  <defs>
    <linearGradient id="areaFill" x1="0" y1="0" x2="0" y2="1">
      <stop offset="0%" stop-color="#58a6ff" stop-opacity="0.45"/>
      <stop offset="100%" stop-color="#58a6ff" stop-opacity="0"/>
    </linearGradient>
  </defs>

  <!-- Background -->
  <rect width="100%" height="100%" fill="#0d1117" rx="8"/>

  <!-- Title -->
  <text x="425" y="33" font-family="'Segoe UI', Arial, sans-serif" font-size="17" fill="#F2C811" text-anchor="middle" font-weight="bold">pbi-cli Downloads Over Time</text>
  <text x="425" y="52" font-family="'Segoe UI', Arial, sans-serif" font-size="11" fill="#8b949e" text-anchor="middle">Cumulative installs from PyPI • mirrors excluded • source: pypistats.org</text>

  <!-- Gridlines & y-labels -->
  <line x1="70" y1="280.0" x2="810" y2="280.0" stroke="#21262d" stroke-width="1" stroke-dasharray="2,3"/><line x1="70" y1="239.6" x2="810" y2="239.6" stroke="#21262d" stroke-width="1" stroke-dasharray="2,3"/><line x1="70" y1="199.2" x2="810" y2="199.2" stroke="#21262d" stroke-width="1" stroke-dasharray="2,3"/><line x1="70" y1="158.8" x2="810" y2="158.8" stroke="#21262d" stroke-width="1" stroke-dasharray="2,3"/><line x1="70" y1="118.4" x2="810" y2="118.4" stroke="#21262d" stroke-width="1" stroke-dasharray="2,3"/><line x1="70" y1="78.0" x2="810" y2="78.0" stroke="#21262d" stroke-width="1" stroke-dasharray="2,3"/>
  <text x="62" y="284.0" font-family="'Segoe UI', Arial, sans-serif" font-size="10" fill="#8b949e" text-anchor="end">0</text><text x="62" y="243.6" font-family="'Segoe UI', Arial, sans-serif" font-size="10" fill="#8b949e" text-anchor="end">5,000</text><text x="62" y="203.2" font-family="'Segoe UI', Arial, sans-serif" font-size="10" fill="#8b949e" text-anchor="end">10,000</text><text x="62" y="162.8" font-family="'Segoe UI', Arial, sans-serif" font-size="10" fill="#8b949e" text-anchor="end">15,000</text><text x="62" y="122.4" font-family="'Segoe UI', Arial, sans-serif" font-size="10" fill="#8b949e" text-anchor="end">20,000</text><text x="62" y="82.0" font-family="'Segoe UI', Arial, sans-serif" font-size="10" fill="#8b949e" text-anchor="end">25,000</text>

  <!-- Area fill -->
  <path d="M 70.00,280 L 70.00,275.10 L 79.74,272.95 L 89.47,272.70 L 99.21,272.65 L 108.95,272.38 L 118.68,272.24 L 128.42,271.98 L 138.16,271.36 L 147.89,270.07 L 157.63,269.35 L 167.37,267.01 L 177.11,265.37 L 186.84,260.50 L 196.58,258.53 L 206.32,257.35 L 216.05,256.19 L 225.79,255.89 L 235.53,255.18 L 245.26,254.06 L 255.00,252.23 L 264.74,251.57 L 274.47,250.62 L 284.21,249.68 L 293.95,249.36 L 303.68,249.01 L 313.42,247.81 L 323.16,247.06 L 332.89,246.00 L 342.63,245.24 L 352.37,244.79 L 362.11,244.25 L 371.84,243.55 L 381.58,242.75 L 391.32,241.76 L 401.05,240.76 L 410.79,239.81 L 420.53,238.92 L 430.26,238.61 L 440.00,237.35 L 449.74,235.58 L 459.47,233.50 L 469.21,230.88 L 478.95,225.61 L 488.68,222.07 L 498.42,220.18 L 508.16,218.58 L 517.89,214.20 L 527.63,210.49 L 537.37,207.05 L 547.11,203.18 L 556.84,200.10 L 566.58,198.30 L 576.32,195.70 L 586.05,193.07 L 595.79,188.48 L 605.53,184.83 L 615.26,180.41 L 625.00,177.43 L 634.74,175.40 L 644.47,173.80 L 654.21,172.25 L 663.95,169.02 L 673.68,165.59 L 683.42,162.41 L 693.16,160.05 L 702.89,158.90 L 712.63,157.52 L 722.37,154.82 L 732.11,152.63 L 741.84,149.75 L 751.58,147.30 L 761.32,144.85 L 771.05,142.47 L 780.79,141.52 L 790.53,139.75 L 800.26,136.95 L 810.00,133.36 L 810.00,280 Z" fill="url(#areaFill)"/>

  <!-- Line -->
  <path d="M 70.00,275.10 L 79.74,272.95 L 89.47,272.70 L 99.21,272.65 L 108.95,272.38 L 118.68,272.24 L 128.42,271.98 L 138.16,271.36 L 147.89,270.07 L 157.63,269.35 L 167.37,267.01 L 177.11,265.37 L 186.84,260.50 L 196.58,258.53 L 206.32,257.35 L 216.05,256.19 L 225.79,255.89 L 235.53,255.18 L 245.26,254.06 L 255.00,252.23 L 264.74,251.57 L 274.47,250.62 L 284.21,249.68 L 293.95,249.36 L 303.68,249.01 L 313.42,247.81 L 323.16,247.06 L 332.89,246.00 L 342.63,245.24 L 352.37,244.79 L 362.11,244.25 L 371.84,243.55 L 381.58,242.75 L 391.32,241.76 L 401.05,240.76 L 410.79,239.81 L 420.53,238.92 L 430.26,238.61 L 440.00,237.35 L 449.74,235.58 L 459.47,233.50 L 469.21,230.88 L 478.95,225.61 L 488.68,222.07 L 498.42,220.18 L 508.16,218.58 L 517.89,214.20 L 527.63,210.49 L 537.37,207.05 L 547.11,203.18 L 556.84,200.10 L 566.58,198.30 L 576.32,195.70 L 586.05,193.07 L 595.79,188.48 L 605.53,184.83 L 615.26,180.41 L 625.00,177.43 L 634.74,175.40 L 644.47,173.80 L 654.21,172.25 L 663.95,169.02 L 673.68,165.59 L 683.42,162.41 L 693.16,160.05 L 702.89,158.90 L 712.63,157.52 L 722.37,154.82 L 732.11,152.63 L 741.84,149.75 L 751.58,147.30 L 761.32,144.85 L 771.05,142.47 L 780.79,141.52 L 790.53,139.75 L 800.26,136.95 L 810.00,133.36" fill="none" stroke="#58a6ff" stroke-width="2.5" stroke-linejoin="round" stroke-linecap="round"/>

  <!-- Data points -->
  <circle cx="70.00" cy="275.10" r="2.5" fill="#58a6ff"/><circle cx="79.74" cy="272.95" r="2.5" fill="#58a6ff"/><circle cx="89.47" cy="272.70" r="2.5" fill="#58a6ff"/><circle cx="99.21" cy="272.65" r="2.5" fill="#58a6ff"/><circle cx="108.95" cy="272.38" r="2.5" fill="#58a6ff"/><circle cx="118.68" cy="272.24" r="2.5" fill="#58a6ff"/><circle cx="128.42" cy="271.98" r="2.5" fill="#58a6ff"/><circle cx="138.16" cy="271.36" r="2.5" fill="#58a6ff"/><circle cx="147.89" cy="270.07" r="2.5" fill="#58a6ff"/><circle cx="157.63" cy="269.35" r="2.5" fill="#58a6ff"/><circle cx="167.37" cy="267.01" r="2.5" fill="#58a6ff"/><circle cx="177.11" cy="265.37" r="2.5" fill="#58a6ff"/><circle cx="186.84" cy="260.50" r="2.5" fill="#58a6ff"/><circle cx="196.58" cy="258.53" r="2.5" fill="#58a6ff"/><circle cx="206.32" cy="257.35" r="2.5" fill="#58a6ff"/><circle cx="216.05" cy="256.19" r="2.5" fill="#58a6ff"/><circle cx="225.79" cy="255.89" r="2.5" fill="#58a6ff"/><circle cx="235.53" cy="255.18" r="2.5" fill="#58a6ff"/><circle cx="245.26" cy="254.06" r="2.5" fill="#58a6ff"/><circle cx="255.00" cy="252.23" r="2.5" fill="#58a6ff"/><circle cx="264.74" cy="251.57" r="2.5" fill="#58a6ff"/><circle cx="274.47" cy="250.62" r="2.5" fill="#58a6ff"/><circle cx="284.21" cy="249.68" r="2.5" fill="#58a6ff"/><circle cx="293.95" cy="249.36" r="2.5" fill="#58a6ff"/><circle cx="303.68" cy="249.01" r="2.5" fill="#58a6ff"/><circle cx="313.42" cy="247.81" r="2.5" fill="#58a6ff"/><circle cx="323.16" cy="247.06" r="2.5" fill="#58a6ff"/><circle cx="332.89" cy="246.00" r="2.5" fill="#58a6ff"/><circle cx="342.63" cy="245.24" r="2.5" fill="#58a6ff"/><circle cx="352.37" cy="244.79" r="2.5" fill="#58a6ff"/><circle cx="362.11" cy="244.25" r="2.5" fill="#58a6ff"/><circle cx="371.84" cy="243.55" r="2.5" fill="#58a6ff"/><circle cx="381.58" cy="242.75" r="2.5" fill="#58a6ff"/><circle cx="391.32" cy="241.76" r="2.5" fill="#58a6ff"/><circle cx="401.05" cy="240.76" r="2.5" fill="#58a6ff"/><circle cx="410.79" cy="239.81" r="2.5" fill="#58a6ff"/><circle cx="420.53" cy="238.92" r="2.5" fill="#58a6ff"/><circle cx="430.26" cy="238.61" r="2.5" fill="#58a6ff"/><circle cx="440.00" cy="237.35" r="2.5" fill="#58a6ff"/><circle cx="449.74" cy="235.58" r="2.5" fill="#58a6ff"/><circle cx="459.47" cy="233.50" r="2.5" fill="#58a6ff"/><circle cx="469.21" cy="230.88" r="2.5" fill="#58a6ff"/><circle cx="478.95" cy="225.61" r="2.5" fill="#58a6ff"/><circle cx="488.68" cy="222.07" r="2.5" fill="#58a6ff"/><circle cx="498.42" cy="220.18" r="2.5" fill="#58a6ff"/><circle cx="508.16" cy="218.58" r="2.5" fill="#58a6ff"/><circle cx="517.89" cy="214.20" r="2.5" fill="#58a6ff"/><circle cx="527.63" cy="210.49" r="2.5" fill="#58a6ff"/><circle cx="537.37" cy="207.05" r="2.5" fill="#58a6ff"/><circle cx="547.11" cy="203.18" r="2.5" fill="#58a6ff"/><circle cx="556.84" cy="200.10" r="2.5" fill="#58a6ff"/><circle cx="566.58" cy="198.30" r="2.5" fill="#58a6ff"/><circle cx="576.32" cy="195.70" r="2.5" fill="#58a6ff"/><circle cx="586.05" cy="193.07" r="2.5" fill="#58a6ff"/><circle cx="595.79" cy="188.48" r="2.5" fill="#58a6ff"/><circle cx="605.53" cy="184.83" r="2.5" fill="#58a6ff"/><circle cx="615.26" cy="180.41" r="2.5" fill="#58a6ff"/><circle cx="625.00" cy="177.43" r="2.5" fill="#58a6ff"/><circle cx="634.74" cy="175.40" r="2.5" fill="#58a6ff"/><circle cx="644.47" cy="173.80" r="2.5" fill="#58a6ff"/><circle cx="654.21" cy="172.25" r="2.5" fill="#58a6ff"/><circle cx="663.95" cy="169.02" r="2.5" fill="#58a6ff"/><circle cx="673.68" cy="165.59" r="2.5" fill="#58a6ff"/><circle cx="683.42" cy="162.41" r="2.5" fill="#58a6ff"/><circle cx="693.16" cy="160.05" r="2.5" fill="#58a6ff"/><circle cx="702.89" cy="158.90" r="2.5" fill="#58a6ff"/><circle cx="712.63" cy="157.52" r="2.5" fill="#58a6ff"/><circle cx="722.37" cy="154.82" r="2.5" fill="#58a6ff"/><circle cx="732.11" cy="152.63" r="2.5" fill="#58a6ff"/><circle cx="741.84" cy="149.75" r="2.5" fill="#58a6ff"/><circle cx="751.58" cy="147.30" r="2.5" fill="#58a6ff"/><circle cx="761.32" cy="144.85" r="2.5" fill="#58a6ff"/><circle cx="771.05" cy="142.47" r="2.5" fill="#58a6ff"/><circle cx="780.79" cy="141.52" r="2.5" fill="#58a6ff"/><circle cx="790.53" cy="139.75" r="2.5" fill="#58a6ff"/><circle cx="800.26" cy="136.95" r="2.5" fill="#58a6ff"/><circle cx="810.00" cy="133.36" r="4" fill="#F2C811"/>

  <!-- Last-value callout -->
  <rect x="720.0" y="105.4" width="82" height="24" rx="4" fill="#0d1a2a" stroke="#F2C811" stroke-width="1"/>
  <text x="761.0" y="121.4" font-family="'Segoe UI', Arial, sans-serif" font-size="12" fill="#F2C811" text-anchor="middle" font-weight="bold">18,149 total</text>

  <!-- X-axis labels -->
  <text x="70.0" y="298" font-family="'Segoe UI', Arial, sans-serif" font-size="10" fill="#8b949e" text-anchor="middle">Mar 26</text><text x="255.0" y="298" font-family="'Segoe UI', Arial, sans-serif" font-size="10" fill="#8b949e" text-anchor="middle">Apr 14</text><text x="440.0" y="298" font-family="'Segoe UI', Arial, sans-serif" font-size="10" fill="#8b949e" text-anchor="middle">May 03</text><text x="625.0" y="298" font-family="'Segoe UI', Arial, sans-serif" font-size="10" fill="#8b949e" text-anchor="middle">May 22</text><text x="810.0" y="298" font-family="'Segoe UI', Arial, sans-serif" font-size="10" fill="#8b949e" text-anchor="middle">Jun 11</text>

  <!-- Footer: date range -->
  <text x="70" y="328" font-family="'Segoe UI', Arial, sans-serif" font-size="10" fill="#8b949e">Mar 26, 2026 → Jun 11, 2026</text>
  <text x="810" y="328" font-family="'Segoe UI', Arial, sans-serif" font-size="10" fill="#8b949e" text-anchor="end">77 days of data</text>
</svg>
