<svg xmlns="http://www.w3.org/2000/svg" width="850" height="340" viewBox="0 0 850 340">
  <defs>
    <linearGradient id="areaFill" x1="0" y1="0" x2="0" y2="1">
      <stop offset="0%" stop-color="#58a6ff" stop-opacity="0.45"/>
      <stop offset="100%" stop-color="#58a6ff" stop-opacity="0"/>
    </linearGradient>
  </defs>

  <!-- Background -->
  <rect width="100%" height="100%" fill="#0d1117" rx="8"/>

  <!-- Title -->
  <text x="425" y="33" font-family="'Segoe UI', Arial, sans-serif" font-size="17" fill="#F2C811" text-anchor="middle" font-weight="bold">pbi-cli Downloads Over Time</text>
  <text x="425" y="52" font-family="'Segoe UI', Arial, sans-serif" font-size="11" fill="#8b949e" text-anchor="middle">Cumulative installs from PyPI • mirrors excluded • source: pypistats.org</text>

  <!-- Gridlines & y-labels -->
  <line x1="70" y1="280.0" x2="810" y2="280.0" stroke="#21262d" stroke-width="1" stroke-dasharray="2,3"/><line x1="70" y1="239.6" x2="810" y2="239.6" stroke="#21262d" stroke-width="1" stroke-dasharray="2,3"/><line x1="70" y1="199.2" x2="810" y2="199.2" stroke="#21262d" stroke-width="1" stroke-dasharray="2,3"/><line x1="70" y1="158.8" x2="810" y2="158.8" stroke="#21262d" stroke-width="1" stroke-dasharray="2,3"/><line x1="70" y1="118.4" x2="810" y2="118.4" stroke="#21262d" stroke-width="1" stroke-dasharray="2,3"/><line x1="70" y1="78.0" x2="810" y2="78.0" stroke="#21262d" stroke-width="1" stroke-dasharray="2,3"/>
  <text x="62" y="284.0" font-family="'Segoe UI', Arial, sans-serif" font-size="10" fill="#8b949e" text-anchor="end">0</text><text x="62" y="243.6" font-family="'Segoe UI', Arial, sans-serif" font-size="10" fill="#8b949e" text-anchor="end">4,000</text><text x="62" y="203.2" font-family="'Segoe UI', Arial, sans-serif" font-size="10" fill="#8b949e" text-anchor="end">8,000</text><text x="62" y="162.8" font-family="'Segoe UI', Arial, sans-serif" font-size="10" fill="#8b949e" text-anchor="end">12,000</text><text x="62" y="122.4" font-family="'Segoe UI', Arial, sans-serif" font-size="10" fill="#8b949e" text-anchor="end">16,000</text><text x="62" y="82.0" font-family="'Segoe UI', Arial, sans-serif" font-size="10" fill="#8b949e" text-anchor="end">20,000</text>

  <!-- Area fill -->
  <path d="M 70.00,280 L 70.00,273.87 L 80.14,271.19 L 90.27,270.87 L 100.41,270.81 L 110.55,270.48 L 120.68,270.30 L 130.82,269.98 L 140.96,269.20 L 151.10,267.59 L 161.23,266.69 L 171.37,263.76 L 181.51,261.71 L 191.64,255.63 L 201.78,253.16 L 211.92,251.69 L 222.05,250.24 L 232.19,249.86 L 242.33,248.97 L 252.47,247.57 L 262.60,245.29 L 272.74,244.47 L 282.88,243.28 L 293.01,242.09 L 303.15,241.70 L 313.29,241.26 L 323.42,239.76 L 333.56,238.82 L 343.70,237.50 L 353.84,236.55 L 363.97,235.98 L 374.11,235.32 L 384.25,234.44 L 394.38,233.44 L 404.52,232.20 L 414.66,230.94 L 424.79,229.76 L 434.93,228.65 L 445.07,228.26 L 455.21,226.69 L 465.34,224.48 L 475.48,221.87 L 485.62,218.60 L 495.75,212.01 L 505.89,207.58 L 516.03,205.22 L 526.16,203.23 L 536.30,197.76 L 546.44,193.11 L 556.58,188.82 L 566.71,183.98 L 576.85,180.13 L 586.99,177.87 L 597.12,174.63 L 607.26,171.33 L 617.40,165.60 L 627.53,161.04 L 637.67,155.52 L 647.81,151.79 L 657.95,149.26 L 668.08,147.26 L 678.22,145.32 L 688.36,141.28 L 698.49,136.98 L 708.63,133.01 L 718.77,130.07 L 728.90,128.62 L 739.04,126.89 L 749.18,123.53 L 759.32,120.78 L 769.45,117.19 L 779.59,114.13 L 789.73,111.07 L 799.86,108.09 L 810.00,106.90 L 810.00,280 Z" fill="url(#areaFill)"/>

  <!-- Line -->
  <path d="M 70.00,273.87 L 80.14,271.19 L 90.27,270.87 L 100.41,270.81 L 110.55,270.48 L 120.68,270.30 L 130.82,269.98 L 140.96,269.20 L 151.10,267.59 L 161.23,266.69 L 171.37,263.76 L 181.51,261.71 L 191.64,255.63 L 201.78,253.16 L 211.92,251.69 L 222.05,250.24 L 232.19,249.86 L 242.33,248.97 L 252.47,247.57 L 262.60,245.29 L 272.74,244.47 L 282.88,243.28 L 293.01,242.09 L 303.15,241.70 L 313.29,241.26 L 323.42,239.76 L 333.56,238.82 L 343.70,237.50 L 353.84,236.55 L 363.97,235.98 L 374.11,235.32 L 384.25,234.44 L 394.38,233.44 L 404.52,232.20 L 414.66,230.94 L 424.79,229.76 L 434.93,228.65 L 445.07,228.26 L 455.21,226.69 L 465.34,224.48 L 475.48,221.87 L 485.62,218.60 L 495.75,212.01 L 505.89,207.58 L 516.03,205.22 L 526.16,203.23 L 536.30,197.76 L 546.44,193.11 L 556.58,188.82 L 566.71,183.98 L 576.85,180.13 L 586.99,177.87 L 597.12,174.63 L 607.26,171.33 L 617.40,165.60 L 627.53,161.04 L 637.67,155.52 L 647.81,151.79 L 657.95,149.26 L 668.08,147.26 L 678.22,145.32 L 688.36,141.28 L 698.49,136.98 L 708.63,133.01 L 718.77,130.07 L 728.90,128.62 L 739.04,126.89 L 749.18,123.53 L 759.32,120.78 L 769.45,117.19 L 779.59,114.13 L 789.73,111.07 L 799.86,108.09 L 810.00,106.90" fill="none" stroke="#58a6ff" stroke-width="2.5" stroke-linejoin="round" stroke-linecap="round"/>

  <!-- Data points -->
  <circle cx="70.00" cy="273.87" r="2.5" fill="#58a6ff"/><circle cx="80.14" cy="271.19" r="2.5" fill="#58a6ff"/><circle cx="90.27" cy="270.87" r="2.5" fill="#58a6ff"/><circle cx="100.41" cy="270.81" r="2.5" fill="#58a6ff"/><circle cx="110.55" cy="270.48" r="2.5" fill="#58a6ff"/><circle cx="120.68" cy="270.30" r="2.5" fill="#58a6ff"/><circle cx="130.82" cy="269.98" r="2.5" fill="#58a6ff"/><circle cx="140.96" cy="269.20" r="2.5" fill="#58a6ff"/><circle cx="151.10" cy="267.59" r="2.5" fill="#58a6ff"/><circle cx="161.23" cy="266.69" r="2.5" fill="#58a6ff"/><circle cx="171.37" cy="263.76" r="2.5" fill="#58a6ff"/><circle cx="181.51" cy="261.71" r="2.5" fill="#58a6ff"/><circle cx="191.64" cy="255.63" r="2.5" fill="#58a6ff"/><circle cx="201.78" cy="253.16" r="2.5" fill="#58a6ff"/><circle cx="211.92" cy="251.69" r="2.5" fill="#58a6ff"/><circle cx="222.05" cy="250.24" r="2.5" fill="#58a6ff"/><circle cx="232.19" cy="249.86" r="2.5" fill="#58a6ff"/><circle cx="242.33" cy="248.97" r="2.5" fill="#58a6ff"/><circle cx="252.47" cy="247.57" r="2.5" fill="#58a6ff"/><circle cx="262.60" cy="245.29" r="2.5" fill="#58a6ff"/><circle cx="272.74" cy="244.47" r="2.5" fill="#58a6ff"/><circle cx="282.88" cy="243.28" r="2.5" fill="#58a6ff"/><circle cx="293.01" cy="242.09" r="2.5" fill="#58a6ff"/><circle cx="303.15" cy="241.70" r="2.5" fill="#58a6ff"/><circle cx="313.29" cy="241.26" r="2.5" fill="#58a6ff"/><circle cx="323.42" cy="239.76" r="2.5" fill="#58a6ff"/><circle cx="333.56" cy="238.82" r="2.5" fill="#58a6ff"/><circle cx="343.70" cy="237.50" r="2.5" fill="#58a6ff"/><circle cx="353.84" cy="236.55" r="2.5" fill="#58a6ff"/><circle cx="363.97" cy="235.98" r="2.5" fill="#58a6ff"/><circle cx="374.11" cy="235.32" r="2.5" fill="#58a6ff"/><circle cx="384.25" cy="234.44" r="2.5" fill="#58a6ff"/><circle cx="394.38" cy="233.44" r="2.5" fill="#58a6ff"/><circle cx="404.52" cy="232.20" r="2.5" fill="#58a6ff"/><circle cx="414.66" cy="230.94" r="2.5" fill="#58a6ff"/><circle cx="424.79" cy="229.76" r="2.5" fill="#58a6ff"/><circle cx="434.93" cy="228.65" r="2.5" fill="#58a6ff"/><circle cx="445.07" cy="228.26" r="2.5" fill="#58a6ff"/><circle cx="455.21" cy="226.69" r="2.5" fill="#58a6ff"/><circle cx="465.34" cy="224.48" r="2.5" fill="#58a6ff"/><circle cx="475.48" cy="221.87" r="2.5" fill="#58a6ff"/><circle cx="485.62" cy="218.60" r="2.5" fill="#58a6ff"/><circle cx="495.75" cy="212.01" r="2.5" fill="#58a6ff"/><circle cx="505.89" cy="207.58" r="2.5" fill="#58a6ff"/><circle cx="516.03" cy="205.22" r="2.5" fill="#58a6ff"/><circle cx="526.16" cy="203.23" r="2.5" fill="#58a6ff"/><circle cx="536.30" cy="197.76" r="2.5" fill="#58a6ff"/><circle cx="546.44" cy="193.11" r="2.5" fill="#58a6ff"/><circle cx="556.58" cy="188.82" r="2.5" fill="#58a6ff"/><circle cx="566.71" cy="183.98" r="2.5" fill="#58a6ff"/><circle cx="576.85" cy="180.13" r="2.5" fill="#58a6ff"/><circle cx="586.99" cy="177.87" r="2.5" fill="#58a6ff"/><circle cx="597.12" cy="174.63" r="2.5" fill="#58a6ff"/><circle cx="607.26" cy="171.33" r="2.5" fill="#58a6ff"/><circle cx="617.40" cy="165.60" r="2.5" fill="#58a6ff"/><circle cx="627.53" cy="161.04" r="2.5" fill="#58a6ff"/><circle cx="637.67" cy="155.52" r="2.5" fill="#58a6ff"/><circle cx="647.81" cy="151.79" r="2.5" fill="#58a6ff"/><circle cx="657.95" cy="149.26" r="2.5" fill="#58a6ff"/><circle cx="668.08" cy="147.26" r="2.5" fill="#58a6ff"/><circle cx="678.22" cy="145.32" r="2.5" fill="#58a6ff"/><circle cx="688.36" cy="141.28" r="2.5" fill="#58a6ff"/><circle cx="698.49" cy="136.98" r="2.5" fill="#58a6ff"/><circle cx="708.63" cy="133.01" r="2.5" fill="#58a6ff"/><circle cx="718.77" cy="130.07" r="2.5" fill="#58a6ff"/><circle cx="728.90" cy="128.62" r="2.5" fill="#58a6ff"/><circle cx="739.04" cy="126.89" r="2.5" fill="#58a6ff"/><circle cx="749.18" cy="123.53" r="2.5" fill="#58a6ff"/><circle cx="759.32" cy="120.78" r="2.5" fill="#58a6ff"/><circle cx="769.45" cy="117.19" r="2.5" fill="#58a6ff"/><circle cx="779.59" cy="114.13" r="2.5" fill="#58a6ff"/><circle cx="789.73" cy="111.07" r="2.5" fill="#58a6ff"/><circle cx="799.86" cy="108.09" r="2.5" fill="#58a6ff"/><circle cx="810.00" cy="106.90" r="4" fill="#F2C811"/>

  <!-- Last-value callout -->
  <rect x="720.0" y="92.0" width="82" height="24" rx="4" fill="#0d1a2a" stroke="#F2C811" stroke-width="1"/>
  <text x="761.0" y="108.0" font-family="'Segoe UI', Arial, sans-serif" font-size="12" fill="#F2C811" text-anchor="middle" font-weight="bold">17,139 total</text>

  <!-- X-axis labels -->
  <text x="70.0" y="298" font-family="'Segoe UI', Arial, sans-serif" font-size="10" fill="#8b949e" text-anchor="middle">Mar 26</text><text x="252.5" y="298" font-family="'Segoe UI', Arial, sans-serif" font-size="10" fill="#8b949e" text-anchor="middle">Apr 13</text><text x="445.1" y="298" font-family="'Segoe UI', Arial, sans-serif" font-size="10" fill="#8b949e" text-anchor="middle">May 02</text><text x="627.5" y="298" font-family="'Segoe UI', Arial, sans-serif" font-size="10" fill="#8b949e" text-anchor="middle">May 20</text><text x="810.0" y="298" font-family="'Segoe UI', Arial, sans-serif" font-size="10" fill="#8b949e" text-anchor="middle">Jun 07</text>

  <!-- Footer: date range -->
  <text x="70" y="328" font-family="'Segoe UI', Arial, sans-serif" font-size="10" fill="#8b949e">Mar 26, 2026 → Jun 07, 2026</text>
  <text x="810" y="328" font-family="'Segoe UI', Arial, sans-serif" font-size="10" fill="#8b949e" text-anchor="end">74 days of data</text>
</svg>
