<svg xmlns="http://www.w3.org/2000/svg" width="850" height="340" viewBox="0 0 850 340">
  <defs>
    <linearGradient id="areaFill" x1="0" y1="0" x2="0" y2="1">
      <stop offset="0%" stop-color="#58a6ff" stop-opacity="0.45"/>
      <stop offset="100%" stop-color="#58a6ff" stop-opacity="0"/>
    </linearGradient>
  </defs>

  <!-- Background -->
  <rect width="100%" height="100%" fill="#0d1117" rx="8"/>

  <!-- Title -->
  <text x="425" y="33" font-family="'Segoe UI', Arial, sans-serif" font-size="17" fill="#F2C811" text-anchor="middle" font-weight="bold">pbi-cli Downloads Over Time</text>
  <text x="425" y="52" font-family="'Segoe UI', Arial, sans-serif" font-size="11" fill="#8b949e" text-anchor="middle">Cumulative installs from PyPI • mirrors excluded • source: pypistats.org</text>

  <!-- Gridlines & y-labels -->
  <line x1="70" y1="280.0" x2="810" y2="280.0" stroke="#21262d" stroke-width="1" stroke-dasharray="2,3"/><line x1="70" y1="239.6" x2="810" y2="239.6" stroke="#21262d" stroke-width="1" stroke-dasharray="2,3"/><line x1="70" y1="199.2" x2="810" y2="199.2" stroke="#21262d" stroke-width="1" stroke-dasharray="2,3"/><line x1="70" y1="158.8" x2="810" y2="158.8" stroke="#21262d" stroke-width="1" stroke-dasharray="2,3"/><line x1="70" y1="118.4" x2="810" y2="118.4" stroke="#21262d" stroke-width="1" stroke-dasharray="2,3"/><line x1="70" y1="78.0" x2="810" y2="78.0" stroke="#21262d" stroke-width="1" stroke-dasharray="2,3"/>
  <text x="62" y="284.0" font-family="'Segoe UI', Arial, sans-serif" font-size="10" fill="#8b949e" text-anchor="end">0</text><text x="62" y="243.6" font-family="'Segoe UI', Arial, sans-serif" font-size="10" fill="#8b949e" text-anchor="end">2,000</text><text x="62" y="203.2" font-family="'Segoe UI', Arial, sans-serif" font-size="10" fill="#8b949e" text-anchor="end">4,000</text><text x="62" y="162.8" font-family="'Segoe UI', Arial, sans-serif" font-size="10" fill="#8b949e" text-anchor="end">6,000</text><text x="62" y="122.4" font-family="'Segoe UI', Arial, sans-serif" font-size="10" fill="#8b949e" text-anchor="end">8,000</text><text x="62" y="82.0" font-family="'Segoe UI', Arial, sans-serif" font-size="10" fill="#8b949e" text-anchor="end">10,000</text>

  <!-- Area fill -->
  <path d="M 70.00,280 L 70.00,267.74 L 86.09,262.39 L 102.17,261.74 L 118.26,261.62 L 134.35,260.95 L 150.43,260.61 L 166.52,259.96 L 182.61,258.41 L 198.70,255.17 L 214.78,253.38 L 230.87,247.52 L 246.96,243.42 L 263.04,231.26 L 279.13,226.33 L 295.22,223.38 L 311.30,220.47 L 327.39,219.72 L 343.48,217.95 L 359.57,215.14 L 375.65,210.57 L 391.74,208.94 L 407.83,206.55 L 423.91,204.19 L 440.00,203.40 L 456.09,202.51 L 472.17,199.52 L 488.26,197.64 L 504.35,195.00 L 520.43,193.10 L 536.52,191.97 L 552.61,190.64 L 568.70,188.88 L 584.78,186.88 L 600.87,184.39 L 616.96,181.89 L 633.04,179.53 L 649.13,177.30 L 665.22,176.52 L 681.30,173.38 L 697.39,168.96 L 713.48,163.75 L 729.57,157.20 L 745.65,144.01 L 761.74,135.17 L 777.83,130.44 L 793.91,126.46 L 810.00,115.51 L 810.00,280 Z" fill="url(#areaFill)"/>

  <!-- Line -->
  <path d="M 70.00,267.74 L 86.09,262.39 L 102.17,261.74 L 118.26,261.62 L 134.35,260.95 L 150.43,260.61 L 166.52,259.96 L 182.61,258.41 L 198.70,255.17 L 214.78,253.38 L 230.87,247.52 L 246.96,243.42 L 263.04,231.26 L 279.13,226.33 L 295.22,223.38 L 311.30,220.47 L 327.39,219.72 L 343.48,217.95 L 359.57,215.14 L 375.65,210.57 L 391.74,208.94 L 407.83,206.55 L 423.91,204.19 L 440.00,203.40 L 456.09,202.51 L 472.17,199.52 L 488.26,197.64 L 504.35,195.00 L 520.43,193.10 L 536.52,191.97 L 552.61,190.64 L 568.70,188.88 L 584.78,186.88 L 600.87,184.39 L 616.96,181.89 L 633.04,179.53 L 649.13,177.30 L 665.22,176.52 L 681.30,173.38 L 697.39,168.96 L 713.48,163.75 L 729.57,157.20 L 745.65,144.01 L 761.74,135.17 L 777.83,130.44 L 793.91,126.46 L 810.00,115.51" fill="none" stroke="#58a6ff" stroke-width="2.5" stroke-linejoin="round" stroke-linecap="round"/>

  <!-- Data points -->
  <circle cx="70.00" cy="267.74" r="2.5" fill="#58a6ff"/><circle cx="86.09" cy="262.39" r="2.5" fill="#58a6ff"/><circle cx="102.17" cy="261.74" r="2.5" fill="#58a6ff"/><circle cx="118.26" cy="261.62" r="2.5" fill="#58a6ff"/><circle cx="134.35" cy="260.95" r="2.5" fill="#58a6ff"/><circle cx="150.43" cy="260.61" r="2.5" fill="#58a6ff"/><circle cx="166.52" cy="259.96" r="2.5" fill="#58a6ff"/><circle cx="182.61" cy="258.41" r="2.5" fill="#58a6ff"/><circle cx="198.70" cy="255.17" r="2.5" fill="#58a6ff"/><circle cx="214.78" cy="253.38" r="2.5" fill="#58a6ff"/><circle cx="230.87" cy="247.52" r="2.5" fill="#58a6ff"/><circle cx="246.96" cy="243.42" r="2.5" fill="#58a6ff"/><circle cx="263.04" cy="231.26" r="2.5" fill="#58a6ff"/><circle cx="279.13" cy="226.33" r="2.5" fill="#58a6ff"/><circle cx="295.22" cy="223.38" r="2.5" fill="#58a6ff"/><circle cx="311.30" cy="220.47" r="2.5" fill="#58a6ff"/><circle cx="327.39" cy="219.72" r="2.5" fill="#58a6ff"/><circle cx="343.48" cy="217.95" r="2.5" fill="#58a6ff"/><circle cx="359.57" cy="215.14" r="2.5" fill="#58a6ff"/><circle cx="375.65" cy="210.57" r="2.5" fill="#58a6ff"/><circle cx="391.74" cy="208.94" r="2.5" fill="#58a6ff"/><circle cx="407.83" cy="206.55" r="2.5" fill="#58a6ff"/><circle cx="423.91" cy="204.19" r="2.5" fill="#58a6ff"/><circle cx="440.00" cy="203.40" r="2.5" fill="#58a6ff"/><circle cx="456.09" cy="202.51" r="2.5" fill="#58a6ff"/><circle cx="472.17" cy="199.52" r="2.5" fill="#58a6ff"/><circle cx="488.26" cy="197.64" r="2.5" fill="#58a6ff"/><circle cx="504.35" cy="195.00" r="2.5" fill="#58a6ff"/><circle cx="520.43" cy="193.10" r="2.5" fill="#58a6ff"/><circle cx="536.52" cy="191.97" r="2.5" fill="#58a6ff"/><circle cx="552.61" cy="190.64" r="2.5" fill="#58a6ff"/><circle cx="568.70" cy="188.88" r="2.5" fill="#58a6ff"/><circle cx="584.78" cy="186.88" r="2.5" fill="#58a6ff"/><circle cx="600.87" cy="184.39" r="2.5" fill="#58a6ff"/><circle cx="616.96" cy="181.89" r="2.5" fill="#58a6ff"/><circle cx="633.04" cy="179.53" r="2.5" fill="#58a6ff"/><circle cx="649.13" cy="177.30" r="2.5" fill="#58a6ff"/><circle cx="665.22" cy="176.52" r="2.5" fill="#58a6ff"/><circle cx="681.30" cy="173.38" r="2.5" fill="#58a6ff"/><circle cx="697.39" cy="168.96" r="2.5" fill="#58a6ff"/><circle cx="713.48" cy="163.75" r="2.5" fill="#58a6ff"/><circle cx="729.57" cy="157.20" r="2.5" fill="#58a6ff"/><circle cx="745.65" cy="144.01" r="2.5" fill="#58a6ff"/><circle cx="761.74" cy="135.17" r="2.5" fill="#58a6ff"/><circle cx="777.83" cy="130.44" r="2.5" fill="#58a6ff"/><circle cx="793.91" cy="126.46" r="2.5" fill="#58a6ff"/><circle cx="810.00" cy="115.51" r="4" fill="#F2C811"/>

  <!-- Last-value callout -->
  <rect x="720.0" y="92.0" width="82" height="24" rx="4" fill="#0d1a2a" stroke="#F2C811" stroke-width="1"/>
  <text x="761.0" y="108.0" font-family="'Segoe UI', Arial, sans-serif" font-size="12" fill="#F2C811" text-anchor="middle" font-weight="bold">8,143 total</text>

  <!-- X-axis labels -->
  <text x="70.0" y="298" font-family="'Segoe UI', Arial, sans-serif" font-size="10" fill="#8b949e" text-anchor="middle">Mar 26</text><text x="247.0" y="298" font-family="'Segoe UI', Arial, sans-serif" font-size="10" fill="#8b949e" text-anchor="middle">Apr 06</text><text x="440.0" y="298" font-family="'Segoe UI', Arial, sans-serif" font-size="10" fill="#8b949e" text-anchor="middle">Apr 18</text><text x="633.0" y="298" font-family="'Segoe UI', Arial, sans-serif" font-size="10" fill="#8b949e" text-anchor="middle">Apr 30</text><text x="810.0" y="298" font-family="'Segoe UI', Arial, sans-serif" font-size="10" fill="#8b949e" text-anchor="middle">May 11</text>

  <!-- Footer: date range -->
  <text x="70" y="328" font-family="'Segoe UI', Arial, sans-serif" font-size="10" fill="#8b949e">Mar 26, 2026 → May 11, 2026</text>
  <text x="810" y="328" font-family="'Segoe UI', Arial, sans-serif" font-size="10" fill="#8b949e" text-anchor="end">47 days of data</text>
</svg>
