<svg xmlns="http://www.w3.org/2000/svg" width="850" height="340" viewBox="0 0 850 340">
  <defs>
    <linearGradient id="areaFill" x1="0" y1="0" x2="0" y2="1">
      <stop offset="0%" stop-color="#58a6ff" stop-opacity="0.45"/>
      <stop offset="100%" stop-color="#58a6ff" stop-opacity="0"/>
    </linearGradient>
  </defs>

  <!-- Background -->
  <rect width="100%" height="100%" fill="#0d1117" rx="8"/>

  <!-- Title -->
  <text x="425" y="33" font-family="'Segoe UI', Arial, sans-serif" font-size="17" fill="#F2C811" text-anchor="middle" font-weight="bold">pbi-cli Downloads Over Time</text>
  <text x="425" y="52" font-family="'Segoe UI', Arial, sans-serif" font-size="11" fill="#8b949e" text-anchor="middle">Cumulative installs from PyPI • mirrors excluded • source: pypistats.org</text>

  <!-- Gridlines & y-labels -->
  <line x1="70" y1="280.0" x2="810" y2="280.0" stroke="#21262d" stroke-width="1" stroke-dasharray="2,3"/><line x1="70" y1="239.6" x2="810" y2="239.6" stroke="#21262d" stroke-width="1" stroke-dasharray="2,3"/><line x1="70" y1="199.2" x2="810" y2="199.2" stroke="#21262d" stroke-width="1" stroke-dasharray="2,3"/><line x1="70" y1="158.8" x2="810" y2="158.8" stroke="#21262d" stroke-width="1" stroke-dasharray="2,3"/><line x1="70" y1="118.4" x2="810" y2="118.4" stroke="#21262d" stroke-width="1" stroke-dasharray="2,3"/><line x1="70" y1="78.0" x2="810" y2="78.0" stroke="#21262d" stroke-width="1" stroke-dasharray="2,3"/>
  <text x="62" y="284.0" font-family="'Segoe UI', Arial, sans-serif" font-size="10" fill="#8b949e" text-anchor="end">0</text><text x="62" y="243.6" font-family="'Segoe UI', Arial, sans-serif" font-size="10" fill="#8b949e" text-anchor="end">1,000</text><text x="62" y="203.2" font-family="'Segoe UI', Arial, sans-serif" font-size="10" fill="#8b949e" text-anchor="end">2,000</text><text x="62" y="162.8" font-family="'Segoe UI', Arial, sans-serif" font-size="10" fill="#8b949e" text-anchor="end">3,000</text><text x="62" y="122.4" font-family="'Segoe UI', Arial, sans-serif" font-size="10" fill="#8b949e" text-anchor="end">4,000</text><text x="62" y="82.0" font-family="'Segoe UI', Arial, sans-serif" font-size="10" fill="#8b949e" text-anchor="end">5,000</text>

  <!-- Area fill -->
  <path d="M 70.00,280 L 70.00,255.48 L 97.41,244.77 L 124.81,243.48 L 152.22,243.24 L 179.63,241.90 L 207.04,241.22 L 234.44,239.92 L 261.85,236.81 L 289.26,230.35 L 316.67,226.75 L 344.07,215.04 L 371.48,206.84 L 398.89,182.51 L 426.30,172.66 L 453.70,166.76 L 481.11,160.94 L 508.52,159.45 L 535.93,155.89 L 563.33,150.28 L 590.74,141.15 L 618.15,137.87 L 645.56,133.11 L 672.96,128.38 L 700.37,126.80 L 727.78,125.03 L 755.19,119.05 L 782.59,115.29 L 810.00,110.00 L 810.00,280 Z" fill="url(#areaFill)"/>

  <!-- Line -->
  <path d="M 70.00,255.48 L 97.41,244.77 L 124.81,243.48 L 152.22,243.24 L 179.63,241.90 L 207.04,241.22 L 234.44,239.92 L 261.85,236.81 L 289.26,230.35 L 316.67,226.75 L 344.07,215.04 L 371.48,206.84 L 398.89,182.51 L 426.30,172.66 L 453.70,166.76 L 481.11,160.94 L 508.52,159.45 L 535.93,155.89 L 563.33,150.28 L 590.74,141.15 L 618.15,137.87 L 645.56,133.11 L 672.96,128.38 L 700.37,126.80 L 727.78,125.03 L 755.19,119.05 L 782.59,115.29 L 810.00,110.00" fill="none" stroke="#58a6ff" stroke-width="2.5" stroke-linejoin="round" stroke-linecap="round"/>

  <!-- Data points -->
  <circle cx="70.00" cy="255.48" r="2.5" fill="#58a6ff"/><circle cx="97.41" cy="244.77" r="2.5" fill="#58a6ff"/><circle cx="124.81" cy="243.48" r="2.5" fill="#58a6ff"/><circle cx="152.22" cy="243.24" r="2.5" fill="#58a6ff"/><circle cx="179.63" cy="241.90" r="2.5" fill="#58a6ff"/><circle cx="207.04" cy="241.22" r="2.5" fill="#58a6ff"/><circle cx="234.44" cy="239.92" r="2.5" fill="#58a6ff"/><circle cx="261.85" cy="236.81" r="2.5" fill="#58a6ff"/><circle cx="289.26" cy="230.35" r="2.5" fill="#58a6ff"/><circle cx="316.67" cy="226.75" r="2.5" fill="#58a6ff"/><circle cx="344.07" cy="215.04" r="2.5" fill="#58a6ff"/><circle cx="371.48" cy="206.84" r="2.5" fill="#58a6ff"/><circle cx="398.89" cy="182.51" r="2.5" fill="#58a6ff"/><circle cx="426.30" cy="172.66" r="2.5" fill="#58a6ff"/><circle cx="453.70" cy="166.76" r="2.5" fill="#58a6ff"/><circle cx="481.11" cy="160.94" r="2.5" fill="#58a6ff"/><circle cx="508.52" cy="159.45" r="2.5" fill="#58a6ff"/><circle cx="535.93" cy="155.89" r="2.5" fill="#58a6ff"/><circle cx="563.33" cy="150.28" r="2.5" fill="#58a6ff"/><circle cx="590.74" cy="141.15" r="2.5" fill="#58a6ff"/><circle cx="618.15" cy="137.87" r="2.5" fill="#58a6ff"/><circle cx="645.56" cy="133.11" r="2.5" fill="#58a6ff"/><circle cx="672.96" cy="128.38" r="2.5" fill="#58a6ff"/><circle cx="700.37" cy="126.80" r="2.5" fill="#58a6ff"/><circle cx="727.78" cy="125.03" r="2.5" fill="#58a6ff"/><circle cx="755.19" cy="119.05" r="2.5" fill="#58a6ff"/><circle cx="782.59" cy="115.29" r="2.5" fill="#58a6ff"/><circle cx="810.00" cy="110.00" r="4" fill="#F2C811"/>

  <!-- Last-value callout -->
  <rect x="720.0" y="92.0" width="82" height="24" rx="4" fill="#0d1a2a" stroke="#F2C811" stroke-width="1"/>
  <text x="761.0" y="108.0" font-family="'Segoe UI', Arial, sans-serif" font-size="12" fill="#F2C811" text-anchor="middle" font-weight="bold">4,208 total</text>

  <!-- X-axis labels -->
  <text x="70.0" y="298" font-family="'Segoe UI', Arial, sans-serif" font-size="10" fill="#8b949e" text-anchor="middle">Mar 26</text><text x="261.9" y="298" font-family="'Segoe UI', Arial, sans-serif" font-size="10" fill="#8b949e" text-anchor="middle">Apr 02</text><text x="453.7" y="298" font-family="'Segoe UI', Arial, sans-serif" font-size="10" fill="#8b949e" text-anchor="middle">Apr 09</text><text x="645.6" y="298" font-family="'Segoe UI', Arial, sans-serif" font-size="10" fill="#8b949e" text-anchor="middle">Apr 16</text><text x="810.0" y="298" font-family="'Segoe UI', Arial, sans-serif" font-size="10" fill="#8b949e" text-anchor="middle">Apr 22</text>

  <!-- Footer: date range -->
  <text x="70" y="328" font-family="'Segoe UI', Arial, sans-serif" font-size="10" fill="#8b949e">Mar 26, 2026 → Apr 22, 2026</text>
  <text x="810" y="328" font-family="'Segoe UI', Arial, sans-serif" font-size="10" fill="#8b949e" text-anchor="end">28 days of data</text>
</svg>
