<svg xmlns="http://www.w3.org/2000/svg" width="850" height="340" viewBox="0 0 850 340">
  <defs>
    <linearGradient id="areaFill" x1="0" y1="0" x2="0" y2="1">
      <stop offset="0%" stop-color="#58a6ff" stop-opacity="0.45"/>
      <stop offset="100%" stop-color="#58a6ff" stop-opacity="0"/>
    </linearGradient>
  </defs>

  <!-- Background -->
  <rect width="100%" height="100%" fill="#0d1117" rx="8"/>

  <!-- Title -->
  <text x="425" y="33" font-family="'Segoe UI', Arial, sans-serif" font-size="17" fill="#F2C811" text-anchor="middle" font-weight="bold">pbi-cli Downloads Over Time</text>
  <text x="425" y="52" font-family="'Segoe UI', Arial, sans-serif" font-size="11" fill="#8b949e" text-anchor="middle">Cumulative installs from PyPI • mirrors excluded • source: pypistats.org</text>

  <!-- Gridlines & y-labels -->
  <line x1="70" y1="280.0" x2="810" y2="280.0" stroke="#21262d" stroke-width="1" stroke-dasharray="2,3"/><line x1="70" y1="239.6" x2="810" y2="239.6" stroke="#21262d" stroke-width="1" stroke-dasharray="2,3"/><line x1="70" y1="199.2" x2="810" y2="199.2" stroke="#21262d" stroke-width="1" stroke-dasharray="2,3"/><line x1="70" y1="158.8" x2="810" y2="158.8" stroke="#21262d" stroke-width="1" stroke-dasharray="2,3"/><line x1="70" y1="118.4" x2="810" y2="118.4" stroke="#21262d" stroke-width="1" stroke-dasharray="2,3"/><line x1="70" y1="78.0" x2="810" y2="78.0" stroke="#21262d" stroke-width="1" stroke-dasharray="2,3"/>
  <text x="62" y="284.0" font-family="'Segoe UI', Arial, sans-serif" font-size="10" fill="#8b949e" text-anchor="end">0</text><text x="62" y="243.6" font-family="'Segoe UI', Arial, sans-serif" font-size="10" fill="#8b949e" text-anchor="end">4,000</text><text x="62" y="203.2" font-family="'Segoe UI', Arial, sans-serif" font-size="10" fill="#8b949e" text-anchor="end">8,000</text><text x="62" y="162.8" font-family="'Segoe UI', Arial, sans-serif" font-size="10" fill="#8b949e" text-anchor="end">12,000</text><text x="62" y="122.4" font-family="'Segoe UI', Arial, sans-serif" font-size="10" fill="#8b949e" text-anchor="end">16,000</text><text x="62" y="82.0" font-family="'Segoe UI', Arial, sans-serif" font-size="10" fill="#8b949e" text-anchor="end">20,000</text>

  <!-- Area fill -->
  <path d="M 70.00,280 L 70.00,273.87 L 84.23,271.19 L 98.46,270.87 L 112.69,270.81 L 126.92,270.48 L 141.15,270.30 L 155.38,269.98 L 169.62,269.20 L 183.85,267.59 L 198.08,266.69 L 212.31,263.76 L 226.54,261.71 L 240.77,255.63 L 255.00,253.16 L 269.23,251.69 L 283.46,250.24 L 297.69,249.86 L 311.92,248.97 L 326.15,247.57 L 340.38,245.29 L 354.62,244.47 L 368.85,243.28 L 383.08,242.09 L 397.31,241.70 L 411.54,241.26 L 425.77,239.76 L 440.00,238.82 L 454.23,237.50 L 468.46,236.55 L 482.69,235.98 L 496.92,235.32 L 511.15,234.44 L 525.38,233.44 L 539.62,232.20 L 553.85,230.94 L 568.08,229.76 L 582.31,228.65 L 596.54,228.26 L 610.77,226.69 L 625.00,224.48 L 639.23,221.87 L 653.46,218.60 L 667.69,212.01 L 681.92,207.58 L 696.15,205.22 L 710.38,203.23 L 724.62,197.76 L 738.85,193.11 L 753.08,188.82 L 767.31,183.98 L 781.54,180.13 L 795.77,177.87 L 810.00,174.63 L 810.00,280 Z" fill="url(#areaFill)"/>

  <!-- Line -->
  <path d="M 70.00,273.87 L 84.23,271.19 L 98.46,270.87 L 112.69,270.81 L 126.92,270.48 L 141.15,270.30 L 155.38,269.98 L 169.62,269.20 L 183.85,267.59 L 198.08,266.69 L 212.31,263.76 L 226.54,261.71 L 240.77,255.63 L 255.00,253.16 L 269.23,251.69 L 283.46,250.24 L 297.69,249.86 L 311.92,248.97 L 326.15,247.57 L 340.38,245.29 L 354.62,244.47 L 368.85,243.28 L 383.08,242.09 L 397.31,241.70 L 411.54,241.26 L 425.77,239.76 L 440.00,238.82 L 454.23,237.50 L 468.46,236.55 L 482.69,235.98 L 496.92,235.32 L 511.15,234.44 L 525.38,233.44 L 539.62,232.20 L 553.85,230.94 L 568.08,229.76 L 582.31,228.65 L 596.54,228.26 L 610.77,226.69 L 625.00,224.48 L 639.23,221.87 L 653.46,218.60 L 667.69,212.01 L 681.92,207.58 L 696.15,205.22 L 710.38,203.23 L 724.62,197.76 L 738.85,193.11 L 753.08,188.82 L 767.31,183.98 L 781.54,180.13 L 795.77,177.87 L 810.00,174.63" fill="none" stroke="#58a6ff" stroke-width="2.5" stroke-linejoin="round" stroke-linecap="round"/>

  <!-- Data points -->
  <circle cx="70.00" cy="273.87" r="2.5" fill="#58a6ff"/><circle cx="84.23" cy="271.19" r="2.5" fill="#58a6ff"/><circle cx="98.46" cy="270.87" r="2.5" fill="#58a6ff"/><circle cx="112.69" cy="270.81" r="2.5" fill="#58a6ff"/><circle cx="126.92" cy="270.48" r="2.5" fill="#58a6ff"/><circle cx="141.15" cy="270.30" r="2.5" fill="#58a6ff"/><circle cx="155.38" cy="269.98" r="2.5" fill="#58a6ff"/><circle cx="169.62" cy="269.20" r="2.5" fill="#58a6ff"/><circle cx="183.85" cy="267.59" r="2.5" fill="#58a6ff"/><circle cx="198.08" cy="266.69" r="2.5" fill="#58a6ff"/><circle cx="212.31" cy="263.76" r="2.5" fill="#58a6ff"/><circle cx="226.54" cy="261.71" r="2.5" fill="#58a6ff"/><circle cx="240.77" cy="255.63" r="2.5" fill="#58a6ff"/><circle cx="255.00" cy="253.16" r="2.5" fill="#58a6ff"/><circle cx="269.23" cy="251.69" r="2.5" fill="#58a6ff"/><circle cx="283.46" cy="250.24" r="2.5" fill="#58a6ff"/><circle cx="297.69" cy="249.86" r="2.5" fill="#58a6ff"/><circle cx="311.92" cy="248.97" r="2.5" fill="#58a6ff"/><circle cx="326.15" cy="247.57" r="2.5" fill="#58a6ff"/><circle cx="340.38" cy="245.29" r="2.5" fill="#58a6ff"/><circle cx="354.62" cy="244.47" r="2.5" fill="#58a6ff"/><circle cx="368.85" cy="243.28" r="2.5" fill="#58a6ff"/><circle cx="383.08" cy="242.09" r="2.5" fill="#58a6ff"/><circle cx="397.31" cy="241.70" r="2.5" fill="#58a6ff"/><circle cx="411.54" cy="241.26" r="2.5" fill="#58a6ff"/><circle cx="425.77" cy="239.76" r="2.5" fill="#58a6ff"/><circle cx="440.00" cy="238.82" r="2.5" fill="#58a6ff"/><circle cx="454.23" cy="237.50" r="2.5" fill="#58a6ff"/><circle cx="468.46" cy="236.55" r="2.5" fill="#58a6ff"/><circle cx="482.69" cy="235.98" r="2.5" fill="#58a6ff"/><circle cx="496.92" cy="235.32" r="2.5" fill="#58a6ff"/><circle cx="511.15" cy="234.44" r="2.5" fill="#58a6ff"/><circle cx="525.38" cy="233.44" r="2.5" fill="#58a6ff"/><circle cx="539.62" cy="232.20" r="2.5" fill="#58a6ff"/><circle cx="553.85" cy="230.94" r="2.5" fill="#58a6ff"/><circle cx="568.08" cy="229.76" r="2.5" fill="#58a6ff"/><circle cx="582.31" cy="228.65" r="2.5" fill="#58a6ff"/><circle cx="596.54" cy="228.26" r="2.5" fill="#58a6ff"/><circle cx="610.77" cy="226.69" r="2.5" fill="#58a6ff"/><circle cx="625.00" cy="224.48" r="2.5" fill="#58a6ff"/><circle cx="639.23" cy="221.87" r="2.5" fill="#58a6ff"/><circle cx="653.46" cy="218.60" r="2.5" fill="#58a6ff"/><circle cx="667.69" cy="212.01" r="2.5" fill="#58a6ff"/><circle cx="681.92" cy="207.58" r="2.5" fill="#58a6ff"/><circle cx="696.15" cy="205.22" r="2.5" fill="#58a6ff"/><circle cx="710.38" cy="203.23" r="2.5" fill="#58a6ff"/><circle cx="724.62" cy="197.76" r="2.5" fill="#58a6ff"/><circle cx="738.85" cy="193.11" r="2.5" fill="#58a6ff"/><circle cx="753.08" cy="188.82" r="2.5" fill="#58a6ff"/><circle cx="767.31" cy="183.98" r="2.5" fill="#58a6ff"/><circle cx="781.54" cy="180.13" r="2.5" fill="#58a6ff"/><circle cx="795.77" cy="177.87" r="2.5" fill="#58a6ff"/><circle cx="810.00" cy="174.63" r="4" fill="#F2C811"/>

  <!-- Last-value callout -->
  <rect x="720.0" y="146.6" width="82" height="24" rx="4" fill="#0d1a2a" stroke="#F2C811" stroke-width="1"/>
  <text x="761.0" y="162.6" font-family="'Segoe UI', Arial, sans-serif" font-size="12" fill="#F2C811" text-anchor="middle" font-weight="bold">10,433 total</text>

  <!-- X-axis labels -->
  <text x="70.0" y="298" font-family="'Segoe UI', Arial, sans-serif" font-size="10" fill="#8b949e" text-anchor="middle">Mar 26</text><text x="255.0" y="298" font-family="'Segoe UI', Arial, sans-serif" font-size="10" fill="#8b949e" text-anchor="middle">Apr 08</text><text x="440.0" y="298" font-family="'Segoe UI', Arial, sans-serif" font-size="10" fill="#8b949e" text-anchor="middle">Apr 21</text><text x="625.0" y="298" font-family="'Segoe UI', Arial, sans-serif" font-size="10" fill="#8b949e" text-anchor="middle">May 04</text><text x="810.0" y="298" font-family="'Segoe UI', Arial, sans-serif" font-size="10" fill="#8b949e" text-anchor="middle">May 17</text>

  <!-- Footer: date range -->
  <text x="70" y="328" font-family="'Segoe UI', Arial, sans-serif" font-size="10" fill="#8b949e">Mar 26, 2026 → May 17, 2026</text>
  <text x="810" y="328" font-family="'Segoe UI', Arial, sans-serif" font-size="10" fill="#8b949e" text-anchor="end">53 days of data</text>
</svg>
