<svg xmlns="http://www.w3.org/2000/svg" width="850" height="340" viewBox="0 0 850 340">
  <defs>
    <linearGradient id="areaFill" x1="0" y1="0" x2="0" y2="1">
      <stop offset="0%" stop-color="#58a6ff" stop-opacity="0.45"/>
      <stop offset="100%" stop-color="#58a6ff" stop-opacity="0"/>
    </linearGradient>
  </defs>

  <!-- Background -->
  <rect width="100%" height="100%" fill="#0d1117" rx="8"/>

  <!-- Title -->
  <text x="425" y="33" font-family="'Segoe UI', Arial, sans-serif" font-size="17" fill="#F2C811" text-anchor="middle" font-weight="bold">pbi-cli Downloads Over Time</text>
  <text x="425" y="52" font-family="'Segoe UI', Arial, sans-serif" font-size="11" fill="#8b949e" text-anchor="middle">Cumulative installs from PyPI • mirrors excluded • source: pypistats.org</text>

  <!-- Gridlines & y-labels -->
  <line x1="70" y1="280.0" x2="810" y2="280.0" stroke="#21262d" stroke-width="1" stroke-dasharray="2,3"/><line x1="70" y1="239.6" x2="810" y2="239.6" stroke="#21262d" stroke-width="1" stroke-dasharray="2,3"/><line x1="70" y1="199.2" x2="810" y2="199.2" stroke="#21262d" stroke-width="1" stroke-dasharray="2,3"/><line x1="70" y1="158.8" x2="810" y2="158.8" stroke="#21262d" stroke-width="1" stroke-dasharray="2,3"/><line x1="70" y1="118.4" x2="810" y2="118.4" stroke="#21262d" stroke-width="1" stroke-dasharray="2,3"/><line x1="70" y1="78.0" x2="810" y2="78.0" stroke="#21262d" stroke-width="1" stroke-dasharray="2,3"/>
  <text x="62" y="284.0" font-family="'Segoe UI', Arial, sans-serif" font-size="10" fill="#8b949e" text-anchor="end">0</text><text x="62" y="243.6" font-family="'Segoe UI', Arial, sans-serif" font-size="10" fill="#8b949e" text-anchor="end">2,000</text><text x="62" y="203.2" font-family="'Segoe UI', Arial, sans-serif" font-size="10" fill="#8b949e" text-anchor="end">4,000</text><text x="62" y="162.8" font-family="'Segoe UI', Arial, sans-serif" font-size="10" fill="#8b949e" text-anchor="end">6,000</text><text x="62" y="122.4" font-family="'Segoe UI', Arial, sans-serif" font-size="10" fill="#8b949e" text-anchor="end">8,000</text><text x="62" y="82.0" font-family="'Segoe UI', Arial, sans-serif" font-size="10" fill="#8b949e" text-anchor="end">10,000</text>

  <!-- Area fill -->
  <path d="M 70.00,280 L 70.00,267.74 L 86.44,262.39 L 102.89,261.74 L 119.33,261.62 L 135.78,260.95 L 152.22,260.61 L 168.67,259.96 L 185.11,258.41 L 201.56,255.17 L 218.00,253.38 L 234.44,247.52 L 250.89,243.42 L 267.33,231.26 L 283.78,226.33 L 300.22,223.38 L 316.67,220.47 L 333.11,219.72 L 349.56,217.95 L 366.00,215.14 L 382.44,210.57 L 398.89,208.94 L 415.33,206.55 L 431.78,204.19 L 448.22,203.40 L 464.67,202.51 L 481.11,199.52 L 497.56,197.64 L 514.00,195.00 L 530.44,193.10 L 546.89,191.97 L 563.33,190.64 L 579.78,188.88 L 596.22,186.88 L 612.67,184.39 L 629.11,181.89 L 645.56,179.53 L 662.00,177.30 L 678.44,176.52 L 694.89,173.38 L 711.33,168.96 L 727.78,163.75 L 744.22,157.20 L 760.67,144.01 L 777.11,135.17 L 793.56,130.44 L 810.00,126.46 L 810.00,280 Z" fill="url(#areaFill)"/>

  <!-- Line -->
  <path d="M 70.00,267.74 L 86.44,262.39 L 102.89,261.74 L 119.33,261.62 L 135.78,260.95 L 152.22,260.61 L 168.67,259.96 L 185.11,258.41 L 201.56,255.17 L 218.00,253.38 L 234.44,247.52 L 250.89,243.42 L 267.33,231.26 L 283.78,226.33 L 300.22,223.38 L 316.67,220.47 L 333.11,219.72 L 349.56,217.95 L 366.00,215.14 L 382.44,210.57 L 398.89,208.94 L 415.33,206.55 L 431.78,204.19 L 448.22,203.40 L 464.67,202.51 L 481.11,199.52 L 497.56,197.64 L 514.00,195.00 L 530.44,193.10 L 546.89,191.97 L 563.33,190.64 L 579.78,188.88 L 596.22,186.88 L 612.67,184.39 L 629.11,181.89 L 645.56,179.53 L 662.00,177.30 L 678.44,176.52 L 694.89,173.38 L 711.33,168.96 L 727.78,163.75 L 744.22,157.20 L 760.67,144.01 L 777.11,135.17 L 793.56,130.44 L 810.00,126.46" fill="none" stroke="#58a6ff" stroke-width="2.5" stroke-linejoin="round" stroke-linecap="round"/>

  <!-- Data points -->
  <circle cx="70.00" cy="267.74" r="2.5" fill="#58a6ff"/><circle cx="86.44" cy="262.39" r="2.5" fill="#58a6ff"/><circle cx="102.89" cy="261.74" r="2.5" fill="#58a6ff"/><circle cx="119.33" cy="261.62" r="2.5" fill="#58a6ff"/><circle cx="135.78" cy="260.95" r="2.5" fill="#58a6ff"/><circle cx="152.22" cy="260.61" r="2.5" fill="#58a6ff"/><circle cx="168.67" cy="259.96" r="2.5" fill="#58a6ff"/><circle cx="185.11" cy="258.41" r="2.5" fill="#58a6ff"/><circle cx="201.56" cy="255.17" r="2.5" fill="#58a6ff"/><circle cx="218.00" cy="253.38" r="2.5" fill="#58a6ff"/><circle cx="234.44" cy="247.52" r="2.5" fill="#58a6ff"/><circle cx="250.89" cy="243.42" r="2.5" fill="#58a6ff"/><circle cx="267.33" cy="231.26" r="2.5" fill="#58a6ff"/><circle cx="283.78" cy="226.33" r="2.5" fill="#58a6ff"/><circle cx="300.22" cy="223.38" r="2.5" fill="#58a6ff"/><circle cx="316.67" cy="220.47" r="2.5" fill="#58a6ff"/><circle cx="333.11" cy="219.72" r="2.5" fill="#58a6ff"/><circle cx="349.56" cy="217.95" r="2.5" fill="#58a6ff"/><circle cx="366.00" cy="215.14" r="2.5" fill="#58a6ff"/><circle cx="382.44" cy="210.57" r="2.5" fill="#58a6ff"/><circle cx="398.89" cy="208.94" r="2.5" fill="#58a6ff"/><circle cx="415.33" cy="206.55" r="2.5" fill="#58a6ff"/><circle cx="431.78" cy="204.19" r="2.5" fill="#58a6ff"/><circle cx="448.22" cy="203.40" r="2.5" fill="#58a6ff"/><circle cx="464.67" cy="202.51" r="2.5" fill="#58a6ff"/><circle cx="481.11" cy="199.52" r="2.5" fill="#58a6ff"/><circle cx="497.56" cy="197.64" r="2.5" fill="#58a6ff"/><circle cx="514.00" cy="195.00" r="2.5" fill="#58a6ff"/><circle cx="530.44" cy="193.10" r="2.5" fill="#58a6ff"/><circle cx="546.89" cy="191.97" r="2.5" fill="#58a6ff"/><circle cx="563.33" cy="190.64" r="2.5" fill="#58a6ff"/><circle cx="579.78" cy="188.88" r="2.5" fill="#58a6ff"/><circle cx="596.22" cy="186.88" r="2.5" fill="#58a6ff"/><circle cx="612.67" cy="184.39" r="2.5" fill="#58a6ff"/><circle cx="629.11" cy="181.89" r="2.5" fill="#58a6ff"/><circle cx="645.56" cy="179.53" r="2.5" fill="#58a6ff"/><circle cx="662.00" cy="177.30" r="2.5" fill="#58a6ff"/><circle cx="678.44" cy="176.52" r="2.5" fill="#58a6ff"/><circle cx="694.89" cy="173.38" r="2.5" fill="#58a6ff"/><circle cx="711.33" cy="168.96" r="2.5" fill="#58a6ff"/><circle cx="727.78" cy="163.75" r="2.5" fill="#58a6ff"/><circle cx="744.22" cy="157.20" r="2.5" fill="#58a6ff"/><circle cx="760.67" cy="144.01" r="2.5" fill="#58a6ff"/><circle cx="777.11" cy="135.17" r="2.5" fill="#58a6ff"/><circle cx="793.56" cy="130.44" r="2.5" fill="#58a6ff"/><circle cx="810.00" cy="126.46" r="4" fill="#F2C811"/>

  <!-- Last-value callout -->
  <rect x="720.0" y="98.5" width="82" height="24" rx="4" fill="#0d1a2a" stroke="#F2C811" stroke-width="1"/>
  <text x="761.0" y="114.5" font-family="'Segoe UI', Arial, sans-serif" font-size="12" fill="#F2C811" text-anchor="middle" font-weight="bold">7,601 total</text>

  <!-- X-axis labels -->
  <text x="70.0" y="298" font-family="'Segoe UI', Arial, sans-serif" font-size="10" fill="#8b949e" text-anchor="middle">Mar 26</text><text x="250.9" y="298" font-family="'Segoe UI', Arial, sans-serif" font-size="10" fill="#8b949e" text-anchor="middle">Apr 06</text><text x="448.2" y="298" font-family="'Segoe UI', Arial, sans-serif" font-size="10" fill="#8b949e" text-anchor="middle">Apr 18</text><text x="629.1" y="298" font-family="'Segoe UI', Arial, sans-serif" font-size="10" fill="#8b949e" text-anchor="middle">Apr 29</text><text x="810.0" y="298" font-family="'Segoe UI', Arial, sans-serif" font-size="10" fill="#8b949e" text-anchor="middle">May 10</text>

  <!-- Footer: date range -->
  <text x="70" y="328" font-family="'Segoe UI', Arial, sans-serif" font-size="10" fill="#8b949e">Mar 26, 2026 → May 10, 2026</text>
  <text x="810" y="328" font-family="'Segoe UI', Arial, sans-serif" font-size="10" fill="#8b949e" text-anchor="end">46 days of data</text>
</svg>
