<svg xmlns="http://www.w3.org/2000/svg" width="850" height="340" viewBox="0 0 850 340">
  <defs>
    <linearGradient id="areaFill" x1="0" y1="0" x2="0" y2="1">
      <stop offset="0%" stop-color="#58a6ff" stop-opacity="0.45"/>
      <stop offset="100%" stop-color="#58a6ff" stop-opacity="0"/>
    </linearGradient>
  </defs>

  <!-- Background -->
  <rect width="100%" height="100%" fill="#0d1117" rx="8"/>

  <!-- Title -->
  <text x="425" y="33" font-family="'Segoe UI', Arial, sans-serif" font-size="17" fill="#F2C811" text-anchor="middle" font-weight="bold">pbi-cli Downloads Over Time</text>
  <text x="425" y="52" font-family="'Segoe UI', Arial, sans-serif" font-size="11" fill="#8b949e" text-anchor="middle">Cumulative installs from PyPI • mirrors excluded • source: pypistats.org</text>

  <!-- Gridlines & y-labels -->
  <line x1="70" y1="280.0" x2="810" y2="280.0" stroke="#21262d" stroke-width="1" stroke-dasharray="2,3"/><line x1="70" y1="239.6" x2="810" y2="239.6" stroke="#21262d" stroke-width="1" stroke-dasharray="2,3"/><line x1="70" y1="199.2" x2="810" y2="199.2" stroke="#21262d" stroke-width="1" stroke-dasharray="2,3"/><line x1="70" y1="158.8" x2="810" y2="158.8" stroke="#21262d" stroke-width="1" stroke-dasharray="2,3"/><line x1="70" y1="118.4" x2="810" y2="118.4" stroke="#21262d" stroke-width="1" stroke-dasharray="2,3"/><line x1="70" y1="78.0" x2="810" y2="78.0" stroke="#21262d" stroke-width="1" stroke-dasharray="2,3"/>
  <text x="62" y="284.0" font-family="'Segoe UI', Arial, sans-serif" font-size="10" fill="#8b949e" text-anchor="end">0</text><text x="62" y="243.6" font-family="'Segoe UI', Arial, sans-serif" font-size="10" fill="#8b949e" text-anchor="end">4,000</text><text x="62" y="203.2" font-family="'Segoe UI', Arial, sans-serif" font-size="10" fill="#8b949e" text-anchor="end">8,000</text><text x="62" y="162.8" font-family="'Segoe UI', Arial, sans-serif" font-size="10" fill="#8b949e" text-anchor="end">12,000</text><text x="62" y="122.4" font-family="'Segoe UI', Arial, sans-serif" font-size="10" fill="#8b949e" text-anchor="end">16,000</text><text x="62" y="82.0" font-family="'Segoe UI', Arial, sans-serif" font-size="10" fill="#8b949e" text-anchor="end">20,000</text>

  <!-- Area fill -->
  <path d="M 70.00,280 L 70.00,273.87 L 85.42,271.19 L 100.83,270.87 L 116.25,270.81 L 131.67,270.48 L 147.08,270.30 L 162.50,269.98 L 177.92,269.20 L 193.33,267.59 L 208.75,266.69 L 224.17,263.76 L 239.58,261.71 L 255.00,255.63 L 270.42,253.16 L 285.83,251.69 L 301.25,250.24 L 316.67,249.86 L 332.08,248.97 L 347.50,247.57 L 362.92,245.29 L 378.33,244.47 L 393.75,243.28 L 409.17,242.09 L 424.58,241.70 L 440.00,241.26 L 455.42,239.76 L 470.83,238.82 L 486.25,237.50 L 501.67,236.55 L 517.08,235.98 L 532.50,235.32 L 547.92,234.44 L 563.33,233.44 L 578.75,232.20 L 594.17,230.94 L 609.58,229.76 L 625.00,228.65 L 640.42,228.26 L 655.83,226.69 L 671.25,224.48 L 686.67,221.87 L 702.08,218.60 L 717.50,212.01 L 732.92,207.58 L 748.33,205.22 L 763.75,203.23 L 779.17,197.76 L 794.58,193.11 L 810.00,188.82 L 810.00,280 Z" fill="url(#areaFill)"/>

  <!-- Line -->
  <path d="M 70.00,273.87 L 85.42,271.19 L 100.83,270.87 L 116.25,270.81 L 131.67,270.48 L 147.08,270.30 L 162.50,269.98 L 177.92,269.20 L 193.33,267.59 L 208.75,266.69 L 224.17,263.76 L 239.58,261.71 L 255.00,255.63 L 270.42,253.16 L 285.83,251.69 L 301.25,250.24 L 316.67,249.86 L 332.08,248.97 L 347.50,247.57 L 362.92,245.29 L 378.33,244.47 L 393.75,243.28 L 409.17,242.09 L 424.58,241.70 L 440.00,241.26 L 455.42,239.76 L 470.83,238.82 L 486.25,237.50 L 501.67,236.55 L 517.08,235.98 L 532.50,235.32 L 547.92,234.44 L 563.33,233.44 L 578.75,232.20 L 594.17,230.94 L 609.58,229.76 L 625.00,228.65 L 640.42,228.26 L 655.83,226.69 L 671.25,224.48 L 686.67,221.87 L 702.08,218.60 L 717.50,212.01 L 732.92,207.58 L 748.33,205.22 L 763.75,203.23 L 779.17,197.76 L 794.58,193.11 L 810.00,188.82" fill="none" stroke="#58a6ff" stroke-width="2.5" stroke-linejoin="round" stroke-linecap="round"/>

  <!-- Data points -->
  <circle cx="70.00" cy="273.87" r="2.5" fill="#58a6ff"/><circle cx="85.42" cy="271.19" r="2.5" fill="#58a6ff"/><circle cx="100.83" cy="270.87" r="2.5" fill="#58a6ff"/><circle cx="116.25" cy="270.81" r="2.5" fill="#58a6ff"/><circle cx="131.67" cy="270.48" r="2.5" fill="#58a6ff"/><circle cx="147.08" cy="270.30" r="2.5" fill="#58a6ff"/><circle cx="162.50" cy="269.98" r="2.5" fill="#58a6ff"/><circle cx="177.92" cy="269.20" r="2.5" fill="#58a6ff"/><circle cx="193.33" cy="267.59" r="2.5" fill="#58a6ff"/><circle cx="208.75" cy="266.69" r="2.5" fill="#58a6ff"/><circle cx="224.17" cy="263.76" r="2.5" fill="#58a6ff"/><circle cx="239.58" cy="261.71" r="2.5" fill="#58a6ff"/><circle cx="255.00" cy="255.63" r="2.5" fill="#58a6ff"/><circle cx="270.42" cy="253.16" r="2.5" fill="#58a6ff"/><circle cx="285.83" cy="251.69" r="2.5" fill="#58a6ff"/><circle cx="301.25" cy="250.24" r="2.5" fill="#58a6ff"/><circle cx="316.67" cy="249.86" r="2.5" fill="#58a6ff"/><circle cx="332.08" cy="248.97" r="2.5" fill="#58a6ff"/><circle cx="347.50" cy="247.57" r="2.5" fill="#58a6ff"/><circle cx="362.92" cy="245.29" r="2.5" fill="#58a6ff"/><circle cx="378.33" cy="244.47" r="2.5" fill="#58a6ff"/><circle cx="393.75" cy="243.28" r="2.5" fill="#58a6ff"/><circle cx="409.17" cy="242.09" r="2.5" fill="#58a6ff"/><circle cx="424.58" cy="241.70" r="2.5" fill="#58a6ff"/><circle cx="440.00" cy="241.26" r="2.5" fill="#58a6ff"/><circle cx="455.42" cy="239.76" r="2.5" fill="#58a6ff"/><circle cx="470.83" cy="238.82" r="2.5" fill="#58a6ff"/><circle cx="486.25" cy="237.50" r="2.5" fill="#58a6ff"/><circle cx="501.67" cy="236.55" r="2.5" fill="#58a6ff"/><circle cx="517.08" cy="235.98" r="2.5" fill="#58a6ff"/><circle cx="532.50" cy="235.32" r="2.5" fill="#58a6ff"/><circle cx="547.92" cy="234.44" r="2.5" fill="#58a6ff"/><circle cx="563.33" cy="233.44" r="2.5" fill="#58a6ff"/><circle cx="578.75" cy="232.20" r="2.5" fill="#58a6ff"/><circle cx="594.17" cy="230.94" r="2.5" fill="#58a6ff"/><circle cx="609.58" cy="229.76" r="2.5" fill="#58a6ff"/><circle cx="625.00" cy="228.65" r="2.5" fill="#58a6ff"/><circle cx="640.42" cy="228.26" r="2.5" fill="#58a6ff"/><circle cx="655.83" cy="226.69" r="2.5" fill="#58a6ff"/><circle cx="671.25" cy="224.48" r="2.5" fill="#58a6ff"/><circle cx="686.67" cy="221.87" r="2.5" fill="#58a6ff"/><circle cx="702.08" cy="218.60" r="2.5" fill="#58a6ff"/><circle cx="717.50" cy="212.01" r="2.5" fill="#58a6ff"/><circle cx="732.92" cy="207.58" r="2.5" fill="#58a6ff"/><circle cx="748.33" cy="205.22" r="2.5" fill="#58a6ff"/><circle cx="763.75" cy="203.23" r="2.5" fill="#58a6ff"/><circle cx="779.17" cy="197.76" r="2.5" fill="#58a6ff"/><circle cx="794.58" cy="193.11" r="2.5" fill="#58a6ff"/><circle cx="810.00" cy="188.82" r="4" fill="#F2C811"/>

  <!-- Last-value callout -->
  <rect x="720.0" y="160.8" width="82" height="24" rx="4" fill="#0d1a2a" stroke="#F2C811" stroke-width="1"/>
  <text x="761.0" y="176.8" font-family="'Segoe UI', Arial, sans-serif" font-size="12" fill="#F2C811" text-anchor="middle" font-weight="bold">9,028 total</text>

  <!-- X-axis labels -->
  <text x="70.0" y="298" font-family="'Segoe UI', Arial, sans-serif" font-size="10" fill="#8b949e" text-anchor="middle">Mar 26</text><text x="255.0" y="298" font-family="'Segoe UI', Arial, sans-serif" font-size="10" fill="#8b949e" text-anchor="middle">Apr 07</text><text x="440.0" y="298" font-family="'Segoe UI', Arial, sans-serif" font-size="10" fill="#8b949e" text-anchor="middle">Apr 19</text><text x="625.0" y="298" font-family="'Segoe UI', Arial, sans-serif" font-size="10" fill="#8b949e" text-anchor="middle">May 01</text><text x="810.0" y="298" font-family="'Segoe UI', Arial, sans-serif" font-size="10" fill="#8b949e" text-anchor="middle">May 13</text>

  <!-- Footer: date range -->
  <text x="70" y="328" font-family="'Segoe UI', Arial, sans-serif" font-size="10" fill="#8b949e">Mar 26, 2026 → May 13, 2026</text>
  <text x="810" y="328" font-family="'Segoe UI', Arial, sans-serif" font-size="10" fill="#8b949e" text-anchor="end">49 days of data</text>
</svg>
