<svg xmlns="http://www.w3.org/2000/svg" width="850" height="340" viewBox="0 0 850 340">
  <defs>
    <linearGradient id="areaFill" x1="0" y1="0" x2="0" y2="1">
      <stop offset="0%" stop-color="#58a6ff" stop-opacity="0.45"/>
      <stop offset="100%" stop-color="#58a6ff" stop-opacity="0"/>
    </linearGradient>
  </defs>

  <!-- Background -->
  <rect width="100%" height="100%" fill="#0d1117" rx="8"/>

  <!-- Title -->
  <text x="425" y="33" font-family="'Segoe UI', Arial, sans-serif" font-size="17" fill="#F2C811" text-anchor="middle" font-weight="bold">pbi-cli Downloads Over Time</text>
  <text x="425" y="52" font-family="'Segoe UI', Arial, sans-serif" font-size="11" fill="#8b949e" text-anchor="middle">Cumulative installs from PyPI • mirrors excluded • source: pypistats.org</text>

  <!-- Gridlines & y-labels -->
  <line x1="70" y1="280.0" x2="810" y2="280.0" stroke="#21262d" stroke-width="1" stroke-dasharray="2,3"/><line x1="70" y1="239.6" x2="810" y2="239.6" stroke="#21262d" stroke-width="1" stroke-dasharray="2,3"/><line x1="70" y1="199.2" x2="810" y2="199.2" stroke="#21262d" stroke-width="1" stroke-dasharray="2,3"/><line x1="70" y1="158.8" x2="810" y2="158.8" stroke="#21262d" stroke-width="1" stroke-dasharray="2,3"/><line x1="70" y1="118.4" x2="810" y2="118.4" stroke="#21262d" stroke-width="1" stroke-dasharray="2,3"/><line x1="70" y1="78.0" x2="810" y2="78.0" stroke="#21262d" stroke-width="1" stroke-dasharray="2,3"/>
  <text x="62" y="284.0" font-family="'Segoe UI', Arial, sans-serif" font-size="10" fill="#8b949e" text-anchor="end">0</text><text x="62" y="243.6" font-family="'Segoe UI', Arial, sans-serif" font-size="10" fill="#8b949e" text-anchor="end">4,000</text><text x="62" y="203.2" font-family="'Segoe UI', Arial, sans-serif" font-size="10" fill="#8b949e" text-anchor="end">8,000</text><text x="62" y="162.8" font-family="'Segoe UI', Arial, sans-serif" font-size="10" fill="#8b949e" text-anchor="end">12,000</text><text x="62" y="122.4" font-family="'Segoe UI', Arial, sans-serif" font-size="10" fill="#8b949e" text-anchor="end">16,000</text><text x="62" y="82.0" font-family="'Segoe UI', Arial, sans-serif" font-size="10" fill="#8b949e" text-anchor="end">20,000</text>

  <!-- Area fill -->
  <path d="M 70.00,280 L 70.00,273.87 L 81.38,271.19 L 92.77,270.87 L 104.15,270.81 L 115.54,270.48 L 126.92,270.30 L 138.31,269.98 L 149.69,269.20 L 161.08,267.59 L 172.46,266.69 L 183.85,263.76 L 195.23,261.71 L 206.62,255.63 L 218.00,253.16 L 229.38,251.69 L 240.77,250.24 L 252.15,249.86 L 263.54,248.97 L 274.92,247.57 L 286.31,245.29 L 297.69,244.47 L 309.08,243.28 L 320.46,242.09 L 331.85,241.70 L 343.23,241.26 L 354.62,239.76 L 366.00,238.82 L 377.38,237.50 L 388.77,236.55 L 400.15,235.98 L 411.54,235.32 L 422.92,234.44 L 434.31,233.44 L 445.69,232.20 L 457.08,230.94 L 468.46,229.76 L 479.85,228.65 L 491.23,228.26 L 502.62,226.69 L 514.00,224.48 L 525.38,221.87 L 536.77,218.60 L 548.15,212.01 L 559.54,207.58 L 570.92,205.22 L 582.31,203.23 L 593.69,197.76 L 605.08,193.11 L 616.46,188.82 L 627.85,183.98 L 639.23,180.13 L 650.62,177.87 L 662.00,174.63 L 673.38,171.33 L 684.77,165.60 L 696.15,161.04 L 707.54,155.52 L 718.92,151.79 L 730.31,149.26 L 741.69,147.26 L 753.08,145.32 L 764.46,141.28 L 775.85,136.98 L 787.23,133.01 L 798.62,130.07 L 810.00,128.62 L 810.00,280 Z" fill="url(#areaFill)"/>

  <!-- Line -->
  <path d="M 70.00,273.87 L 81.38,271.19 L 92.77,270.87 L 104.15,270.81 L 115.54,270.48 L 126.92,270.30 L 138.31,269.98 L 149.69,269.20 L 161.08,267.59 L 172.46,266.69 L 183.85,263.76 L 195.23,261.71 L 206.62,255.63 L 218.00,253.16 L 229.38,251.69 L 240.77,250.24 L 252.15,249.86 L 263.54,248.97 L 274.92,247.57 L 286.31,245.29 L 297.69,244.47 L 309.08,243.28 L 320.46,242.09 L 331.85,241.70 L 343.23,241.26 L 354.62,239.76 L 366.00,238.82 L 377.38,237.50 L 388.77,236.55 L 400.15,235.98 L 411.54,235.32 L 422.92,234.44 L 434.31,233.44 L 445.69,232.20 L 457.08,230.94 L 468.46,229.76 L 479.85,228.65 L 491.23,228.26 L 502.62,226.69 L 514.00,224.48 L 525.38,221.87 L 536.77,218.60 L 548.15,212.01 L 559.54,207.58 L 570.92,205.22 L 582.31,203.23 L 593.69,197.76 L 605.08,193.11 L 616.46,188.82 L 627.85,183.98 L 639.23,180.13 L 650.62,177.87 L 662.00,174.63 L 673.38,171.33 L 684.77,165.60 L 696.15,161.04 L 707.54,155.52 L 718.92,151.79 L 730.31,149.26 L 741.69,147.26 L 753.08,145.32 L 764.46,141.28 L 775.85,136.98 L 787.23,133.01 L 798.62,130.07 L 810.00,128.62" fill="none" stroke="#58a6ff" stroke-width="2.5" stroke-linejoin="round" stroke-linecap="round"/>

  <!-- Data points -->
  <circle cx="70.00" cy="273.87" r="2.5" fill="#58a6ff"/><circle cx="81.38" cy="271.19" r="2.5" fill="#58a6ff"/><circle cx="92.77" cy="270.87" r="2.5" fill="#58a6ff"/><circle cx="104.15" cy="270.81" r="2.5" fill="#58a6ff"/><circle cx="115.54" cy="270.48" r="2.5" fill="#58a6ff"/><circle cx="126.92" cy="270.30" r="2.5" fill="#58a6ff"/><circle cx="138.31" cy="269.98" r="2.5" fill="#58a6ff"/><circle cx="149.69" cy="269.20" r="2.5" fill="#58a6ff"/><circle cx="161.08" cy="267.59" r="2.5" fill="#58a6ff"/><circle cx="172.46" cy="266.69" r="2.5" fill="#58a6ff"/><circle cx="183.85" cy="263.76" r="2.5" fill="#58a6ff"/><circle cx="195.23" cy="261.71" r="2.5" fill="#58a6ff"/><circle cx="206.62" cy="255.63" r="2.5" fill="#58a6ff"/><circle cx="218.00" cy="253.16" r="2.5" fill="#58a6ff"/><circle cx="229.38" cy="251.69" r="2.5" fill="#58a6ff"/><circle cx="240.77" cy="250.24" r="2.5" fill="#58a6ff"/><circle cx="252.15" cy="249.86" r="2.5" fill="#58a6ff"/><circle cx="263.54" cy="248.97" r="2.5" fill="#58a6ff"/><circle cx="274.92" cy="247.57" r="2.5" fill="#58a6ff"/><circle cx="286.31" cy="245.29" r="2.5" fill="#58a6ff"/><circle cx="297.69" cy="244.47" r="2.5" fill="#58a6ff"/><circle cx="309.08" cy="243.28" r="2.5" fill="#58a6ff"/><circle cx="320.46" cy="242.09" r="2.5" fill="#58a6ff"/><circle cx="331.85" cy="241.70" r="2.5" fill="#58a6ff"/><circle cx="343.23" cy="241.26" r="2.5" fill="#58a6ff"/><circle cx="354.62" cy="239.76" r="2.5" fill="#58a6ff"/><circle cx="366.00" cy="238.82" r="2.5" fill="#58a6ff"/><circle cx="377.38" cy="237.50" r="2.5" fill="#58a6ff"/><circle cx="388.77" cy="236.55" r="2.5" fill="#58a6ff"/><circle cx="400.15" cy="235.98" r="2.5" fill="#58a6ff"/><circle cx="411.54" cy="235.32" r="2.5" fill="#58a6ff"/><circle cx="422.92" cy="234.44" r="2.5" fill="#58a6ff"/><circle cx="434.31" cy="233.44" r="2.5" fill="#58a6ff"/><circle cx="445.69" cy="232.20" r="2.5" fill="#58a6ff"/><circle cx="457.08" cy="230.94" r="2.5" fill="#58a6ff"/><circle cx="468.46" cy="229.76" r="2.5" fill="#58a6ff"/><circle cx="479.85" cy="228.65" r="2.5" fill="#58a6ff"/><circle cx="491.23" cy="228.26" r="2.5" fill="#58a6ff"/><circle cx="502.62" cy="226.69" r="2.5" fill="#58a6ff"/><circle cx="514.00" cy="224.48" r="2.5" fill="#58a6ff"/><circle cx="525.38" cy="221.87" r="2.5" fill="#58a6ff"/><circle cx="536.77" cy="218.60" r="2.5" fill="#58a6ff"/><circle cx="548.15" cy="212.01" r="2.5" fill="#58a6ff"/><circle cx="559.54" cy="207.58" r="2.5" fill="#58a6ff"/><circle cx="570.92" cy="205.22" r="2.5" fill="#58a6ff"/><circle cx="582.31" cy="203.23" r="2.5" fill="#58a6ff"/><circle cx="593.69" cy="197.76" r="2.5" fill="#58a6ff"/><circle cx="605.08" cy="193.11" r="2.5" fill="#58a6ff"/><circle cx="616.46" cy="188.82" r="2.5" fill="#58a6ff"/><circle cx="627.85" cy="183.98" r="2.5" fill="#58a6ff"/><circle cx="639.23" cy="180.13" r="2.5" fill="#58a6ff"/><circle cx="650.62" cy="177.87" r="2.5" fill="#58a6ff"/><circle cx="662.00" cy="174.63" r="2.5" fill="#58a6ff"/><circle cx="673.38" cy="171.33" r="2.5" fill="#58a6ff"/><circle cx="684.77" cy="165.60" r="2.5" fill="#58a6ff"/><circle cx="696.15" cy="161.04" r="2.5" fill="#58a6ff"/><circle cx="707.54" cy="155.52" r="2.5" fill="#58a6ff"/><circle cx="718.92" cy="151.79" r="2.5" fill="#58a6ff"/><circle cx="730.31" cy="149.26" r="2.5" fill="#58a6ff"/><circle cx="741.69" cy="147.26" r="2.5" fill="#58a6ff"/><circle cx="753.08" cy="145.32" r="2.5" fill="#58a6ff"/><circle cx="764.46" cy="141.28" r="2.5" fill="#58a6ff"/><circle cx="775.85" cy="136.98" r="2.5" fill="#58a6ff"/><circle cx="787.23" cy="133.01" r="2.5" fill="#58a6ff"/><circle cx="798.62" cy="130.07" r="2.5" fill="#58a6ff"/><circle cx="810.00" cy="128.62" r="4" fill="#F2C811"/>

  <!-- Last-value callout -->
  <rect x="720.0" y="100.6" width="82" height="24" rx="4" fill="#0d1a2a" stroke="#F2C811" stroke-width="1"/>
  <text x="761.0" y="116.6" font-family="'Segoe UI', Arial, sans-serif" font-size="12" fill="#F2C811" text-anchor="middle" font-weight="bold">14,988 total</text>

  <!-- X-axis labels -->
  <text x="70.0" y="298" font-family="'Segoe UI', Arial, sans-serif" font-size="10" fill="#8b949e" text-anchor="middle">Mar 26</text><text x="252.2" y="298" font-family="'Segoe UI', Arial, sans-serif" font-size="10" fill="#8b949e" text-anchor="middle">Apr 11</text><text x="445.7" y="298" font-family="'Segoe UI', Arial, sans-serif" font-size="10" fill="#8b949e" text-anchor="middle">Apr 28</text><text x="627.8" y="298" font-family="'Segoe UI', Arial, sans-serif" font-size="10" fill="#8b949e" text-anchor="middle">May 14</text><text x="810.0" y="298" font-family="'Segoe UI', Arial, sans-serif" font-size="10" fill="#8b949e" text-anchor="middle">May 30</text>

  <!-- Footer: date range -->
  <text x="70" y="328" font-family="'Segoe UI', Arial, sans-serif" font-size="10" fill="#8b949e">Mar 26, 2026 → May 30, 2026</text>
  <text x="810" y="328" font-family="'Segoe UI', Arial, sans-serif" font-size="10" fill="#8b949e" text-anchor="end">66 days of data</text>
</svg>
