<svg xmlns="http://www.w3.org/2000/svg" width="850" height="340" viewBox="0 0 850 340">
  <defs>
    <linearGradient id="areaFill" x1="0" y1="0" x2="0" y2="1">
      <stop offset="0%" stop-color="#58a6ff" stop-opacity="0.45"/>
      <stop offset="100%" stop-color="#58a6ff" stop-opacity="0"/>
    </linearGradient>
  </defs>

  <!-- Background -->
  <rect width="100%" height="100%" fill="#0d1117" rx="8"/>

  <!-- Title -->
  <text x="425" y="33" font-family="'Segoe UI', Arial, sans-serif" font-size="17" fill="#F2C811" text-anchor="middle" font-weight="bold">pbi-cli Downloads Over Time</text>
  <text x="425" y="52" font-family="'Segoe UI', Arial, sans-serif" font-size="11" fill="#8b949e" text-anchor="middle">Cumulative installs from PyPI • mirrors excluded • source: pypistats.org</text>

  <!-- Gridlines & y-labels -->
  <line x1="70" y1="280.0" x2="810" y2="280.0" stroke="#21262d" stroke-width="1" stroke-dasharray="2,3"/><line x1="70" y1="239.6" x2="810" y2="239.6" stroke="#21262d" stroke-width="1" stroke-dasharray="2,3"/><line x1="70" y1="199.2" x2="810" y2="199.2" stroke="#21262d" stroke-width="1" stroke-dasharray="2,3"/><line x1="70" y1="158.8" x2="810" y2="158.8" stroke="#21262d" stroke-width="1" stroke-dasharray="2,3"/><line x1="70" y1="118.4" x2="810" y2="118.4" stroke="#21262d" stroke-width="1" stroke-dasharray="2,3"/><line x1="70" y1="78.0" x2="810" y2="78.0" stroke="#21262d" stroke-width="1" stroke-dasharray="2,3"/>
  <text x="62" y="284.0" font-family="'Segoe UI', Arial, sans-serif" font-size="10" fill="#8b949e" text-anchor="end">0</text><text x="62" y="243.6" font-family="'Segoe UI', Arial, sans-serif" font-size="10" fill="#8b949e" text-anchor="end">2,000</text><text x="62" y="203.2" font-family="'Segoe UI', Arial, sans-serif" font-size="10" fill="#8b949e" text-anchor="end">4,000</text><text x="62" y="162.8" font-family="'Segoe UI', Arial, sans-serif" font-size="10" fill="#8b949e" text-anchor="end">6,000</text><text x="62" y="122.4" font-family="'Segoe UI', Arial, sans-serif" font-size="10" fill="#8b949e" text-anchor="end">8,000</text><text x="62" y="82.0" font-family="'Segoe UI', Arial, sans-serif" font-size="10" fill="#8b949e" text-anchor="end">10,000</text>

  <!-- Area fill -->
  <path d="M 70.00,280 L 70.00,267.74 L 89.47,262.39 L 108.95,261.74 L 128.42,261.62 L 147.89,260.95 L 167.37,260.61 L 186.84,259.96 L 206.32,258.41 L 225.79,255.17 L 245.26,253.38 L 264.74,247.52 L 284.21,243.42 L 303.68,231.26 L 323.16,226.33 L 342.63,223.38 L 362.11,220.47 L 381.58,219.72 L 401.05,217.95 L 420.53,215.14 L 440.00,210.57 L 459.47,208.94 L 478.95,206.55 L 498.42,204.19 L 517.89,203.40 L 537.37,202.51 L 556.84,199.52 L 576.32,197.64 L 595.79,195.00 L 615.26,193.10 L 634.74,191.97 L 654.21,190.64 L 673.68,188.88 L 693.16,186.88 L 712.63,184.39 L 732.11,181.89 L 751.58,179.53 L 771.05,177.30 L 790.53,176.52 L 810.00,173.38 L 810.00,280 Z" fill="url(#areaFill)"/>

  <!-- Line -->
  <path d="M 70.00,267.74 L 89.47,262.39 L 108.95,261.74 L 128.42,261.62 L 147.89,260.95 L 167.37,260.61 L 186.84,259.96 L 206.32,258.41 L 225.79,255.17 L 245.26,253.38 L 264.74,247.52 L 284.21,243.42 L 303.68,231.26 L 323.16,226.33 L 342.63,223.38 L 362.11,220.47 L 381.58,219.72 L 401.05,217.95 L 420.53,215.14 L 440.00,210.57 L 459.47,208.94 L 478.95,206.55 L 498.42,204.19 L 517.89,203.40 L 537.37,202.51 L 556.84,199.52 L 576.32,197.64 L 595.79,195.00 L 615.26,193.10 L 634.74,191.97 L 654.21,190.64 L 673.68,188.88 L 693.16,186.88 L 712.63,184.39 L 732.11,181.89 L 751.58,179.53 L 771.05,177.30 L 790.53,176.52 L 810.00,173.38" fill="none" stroke="#58a6ff" stroke-width="2.5" stroke-linejoin="round" stroke-linecap="round"/>

  <!-- Data points -->
  <circle cx="70.00" cy="267.74" r="2.5" fill="#58a6ff"/><circle cx="89.47" cy="262.39" r="2.5" fill="#58a6ff"/><circle cx="108.95" cy="261.74" r="2.5" fill="#58a6ff"/><circle cx="128.42" cy="261.62" r="2.5" fill="#58a6ff"/><circle cx="147.89" cy="260.95" r="2.5" fill="#58a6ff"/><circle cx="167.37" cy="260.61" r="2.5" fill="#58a6ff"/><circle cx="186.84" cy="259.96" r="2.5" fill="#58a6ff"/><circle cx="206.32" cy="258.41" r="2.5" fill="#58a6ff"/><circle cx="225.79" cy="255.17" r="2.5" fill="#58a6ff"/><circle cx="245.26" cy="253.38" r="2.5" fill="#58a6ff"/><circle cx="264.74" cy="247.52" r="2.5" fill="#58a6ff"/><circle cx="284.21" cy="243.42" r="2.5" fill="#58a6ff"/><circle cx="303.68" cy="231.26" r="2.5" fill="#58a6ff"/><circle cx="323.16" cy="226.33" r="2.5" fill="#58a6ff"/><circle cx="342.63" cy="223.38" r="2.5" fill="#58a6ff"/><circle cx="362.11" cy="220.47" r="2.5" fill="#58a6ff"/><circle cx="381.58" cy="219.72" r="2.5" fill="#58a6ff"/><circle cx="401.05" cy="217.95" r="2.5" fill="#58a6ff"/><circle cx="420.53" cy="215.14" r="2.5" fill="#58a6ff"/><circle cx="440.00" cy="210.57" r="2.5" fill="#58a6ff"/><circle cx="459.47" cy="208.94" r="2.5" fill="#58a6ff"/><circle cx="478.95" cy="206.55" r="2.5" fill="#58a6ff"/><circle cx="498.42" cy="204.19" r="2.5" fill="#58a6ff"/><circle cx="517.89" cy="203.40" r="2.5" fill="#58a6ff"/><circle cx="537.37" cy="202.51" r="2.5" fill="#58a6ff"/><circle cx="556.84" cy="199.52" r="2.5" fill="#58a6ff"/><circle cx="576.32" cy="197.64" r="2.5" fill="#58a6ff"/><circle cx="595.79" cy="195.00" r="2.5" fill="#58a6ff"/><circle cx="615.26" cy="193.10" r="2.5" fill="#58a6ff"/><circle cx="634.74" cy="191.97" r="2.5" fill="#58a6ff"/><circle cx="654.21" cy="190.64" r="2.5" fill="#58a6ff"/><circle cx="673.68" cy="188.88" r="2.5" fill="#58a6ff"/><circle cx="693.16" cy="186.88" r="2.5" fill="#58a6ff"/><circle cx="712.63" cy="184.39" r="2.5" fill="#58a6ff"/><circle cx="732.11" cy="181.89" r="2.5" fill="#58a6ff"/><circle cx="751.58" cy="179.53" r="2.5" fill="#58a6ff"/><circle cx="771.05" cy="177.30" r="2.5" fill="#58a6ff"/><circle cx="790.53" cy="176.52" r="2.5" fill="#58a6ff"/><circle cx="810.00" cy="173.38" r="4" fill="#F2C811"/>

  <!-- Last-value callout -->
  <rect x="720.0" y="145.4" width="82" height="24" rx="4" fill="#0d1a2a" stroke="#F2C811" stroke-width="1"/>
  <text x="761.0" y="161.4" font-family="'Segoe UI', Arial, sans-serif" font-size="12" fill="#F2C811" text-anchor="middle" font-weight="bold">5,278 total</text>

  <!-- X-axis labels -->
  <text x="70.0" y="298" font-family="'Segoe UI', Arial, sans-serif" font-size="10" fill="#8b949e" text-anchor="middle">Mar 26</text><text x="245.3" y="298" font-family="'Segoe UI', Arial, sans-serif" font-size="10" fill="#8b949e" text-anchor="middle">Apr 04</text><text x="440.0" y="298" font-family="'Segoe UI', Arial, sans-serif" font-size="10" fill="#8b949e" text-anchor="middle">Apr 14</text><text x="634.7" y="298" font-family="'Segoe UI', Arial, sans-serif" font-size="10" fill="#8b949e" text-anchor="middle">Apr 24</text><text x="810.0" y="298" font-family="'Segoe UI', Arial, sans-serif" font-size="10" fill="#8b949e" text-anchor="middle">May 03</text>

  <!-- Footer: date range -->
  <text x="70" y="328" font-family="'Segoe UI', Arial, sans-serif" font-size="10" fill="#8b949e">Mar 26, 2026 → May 03, 2026</text>
  <text x="810" y="328" font-family="'Segoe UI', Arial, sans-serif" font-size="10" fill="#8b949e" text-anchor="end">39 days of data</text>
</svg>
