<svg xmlns="http://www.w3.org/2000/svg" width="850" height="340" viewBox="0 0 850 340">
  <defs>
    <linearGradient id="areaFill" x1="0" y1="0" x2="0" y2="1">
      <stop offset="0%" stop-color="#58a6ff" stop-opacity="0.45"/>
      <stop offset="100%" stop-color="#58a6ff" stop-opacity="0"/>
    </linearGradient>
  </defs>

  <!-- Background -->
  <rect width="100%" height="100%" fill="#0d1117" rx="8"/>

  <!-- Title -->
  <text x="425" y="33" font-family="'Segoe UI', Arial, sans-serif" font-size="17" fill="#F2C811" text-anchor="middle" font-weight="bold">pbi-cli Downloads Over Time</text>
  <text x="425" y="52" font-family="'Segoe UI', Arial, sans-serif" font-size="11" fill="#8b949e" text-anchor="middle">Cumulative installs from PyPI • mirrors excluded • source: pypistats.org</text>

  <!-- Gridlines & y-labels -->
  <line x1="70" y1="280.0" x2="810" y2="280.0" stroke="#21262d" stroke-width="1" stroke-dasharray="2,3"/><line x1="70" y1="239.6" x2="810" y2="239.6" stroke="#21262d" stroke-width="1" stroke-dasharray="2,3"/><line x1="70" y1="199.2" x2="810" y2="199.2" stroke="#21262d" stroke-width="1" stroke-dasharray="2,3"/><line x1="70" y1="158.8" x2="810" y2="158.8" stroke="#21262d" stroke-width="1" stroke-dasharray="2,3"/><line x1="70" y1="118.4" x2="810" y2="118.4" stroke="#21262d" stroke-width="1" stroke-dasharray="2,3"/><line x1="70" y1="78.0" x2="810" y2="78.0" stroke="#21262d" stroke-width="1" stroke-dasharray="2,3"/>
  <text x="62" y="284.0" font-family="'Segoe UI', Arial, sans-serif" font-size="10" fill="#8b949e" text-anchor="end">0</text><text x="62" y="243.6" font-family="'Segoe UI', Arial, sans-serif" font-size="10" fill="#8b949e" text-anchor="end">5,000</text><text x="62" y="203.2" font-family="'Segoe UI', Arial, sans-serif" font-size="10" fill="#8b949e" text-anchor="end">10,000</text><text x="62" y="162.8" font-family="'Segoe UI', Arial, sans-serif" font-size="10" fill="#8b949e" text-anchor="end">15,000</text><text x="62" y="122.4" font-family="'Segoe UI', Arial, sans-serif" font-size="10" fill="#8b949e" text-anchor="end">20,000</text><text x="62" y="82.0" font-family="'Segoe UI', Arial, sans-serif" font-size="10" fill="#8b949e" text-anchor="end">25,000</text>

  <!-- Area fill -->
  <path d="M 70.00,280 L 70.00,275.10 L 78.81,272.95 L 87.62,272.70 L 96.43,272.65 L 105.24,272.38 L 114.05,272.24 L 122.86,271.98 L 131.67,271.36 L 140.48,270.07 L 149.29,269.35 L 158.10,267.01 L 166.90,265.37 L 175.71,260.50 L 184.52,258.53 L 193.33,257.35 L 202.14,256.19 L 210.95,255.89 L 219.76,255.18 L 228.57,254.06 L 237.38,252.23 L 246.19,251.57 L 255.00,250.62 L 263.81,249.68 L 272.62,249.36 L 281.43,249.01 L 290.24,247.81 L 299.05,247.06 L 307.86,246.00 L 316.67,245.24 L 325.48,244.79 L 334.29,244.25 L 343.10,243.55 L 351.90,242.75 L 360.71,241.76 L 369.52,240.76 L 378.33,239.81 L 387.14,238.92 L 395.95,238.61 L 404.76,237.35 L 413.57,235.58 L 422.38,233.50 L 431.19,230.88 L 440.00,225.61 L 448.81,222.07 L 457.62,220.18 L 466.43,218.58 L 475.24,214.20 L 484.05,210.49 L 492.86,207.05 L 501.67,203.18 L 510.48,200.10 L 519.29,198.30 L 528.10,195.70 L 536.90,193.07 L 545.71,188.48 L 554.52,184.83 L 563.33,180.41 L 572.14,177.43 L 580.95,175.40 L 589.76,173.80 L 598.57,172.25 L 607.38,169.02 L 616.19,165.59 L 625.00,162.41 L 633.81,160.05 L 642.62,158.90 L 651.43,157.52 L 660.24,154.82 L 669.05,152.63 L 677.86,149.75 L 686.67,147.30 L 695.48,144.85 L 704.29,142.47 L 713.10,141.52 L 721.90,139.75 L 730.71,136.95 L 739.52,133.36 L 748.33,130.63 L 757.14,128.57 L 765.95,126.58 L 774.76,123.78 L 783.57,120.77 L 792.38,117.61 L 801.19,111.98 L 810.00,110.12 L 810.00,280 Z" fill="url(#areaFill)"/>

  <!-- Line -->
  <path d="M 70.00,275.10 L 78.81,272.95 L 87.62,272.70 L 96.43,272.65 L 105.24,272.38 L 114.05,272.24 L 122.86,271.98 L 131.67,271.36 L 140.48,270.07 L 149.29,269.35 L 158.10,267.01 L 166.90,265.37 L 175.71,260.50 L 184.52,258.53 L 193.33,257.35 L 202.14,256.19 L 210.95,255.89 L 219.76,255.18 L 228.57,254.06 L 237.38,252.23 L 246.19,251.57 L 255.00,250.62 L 263.81,249.68 L 272.62,249.36 L 281.43,249.01 L 290.24,247.81 L 299.05,247.06 L 307.86,246.00 L 316.67,245.24 L 325.48,244.79 L 334.29,244.25 L 343.10,243.55 L 351.90,242.75 L 360.71,241.76 L 369.52,240.76 L 378.33,239.81 L 387.14,238.92 L 395.95,238.61 L 404.76,237.35 L 413.57,235.58 L 422.38,233.50 L 431.19,230.88 L 440.00,225.61 L 448.81,222.07 L 457.62,220.18 L 466.43,218.58 L 475.24,214.20 L 484.05,210.49 L 492.86,207.05 L 501.67,203.18 L 510.48,200.10 L 519.29,198.30 L 528.10,195.70 L 536.90,193.07 L 545.71,188.48 L 554.52,184.83 L 563.33,180.41 L 572.14,177.43 L 580.95,175.40 L 589.76,173.80 L 598.57,172.25 L 607.38,169.02 L 616.19,165.59 L 625.00,162.41 L 633.81,160.05 L 642.62,158.90 L 651.43,157.52 L 660.24,154.82 L 669.05,152.63 L 677.86,149.75 L 686.67,147.30 L 695.48,144.85 L 704.29,142.47 L 713.10,141.52 L 721.90,139.75 L 730.71,136.95 L 739.52,133.36 L 748.33,130.63 L 757.14,128.57 L 765.95,126.58 L 774.76,123.78 L 783.57,120.77 L 792.38,117.61 L 801.19,111.98 L 810.00,110.12" fill="none" stroke="#58a6ff" stroke-width="2.5" stroke-linejoin="round" stroke-linecap="round"/>

  <!-- Data points -->
  <circle cx="70.00" cy="275.10" r="2.5" fill="#58a6ff"/><circle cx="78.81" cy="272.95" r="2.5" fill="#58a6ff"/><circle cx="87.62" cy="272.70" r="2.5" fill="#58a6ff"/><circle cx="96.43" cy="272.65" r="2.5" fill="#58a6ff"/><circle cx="105.24" cy="272.38" r="2.5" fill="#58a6ff"/><circle cx="114.05" cy="272.24" r="2.5" fill="#58a6ff"/><circle cx="122.86" cy="271.98" r="2.5" fill="#58a6ff"/><circle cx="131.67" cy="271.36" r="2.5" fill="#58a6ff"/><circle cx="140.48" cy="270.07" r="2.5" fill="#58a6ff"/><circle cx="149.29" cy="269.35" r="2.5" fill="#58a6ff"/><circle cx="158.10" cy="267.01" r="2.5" fill="#58a6ff"/><circle cx="166.90" cy="265.37" r="2.5" fill="#58a6ff"/><circle cx="175.71" cy="260.50" r="2.5" fill="#58a6ff"/><circle cx="184.52" cy="258.53" r="2.5" fill="#58a6ff"/><circle cx="193.33" cy="257.35" r="2.5" fill="#58a6ff"/><circle cx="202.14" cy="256.19" r="2.5" fill="#58a6ff"/><circle cx="210.95" cy="255.89" r="2.5" fill="#58a6ff"/><circle cx="219.76" cy="255.18" r="2.5" fill="#58a6ff"/><circle cx="228.57" cy="254.06" r="2.5" fill="#58a6ff"/><circle cx="237.38" cy="252.23" r="2.5" fill="#58a6ff"/><circle cx="246.19" cy="251.57" r="2.5" fill="#58a6ff"/><circle cx="255.00" cy="250.62" r="2.5" fill="#58a6ff"/><circle cx="263.81" cy="249.68" r="2.5" fill="#58a6ff"/><circle cx="272.62" cy="249.36" r="2.5" fill="#58a6ff"/><circle cx="281.43" cy="249.01" r="2.5" fill="#58a6ff"/><circle cx="290.24" cy="247.81" r="2.5" fill="#58a6ff"/><circle cx="299.05" cy="247.06" r="2.5" fill="#58a6ff"/><circle cx="307.86" cy="246.00" r="2.5" fill="#58a6ff"/><circle cx="316.67" cy="245.24" r="2.5" fill="#58a6ff"/><circle cx="325.48" cy="244.79" r="2.5" fill="#58a6ff"/><circle cx="334.29" cy="244.25" r="2.5" fill="#58a6ff"/><circle cx="343.10" cy="243.55" r="2.5" fill="#58a6ff"/><circle cx="351.90" cy="242.75" r="2.5" fill="#58a6ff"/><circle cx="360.71" cy="241.76" r="2.5" fill="#58a6ff"/><circle cx="369.52" cy="240.76" r="2.5" fill="#58a6ff"/><circle cx="378.33" cy="239.81" r="2.5" fill="#58a6ff"/><circle cx="387.14" cy="238.92" r="2.5" fill="#58a6ff"/><circle cx="395.95" cy="238.61" r="2.5" fill="#58a6ff"/><circle cx="404.76" cy="237.35" r="2.5" fill="#58a6ff"/><circle cx="413.57" cy="235.58" r="2.5" fill="#58a6ff"/><circle cx="422.38" cy="233.50" r="2.5" fill="#58a6ff"/><circle cx="431.19" cy="230.88" r="2.5" fill="#58a6ff"/><circle cx="440.00" cy="225.61" r="2.5" fill="#58a6ff"/><circle cx="448.81" cy="222.07" r="2.5" fill="#58a6ff"/><circle cx="457.62" cy="220.18" r="2.5" fill="#58a6ff"/><circle cx="466.43" cy="218.58" r="2.5" fill="#58a6ff"/><circle cx="475.24" cy="214.20" r="2.5" fill="#58a6ff"/><circle cx="484.05" cy="210.49" r="2.5" fill="#58a6ff"/><circle cx="492.86" cy="207.05" r="2.5" fill="#58a6ff"/><circle cx="501.67" cy="203.18" r="2.5" fill="#58a6ff"/><circle cx="510.48" cy="200.10" r="2.5" fill="#58a6ff"/><circle cx="519.29" cy="198.30" r="2.5" fill="#58a6ff"/><circle cx="528.10" cy="195.70" r="2.5" fill="#58a6ff"/><circle cx="536.90" cy="193.07" r="2.5" fill="#58a6ff"/><circle cx="545.71" cy="188.48" r="2.5" fill="#58a6ff"/><circle cx="554.52" cy="184.83" r="2.5" fill="#58a6ff"/><circle cx="563.33" cy="180.41" r="2.5" fill="#58a6ff"/><circle cx="572.14" cy="177.43" r="2.5" fill="#58a6ff"/><circle cx="580.95" cy="175.40" r="2.5" fill="#58a6ff"/><circle cx="589.76" cy="173.80" r="2.5" fill="#58a6ff"/><circle cx="598.57" cy="172.25" r="2.5" fill="#58a6ff"/><circle cx="607.38" cy="169.02" r="2.5" fill="#58a6ff"/><circle cx="616.19" cy="165.59" r="2.5" fill="#58a6ff"/><circle cx="625.00" cy="162.41" r="2.5" fill="#58a6ff"/><circle cx="633.81" cy="160.05" r="2.5" fill="#58a6ff"/><circle cx="642.62" cy="158.90" r="2.5" fill="#58a6ff"/><circle cx="651.43" cy="157.52" r="2.5" fill="#58a6ff"/><circle cx="660.24" cy="154.82" r="2.5" fill="#58a6ff"/><circle cx="669.05" cy="152.63" r="2.5" fill="#58a6ff"/><circle cx="677.86" cy="149.75" r="2.5" fill="#58a6ff"/><circle cx="686.67" cy="147.30" r="2.5" fill="#58a6ff"/><circle cx="695.48" cy="144.85" r="2.5" fill="#58a6ff"/><circle cx="704.29" cy="142.47" r="2.5" fill="#58a6ff"/><circle cx="713.10" cy="141.52" r="2.5" fill="#58a6ff"/><circle cx="721.90" cy="139.75" r="2.5" fill="#58a6ff"/><circle cx="730.71" cy="136.95" r="2.5" fill="#58a6ff"/><circle cx="739.52" cy="133.36" r="2.5" fill="#58a6ff"/><circle cx="748.33" cy="130.63" r="2.5" fill="#58a6ff"/><circle cx="757.14" cy="128.57" r="2.5" fill="#58a6ff"/><circle cx="765.95" cy="126.58" r="2.5" fill="#58a6ff"/><circle cx="774.76" cy="123.78" r="2.5" fill="#58a6ff"/><circle cx="783.57" cy="120.77" r="2.5" fill="#58a6ff"/><circle cx="792.38" cy="117.61" r="2.5" fill="#58a6ff"/><circle cx="801.19" cy="111.98" r="2.5" fill="#58a6ff"/><circle cx="810.00" cy="110.12" r="4" fill="#F2C811"/>

  <!-- Last-value callout -->
  <rect x="720.0" y="92.0" width="82" height="24" rx="4" fill="#0d1a2a" stroke="#F2C811" stroke-width="1"/>
  <text x="761.0" y="108.0" font-family="'Segoe UI', Arial, sans-serif" font-size="12" fill="#F2C811" text-anchor="middle" font-weight="bold">21,025 total</text>

  <!-- X-axis labels -->
  <text x="70.0" y="298" font-family="'Segoe UI', Arial, sans-serif" font-size="10" fill="#8b949e" text-anchor="middle">Mar 26</text><text x="255.0" y="298" font-family="'Segoe UI', Arial, sans-serif" font-size="10" fill="#8b949e" text-anchor="middle">Apr 16</text><text x="440.0" y="298" font-family="'Segoe UI', Arial, sans-serif" font-size="10" fill="#8b949e" text-anchor="middle">May 07</text><text x="625.0" y="298" font-family="'Segoe UI', Arial, sans-serif" font-size="10" fill="#8b949e" text-anchor="middle">May 28</text><text x="810.0" y="298" font-family="'Segoe UI', Arial, sans-serif" font-size="10" fill="#8b949e" text-anchor="middle">Jun 19</text>

  <!-- Footer: date range -->
  <text x="70" y="328" font-family="'Segoe UI', Arial, sans-serif" font-size="10" fill="#8b949e">Mar 26, 2026 → Jun 19, 2026</text>
  <text x="810" y="328" font-family="'Segoe UI', Arial, sans-serif" font-size="10" fill="#8b949e" text-anchor="end">85 days of data</text>
</svg>
