<svg xmlns="http://www.w3.org/2000/svg" width="850" height="340" viewBox="0 0 850 340">
  <defs>
    <linearGradient id="areaFill" x1="0" y1="0" x2="0" y2="1">
      <stop offset="0%" stop-color="#58a6ff" stop-opacity="0.45"/>
      <stop offset="100%" stop-color="#58a6ff" stop-opacity="0"/>
    </linearGradient>
  </defs>

  <!-- Background -->
  <rect width="100%" height="100%" fill="#0d1117" rx="8"/>

  <!-- Title -->
  <text x="425" y="33" font-family="'Segoe UI', Arial, sans-serif" font-size="17" fill="#F2C811" text-anchor="middle" font-weight="bold">pbi-cli Downloads Over Time</text>
  <text x="425" y="52" font-family="'Segoe UI', Arial, sans-serif" font-size="11" fill="#8b949e" text-anchor="middle">Cumulative installs from PyPI • mirrors excluded • source: pypistats.org</text>

  <!-- Gridlines & y-labels -->
  <line x1="70" y1="280.0" x2="810" y2="280.0" stroke="#21262d" stroke-width="1" stroke-dasharray="2,3"/><line x1="70" y1="239.6" x2="810" y2="239.6" stroke="#21262d" stroke-width="1" stroke-dasharray="2,3"/><line x1="70" y1="199.2" x2="810" y2="199.2" stroke="#21262d" stroke-width="1" stroke-dasharray="2,3"/><line x1="70" y1="158.8" x2="810" y2="158.8" stroke="#21262d" stroke-width="1" stroke-dasharray="2,3"/><line x1="70" y1="118.4" x2="810" y2="118.4" stroke="#21262d" stroke-width="1" stroke-dasharray="2,3"/><line x1="70" y1="78.0" x2="810" y2="78.0" stroke="#21262d" stroke-width="1" stroke-dasharray="2,3"/>
  <text x="62" y="284.0" font-family="'Segoe UI', Arial, sans-serif" font-size="10" fill="#8b949e" text-anchor="end">0</text><text x="62" y="243.6" font-family="'Segoe UI', Arial, sans-serif" font-size="10" fill="#8b949e" text-anchor="end">4,000</text><text x="62" y="203.2" font-family="'Segoe UI', Arial, sans-serif" font-size="10" fill="#8b949e" text-anchor="end">8,000</text><text x="62" y="162.8" font-family="'Segoe UI', Arial, sans-serif" font-size="10" fill="#8b949e" text-anchor="end">12,000</text><text x="62" y="122.4" font-family="'Segoe UI', Arial, sans-serif" font-size="10" fill="#8b949e" text-anchor="end">16,000</text><text x="62" y="82.0" font-family="'Segoe UI', Arial, sans-serif" font-size="10" fill="#8b949e" text-anchor="end">20,000</text>

  <!-- Area fill -->
  <path d="M 70.00,280 L 70.00,273.87 L 85.10,271.19 L 100.20,270.87 L 115.31,270.81 L 130.41,270.48 L 145.51,270.30 L 160.61,269.98 L 175.71,269.20 L 190.82,267.59 L 205.92,266.69 L 221.02,263.76 L 236.12,261.71 L 251.22,255.63 L 266.33,253.16 L 281.43,251.69 L 296.53,250.24 L 311.63,249.86 L 326.73,248.97 L 341.84,247.57 L 356.94,245.29 L 372.04,244.47 L 387.14,243.28 L 402.24,242.09 L 417.35,241.70 L 432.45,241.26 L 447.55,239.76 L 462.65,238.82 L 477.76,237.50 L 492.86,236.55 L 507.96,235.98 L 523.06,235.32 L 538.16,234.44 L 553.27,233.44 L 568.37,232.20 L 583.47,230.94 L 598.57,229.76 L 613.67,228.65 L 628.78,228.26 L 643.88,226.69 L 658.98,224.48 L 674.08,221.87 L 689.18,218.60 L 704.29,212.01 L 719.39,207.58 L 734.49,205.22 L 749.59,203.23 L 764.69,197.76 L 779.80,193.11 L 794.90,188.82 L 810.00,183.98 L 810.00,280 Z" fill="url(#areaFill)"/>

  <!-- Line -->
  <path d="M 70.00,273.87 L 85.10,271.19 L 100.20,270.87 L 115.31,270.81 L 130.41,270.48 L 145.51,270.30 L 160.61,269.98 L 175.71,269.20 L 190.82,267.59 L 205.92,266.69 L 221.02,263.76 L 236.12,261.71 L 251.22,255.63 L 266.33,253.16 L 281.43,251.69 L 296.53,250.24 L 311.63,249.86 L 326.73,248.97 L 341.84,247.57 L 356.94,245.29 L 372.04,244.47 L 387.14,243.28 L 402.24,242.09 L 417.35,241.70 L 432.45,241.26 L 447.55,239.76 L 462.65,238.82 L 477.76,237.50 L 492.86,236.55 L 507.96,235.98 L 523.06,235.32 L 538.16,234.44 L 553.27,233.44 L 568.37,232.20 L 583.47,230.94 L 598.57,229.76 L 613.67,228.65 L 628.78,228.26 L 643.88,226.69 L 658.98,224.48 L 674.08,221.87 L 689.18,218.60 L 704.29,212.01 L 719.39,207.58 L 734.49,205.22 L 749.59,203.23 L 764.69,197.76 L 779.80,193.11 L 794.90,188.82 L 810.00,183.98" fill="none" stroke="#58a6ff" stroke-width="2.5" stroke-linejoin="round" stroke-linecap="round"/>

  <!-- Data points -->
  <circle cx="70.00" cy="273.87" r="2.5" fill="#58a6ff"/><circle cx="85.10" cy="271.19" r="2.5" fill="#58a6ff"/><circle cx="100.20" cy="270.87" r="2.5" fill="#58a6ff"/><circle cx="115.31" cy="270.81" r="2.5" fill="#58a6ff"/><circle cx="130.41" cy="270.48" r="2.5" fill="#58a6ff"/><circle cx="145.51" cy="270.30" r="2.5" fill="#58a6ff"/><circle cx="160.61" cy="269.98" r="2.5" fill="#58a6ff"/><circle cx="175.71" cy="269.20" r="2.5" fill="#58a6ff"/><circle cx="190.82" cy="267.59" r="2.5" fill="#58a6ff"/><circle cx="205.92" cy="266.69" r="2.5" fill="#58a6ff"/><circle cx="221.02" cy="263.76" r="2.5" fill="#58a6ff"/><circle cx="236.12" cy="261.71" r="2.5" fill="#58a6ff"/><circle cx="251.22" cy="255.63" r="2.5" fill="#58a6ff"/><circle cx="266.33" cy="253.16" r="2.5" fill="#58a6ff"/><circle cx="281.43" cy="251.69" r="2.5" fill="#58a6ff"/><circle cx="296.53" cy="250.24" r="2.5" fill="#58a6ff"/><circle cx="311.63" cy="249.86" r="2.5" fill="#58a6ff"/><circle cx="326.73" cy="248.97" r="2.5" fill="#58a6ff"/><circle cx="341.84" cy="247.57" r="2.5" fill="#58a6ff"/><circle cx="356.94" cy="245.29" r="2.5" fill="#58a6ff"/><circle cx="372.04" cy="244.47" r="2.5" fill="#58a6ff"/><circle cx="387.14" cy="243.28" r="2.5" fill="#58a6ff"/><circle cx="402.24" cy="242.09" r="2.5" fill="#58a6ff"/><circle cx="417.35" cy="241.70" r="2.5" fill="#58a6ff"/><circle cx="432.45" cy="241.26" r="2.5" fill="#58a6ff"/><circle cx="447.55" cy="239.76" r="2.5" fill="#58a6ff"/><circle cx="462.65" cy="238.82" r="2.5" fill="#58a6ff"/><circle cx="477.76" cy="237.50" r="2.5" fill="#58a6ff"/><circle cx="492.86" cy="236.55" r="2.5" fill="#58a6ff"/><circle cx="507.96" cy="235.98" r="2.5" fill="#58a6ff"/><circle cx="523.06" cy="235.32" r="2.5" fill="#58a6ff"/><circle cx="538.16" cy="234.44" r="2.5" fill="#58a6ff"/><circle cx="553.27" cy="233.44" r="2.5" fill="#58a6ff"/><circle cx="568.37" cy="232.20" r="2.5" fill="#58a6ff"/><circle cx="583.47" cy="230.94" r="2.5" fill="#58a6ff"/><circle cx="598.57" cy="229.76" r="2.5" fill="#58a6ff"/><circle cx="613.67" cy="228.65" r="2.5" fill="#58a6ff"/><circle cx="628.78" cy="228.26" r="2.5" fill="#58a6ff"/><circle cx="643.88" cy="226.69" r="2.5" fill="#58a6ff"/><circle cx="658.98" cy="224.48" r="2.5" fill="#58a6ff"/><circle cx="674.08" cy="221.87" r="2.5" fill="#58a6ff"/><circle cx="689.18" cy="218.60" r="2.5" fill="#58a6ff"/><circle cx="704.29" cy="212.01" r="2.5" fill="#58a6ff"/><circle cx="719.39" cy="207.58" r="2.5" fill="#58a6ff"/><circle cx="734.49" cy="205.22" r="2.5" fill="#58a6ff"/><circle cx="749.59" cy="203.23" r="2.5" fill="#58a6ff"/><circle cx="764.69" cy="197.76" r="2.5" fill="#58a6ff"/><circle cx="779.80" cy="193.11" r="2.5" fill="#58a6ff"/><circle cx="794.90" cy="188.82" r="2.5" fill="#58a6ff"/><circle cx="810.00" cy="183.98" r="4" fill="#F2C811"/>

  <!-- Last-value callout -->
  <rect x="720.0" y="156.0" width="82" height="24" rx="4" fill="#0d1a2a" stroke="#F2C811" stroke-width="1"/>
  <text x="761.0" y="172.0" font-family="'Segoe UI', Arial, sans-serif" font-size="12" fill="#F2C811" text-anchor="middle" font-weight="bold">9,507 total</text>

  <!-- X-axis labels -->
  <text x="70.0" y="298" font-family="'Segoe UI', Arial, sans-serif" font-size="10" fill="#8b949e" text-anchor="middle">Mar 26</text><text x="251.2" y="298" font-family="'Segoe UI', Arial, sans-serif" font-size="10" fill="#8b949e" text-anchor="middle">Apr 07</text><text x="447.6" y="298" font-family="'Segoe UI', Arial, sans-serif" font-size="10" fill="#8b949e" text-anchor="middle">Apr 20</text><text x="628.8" y="298" font-family="'Segoe UI', Arial, sans-serif" font-size="10" fill="#8b949e" text-anchor="middle">May 02</text><text x="810.0" y="298" font-family="'Segoe UI', Arial, sans-serif" font-size="10" fill="#8b949e" text-anchor="middle">May 14</text>

  <!-- Footer: date range -->
  <text x="70" y="328" font-family="'Segoe UI', Arial, sans-serif" font-size="10" fill="#8b949e">Mar 26, 2026 → May 14, 2026</text>
  <text x="810" y="328" font-family="'Segoe UI', Arial, sans-serif" font-size="10" fill="#8b949e" text-anchor="end">50 days of data</text>
</svg>
