<svg xmlns="http://www.w3.org/2000/svg" width="850" height="340" viewBox="0 0 850 340">
  <defs>
    <linearGradient id="areaFill" x1="0" y1="0" x2="0" y2="1">
      <stop offset="0%" stop-color="#58a6ff" stop-opacity="0.45"/>
      <stop offset="100%" stop-color="#58a6ff" stop-opacity="0"/>
    </linearGradient>
  </defs>

  <!-- Background -->
  <rect width="100%" height="100%" fill="#0d1117" rx="8"/>

  <!-- Title -->
  <text x="425" y="33" font-family="'Segoe UI', Arial, sans-serif" font-size="17" fill="#F2C811" text-anchor="middle" font-weight="bold">pbi-cli Downloads Over Time</text>
  <text x="425" y="52" font-family="'Segoe UI', Arial, sans-serif" font-size="11" fill="#8b949e" text-anchor="middle">Cumulative installs from PyPI • mirrors excluded • source: pypistats.org</text>

  <!-- Gridlines & y-labels -->
  <line x1="70" y1="280.0" x2="810" y2="280.0" stroke="#21262d" stroke-width="1" stroke-dasharray="2,3"/><line x1="70" y1="239.6" x2="810" y2="239.6" stroke="#21262d" stroke-width="1" stroke-dasharray="2,3"/><line x1="70" y1="199.2" x2="810" y2="199.2" stroke="#21262d" stroke-width="1" stroke-dasharray="2,3"/><line x1="70" y1="158.8" x2="810" y2="158.8" stroke="#21262d" stroke-width="1" stroke-dasharray="2,3"/><line x1="70" y1="118.4" x2="810" y2="118.4" stroke="#21262d" stroke-width="1" stroke-dasharray="2,3"/><line x1="70" y1="78.0" x2="810" y2="78.0" stroke="#21262d" stroke-width="1" stroke-dasharray="2,3"/>
  <text x="62" y="284.0" font-family="'Segoe UI', Arial, sans-serif" font-size="10" fill="#8b949e" text-anchor="end">0</text><text x="62" y="243.6" font-family="'Segoe UI', Arial, sans-serif" font-size="10" fill="#8b949e" text-anchor="end">2,000</text><text x="62" y="203.2" font-family="'Segoe UI', Arial, sans-serif" font-size="10" fill="#8b949e" text-anchor="end">4,000</text><text x="62" y="162.8" font-family="'Segoe UI', Arial, sans-serif" font-size="10" fill="#8b949e" text-anchor="end">6,000</text><text x="62" y="122.4" font-family="'Segoe UI', Arial, sans-serif" font-size="10" fill="#8b949e" text-anchor="end">8,000</text><text x="62" y="82.0" font-family="'Segoe UI', Arial, sans-serif" font-size="10" fill="#8b949e" text-anchor="end">10,000</text>

  <!-- Area fill -->
  <path d="M 70.00,280 L 70.00,267.74 L 86.82,262.39 L 103.64,261.74 L 120.45,261.62 L 137.27,260.95 L 154.09,260.61 L 170.91,259.96 L 187.73,258.41 L 204.55,255.17 L 221.36,253.38 L 238.18,247.52 L 255.00,243.42 L 271.82,231.26 L 288.64,226.33 L 305.45,223.38 L 322.27,220.47 L 339.09,219.72 L 355.91,217.95 L 372.73,215.14 L 389.55,210.57 L 406.36,208.94 L 423.18,206.55 L 440.00,204.19 L 456.82,203.40 L 473.64,202.51 L 490.45,199.52 L 507.27,197.64 L 524.09,195.00 L 540.91,193.10 L 557.73,191.97 L 574.55,190.64 L 591.36,188.88 L 608.18,186.88 L 625.00,184.39 L 641.82,181.89 L 658.64,179.53 L 675.45,177.30 L 692.27,176.52 L 709.09,173.38 L 725.91,168.96 L 742.73,163.75 L 759.55,157.20 L 776.36,144.01 L 793.18,135.17 L 810.00,130.44 L 810.00,280 Z" fill="url(#areaFill)"/>

  <!-- Line -->
  <path d="M 70.00,267.74 L 86.82,262.39 L 103.64,261.74 L 120.45,261.62 L 137.27,260.95 L 154.09,260.61 L 170.91,259.96 L 187.73,258.41 L 204.55,255.17 L 221.36,253.38 L 238.18,247.52 L 255.00,243.42 L 271.82,231.26 L 288.64,226.33 L 305.45,223.38 L 322.27,220.47 L 339.09,219.72 L 355.91,217.95 L 372.73,215.14 L 389.55,210.57 L 406.36,208.94 L 423.18,206.55 L 440.00,204.19 L 456.82,203.40 L 473.64,202.51 L 490.45,199.52 L 507.27,197.64 L 524.09,195.00 L 540.91,193.10 L 557.73,191.97 L 574.55,190.64 L 591.36,188.88 L 608.18,186.88 L 625.00,184.39 L 641.82,181.89 L 658.64,179.53 L 675.45,177.30 L 692.27,176.52 L 709.09,173.38 L 725.91,168.96 L 742.73,163.75 L 759.55,157.20 L 776.36,144.01 L 793.18,135.17 L 810.00,130.44" fill="none" stroke="#58a6ff" stroke-width="2.5" stroke-linejoin="round" stroke-linecap="round"/>

  <!-- Data points -->
  <circle cx="70.00" cy="267.74" r="2.5" fill="#58a6ff"/><circle cx="86.82" cy="262.39" r="2.5" fill="#58a6ff"/><circle cx="103.64" cy="261.74" r="2.5" fill="#58a6ff"/><circle cx="120.45" cy="261.62" r="2.5" fill="#58a6ff"/><circle cx="137.27" cy="260.95" r="2.5" fill="#58a6ff"/><circle cx="154.09" cy="260.61" r="2.5" fill="#58a6ff"/><circle cx="170.91" cy="259.96" r="2.5" fill="#58a6ff"/><circle cx="187.73" cy="258.41" r="2.5" fill="#58a6ff"/><circle cx="204.55" cy="255.17" r="2.5" fill="#58a6ff"/><circle cx="221.36" cy="253.38" r="2.5" fill="#58a6ff"/><circle cx="238.18" cy="247.52" r="2.5" fill="#58a6ff"/><circle cx="255.00" cy="243.42" r="2.5" fill="#58a6ff"/><circle cx="271.82" cy="231.26" r="2.5" fill="#58a6ff"/><circle cx="288.64" cy="226.33" r="2.5" fill="#58a6ff"/><circle cx="305.45" cy="223.38" r="2.5" fill="#58a6ff"/><circle cx="322.27" cy="220.47" r="2.5" fill="#58a6ff"/><circle cx="339.09" cy="219.72" r="2.5" fill="#58a6ff"/><circle cx="355.91" cy="217.95" r="2.5" fill="#58a6ff"/><circle cx="372.73" cy="215.14" r="2.5" fill="#58a6ff"/><circle cx="389.55" cy="210.57" r="2.5" fill="#58a6ff"/><circle cx="406.36" cy="208.94" r="2.5" fill="#58a6ff"/><circle cx="423.18" cy="206.55" r="2.5" fill="#58a6ff"/><circle cx="440.00" cy="204.19" r="2.5" fill="#58a6ff"/><circle cx="456.82" cy="203.40" r="2.5" fill="#58a6ff"/><circle cx="473.64" cy="202.51" r="2.5" fill="#58a6ff"/><circle cx="490.45" cy="199.52" r="2.5" fill="#58a6ff"/><circle cx="507.27" cy="197.64" r="2.5" fill="#58a6ff"/><circle cx="524.09" cy="195.00" r="2.5" fill="#58a6ff"/><circle cx="540.91" cy="193.10" r="2.5" fill="#58a6ff"/><circle cx="557.73" cy="191.97" r="2.5" fill="#58a6ff"/><circle cx="574.55" cy="190.64" r="2.5" fill="#58a6ff"/><circle cx="591.36" cy="188.88" r="2.5" fill="#58a6ff"/><circle cx="608.18" cy="186.88" r="2.5" fill="#58a6ff"/><circle cx="625.00" cy="184.39" r="2.5" fill="#58a6ff"/><circle cx="641.82" cy="181.89" r="2.5" fill="#58a6ff"/><circle cx="658.64" cy="179.53" r="2.5" fill="#58a6ff"/><circle cx="675.45" cy="177.30" r="2.5" fill="#58a6ff"/><circle cx="692.27" cy="176.52" r="2.5" fill="#58a6ff"/><circle cx="709.09" cy="173.38" r="2.5" fill="#58a6ff"/><circle cx="725.91" cy="168.96" r="2.5" fill="#58a6ff"/><circle cx="742.73" cy="163.75" r="2.5" fill="#58a6ff"/><circle cx="759.55" cy="157.20" r="2.5" fill="#58a6ff"/><circle cx="776.36" cy="144.01" r="2.5" fill="#58a6ff"/><circle cx="793.18" cy="135.17" r="2.5" fill="#58a6ff"/><circle cx="810.00" cy="130.44" r="4" fill="#F2C811"/>

  <!-- Last-value callout -->
  <rect x="720.0" y="102.4" width="82" height="24" rx="4" fill="#0d1a2a" stroke="#F2C811" stroke-width="1"/>
  <text x="761.0" y="118.4" font-family="'Segoe UI', Arial, sans-serif" font-size="12" fill="#F2C811" text-anchor="middle" font-weight="bold">7,404 total</text>

  <!-- X-axis labels -->
  <text x="70.0" y="298" font-family="'Segoe UI', Arial, sans-serif" font-size="10" fill="#8b949e" text-anchor="middle">Mar 26</text><text x="255.0" y="298" font-family="'Segoe UI', Arial, sans-serif" font-size="10" fill="#8b949e" text-anchor="middle">Apr 06</text><text x="440.0" y="298" font-family="'Segoe UI', Arial, sans-serif" font-size="10" fill="#8b949e" text-anchor="middle">Apr 17</text><text x="625.0" y="298" font-family="'Segoe UI', Arial, sans-serif" font-size="10" fill="#8b949e" text-anchor="middle">Apr 28</text><text x="810.0" y="298" font-family="'Segoe UI', Arial, sans-serif" font-size="10" fill="#8b949e" text-anchor="middle">May 09</text>

  <!-- Footer: date range -->
  <text x="70" y="328" font-family="'Segoe UI', Arial, sans-serif" font-size="10" fill="#8b949e">Mar 26, 2026 → May 09, 2026</text>
  <text x="810" y="328" font-family="'Segoe UI', Arial, sans-serif" font-size="10" fill="#8b949e" text-anchor="end">45 days of data</text>
</svg>
