<svg xmlns="http://www.w3.org/2000/svg" width="850" height="340" viewBox="0 0 850 340">
  <defs>
    <linearGradient id="areaFill" x1="0" y1="0" x2="0" y2="1">
      <stop offset="0%" stop-color="#58a6ff" stop-opacity="0.45"/>
      <stop offset="100%" stop-color="#58a6ff" stop-opacity="0"/>
    </linearGradient>
  </defs>

  <!-- Background -->
  <rect width="100%" height="100%" fill="#0d1117" rx="8"/>

  <!-- Title -->
  <text x="425" y="33" font-family="'Segoe UI', Arial, sans-serif" font-size="17" fill="#F2C811" text-anchor="middle" font-weight="bold">pbi-cli Downloads Over Time</text>
  <text x="425" y="52" font-family="'Segoe UI', Arial, sans-serif" font-size="11" fill="#8b949e" text-anchor="middle">Cumulative installs from PyPI • mirrors excluded • source: pypistats.org</text>

  <!-- Gridlines & y-labels -->
  <line x1="70" y1="280.0" x2="810" y2="280.0" stroke="#21262d" stroke-width="1" stroke-dasharray="2,3"/><line x1="70" y1="239.6" x2="810" y2="239.6" stroke="#21262d" stroke-width="1" stroke-dasharray="2,3"/><line x1="70" y1="199.2" x2="810" y2="199.2" stroke="#21262d" stroke-width="1" stroke-dasharray="2,3"/><line x1="70" y1="158.8" x2="810" y2="158.8" stroke="#21262d" stroke-width="1" stroke-dasharray="2,3"/><line x1="70" y1="118.4" x2="810" y2="118.4" stroke="#21262d" stroke-width="1" stroke-dasharray="2,3"/><line x1="70" y1="78.0" x2="810" y2="78.0" stroke="#21262d" stroke-width="1" stroke-dasharray="2,3"/>
  <text x="62" y="284.0" font-family="'Segoe UI', Arial, sans-serif" font-size="10" fill="#8b949e" text-anchor="end">0</text><text x="62" y="243.6" font-family="'Segoe UI', Arial, sans-serif" font-size="10" fill="#8b949e" text-anchor="end">2,000</text><text x="62" y="203.2" font-family="'Segoe UI', Arial, sans-serif" font-size="10" fill="#8b949e" text-anchor="end">4,000</text><text x="62" y="162.8" font-family="'Segoe UI', Arial, sans-serif" font-size="10" fill="#8b949e" text-anchor="end">6,000</text><text x="62" y="122.4" font-family="'Segoe UI', Arial, sans-serif" font-size="10" fill="#8b949e" text-anchor="end">8,000</text><text x="62" y="82.0" font-family="'Segoe UI', Arial, sans-serif" font-size="10" fill="#8b949e" text-anchor="end">10,000</text>

  <!-- Area fill -->
  <path d="M 70.00,280 L 70.00,267.74 L 91.14,262.39 L 112.29,261.74 L 133.43,261.62 L 154.57,260.95 L 175.71,260.61 L 196.86,259.96 L 218.00,258.41 L 239.14,255.17 L 260.29,253.38 L 281.43,247.52 L 302.57,243.42 L 323.71,231.26 L 344.86,226.33 L 366.00,223.38 L 387.14,220.47 L 408.29,219.72 L 429.43,217.95 L 450.57,215.14 L 471.71,210.57 L 492.86,208.94 L 514.00,206.55 L 535.14,204.19 L 556.29,203.40 L 577.43,202.51 L 598.57,199.52 L 619.71,197.64 L 640.86,195.00 L 662.00,193.10 L 683.14,191.97 L 704.29,190.64 L 725.43,188.88 L 746.57,186.88 L 767.71,184.39 L 788.86,181.89 L 810.00,179.53 L 810.00,280 Z" fill="url(#areaFill)"/>

  <!-- Line -->
  <path d="M 70.00,267.74 L 91.14,262.39 L 112.29,261.74 L 133.43,261.62 L 154.57,260.95 L 175.71,260.61 L 196.86,259.96 L 218.00,258.41 L 239.14,255.17 L 260.29,253.38 L 281.43,247.52 L 302.57,243.42 L 323.71,231.26 L 344.86,226.33 L 366.00,223.38 L 387.14,220.47 L 408.29,219.72 L 429.43,217.95 L 450.57,215.14 L 471.71,210.57 L 492.86,208.94 L 514.00,206.55 L 535.14,204.19 L 556.29,203.40 L 577.43,202.51 L 598.57,199.52 L 619.71,197.64 L 640.86,195.00 L 662.00,193.10 L 683.14,191.97 L 704.29,190.64 L 725.43,188.88 L 746.57,186.88 L 767.71,184.39 L 788.86,181.89 L 810.00,179.53" fill="none" stroke="#58a6ff" stroke-width="2.5" stroke-linejoin="round" stroke-linecap="round"/>

  <!-- Data points -->
  <circle cx="70.00" cy="267.74" r="2.5" fill="#58a6ff"/><circle cx="91.14" cy="262.39" r="2.5" fill="#58a6ff"/><circle cx="112.29" cy="261.74" r="2.5" fill="#58a6ff"/><circle cx="133.43" cy="261.62" r="2.5" fill="#58a6ff"/><circle cx="154.57" cy="260.95" r="2.5" fill="#58a6ff"/><circle cx="175.71" cy="260.61" r="2.5" fill="#58a6ff"/><circle cx="196.86" cy="259.96" r="2.5" fill="#58a6ff"/><circle cx="218.00" cy="258.41" r="2.5" fill="#58a6ff"/><circle cx="239.14" cy="255.17" r="2.5" fill="#58a6ff"/><circle cx="260.29" cy="253.38" r="2.5" fill="#58a6ff"/><circle cx="281.43" cy="247.52" r="2.5" fill="#58a6ff"/><circle cx="302.57" cy="243.42" r="2.5" fill="#58a6ff"/><circle cx="323.71" cy="231.26" r="2.5" fill="#58a6ff"/><circle cx="344.86" cy="226.33" r="2.5" fill="#58a6ff"/><circle cx="366.00" cy="223.38" r="2.5" fill="#58a6ff"/><circle cx="387.14" cy="220.47" r="2.5" fill="#58a6ff"/><circle cx="408.29" cy="219.72" r="2.5" fill="#58a6ff"/><circle cx="429.43" cy="217.95" r="2.5" fill="#58a6ff"/><circle cx="450.57" cy="215.14" r="2.5" fill="#58a6ff"/><circle cx="471.71" cy="210.57" r="2.5" fill="#58a6ff"/><circle cx="492.86" cy="208.94" r="2.5" fill="#58a6ff"/><circle cx="514.00" cy="206.55" r="2.5" fill="#58a6ff"/><circle cx="535.14" cy="204.19" r="2.5" fill="#58a6ff"/><circle cx="556.29" cy="203.40" r="2.5" fill="#58a6ff"/><circle cx="577.43" cy="202.51" r="2.5" fill="#58a6ff"/><circle cx="598.57" cy="199.52" r="2.5" fill="#58a6ff"/><circle cx="619.71" cy="197.64" r="2.5" fill="#58a6ff"/><circle cx="640.86" cy="195.00" r="2.5" fill="#58a6ff"/><circle cx="662.00" cy="193.10" r="2.5" fill="#58a6ff"/><circle cx="683.14" cy="191.97" r="2.5" fill="#58a6ff"/><circle cx="704.29" cy="190.64" r="2.5" fill="#58a6ff"/><circle cx="725.43" cy="188.88" r="2.5" fill="#58a6ff"/><circle cx="746.57" cy="186.88" r="2.5" fill="#58a6ff"/><circle cx="767.71" cy="184.39" r="2.5" fill="#58a6ff"/><circle cx="788.86" cy="181.89" r="2.5" fill="#58a6ff"/><circle cx="810.00" cy="179.53" r="4" fill="#F2C811"/>

  <!-- Last-value callout -->
  <rect x="720.0" y="151.5" width="82" height="24" rx="4" fill="#0d1a2a" stroke="#F2C811" stroke-width="1"/>
  <text x="761.0" y="167.5" font-family="'Segoe UI', Arial, sans-serif" font-size="12" fill="#F2C811" text-anchor="middle" font-weight="bold">4,974 total</text>

  <!-- X-axis labels -->
  <text x="70.0" y="298" font-family="'Segoe UI', Arial, sans-serif" font-size="10" fill="#8b949e" text-anchor="middle">Mar 26</text><text x="260.3" y="298" font-family="'Segoe UI', Arial, sans-serif" font-size="10" fill="#8b949e" text-anchor="middle">Apr 04</text><text x="450.6" y="298" font-family="'Segoe UI', Arial, sans-serif" font-size="10" fill="#8b949e" text-anchor="middle">Apr 13</text><text x="640.9" y="298" font-family="'Segoe UI', Arial, sans-serif" font-size="10" fill="#8b949e" text-anchor="middle">Apr 22</text><text x="810.0" y="298" font-family="'Segoe UI', Arial, sans-serif" font-size="10" fill="#8b949e" text-anchor="middle">Apr 30</text>

  <!-- Footer: date range -->
  <text x="70" y="328" font-family="'Segoe UI', Arial, sans-serif" font-size="10" fill="#8b949e">Mar 26, 2026 → Apr 30, 2026</text>
  <text x="810" y="328" font-family="'Segoe UI', Arial, sans-serif" font-size="10" fill="#8b949e" text-anchor="end">36 days of data</text>
</svg>
