<svg xmlns="http://www.w3.org/2000/svg" width="850" height="340" viewBox="0 0 850 340">
  <defs>
    <linearGradient id="areaFill" x1="0" y1="0" x2="0" y2="1">
      <stop offset="0%" stop-color="#58a6ff" stop-opacity="0.45"/>
      <stop offset="100%" stop-color="#58a6ff" stop-opacity="0"/>
    </linearGradient>
  </defs>

  <!-- Background -->
  <rect width="100%" height="100%" fill="#0d1117" rx="8"/>

  <!-- Title -->
  <text x="425" y="33" font-family="'Segoe UI', Arial, sans-serif" font-size="17" fill="#F2C811" text-anchor="middle" font-weight="bold">pbi-cli Downloads Over Time</text>
  <text x="425" y="52" font-family="'Segoe UI', Arial, sans-serif" font-size="11" fill="#8b949e" text-anchor="middle">Cumulative installs from PyPI • mirrors excluded • source: pypistats.org</text>

  <!-- Gridlines & y-labels -->
  <line x1="70" y1="280.0" x2="810" y2="280.0" stroke="#21262d" stroke-width="1" stroke-dasharray="2,3"/><line x1="70" y1="239.6" x2="810" y2="239.6" stroke="#21262d" stroke-width="1" stroke-dasharray="2,3"/><line x1="70" y1="199.2" x2="810" y2="199.2" stroke="#21262d" stroke-width="1" stroke-dasharray="2,3"/><line x1="70" y1="158.8" x2="810" y2="158.8" stroke="#21262d" stroke-width="1" stroke-dasharray="2,3"/><line x1="70" y1="118.4" x2="810" y2="118.4" stroke="#21262d" stroke-width="1" stroke-dasharray="2,3"/><line x1="70" y1="78.0" x2="810" y2="78.0" stroke="#21262d" stroke-width="1" stroke-dasharray="2,3"/>
  <text x="62" y="284.0" font-family="'Segoe UI', Arial, sans-serif" font-size="10" fill="#8b949e" text-anchor="end">0</text><text x="62" y="243.6" font-family="'Segoe UI', Arial, sans-serif" font-size="10" fill="#8b949e" text-anchor="end">10,000</text><text x="62" y="203.2" font-family="'Segoe UI', Arial, sans-serif" font-size="10" fill="#8b949e" text-anchor="end">20,000</text><text x="62" y="162.8" font-family="'Segoe UI', Arial, sans-serif" font-size="10" fill="#8b949e" text-anchor="end">30,000</text><text x="62" y="122.4" font-family="'Segoe UI', Arial, sans-serif" font-size="10" fill="#8b949e" text-anchor="end">40,000</text><text x="62" y="82.0" font-family="'Segoe UI', Arial, sans-serif" font-size="10" fill="#8b949e" text-anchor="end">50,000</text>

  <!-- Area fill -->
  <path d="M 70.00,280 L 70.00,277.55 L 78.04,276.48 L 86.09,276.35 L 94.13,276.32 L 102.17,276.19 L 110.22,276.12 L 118.26,275.99 L 126.30,275.68 L 134.35,275.03 L 142.39,274.68 L 150.43,273.50 L 158.48,272.68 L 166.52,270.25 L 174.57,269.27 L 182.61,268.68 L 190.65,268.09 L 198.70,267.94 L 206.74,267.59 L 214.78,267.03 L 222.83,266.11 L 230.87,265.79 L 238.91,265.31 L 246.96,264.84 L 255.00,264.68 L 263.04,264.50 L 271.09,263.90 L 279.13,263.53 L 287.17,263.00 L 295.22,262.62 L 303.26,262.39 L 311.30,262.13 L 319.35,261.78 L 327.39,261.38 L 335.43,260.88 L 343.48,260.38 L 351.52,259.91 L 359.57,259.46 L 367.61,259.30 L 375.65,258.68 L 383.70,257.79 L 391.74,256.75 L 399.78,255.44 L 407.83,252.80 L 415.87,251.03 L 423.91,250.09 L 431.96,249.29 L 440.00,247.10 L 448.04,245.24 L 456.09,243.53 L 464.13,241.59 L 472.17,240.05 L 480.22,239.15 L 488.26,237.85 L 496.30,236.53 L 504.35,234.24 L 512.39,232.42 L 520.43,230.21 L 528.48,228.72 L 536.52,227.70 L 544.57,226.90 L 552.61,226.13 L 560.65,224.51 L 568.70,222.79 L 576.74,221.21 L 584.78,220.03 L 592.83,219.45 L 600.87,218.76 L 608.91,217.41 L 616.96,216.31 L 625.00,214.88 L 633.04,213.65 L 641.09,212.43 L 649.13,211.24 L 657.17,210.76 L 665.22,209.87 L 673.26,208.48 L 681.30,206.68 L 689.35,205.31 L 697.39,204.29 L 705.43,203.29 L 713.48,201.89 L 721.52,200.38 L 729.57,198.80 L 737.61,195.99 L 745.65,195.06 L 753.70,194.50 L 761.74,193.74 L 769.78,192.10 L 777.83,190.78 L 785.87,189.57 L 793.91,188.45 L 801.96,187.28 L 810.00,186.98 L 810.00,280 Z" fill="url(#areaFill)"/>

  <!-- Line -->
  <path d="M 70.00,277.55 L 78.04,276.48 L 86.09,276.35 L 94.13,276.32 L 102.17,276.19 L 110.22,276.12 L 118.26,275.99 L 126.30,275.68 L 134.35,275.03 L 142.39,274.68 L 150.43,273.50 L 158.48,272.68 L 166.52,270.25 L 174.57,269.27 L 182.61,268.68 L 190.65,268.09 L 198.70,267.94 L 206.74,267.59 L 214.78,267.03 L 222.83,266.11 L 230.87,265.79 L 238.91,265.31 L 246.96,264.84 L 255.00,264.68 L 263.04,264.50 L 271.09,263.90 L 279.13,263.53 L 287.17,263.00 L 295.22,262.62 L 303.26,262.39 L 311.30,262.13 L 319.35,261.78 L 327.39,261.38 L 335.43,260.88 L 343.48,260.38 L 351.52,259.91 L 359.57,259.46 L 367.61,259.30 L 375.65,258.68 L 383.70,257.79 L 391.74,256.75 L 399.78,255.44 L 407.83,252.80 L 415.87,251.03 L 423.91,250.09 L 431.96,249.29 L 440.00,247.10 L 448.04,245.24 L 456.09,243.53 L 464.13,241.59 L 472.17,240.05 L 480.22,239.15 L 488.26,237.85 L 496.30,236.53 L 504.35,234.24 L 512.39,232.42 L 520.43,230.21 L 528.48,228.72 L 536.52,227.70 L 544.57,226.90 L 552.61,226.13 L 560.65,224.51 L 568.70,222.79 L 576.74,221.21 L 584.78,220.03 L 592.83,219.45 L 600.87,218.76 L 608.91,217.41 L 616.96,216.31 L 625.00,214.88 L 633.04,213.65 L 641.09,212.43 L 649.13,211.24 L 657.17,210.76 L 665.22,209.87 L 673.26,208.48 L 681.30,206.68 L 689.35,205.31 L 697.39,204.29 L 705.43,203.29 L 713.48,201.89 L 721.52,200.38 L 729.57,198.80 L 737.61,195.99 L 745.65,195.06 L 753.70,194.50 L 761.74,193.74 L 769.78,192.10 L 777.83,190.78 L 785.87,189.57 L 793.91,188.45 L 801.96,187.28 L 810.00,186.98" fill="none" stroke="#58a6ff" stroke-width="2.5" stroke-linejoin="round" stroke-linecap="round"/>

  <!-- Data points -->
  <circle cx="70.00" cy="277.55" r="2.5" fill="#58a6ff"/><circle cx="78.04" cy="276.48" r="2.5" fill="#58a6ff"/><circle cx="86.09" cy="276.35" r="2.5" fill="#58a6ff"/><circle cx="94.13" cy="276.32" r="2.5" fill="#58a6ff"/><circle cx="102.17" cy="276.19" r="2.5" fill="#58a6ff"/><circle cx="110.22" cy="276.12" r="2.5" fill="#58a6ff"/><circle cx="118.26" cy="275.99" r="2.5" fill="#58a6ff"/><circle cx="126.30" cy="275.68" r="2.5" fill="#58a6ff"/><circle cx="134.35" cy="275.03" r="2.5" fill="#58a6ff"/><circle cx="142.39" cy="274.68" r="2.5" fill="#58a6ff"/><circle cx="150.43" cy="273.50" r="2.5" fill="#58a6ff"/><circle cx="158.48" cy="272.68" r="2.5" fill="#58a6ff"/><circle cx="166.52" cy="270.25" r="2.5" fill="#58a6ff"/><circle cx="174.57" cy="269.27" r="2.5" fill="#58a6ff"/><circle cx="182.61" cy="268.68" r="2.5" fill="#58a6ff"/><circle cx="190.65" cy="268.09" r="2.5" fill="#58a6ff"/><circle cx="198.70" cy="267.94" r="2.5" fill="#58a6ff"/><circle cx="206.74" cy="267.59" r="2.5" fill="#58a6ff"/><circle cx="214.78" cy="267.03" r="2.5" fill="#58a6ff"/><circle cx="222.83" cy="266.11" r="2.5" fill="#58a6ff"/><circle cx="230.87" cy="265.79" r="2.5" fill="#58a6ff"/><circle cx="238.91" cy="265.31" r="2.5" fill="#58a6ff"/><circle cx="246.96" cy="264.84" r="2.5" fill="#58a6ff"/><circle cx="255.00" cy="264.68" r="2.5" fill="#58a6ff"/><circle cx="263.04" cy="264.50" r="2.5" fill="#58a6ff"/><circle cx="271.09" cy="263.90" r="2.5" fill="#58a6ff"/><circle cx="279.13" cy="263.53" r="2.5" fill="#58a6ff"/><circle cx="287.17" cy="263.00" r="2.5" fill="#58a6ff"/><circle cx="295.22" cy="262.62" r="2.5" fill="#58a6ff"/><circle cx="303.26" cy="262.39" r="2.5" fill="#58a6ff"/><circle cx="311.30" cy="262.13" r="2.5" fill="#58a6ff"/><circle cx="319.35" cy="261.78" r="2.5" fill="#58a6ff"/><circle cx="327.39" cy="261.38" r="2.5" fill="#58a6ff"/><circle cx="335.43" cy="260.88" r="2.5" fill="#58a6ff"/><circle cx="343.48" cy="260.38" r="2.5" fill="#58a6ff"/><circle cx="351.52" cy="259.91" r="2.5" fill="#58a6ff"/><circle cx="359.57" cy="259.46" r="2.5" fill="#58a6ff"/><circle cx="367.61" cy="259.30" r="2.5" fill="#58a6ff"/><circle cx="375.65" cy="258.68" r="2.5" fill="#58a6ff"/><circle cx="383.70" cy="257.79" r="2.5" fill="#58a6ff"/><circle cx="391.74" cy="256.75" r="2.5" fill="#58a6ff"/><circle cx="399.78" cy="255.44" r="2.5" fill="#58a6ff"/><circle cx="407.83" cy="252.80" r="2.5" fill="#58a6ff"/><circle cx="415.87" cy="251.03" r="2.5" fill="#58a6ff"/><circle cx="423.91" cy="250.09" r="2.5" fill="#58a6ff"/><circle cx="431.96" cy="249.29" r="2.5" fill="#58a6ff"/><circle cx="440.00" cy="247.10" r="2.5" fill="#58a6ff"/><circle cx="448.04" cy="245.24" r="2.5" fill="#58a6ff"/><circle cx="456.09" cy="243.53" r="2.5" fill="#58a6ff"/><circle cx="464.13" cy="241.59" r="2.5" fill="#58a6ff"/><circle cx="472.17" cy="240.05" r="2.5" fill="#58a6ff"/><circle cx="480.22" cy="239.15" r="2.5" fill="#58a6ff"/><circle cx="488.26" cy="237.85" r="2.5" fill="#58a6ff"/><circle cx="496.30" cy="236.53" r="2.5" fill="#58a6ff"/><circle cx="504.35" cy="234.24" r="2.5" fill="#58a6ff"/><circle cx="512.39" cy="232.42" r="2.5" fill="#58a6ff"/><circle cx="520.43" cy="230.21" r="2.5" fill="#58a6ff"/><circle cx="528.48" cy="228.72" r="2.5" fill="#58a6ff"/><circle cx="536.52" cy="227.70" r="2.5" fill="#58a6ff"/><circle cx="544.57" cy="226.90" r="2.5" fill="#58a6ff"/><circle cx="552.61" cy="226.13" r="2.5" fill="#58a6ff"/><circle cx="560.65" cy="224.51" r="2.5" fill="#58a6ff"/><circle cx="568.70" cy="222.79" r="2.5" fill="#58a6ff"/><circle cx="576.74" cy="221.21" r="2.5" fill="#58a6ff"/><circle cx="584.78" cy="220.03" r="2.5" fill="#58a6ff"/><circle cx="592.83" cy="219.45" r="2.5" fill="#58a6ff"/><circle cx="600.87" cy="218.76" r="2.5" fill="#58a6ff"/><circle cx="608.91" cy="217.41" r="2.5" fill="#58a6ff"/><circle cx="616.96" cy="216.31" r="2.5" fill="#58a6ff"/><circle cx="625.00" cy="214.88" r="2.5" fill="#58a6ff"/><circle cx="633.04" cy="213.65" r="2.5" fill="#58a6ff"/><circle cx="641.09" cy="212.43" r="2.5" fill="#58a6ff"/><circle cx="649.13" cy="211.24" r="2.5" fill="#58a6ff"/><circle cx="657.17" cy="210.76" r="2.5" fill="#58a6ff"/><circle cx="665.22" cy="209.87" r="2.5" fill="#58a6ff"/><circle cx="673.26" cy="208.48" r="2.5" fill="#58a6ff"/><circle cx="681.30" cy="206.68" r="2.5" fill="#58a6ff"/><circle cx="689.35" cy="205.31" r="2.5" fill="#58a6ff"/><circle cx="697.39" cy="204.29" r="2.5" fill="#58a6ff"/><circle cx="705.43" cy="203.29" r="2.5" fill="#58a6ff"/><circle cx="713.48" cy="201.89" r="2.5" fill="#58a6ff"/><circle cx="721.52" cy="200.38" r="2.5" fill="#58a6ff"/><circle cx="729.57" cy="198.80" r="2.5" fill="#58a6ff"/><circle cx="737.61" cy="195.99" r="2.5" fill="#58a6ff"/><circle cx="745.65" cy="195.06" r="2.5" fill="#58a6ff"/><circle cx="753.70" cy="194.50" r="2.5" fill="#58a6ff"/><circle cx="761.74" cy="193.74" r="2.5" fill="#58a6ff"/><circle cx="769.78" cy="192.10" r="2.5" fill="#58a6ff"/><circle cx="777.83" cy="190.78" r="2.5" fill="#58a6ff"/><circle cx="785.87" cy="189.57" r="2.5" fill="#58a6ff"/><circle cx="793.91" cy="188.45" r="2.5" fill="#58a6ff"/><circle cx="801.96" cy="187.28" r="2.5" fill="#58a6ff"/><circle cx="810.00" cy="186.98" r="4" fill="#F2C811"/>

  <!-- Last-value callout -->
  <rect x="720.0" y="159.0" width="82" height="24" rx="4" fill="#0d1a2a" stroke="#F2C811" stroke-width="1"/>
  <text x="761.0" y="175.0" font-family="'Segoe UI', Arial, sans-serif" font-size="12" fill="#F2C811" text-anchor="middle" font-weight="bold">23,024 total</text>

  <!-- X-axis labels -->
  <text x="70.0" y="298" font-family="'Segoe UI', Arial, sans-serif" font-size="10" fill="#8b949e" text-anchor="middle">Mar 26</text><text x="255.0" y="298" font-family="'Segoe UI', Arial, sans-serif" font-size="10" fill="#8b949e" text-anchor="middle">Apr 18</text><text x="440.0" y="298" font-family="'Segoe UI', Arial, sans-serif" font-size="10" fill="#8b949e" text-anchor="middle">May 11</text><text x="625.0" y="298" font-family="'Segoe UI', Arial, sans-serif" font-size="10" fill="#8b949e" text-anchor="middle">Jun 03</text><text x="810.0" y="298" font-family="'Segoe UI', Arial, sans-serif" font-size="10" fill="#8b949e" text-anchor="middle">Jun 27</text>

  <!-- Footer: date range -->
  <text x="70" y="328" font-family="'Segoe UI', Arial, sans-serif" font-size="10" fill="#8b949e">Mar 26, 2026 → Jun 27, 2026</text>
  <text x="810" y="328" font-family="'Segoe UI', Arial, sans-serif" font-size="10" fill="#8b949e" text-anchor="end">93 days of data</text>
</svg>
