<svg xmlns="http://www.w3.org/2000/svg" width="850" height="340" viewBox="0 0 850 340">
  <defs>
    <linearGradient id="areaFill" x1="0" y1="0" x2="0" y2="1">
      <stop offset="0%" stop-color="#58a6ff" stop-opacity="0.45"/>
      <stop offset="100%" stop-color="#58a6ff" stop-opacity="0"/>
    </linearGradient>
  </defs>

  <!-- Background -->
  <rect width="100%" height="100%" fill="#0d1117" rx="8"/>

  <!-- Title -->
  <text x="425" y="33" font-family="'Segoe UI', Arial, sans-serif" font-size="17" fill="#F2C811" text-anchor="middle" font-weight="bold">pbi-cli Downloads Over Time</text>
  <text x="425" y="52" font-family="'Segoe UI', Arial, sans-serif" font-size="11" fill="#8b949e" text-anchor="middle">Cumulative installs from PyPI • mirrors excluded • source: pypistats.org</text>

  <!-- Gridlines & y-labels -->
  <line x1="70" y1="280.0" x2="810" y2="280.0" stroke="#21262d" stroke-width="1" stroke-dasharray="2,3"/><line x1="70" y1="239.6" x2="810" y2="239.6" stroke="#21262d" stroke-width="1" stroke-dasharray="2,3"/><line x1="70" y1="199.2" x2="810" y2="199.2" stroke="#21262d" stroke-width="1" stroke-dasharray="2,3"/><line x1="70" y1="158.8" x2="810" y2="158.8" stroke="#21262d" stroke-width="1" stroke-dasharray="2,3"/><line x1="70" y1="118.4" x2="810" y2="118.4" stroke="#21262d" stroke-width="1" stroke-dasharray="2,3"/><line x1="70" y1="78.0" x2="810" y2="78.0" stroke="#21262d" stroke-width="1" stroke-dasharray="2,3"/>
  <text x="62" y="284.0" font-family="'Segoe UI', Arial, sans-serif" font-size="10" fill="#8b949e" text-anchor="end">0</text><text x="62" y="243.6" font-family="'Segoe UI', Arial, sans-serif" font-size="10" fill="#8b949e" text-anchor="end">5,000</text><text x="62" y="203.2" font-family="'Segoe UI', Arial, sans-serif" font-size="10" fill="#8b949e" text-anchor="end">10,000</text><text x="62" y="162.8" font-family="'Segoe UI', Arial, sans-serif" font-size="10" fill="#8b949e" text-anchor="end">15,000</text><text x="62" y="122.4" font-family="'Segoe UI', Arial, sans-serif" font-size="10" fill="#8b949e" text-anchor="end">20,000</text><text x="62" y="82.0" font-family="'Segoe UI', Arial, sans-serif" font-size="10" fill="#8b949e" text-anchor="end">25,000</text>

  <!-- Area fill -->
  <path d="M 70.00,280 L 70.00,275.10 L 79.61,272.95 L 89.22,272.70 L 98.83,272.65 L 108.44,272.38 L 118.05,272.24 L 127.66,271.98 L 137.27,271.36 L 146.88,270.07 L 156.49,269.35 L 166.10,267.01 L 175.71,265.37 L 185.32,260.50 L 194.94,258.53 L 204.55,257.35 L 214.16,256.19 L 223.77,255.89 L 233.38,255.18 L 242.99,254.06 L 252.60,252.23 L 262.21,251.57 L 271.82,250.62 L 281.43,249.68 L 291.04,249.36 L 300.65,249.01 L 310.26,247.81 L 319.87,247.06 L 329.48,246.00 L 339.09,245.24 L 348.70,244.79 L 358.31,244.25 L 367.92,243.55 L 377.53,242.75 L 387.14,241.76 L 396.75,240.76 L 406.36,239.81 L 415.97,238.92 L 425.58,238.61 L 435.19,237.35 L 444.81,235.58 L 454.42,233.50 L 464.03,230.88 L 473.64,225.61 L 483.25,222.07 L 492.86,220.18 L 502.47,218.58 L 512.08,214.20 L 521.69,210.49 L 531.30,207.05 L 540.91,203.18 L 550.52,200.10 L 560.13,198.30 L 569.74,195.70 L 579.35,193.07 L 588.96,188.48 L 598.57,184.83 L 608.18,180.41 L 617.79,177.43 L 627.40,175.40 L 637.01,173.80 L 646.62,172.25 L 656.23,169.02 L 665.84,165.59 L 675.45,162.41 L 685.06,160.05 L 694.68,158.90 L 704.29,157.52 L 713.90,154.82 L 723.51,152.63 L 733.12,149.75 L 742.73,147.30 L 752.34,144.85 L 761.95,142.47 L 771.56,141.52 L 781.17,139.75 L 790.78,136.95 L 800.39,133.36 L 810.00,130.63 L 810.00,280 Z" fill="url(#areaFill)"/>

  <!-- Line -->
  <path d="M 70.00,275.10 L 79.61,272.95 L 89.22,272.70 L 98.83,272.65 L 108.44,272.38 L 118.05,272.24 L 127.66,271.98 L 137.27,271.36 L 146.88,270.07 L 156.49,269.35 L 166.10,267.01 L 175.71,265.37 L 185.32,260.50 L 194.94,258.53 L 204.55,257.35 L 214.16,256.19 L 223.77,255.89 L 233.38,255.18 L 242.99,254.06 L 252.60,252.23 L 262.21,251.57 L 271.82,250.62 L 281.43,249.68 L 291.04,249.36 L 300.65,249.01 L 310.26,247.81 L 319.87,247.06 L 329.48,246.00 L 339.09,245.24 L 348.70,244.79 L 358.31,244.25 L 367.92,243.55 L 377.53,242.75 L 387.14,241.76 L 396.75,240.76 L 406.36,239.81 L 415.97,238.92 L 425.58,238.61 L 435.19,237.35 L 444.81,235.58 L 454.42,233.50 L 464.03,230.88 L 473.64,225.61 L 483.25,222.07 L 492.86,220.18 L 502.47,218.58 L 512.08,214.20 L 521.69,210.49 L 531.30,207.05 L 540.91,203.18 L 550.52,200.10 L 560.13,198.30 L 569.74,195.70 L 579.35,193.07 L 588.96,188.48 L 598.57,184.83 L 608.18,180.41 L 617.79,177.43 L 627.40,175.40 L 637.01,173.80 L 646.62,172.25 L 656.23,169.02 L 665.84,165.59 L 675.45,162.41 L 685.06,160.05 L 694.68,158.90 L 704.29,157.52 L 713.90,154.82 L 723.51,152.63 L 733.12,149.75 L 742.73,147.30 L 752.34,144.85 L 761.95,142.47 L 771.56,141.52 L 781.17,139.75 L 790.78,136.95 L 800.39,133.36 L 810.00,130.63" fill="none" stroke="#58a6ff" stroke-width="2.5" stroke-linejoin="round" stroke-linecap="round"/>

  <!-- Data points -->
  <circle cx="70.00" cy="275.10" r="2.5" fill="#58a6ff"/><circle cx="79.61" cy="272.95" r="2.5" fill="#58a6ff"/><circle cx="89.22" cy="272.70" r="2.5" fill="#58a6ff"/><circle cx="98.83" cy="272.65" r="2.5" fill="#58a6ff"/><circle cx="108.44" cy="272.38" r="2.5" fill="#58a6ff"/><circle cx="118.05" cy="272.24" r="2.5" fill="#58a6ff"/><circle cx="127.66" cy="271.98" r="2.5" fill="#58a6ff"/><circle cx="137.27" cy="271.36" r="2.5" fill="#58a6ff"/><circle cx="146.88" cy="270.07" r="2.5" fill="#58a6ff"/><circle cx="156.49" cy="269.35" r="2.5" fill="#58a6ff"/><circle cx="166.10" cy="267.01" r="2.5" fill="#58a6ff"/><circle cx="175.71" cy="265.37" r="2.5" fill="#58a6ff"/><circle cx="185.32" cy="260.50" r="2.5" fill="#58a6ff"/><circle cx="194.94" cy="258.53" r="2.5" fill="#58a6ff"/><circle cx="204.55" cy="257.35" r="2.5" fill="#58a6ff"/><circle cx="214.16" cy="256.19" r="2.5" fill="#58a6ff"/><circle cx="223.77" cy="255.89" r="2.5" fill="#58a6ff"/><circle cx="233.38" cy="255.18" r="2.5" fill="#58a6ff"/><circle cx="242.99" cy="254.06" r="2.5" fill="#58a6ff"/><circle cx="252.60" cy="252.23" r="2.5" fill="#58a6ff"/><circle cx="262.21" cy="251.57" r="2.5" fill="#58a6ff"/><circle cx="271.82" cy="250.62" r="2.5" fill="#58a6ff"/><circle cx="281.43" cy="249.68" r="2.5" fill="#58a6ff"/><circle cx="291.04" cy="249.36" r="2.5" fill="#58a6ff"/><circle cx="300.65" cy="249.01" r="2.5" fill="#58a6ff"/><circle cx="310.26" cy="247.81" r="2.5" fill="#58a6ff"/><circle cx="319.87" cy="247.06" r="2.5" fill="#58a6ff"/><circle cx="329.48" cy="246.00" r="2.5" fill="#58a6ff"/><circle cx="339.09" cy="245.24" r="2.5" fill="#58a6ff"/><circle cx="348.70" cy="244.79" r="2.5" fill="#58a6ff"/><circle cx="358.31" cy="244.25" r="2.5" fill="#58a6ff"/><circle cx="367.92" cy="243.55" r="2.5" fill="#58a6ff"/><circle cx="377.53" cy="242.75" r="2.5" fill="#58a6ff"/><circle cx="387.14" cy="241.76" r="2.5" fill="#58a6ff"/><circle cx="396.75" cy="240.76" r="2.5" fill="#58a6ff"/><circle cx="406.36" cy="239.81" r="2.5" fill="#58a6ff"/><circle cx="415.97" cy="238.92" r="2.5" fill="#58a6ff"/><circle cx="425.58" cy="238.61" r="2.5" fill="#58a6ff"/><circle cx="435.19" cy="237.35" r="2.5" fill="#58a6ff"/><circle cx="444.81" cy="235.58" r="2.5" fill="#58a6ff"/><circle cx="454.42" cy="233.50" r="2.5" fill="#58a6ff"/><circle cx="464.03" cy="230.88" r="2.5" fill="#58a6ff"/><circle cx="473.64" cy="225.61" r="2.5" fill="#58a6ff"/><circle cx="483.25" cy="222.07" r="2.5" fill="#58a6ff"/><circle cx="492.86" cy="220.18" r="2.5" fill="#58a6ff"/><circle cx="502.47" cy="218.58" r="2.5" fill="#58a6ff"/><circle cx="512.08" cy="214.20" r="2.5" fill="#58a6ff"/><circle cx="521.69" cy="210.49" r="2.5" fill="#58a6ff"/><circle cx="531.30" cy="207.05" r="2.5" fill="#58a6ff"/><circle cx="540.91" cy="203.18" r="2.5" fill="#58a6ff"/><circle cx="550.52" cy="200.10" r="2.5" fill="#58a6ff"/><circle cx="560.13" cy="198.30" r="2.5" fill="#58a6ff"/><circle cx="569.74" cy="195.70" r="2.5" fill="#58a6ff"/><circle cx="579.35" cy="193.07" r="2.5" fill="#58a6ff"/><circle cx="588.96" cy="188.48" r="2.5" fill="#58a6ff"/><circle cx="598.57" cy="184.83" r="2.5" fill="#58a6ff"/><circle cx="608.18" cy="180.41" r="2.5" fill="#58a6ff"/><circle cx="617.79" cy="177.43" r="2.5" fill="#58a6ff"/><circle cx="627.40" cy="175.40" r="2.5" fill="#58a6ff"/><circle cx="637.01" cy="173.80" r="2.5" fill="#58a6ff"/><circle cx="646.62" cy="172.25" r="2.5" fill="#58a6ff"/><circle cx="656.23" cy="169.02" r="2.5" fill="#58a6ff"/><circle cx="665.84" cy="165.59" r="2.5" fill="#58a6ff"/><circle cx="675.45" cy="162.41" r="2.5" fill="#58a6ff"/><circle cx="685.06" cy="160.05" r="2.5" fill="#58a6ff"/><circle cx="694.68" cy="158.90" r="2.5" fill="#58a6ff"/><circle cx="704.29" cy="157.52" r="2.5" fill="#58a6ff"/><circle cx="713.90" cy="154.82" r="2.5" fill="#58a6ff"/><circle cx="723.51" cy="152.63" r="2.5" fill="#58a6ff"/><circle cx="733.12" cy="149.75" r="2.5" fill="#58a6ff"/><circle cx="742.73" cy="147.30" r="2.5" fill="#58a6ff"/><circle cx="752.34" cy="144.85" r="2.5" fill="#58a6ff"/><circle cx="761.95" cy="142.47" r="2.5" fill="#58a6ff"/><circle cx="771.56" cy="141.52" r="2.5" fill="#58a6ff"/><circle cx="781.17" cy="139.75" r="2.5" fill="#58a6ff"/><circle cx="790.78" cy="136.95" r="2.5" fill="#58a6ff"/><circle cx="800.39" cy="133.36" r="2.5" fill="#58a6ff"/><circle cx="810.00" cy="130.63" r="4" fill="#F2C811"/>

  <!-- Last-value callout -->
  <rect x="720.0" y="102.6" width="82" height="24" rx="4" fill="#0d1a2a" stroke="#F2C811" stroke-width="1"/>
  <text x="761.0" y="118.6" font-family="'Segoe UI', Arial, sans-serif" font-size="12" fill="#F2C811" text-anchor="middle" font-weight="bold">18,487 total</text>

  <!-- X-axis labels -->
  <text x="70.0" y="298" font-family="'Segoe UI', Arial, sans-serif" font-size="10" fill="#8b949e" text-anchor="middle">Mar 26</text><text x="252.6" y="298" font-family="'Segoe UI', Arial, sans-serif" font-size="10" fill="#8b949e" text-anchor="middle">Apr 14</text><text x="444.8" y="298" font-family="'Segoe UI', Arial, sans-serif" font-size="10" fill="#8b949e" text-anchor="middle">May 04</text><text x="627.4" y="298" font-family="'Segoe UI', Arial, sans-serif" font-size="10" fill="#8b949e" text-anchor="middle">May 23</text><text x="810.0" y="298" font-family="'Segoe UI', Arial, sans-serif" font-size="10" fill="#8b949e" text-anchor="middle">Jun 12</text>

  <!-- Footer: date range -->
  <text x="70" y="328" font-family="'Segoe UI', Arial, sans-serif" font-size="10" fill="#8b949e">Mar 26, 2026 → Jun 12, 2026</text>
  <text x="810" y="328" font-family="'Segoe UI', Arial, sans-serif" font-size="10" fill="#8b949e" text-anchor="end">78 days of data</text>
</svg>
