<svg xmlns="http://www.w3.org/2000/svg" width="850" height="340" viewBox="0 0 850 340">
  <defs>
    <linearGradient id="areaFill" x1="0" y1="0" x2="0" y2="1">
      <stop offset="0%" stop-color="#58a6ff" stop-opacity="0.45"/>
      <stop offset="100%" stop-color="#58a6ff" stop-opacity="0"/>
    </linearGradient>
  </defs>

  <!-- Background -->
  <rect width="100%" height="100%" fill="#0d1117" rx="8"/>

  <!-- Title -->
  <text x="425" y="33" font-family="'Segoe UI', Arial, sans-serif" font-size="17" fill="#F2C811" text-anchor="middle" font-weight="bold">pbi-cli Downloads Over Time</text>
  <text x="425" y="52" font-family="'Segoe UI', Arial, sans-serif" font-size="11" fill="#8b949e" text-anchor="middle">Cumulative installs from PyPI • mirrors excluded • source: pypistats.org</text>

  <!-- Gridlines & y-labels -->
  <line x1="70" y1="280.0" x2="810" y2="280.0" stroke="#21262d" stroke-width="1" stroke-dasharray="2,3"/><line x1="70" y1="239.6" x2="810" y2="239.6" stroke="#21262d" stroke-width="1" stroke-dasharray="2,3"/><line x1="70" y1="199.2" x2="810" y2="199.2" stroke="#21262d" stroke-width="1" stroke-dasharray="2,3"/><line x1="70" y1="158.8" x2="810" y2="158.8" stroke="#21262d" stroke-width="1" stroke-dasharray="2,3"/><line x1="70" y1="118.4" x2="810" y2="118.4" stroke="#21262d" stroke-width="1" stroke-dasharray="2,3"/><line x1="70" y1="78.0" x2="810" y2="78.0" stroke="#21262d" stroke-width="1" stroke-dasharray="2,3"/>
  <text x="62" y="284.0" font-family="'Segoe UI', Arial, sans-serif" font-size="10" fill="#8b949e" text-anchor="end">0</text><text x="62" y="243.6" font-family="'Segoe UI', Arial, sans-serif" font-size="10" fill="#8b949e" text-anchor="end">5,000</text><text x="62" y="203.2" font-family="'Segoe UI', Arial, sans-serif" font-size="10" fill="#8b949e" text-anchor="end">10,000</text><text x="62" y="162.8" font-family="'Segoe UI', Arial, sans-serif" font-size="10" fill="#8b949e" text-anchor="end">15,000</text><text x="62" y="122.4" font-family="'Segoe UI', Arial, sans-serif" font-size="10" fill="#8b949e" text-anchor="end">20,000</text><text x="62" y="82.0" font-family="'Segoe UI', Arial, sans-serif" font-size="10" fill="#8b949e" text-anchor="end">25,000</text>

  <!-- Area fill -->
  <path d="M 70.00,280 L 70.00,275.10 L 79.37,272.95 L 88.73,272.70 L 98.10,272.65 L 107.47,272.38 L 116.84,272.24 L 126.20,271.98 L 135.57,271.36 L 144.94,270.07 L 154.30,269.35 L 163.67,267.01 L 173.04,265.37 L 182.41,260.50 L 191.77,258.53 L 201.14,257.35 L 210.51,256.19 L 219.87,255.89 L 229.24,255.18 L 238.61,254.06 L 247.97,252.23 L 257.34,251.57 L 266.71,250.62 L 276.08,249.68 L 285.44,249.36 L 294.81,249.01 L 304.18,247.81 L 313.54,247.06 L 322.91,246.00 L 332.28,245.24 L 341.65,244.79 L 351.01,244.25 L 360.38,243.55 L 369.75,242.75 L 379.11,241.76 L 388.48,240.76 L 397.85,239.81 L 407.22,238.92 L 416.58,238.61 L 425.95,237.35 L 435.32,235.58 L 444.68,233.50 L 454.05,230.88 L 463.42,225.61 L 472.78,222.07 L 482.15,220.18 L 491.52,218.58 L 500.89,214.20 L 510.25,210.49 L 519.62,207.05 L 528.99,203.18 L 538.35,200.10 L 547.72,198.30 L 557.09,195.70 L 566.46,193.07 L 575.82,188.48 L 585.19,184.83 L 594.56,180.41 L 603.92,177.43 L 613.29,175.40 L 622.66,173.80 L 632.03,172.25 L 641.39,169.02 L 650.76,165.59 L 660.13,162.41 L 669.49,160.05 L 678.86,158.90 L 688.23,157.52 L 697.59,154.82 L 706.96,152.63 L 716.33,149.75 L 725.70,147.30 L 735.06,144.85 L 744.43,142.47 L 753.80,141.52 L 763.16,139.75 L 772.53,136.95 L 781.90,133.36 L 791.27,130.63 L 800.63,128.57 L 810.00,126.58 L 810.00,280 Z" fill="url(#areaFill)"/>

  <!-- Line -->
  <path d="M 70.00,275.10 L 79.37,272.95 L 88.73,272.70 L 98.10,272.65 L 107.47,272.38 L 116.84,272.24 L 126.20,271.98 L 135.57,271.36 L 144.94,270.07 L 154.30,269.35 L 163.67,267.01 L 173.04,265.37 L 182.41,260.50 L 191.77,258.53 L 201.14,257.35 L 210.51,256.19 L 219.87,255.89 L 229.24,255.18 L 238.61,254.06 L 247.97,252.23 L 257.34,251.57 L 266.71,250.62 L 276.08,249.68 L 285.44,249.36 L 294.81,249.01 L 304.18,247.81 L 313.54,247.06 L 322.91,246.00 L 332.28,245.24 L 341.65,244.79 L 351.01,244.25 L 360.38,243.55 L 369.75,242.75 L 379.11,241.76 L 388.48,240.76 L 397.85,239.81 L 407.22,238.92 L 416.58,238.61 L 425.95,237.35 L 435.32,235.58 L 444.68,233.50 L 454.05,230.88 L 463.42,225.61 L 472.78,222.07 L 482.15,220.18 L 491.52,218.58 L 500.89,214.20 L 510.25,210.49 L 519.62,207.05 L 528.99,203.18 L 538.35,200.10 L 547.72,198.30 L 557.09,195.70 L 566.46,193.07 L 575.82,188.48 L 585.19,184.83 L 594.56,180.41 L 603.92,177.43 L 613.29,175.40 L 622.66,173.80 L 632.03,172.25 L 641.39,169.02 L 650.76,165.59 L 660.13,162.41 L 669.49,160.05 L 678.86,158.90 L 688.23,157.52 L 697.59,154.82 L 706.96,152.63 L 716.33,149.75 L 725.70,147.30 L 735.06,144.85 L 744.43,142.47 L 753.80,141.52 L 763.16,139.75 L 772.53,136.95 L 781.90,133.36 L 791.27,130.63 L 800.63,128.57 L 810.00,126.58" fill="none" stroke="#58a6ff" stroke-width="2.5" stroke-linejoin="round" stroke-linecap="round"/>

  <!-- Data points -->
  <circle cx="70.00" cy="275.10" r="2.5" fill="#58a6ff"/><circle cx="79.37" cy="272.95" r="2.5" fill="#58a6ff"/><circle cx="88.73" cy="272.70" r="2.5" fill="#58a6ff"/><circle cx="98.10" cy="272.65" r="2.5" fill="#58a6ff"/><circle cx="107.47" cy="272.38" r="2.5" fill="#58a6ff"/><circle cx="116.84" cy="272.24" r="2.5" fill="#58a6ff"/><circle cx="126.20" cy="271.98" r="2.5" fill="#58a6ff"/><circle cx="135.57" cy="271.36" r="2.5" fill="#58a6ff"/><circle cx="144.94" cy="270.07" r="2.5" fill="#58a6ff"/><circle cx="154.30" cy="269.35" r="2.5" fill="#58a6ff"/><circle cx="163.67" cy="267.01" r="2.5" fill="#58a6ff"/><circle cx="173.04" cy="265.37" r="2.5" fill="#58a6ff"/><circle cx="182.41" cy="260.50" r="2.5" fill="#58a6ff"/><circle cx="191.77" cy="258.53" r="2.5" fill="#58a6ff"/><circle cx="201.14" cy="257.35" r="2.5" fill="#58a6ff"/><circle cx="210.51" cy="256.19" r="2.5" fill="#58a6ff"/><circle cx="219.87" cy="255.89" r="2.5" fill="#58a6ff"/><circle cx="229.24" cy="255.18" r="2.5" fill="#58a6ff"/><circle cx="238.61" cy="254.06" r="2.5" fill="#58a6ff"/><circle cx="247.97" cy="252.23" r="2.5" fill="#58a6ff"/><circle cx="257.34" cy="251.57" r="2.5" fill="#58a6ff"/><circle cx="266.71" cy="250.62" r="2.5" fill="#58a6ff"/><circle cx="276.08" cy="249.68" r="2.5" fill="#58a6ff"/><circle cx="285.44" cy="249.36" r="2.5" fill="#58a6ff"/><circle cx="294.81" cy="249.01" r="2.5" fill="#58a6ff"/><circle cx="304.18" cy="247.81" r="2.5" fill="#58a6ff"/><circle cx="313.54" cy="247.06" r="2.5" fill="#58a6ff"/><circle cx="322.91" cy="246.00" r="2.5" fill="#58a6ff"/><circle cx="332.28" cy="245.24" r="2.5" fill="#58a6ff"/><circle cx="341.65" cy="244.79" r="2.5" fill="#58a6ff"/><circle cx="351.01" cy="244.25" r="2.5" fill="#58a6ff"/><circle cx="360.38" cy="243.55" r="2.5" fill="#58a6ff"/><circle cx="369.75" cy="242.75" r="2.5" fill="#58a6ff"/><circle cx="379.11" cy="241.76" r="2.5" fill="#58a6ff"/><circle cx="388.48" cy="240.76" r="2.5" fill="#58a6ff"/><circle cx="397.85" cy="239.81" r="2.5" fill="#58a6ff"/><circle cx="407.22" cy="238.92" r="2.5" fill="#58a6ff"/><circle cx="416.58" cy="238.61" r="2.5" fill="#58a6ff"/><circle cx="425.95" cy="237.35" r="2.5" fill="#58a6ff"/><circle cx="435.32" cy="235.58" r="2.5" fill="#58a6ff"/><circle cx="444.68" cy="233.50" r="2.5" fill="#58a6ff"/><circle cx="454.05" cy="230.88" r="2.5" fill="#58a6ff"/><circle cx="463.42" cy="225.61" r="2.5" fill="#58a6ff"/><circle cx="472.78" cy="222.07" r="2.5" fill="#58a6ff"/><circle cx="482.15" cy="220.18" r="2.5" fill="#58a6ff"/><circle cx="491.52" cy="218.58" r="2.5" fill="#58a6ff"/><circle cx="500.89" cy="214.20" r="2.5" fill="#58a6ff"/><circle cx="510.25" cy="210.49" r="2.5" fill="#58a6ff"/><circle cx="519.62" cy="207.05" r="2.5" fill="#58a6ff"/><circle cx="528.99" cy="203.18" r="2.5" fill="#58a6ff"/><circle cx="538.35" cy="200.10" r="2.5" fill="#58a6ff"/><circle cx="547.72" cy="198.30" r="2.5" fill="#58a6ff"/><circle cx="557.09" cy="195.70" r="2.5" fill="#58a6ff"/><circle cx="566.46" cy="193.07" r="2.5" fill="#58a6ff"/><circle cx="575.82" cy="188.48" r="2.5" fill="#58a6ff"/><circle cx="585.19" cy="184.83" r="2.5" fill="#58a6ff"/><circle cx="594.56" cy="180.41" r="2.5" fill="#58a6ff"/><circle cx="603.92" cy="177.43" r="2.5" fill="#58a6ff"/><circle cx="613.29" cy="175.40" r="2.5" fill="#58a6ff"/><circle cx="622.66" cy="173.80" r="2.5" fill="#58a6ff"/><circle cx="632.03" cy="172.25" r="2.5" fill="#58a6ff"/><circle cx="641.39" cy="169.02" r="2.5" fill="#58a6ff"/><circle cx="650.76" cy="165.59" r="2.5" fill="#58a6ff"/><circle cx="660.13" cy="162.41" r="2.5" fill="#58a6ff"/><circle cx="669.49" cy="160.05" r="2.5" fill="#58a6ff"/><circle cx="678.86" cy="158.90" r="2.5" fill="#58a6ff"/><circle cx="688.23" cy="157.52" r="2.5" fill="#58a6ff"/><circle cx="697.59" cy="154.82" r="2.5" fill="#58a6ff"/><circle cx="706.96" cy="152.63" r="2.5" fill="#58a6ff"/><circle cx="716.33" cy="149.75" r="2.5" fill="#58a6ff"/><circle cx="725.70" cy="147.30" r="2.5" fill="#58a6ff"/><circle cx="735.06" cy="144.85" r="2.5" fill="#58a6ff"/><circle cx="744.43" cy="142.47" r="2.5" fill="#58a6ff"/><circle cx="753.80" cy="141.52" r="2.5" fill="#58a6ff"/><circle cx="763.16" cy="139.75" r="2.5" fill="#58a6ff"/><circle cx="772.53" cy="136.95" r="2.5" fill="#58a6ff"/><circle cx="781.90" cy="133.36" r="2.5" fill="#58a6ff"/><circle cx="791.27" cy="130.63" r="2.5" fill="#58a6ff"/><circle cx="800.63" cy="128.57" r="2.5" fill="#58a6ff"/><circle cx="810.00" cy="126.58" r="4" fill="#F2C811"/>

  <!-- Last-value callout -->
  <rect x="720.0" y="98.6" width="82" height="24" rx="4" fill="#0d1a2a" stroke="#F2C811" stroke-width="1"/>
  <text x="761.0" y="114.6" font-family="'Segoe UI', Arial, sans-serif" font-size="12" fill="#F2C811" text-anchor="middle" font-weight="bold">18,988 total</text>

  <!-- X-axis labels -->
  <text x="70.0" y="298" font-family="'Segoe UI', Arial, sans-serif" font-size="10" fill="#8b949e" text-anchor="middle">Mar 26</text><text x="257.3" y="298" font-family="'Segoe UI', Arial, sans-serif" font-size="10" fill="#8b949e" text-anchor="middle">Apr 15</text><text x="444.7" y="298" font-family="'Segoe UI', Arial, sans-serif" font-size="10" fill="#8b949e" text-anchor="middle">May 05</text><text x="632.0" y="298" font-family="'Segoe UI', Arial, sans-serif" font-size="10" fill="#8b949e" text-anchor="middle">May 25</text><text x="810.0" y="298" font-family="'Segoe UI', Arial, sans-serif" font-size="10" fill="#8b949e" text-anchor="middle">Jun 14</text>

  <!-- Footer: date range -->
  <text x="70" y="328" font-family="'Segoe UI', Arial, sans-serif" font-size="10" fill="#8b949e">Mar 26, 2026 → Jun 14, 2026</text>
  <text x="810" y="328" font-family="'Segoe UI', Arial, sans-serif" font-size="10" fill="#8b949e" text-anchor="end">80 days of data</text>
</svg>
