<svg xmlns="http://www.w3.org/2000/svg" width="850" height="340" viewBox="0 0 850 340">
  <defs>
    <linearGradient id="areaFill" x1="0" y1="0" x2="0" y2="1">
      <stop offset="0%" stop-color="#58a6ff" stop-opacity="0.45"/>
      <stop offset="100%" stop-color="#58a6ff" stop-opacity="0"/>
    </linearGradient>
  </defs>

  <!-- Background -->
  <rect width="100%" height="100%" fill="#0d1117" rx="8"/>

  <!-- Title -->
  <text x="425" y="33" font-family="'Segoe UI', Arial, sans-serif" font-size="17" fill="#F2C811" text-anchor="middle" font-weight="bold">pbi-cli Downloads Over Time</text>
  <text x="425" y="52" font-family="'Segoe UI', Arial, sans-serif" font-size="11" fill="#8b949e" text-anchor="middle">Cumulative installs from PyPI • mirrors excluded • source: pypistats.org</text>

  <!-- Gridlines & y-labels -->
  <line x1="70" y1="280.0" x2="810" y2="280.0" stroke="#21262d" stroke-width="1" stroke-dasharray="2,3"/><line x1="70" y1="239.6" x2="810" y2="239.6" stroke="#21262d" stroke-width="1" stroke-dasharray="2,3"/><line x1="70" y1="199.2" x2="810" y2="199.2" stroke="#21262d" stroke-width="1" stroke-dasharray="2,3"/><line x1="70" y1="158.8" x2="810" y2="158.8" stroke="#21262d" stroke-width="1" stroke-dasharray="2,3"/><line x1="70" y1="118.4" x2="810" y2="118.4" stroke="#21262d" stroke-width="1" stroke-dasharray="2,3"/><line x1="70" y1="78.0" x2="810" y2="78.0" stroke="#21262d" stroke-width="1" stroke-dasharray="2,3"/>
  <text x="62" y="284.0" font-family="'Segoe UI', Arial, sans-serif" font-size="10" fill="#8b949e" text-anchor="end">0</text><text x="62" y="243.6" font-family="'Segoe UI', Arial, sans-serif" font-size="10" fill="#8b949e" text-anchor="end">2,000</text><text x="62" y="203.2" font-family="'Segoe UI', Arial, sans-serif" font-size="10" fill="#8b949e" text-anchor="end">4,000</text><text x="62" y="162.8" font-family="'Segoe UI', Arial, sans-serif" font-size="10" fill="#8b949e" text-anchor="end">6,000</text><text x="62" y="122.4" font-family="'Segoe UI', Arial, sans-serif" font-size="10" fill="#8b949e" text-anchor="end">8,000</text><text x="62" y="82.0" font-family="'Segoe UI', Arial, sans-serif" font-size="10" fill="#8b949e" text-anchor="end">10,000</text>

  <!-- Area fill -->
  <path d="M 70.00,280 L 70.00,267.74 L 85.74,262.39 L 101.49,261.74 L 117.23,261.62 L 132.98,260.95 L 148.72,260.61 L 164.47,259.96 L 180.21,258.41 L 195.96,255.17 L 211.70,253.38 L 227.45,247.52 L 243.19,243.42 L 258.94,231.26 L 274.68,226.33 L 290.43,223.38 L 306.17,220.47 L 321.91,219.72 L 337.66,217.95 L 353.40,215.14 L 369.15,210.57 L 384.89,208.94 L 400.64,206.55 L 416.38,204.19 L 432.13,203.40 L 447.87,202.51 L 463.62,199.52 L 479.36,197.64 L 495.11,195.00 L 510.85,193.10 L 526.60,191.97 L 542.34,190.64 L 558.09,188.88 L 573.83,186.88 L 589.57,184.39 L 605.32,181.89 L 621.06,179.53 L 636.81,177.30 L 652.55,176.52 L 668.30,173.38 L 684.04,168.96 L 699.79,163.75 L 715.53,157.20 L 731.28,144.01 L 747.02,135.17 L 762.77,130.44 L 778.51,126.46 L 794.26,115.51 L 810.00,106.22 L 810.00,280 Z" fill="url(#areaFill)"/>

  <!-- Line -->
  <path d="M 70.00,267.74 L 85.74,262.39 L 101.49,261.74 L 117.23,261.62 L 132.98,260.95 L 148.72,260.61 L 164.47,259.96 L 180.21,258.41 L 195.96,255.17 L 211.70,253.38 L 227.45,247.52 L 243.19,243.42 L 258.94,231.26 L 274.68,226.33 L 290.43,223.38 L 306.17,220.47 L 321.91,219.72 L 337.66,217.95 L 353.40,215.14 L 369.15,210.57 L 384.89,208.94 L 400.64,206.55 L 416.38,204.19 L 432.13,203.40 L 447.87,202.51 L 463.62,199.52 L 479.36,197.64 L 495.11,195.00 L 510.85,193.10 L 526.60,191.97 L 542.34,190.64 L 558.09,188.88 L 573.83,186.88 L 589.57,184.39 L 605.32,181.89 L 621.06,179.53 L 636.81,177.30 L 652.55,176.52 L 668.30,173.38 L 684.04,168.96 L 699.79,163.75 L 715.53,157.20 L 731.28,144.01 L 747.02,135.17 L 762.77,130.44 L 778.51,126.46 L 794.26,115.51 L 810.00,106.22" fill="none" stroke="#58a6ff" stroke-width="2.5" stroke-linejoin="round" stroke-linecap="round"/>

  <!-- Data points -->
  <circle cx="70.00" cy="267.74" r="2.5" fill="#58a6ff"/><circle cx="85.74" cy="262.39" r="2.5" fill="#58a6ff"/><circle cx="101.49" cy="261.74" r="2.5" fill="#58a6ff"/><circle cx="117.23" cy="261.62" r="2.5" fill="#58a6ff"/><circle cx="132.98" cy="260.95" r="2.5" fill="#58a6ff"/><circle cx="148.72" cy="260.61" r="2.5" fill="#58a6ff"/><circle cx="164.47" cy="259.96" r="2.5" fill="#58a6ff"/><circle cx="180.21" cy="258.41" r="2.5" fill="#58a6ff"/><circle cx="195.96" cy="255.17" r="2.5" fill="#58a6ff"/><circle cx="211.70" cy="253.38" r="2.5" fill="#58a6ff"/><circle cx="227.45" cy="247.52" r="2.5" fill="#58a6ff"/><circle cx="243.19" cy="243.42" r="2.5" fill="#58a6ff"/><circle cx="258.94" cy="231.26" r="2.5" fill="#58a6ff"/><circle cx="274.68" cy="226.33" r="2.5" fill="#58a6ff"/><circle cx="290.43" cy="223.38" r="2.5" fill="#58a6ff"/><circle cx="306.17" cy="220.47" r="2.5" fill="#58a6ff"/><circle cx="321.91" cy="219.72" r="2.5" fill="#58a6ff"/><circle cx="337.66" cy="217.95" r="2.5" fill="#58a6ff"/><circle cx="353.40" cy="215.14" r="2.5" fill="#58a6ff"/><circle cx="369.15" cy="210.57" r="2.5" fill="#58a6ff"/><circle cx="384.89" cy="208.94" r="2.5" fill="#58a6ff"/><circle cx="400.64" cy="206.55" r="2.5" fill="#58a6ff"/><circle cx="416.38" cy="204.19" r="2.5" fill="#58a6ff"/><circle cx="432.13" cy="203.40" r="2.5" fill="#58a6ff"/><circle cx="447.87" cy="202.51" r="2.5" fill="#58a6ff"/><circle cx="463.62" cy="199.52" r="2.5" fill="#58a6ff"/><circle cx="479.36" cy="197.64" r="2.5" fill="#58a6ff"/><circle cx="495.11" cy="195.00" r="2.5" fill="#58a6ff"/><circle cx="510.85" cy="193.10" r="2.5" fill="#58a6ff"/><circle cx="526.60" cy="191.97" r="2.5" fill="#58a6ff"/><circle cx="542.34" cy="190.64" r="2.5" fill="#58a6ff"/><circle cx="558.09" cy="188.88" r="2.5" fill="#58a6ff"/><circle cx="573.83" cy="186.88" r="2.5" fill="#58a6ff"/><circle cx="589.57" cy="184.39" r="2.5" fill="#58a6ff"/><circle cx="605.32" cy="181.89" r="2.5" fill="#58a6ff"/><circle cx="621.06" cy="179.53" r="2.5" fill="#58a6ff"/><circle cx="636.81" cy="177.30" r="2.5" fill="#58a6ff"/><circle cx="652.55" cy="176.52" r="2.5" fill="#58a6ff"/><circle cx="668.30" cy="173.38" r="2.5" fill="#58a6ff"/><circle cx="684.04" cy="168.96" r="2.5" fill="#58a6ff"/><circle cx="699.79" cy="163.75" r="2.5" fill="#58a6ff"/><circle cx="715.53" cy="157.20" r="2.5" fill="#58a6ff"/><circle cx="731.28" cy="144.01" r="2.5" fill="#58a6ff"/><circle cx="747.02" cy="135.17" r="2.5" fill="#58a6ff"/><circle cx="762.77" cy="130.44" r="2.5" fill="#58a6ff"/><circle cx="778.51" cy="126.46" r="2.5" fill="#58a6ff"/><circle cx="794.26" cy="115.51" r="2.5" fill="#58a6ff"/><circle cx="810.00" cy="106.22" r="4" fill="#F2C811"/>

  <!-- Last-value callout -->
  <rect x="720.0" y="92.0" width="82" height="24" rx="4" fill="#0d1a2a" stroke="#F2C811" stroke-width="1"/>
  <text x="761.0" y="108.0" font-family="'Segoe UI', Arial, sans-serif" font-size="12" fill="#F2C811" text-anchor="middle" font-weight="bold">8,603 total</text>

  <!-- X-axis labels -->
  <text x="70.0" y="298" font-family="'Segoe UI', Arial, sans-serif" font-size="10" fill="#8b949e" text-anchor="middle">Mar 26</text><text x="258.9" y="298" font-family="'Segoe UI', Arial, sans-serif" font-size="10" fill="#8b949e" text-anchor="middle">Apr 07</text><text x="447.9" y="298" font-family="'Segoe UI', Arial, sans-serif" font-size="10" fill="#8b949e" text-anchor="middle">Apr 19</text><text x="636.8" y="298" font-family="'Segoe UI', Arial, sans-serif" font-size="10" fill="#8b949e" text-anchor="middle">May 01</text><text x="810.0" y="298" font-family="'Segoe UI', Arial, sans-serif" font-size="10" fill="#8b949e" text-anchor="middle">May 12</text>

  <!-- Footer: date range -->
  <text x="70" y="328" font-family="'Segoe UI', Arial, sans-serif" font-size="10" fill="#8b949e">Mar 26, 2026 → May 12, 2026</text>
  <text x="810" y="328" font-family="'Segoe UI', Arial, sans-serif" font-size="10" fill="#8b949e" text-anchor="end">48 days of data</text>
</svg>
